<?xml version="1.0" encoding="UTF-8"?>
<svg id="uuid-f0b35e0d-a18d-4774-bde0-23f500e622ed" data-name="레이어_2" xmlns="http://www.w3.org/2000/svg" viewBox="0 0 544.15 99">
  <g id="uuid-446c21a7-97bf-4673-833a-119247986dd4" data-name="레이어_1">
    <g>
      <g>
        <path d="M5.99,13.58h29.36L5.32,64.23c-1.34,2.26-.38,5.33,2.16,6.8l24.26,14.38H5.99c-3.31,0-5.99-2.66-5.99-5.97V19.56c0-3.29,2.68-5.98,5.99-5.98Z" style="fill: #f9b200;"/>
        <path d="M94.91,27.96l-24.26-14.38h26.05c3.31,0,5.98,2.69,5.98,5.98v59.88c0,3.3-2.67,5.97-5.98,5.97h-29.65l30.02-50.64c1.34-2.27.37-5.31-2.16-6.81Z" style="fill: #ed1b3e;"/>
        <path d="M42.09,2.19c1.34-2.24,4.47-2.87,7-1.38l21.55,12.77h-35.29l6.74-11.39Z" style="fill: #49cdd5;"/>
        <path d="M60.29,96.81c-1.34,2.26-4.48,2.86-7.01,1.37l-21.54-12.77h35.3l-6.75,11.4Z" style="fill: #3abf08;"/>
        <path d="M5.32,64.23L35.35,13.58h35.29l24.26,14.38c2.53,1.5,3.5,4.54,2.16,6.81l-30.02,50.64H31.74l-24.26-14.38c-2.53-1.48-3.5-4.55-2.16-6.8Z" style="fill: #2b2b2b;"/>
      </g>
      <path d="M125.36,61.12c.07,2.94.75,5.41,2,7.42,1.27,2.01,2.94,3.58,5.02,4.76,2.06,1.17,4.36,2.01,6.91,2.49,2.55.45,5.21.71,8,.71,5.54,0,9.98-1.02,13.36-3.06,3.37-2.02,5.06-4.85,5.06-8.48,0-2.93-1.07-5.17-3.19-6.73-2.13-1.55-5.29-2.68-9.49-3.4l-15.45-2.57c-2.48-.38-4.84-.93-7.06-1.62-2.23-.7-4.33-1.7-6.34-3-2.01-1.31-3.65-3.06-4.92-5.26-1.27-2.17-1.91-4.84-1.91-7.96,0-6.28,2.41-11.31,7.21-15.07,4.8-3.75,11.5-5.63,20.09-5.63,3.68,0,7.16.37,10.44,1.11,3.27.72,6.28,1.91,9.01,3.57,2.73,1.65,4.94,3.87,6.63,6.63,1.69,2.75,2.65,6.12,2.91,10.06h-10.11c-.26-1.65-.7-3.17-1.34-4.53-.64-1.36-1.68-2.69-3.14-3.92-1.47-1.23-3.49-2.25-6.07-2.99-2.58-.78-5.8-1.16-9.68-1.16-1.96,0-3.87.21-5.72.64-1.84.4-3.53,1.07-5.06,1.99-1.53.92-2.74,2.08-3.67,3.54-.92,1.43-1.38,3.07-1.38,4.98,0,2.25.85,4.13,2.58,5.64,1.72,1.54,4.58,2.64,8.58,3.35l16.7,2.85h.19c2.22.44,4.33.94,6.34,1.46,2.01.55,4.1,1.44,6.3,2.68,2.19,1.27,4.02,2.97,5.49,5.17,1.46,2.2,2.19,4.9,2.19,8.14,0,4.15-.83,7.64-2.47,10.54-1.66,2.91-3.9,5.21-6.72,6.98-2.84,1.74-5.97,2.99-9.39,3.71-3.44.72-7.01,1.11-10.69,1.11-4.13,0-8.03-.39-11.68-1.2-3.66-.79-6.96-2.12-9.92-3.96-2.95-1.84-5.3-4.34-7.05-7.48-1.75-3.17-2.63-6.99-2.63-11.53h10.11Z"/>
      <path d="M179.83,13.44h10.11v71.89h-10.11V13.44Z"/>
      <path d="M204.05,61.12c.06,2.94.74,5.41,2.01,7.42,1.27,2.01,2.94,3.58,5.01,4.76,2.07,1.17,4.37,2.01,6.92,2.49,2.54.45,5.21.71,8.01.71,5.53,0,9.97-1.02,13.35-3.06,3.38-2.02,5.06-4.85,5.06-8.48,0-2.93-1.06-5.17-3.2-6.73-2.12-1.55-5.29-2.68-9.49-3.4l-15.46-2.57c-2.48-.38-4.84-.93-7.06-1.62-2.23-.7-4.33-1.7-6.33-3-2.01-1.31-3.65-3.06-4.92-5.26-1.27-2.17-1.91-4.84-1.91-7.96,0-6.28,2.4-11.31,7.2-15.07,4.8-3.75,11.49-5.63,20.08-5.63,3.68,0,7.17.37,10.45,1.11,3.26.72,6.28,1.91,9,3.57,2.74,1.65,4.95,3.87,6.64,6.63,1.69,2.75,2.65,6.12,2.91,10.06h-10.12c-.25-1.65-.69-3.17-1.33-4.53-.64-1.36-1.67-2.69-3.14-3.92-1.47-1.23-3.48-2.25-6.06-2.99-2.57-.78-5.8-1.16-9.67-1.16-1.98,0-3.89.21-5.74.64-1.84.4-3.53,1.07-5.05,1.99-1.54.92-2.75,2.08-3.67,3.54-.92,1.43-1.38,3.07-1.38,4.98,0,2.25.86,4.13,2.57,5.64,1.72,1.54,4.59,2.64,8.59,3.35l16.7,2.85h.18c2.23.44,4.35.94,6.35,1.46,2.01.55,4.11,1.44,6.29,2.68,2.21,1.27,4.03,2.97,5.49,5.17,1.45,2.2,2.19,4.9,2.19,8.14,0,4.15-.83,7.64-2.47,10.54-1.66,2.91-3.89,5.21-6.72,6.98-2.84,1.74-5.97,2.99-9.39,3.71-3.44.72-7,1.11-10.69,1.11-4.14,0-8.04-.39-11.69-1.2-3.66-.79-6.97-2.12-9.92-3.96-2.95-1.84-5.3-4.34-7.06-7.48-1.75-3.17-2.62-6.99-2.62-11.53h10.11Z"/>
      <path d="M257.48,13.44h10.1v45.61c0,5.91,1.84,10.3,5.49,13.16,3.67,2.87,8.74,4.29,15.22,4.29s11.56-1.42,15.21-4.29c3.66-2.86,5.48-7.25,5.48-13.16V13.44h10.12v44.37c0,18.31-10.28,27.47-30.81,27.47s-30.81-9.16-30.81-27.47V13.44Z"/>
      <polygon points="383.76 71.42 339.97 13.44 328.25 13.44 328.25 85.33 338.36 85.33 338.36 29.38 338.56 27.37 382.34 85.33 394.07 85.33 394.07 85.31 383.76 71.42"/>
      <polygon points="384.89 13.44 384.89 68.05 384.89 68.05 395 81.96 395 13.44 384.89 13.44"/>
      <path d="M404.9,13.37h5.57v5.36h.11c1.23-1.88,2.85-3.27,4.88-4.13,2.02-.84,4.21-1.27,6.54-1.27,3.72,0,6.68.84,8.92,2.54,2.22,1.7,3.34,4.27,3.34,7.76v19.88h-5.58v-18.77c0-2.18-.7-3.85-2.11-5.01-1.41-1.15-3.58-1.73-6.52-1.73-2.67,0-4.93.78-6.78,2.28-1.87,1.54-2.79,3.66-2.79,6.41v16.82h-5.57V13.37Z"/>
      <path d="M459.68,14.26c-1.87-.6-3.81-.92-5.82-.92-2.74,0-5.18.42-7.32,1.23-2.13.79-3.92,1.93-5.35,3.35-1.43,1.44-2.49,3.11-3.21,4.97-.7,1.88-1.05,3.9-1.05,6.03s.35,4.18,1.05,6.06c.72,1.87,1.77,3.51,3.21,4.94,1.43,1.44,3.21,2.56,5.35,3.37,2.14.82,4.58,1.21,7.32,1.21,1.49,0,2.97-.19,4.46-.54,1.48-.36,2.9-.97,4.25-1.77,1.35-.79,2.58-1.83,3.67-3.12,1.09-1.28,1.99-2.75,2.64-4.42h-5.9c-.44.97-1.02,1.8-1.75,2.49-.72.67-1.55,1.22-2.47,1.64-1.52.68-3.25,1.05-5.18,1.05-1.27,0-2.51-.22-3.74-.62-1.22-.4-2.34-1-3.36-1.81-1.01-.79-1.85-1.77-2.5-2.92-.65-1.15-1.04-2.44-1.15-3.9h25.19l-5.93-15.29c-.76-.42-1.58-.78-2.42-1.05ZM442.99,26.26c.42-2.54,1.63-4.55,3.63-6.04,2.01-1.47,4.32-2.22,6.96-2.22s4.93.73,6.79,2.19c1.86,1.44,2.99,3.48,3.41,6.07h-20.79Z"/>
      <polygon points="509.28 13.37 500.93 36.62 500.82 36.62 493.42 13.37 487.29 13.37 480.05 36.62 479.93 36.62 471.86 13.37 465.67 13.37 466.05 14.36 471.98 30.59 476.98 43.52 482.89 43.52 490.18 21.24 490.29 21.24 497.59 43.52 503.67 43.52 515.18 13.37 509.28 13.37"/>
      <path d="M520.15,34.33c0,.71.16,1.41.47,2.07.31.65.83,1.29,1.53,1.85.7.58,1.66,1.05,2.87,1.41,1.21.35,2.64.51,4.32.51s3.15-.12,4.31-.37c1.17-.27,2.09-.63,2.76-1.07.66-.43,1.14-.94,1.41-1.49.29-.52.42-1.06.42-1.63,0-1.12-.38-1.96-1.17-2.56-.77-.58-2.22-1.05-4.33-1.34l-9.18-1.21c-2.23-.31-4.11-1.14-5.62-2.48-1.53-1.36-2.28-3.12-2.28-5.28,0-2.93,1.19-5.24,3.56-6.89,2.38-1.67,5.62-2.51,9.74-2.51,4.57,0,8.03.87,10.36,2.64,2.34,1.77,3.63,4.16,3.9,7.17h-5.56c-.09-1.59-.87-2.92-2.37-3.92-1.51-1.04-3.64-1.54-6.38-1.54-.97,0-1.9.06-2.79.21-.89.15-1.71.39-2.45.73-.74.34-1.33.79-1.78,1.39-.44.59-.68,1.3-.68,2.12,0,1.05.35,1.85,1.01,2.4.67.56,1.95.95,3.84,1.23l7.91,1.05c3.59.48,6.2,1.36,7.79,2.65,1.59,1.28,2.4,2.98,2.4,5.1,0,3.3-1.3,5.78-3.88,7.46-2.57,1.67-6.17,2.49-10.77,2.49-1.86,0-3.61-.14-5.26-.44-1.66-.29-3.18-.81-4.59-1.55-1.41-.76-2.58-1.78-3.48-3.14-.92-1.36-1.45-3.04-1.59-5.05h5.57Z"/>
      <path d="M436.19,73.57c-1.11,4.23-2.94,7.24-5.49,9.05-2.55,1.8-5.81,2.72-9.81,2.72-2.8,0-5.24-.44-7.29-1.3-2.07-.85-3.72-2.03-4.99-3.49-1.28-1.49-2.21-3.14-2.81-4.99-.6-1.84-.9-3.77-.9-5.76,0-4.58,1.33-8.32,3.98-11.19,1.38-1.5,3.08-2.65,5.07-3.45,2-.81,4.29-1.21,6.88-1.21,4.07,0,7.49.92,10.25,2.77,2.77,1.86,4.43,4.54,5,8.06h-5.95c-.34-1.96-1.26-3.46-2.77-4.53-1.52-1.06-3.56-1.59-6.14-1.59-3.44,0-6.04,1-7.77,2.99-1.74,2.01-2.61,4.68-2.61,8.02s.87,5.97,2.61,7.97c1.74,1.99,4.33,3,7.77,3,2.51,0,4.48-.57,5.94-1.71,1.45-1.14,2.48-2.92,3.08-5.35h5.94Z"/>
      <path d="M439.59,63.55c.7-1.88,1.79-3.54,3.23-4.98,1.43-1.45,3.22-2.58,5.38-3.4,2.15-.81,4.61-1.23,7.38-1.23s5.26.42,7.39,1.23c2.14.81,3.92,1.94,5.35,3.4,1.44,1.44,2.51,3.09,3.23,4.98.71,1.9,1.07,3.92,1.07,6.11s-.36,4.19-1.07,6.07c-.72,1.88-1.79,3.54-3.23,4.98-1.44,1.44-3.22,2.58-5.35,3.4-2.13.81-4.6,1.23-7.39,1.23s-5.23-.42-7.38-1.23c-2.15-.81-3.94-1.96-5.38-3.4-1.44-1.44-2.52-3.09-3.23-4.98-.71-1.89-1.07-3.92-1.07-6.07s.36-4.21,1.07-6.11ZM466.05,65.61c-.42-1.32-1.06-2.49-1.94-3.54-.88-1.04-2.03-1.87-3.48-2.5-1.44-.6-3.12-.92-5.07-.92s-3.63.31-5.05.92c-1.42.63-2.58,1.47-3.48,2.5-.89,1.05-1.55,2.22-1.96,3.54-.41,1.3-.62,2.66-.62,4.05s.21,2.72.62,4.01c.41,1.33,1.05,2.5,1.94,3.55.88,1.05,2.03,1.86,3.47,2.49,1.45.61,3.13.92,5.08.92s3.63-.31,5.07-.92c1.44-.63,2.6-1.44,3.48-2.49.88-1.05,1.52-2.22,1.94-3.55.41-1.29.61-2.65.61-4.01s-.2-2.75-.61-4.05Z"/>
      <path d="M476.08,78.83h6.96v6.5h-6.96v-6.5Z"/>
      <path d="M509.71,54.96h8.52l-13.79,11.04,15.21,19.33h-7.63l-12.08-15.67-5.15,4.06v11.61h-5.61v-31.39h5.61v13.58l14.92-12.55Z"/>
      <path d="M524.23,54.96h5.6v5.36h.12c1.27-2.2,2.76-3.82,4.5-4.84,1.75-1.02,3.61-1.55,5.58-1.55.74,0,1.33.02,1.77.06.42.05.91.13,1.43.28v6.05c-.74-.19-1.43-.31-2.01-.42-.61-.08-1.26-.14-1.97-.14-2.88,0-5.17.83-6.87,2.5-1.7,1.66-2.55,4.05-2.55,7.15v15.9h-5.6v-30.37Z"/>
    </g>
  </g>
</svg>