<svg width="167" height="30" viewBox="0 0 167 30" fill="none" xmlns="http://www.w3.org/2000/svg">
<path d="M25.1546 19.7372C24.7983 19.7372 24.0412 19.3266 23.8371 19.0809C23.7146 18.9342 23.6626 18.8389 23.7888 18.5786C23.9113 18.3183 24.4606 17.156 24.4606 17.156C25.6519 14.802 27.5819 9.39012 25.4627 5.08189C24.3715 2.85994 21.9072 1.46663 19.6247 1.46663C11.931 1.46663 6.77956 6.77218 4.20757 12.9467C-0.587537 24.4708 4.95727 27.7047 6.57172 27.8514C12.406 28.383 15.891 19.2716 18.9529 16.1036C18.9937 16.0596 19.0531 16.0486 19.1088 16.067C19.4205 16.1733 20.3744 16.6096 20.8346 17.3759C20.9979 17.6509 20.8605 18.1606 20.7307 18.9966C20.0403 23.4038 20.3484 25.9668 21.9294 26.4361C23.1022 26.7844 24.635 26.0071 26.4907 23.3415C26.8582 22.8135 27.04 22.7145 27.2441 22.8795C27.4408 23.0372 27.3889 23.1912 27.0771 23.7045C25.459 26.3737 23.5105 28.13 21.536 28.13C20.5228 28.13 19.8585 27.8074 19.428 27.3857C17.91 25.8898 17.5648 22.6815 19.0865 17.3759C16.0803 20.8885 13.8163 30 7.64431 30C5.63274 30 3.19065 28.5334 1.78404 26.1794C-4.36201 15.8653 6.44553 0 17.8543 0C20.8086 0 24.6462 1.11098 26.7951 4.71156C30.1056 10.2664 27.8528 14.89 25.6779 19.4219C25.5369 19.6859 25.4664 19.7372 25.1546 19.7372ZM36.697 12.2391C36.697 10.9374 36.1774 10.2884 35.1457 10.2884C34.3923 10.2884 33.5795 10.6478 32.711 11.3701C31.8388 12.0924 31.052 12.8917 30.3468 13.7754C30.2541 13.9624 30.2763 14.1127 30.4174 14.23C30.5584 14.3473 30.7217 14.3583 30.911 14.2667C31.3341 13.7094 31.7943 13.2217 32.2879 12.8037C32.7815 12.3857 33.2157 12.1767 33.5943 12.1767C34.2512 12.1767 34.4888 12.8734 34.2995 14.2667C34.1584 15.198 33.9692 16.2173 33.7353 17.3319C33.4978 18.4466 33.2046 19.5869 32.852 20.7492C32.4995 21.9115 32.1357 23.0628 31.7572 24.1995C31.3786 25.3398 30.9815 26.3957 30.5584 27.3711C30.2763 27.8844 30.3914 28.1374 30.911 28.1374C31.2858 28.1374 31.746 28.0677 32.2879 27.9284C32.8298 27.789 33.1452 27.4884 33.2417 27.0227C34.4182 22.6998 35.6653 19.3192 36.9828 16.881C38.3003 14.4427 39.7812 13.2217 41.429 13.2217C42.5091 13.2217 43.0509 13.6177 43.0509 14.406C43.0509 14.7323 43.1919 14.802 43.474 14.615C43.7561 14.3363 44.0381 13.9074 44.3202 13.3244C44.6023 12.7451 44.7433 12.2684 44.7433 11.8944C44.7433 11.3847 44.5318 10.9888 44.1087 10.7101C43.6856 10.4314 43.2142 10.2921 42.6983 10.2921C41.3808 10.2921 40.1597 10.9301 39.0278 12.2097C37.8995 13.4894 36.864 15.242 35.9251 17.4713C36.1589 16.5436 36.3482 15.6123 36.4892 14.6847C36.6302 13.757 36.7007 12.943 36.7007 12.2464M55.7476 13.3537C55.7476 12.5654 55.4395 11.8541 54.8308 11.2271C54.2185 10.6001 53.4651 10.2848 52.5743 10.2848C51.3496 10.2848 50.1879 10.7028 49.0819 11.5387C47.9759 12.3747 46.9998 13.4454 46.1536 14.7433C45.3074 16.045 44.6245 17.4749 44.1087 19.0296C43.5891 20.5879 43.333 22.0618 43.333 23.4551C43.333 24.9878 43.7227 26.1501 44.4984 26.9421C45.274 27.7341 46.2724 28.1264 47.4972 28.1264C48.8147 28.1264 50.0729 27.7414 51.2716 26.9751C52.4704 26.2088 53.4688 25.2921 54.2704 24.2215C54.3632 24.0381 54.3632 23.8731 54.2704 23.7338C54.1739 23.5945 54.0329 23.5725 53.8473 23.6641C53.1867 24.4561 52.4481 25.0831 51.6242 25.5451C50.8003 26.0108 49.917 26.2417 48.978 26.2417C48.039 26.2417 47.3079 25.8458 46.792 25.0574C46.2724 24.2691 46.0163 23.2901 46.0163 22.1278C46.0163 21.5265 46.0274 20.9692 46.0497 20.4559C46.072 19.9462 46.1091 19.4329 46.1573 18.9232C47.4266 18.6006 48.6365 18.2523 49.7908 17.8783C50.9413 17.5079 51.9657 17.101 52.8601 16.6573C53.7545 16.2173 54.4597 15.715 54.9756 15.1577C55.4915 14.6003 55.7513 13.9954 55.7513 13.3464M51.0935 12.0997C51.6576 12.0997 52.103 12.3087 52.4333 12.7267C52.7636 13.1447 52.9269 13.68 52.9269 14.329C52.9269 15.121 52.3962 15.8286 51.3384 16.4556C50.2807 17.0826 48.6217 17.5593 46.3652 17.8856C46.74 15.8873 47.3524 14.4243 48.1986 13.493C49.0448 12.5654 50.0098 12.0997 51.0898 12.0997M59.6297 28.13C60.1455 28.13 60.8062 27.8844 61.6041 27.3967C62.4021 26.9091 63.2631 26.2014 64.1798 25.2701C65.0965 24.3425 66.0504 23.2132 67.0376 21.8895C68.0248 20.5659 68.9638 19.0442 69.8582 17.3246C69.3869 18.6263 69.0454 19.9169 68.8339 21.1929C68.6224 22.4725 68.5147 23.6678 68.5147 24.7824C68.5147 25.8054 68.7263 26.6194 69.1494 27.2207C69.5725 27.8257 70.0883 28.1264 70.7007 28.1264C71.4987 28.1264 72.3337 27.767 73.2059 27.0447C74.0744 26.3261 74.8389 25.4754 75.4995 24.5001C75.5923 24.2691 75.5701 24.1041 75.429 24.0125C75.288 23.9208 75.147 23.9208 75.0059 24.0125C74.5346 24.6651 74.0632 25.1858 73.5956 25.5818C73.1243 25.9778 72.7012 26.1758 72.3263 26.1758C71.4801 26.1758 71.057 25.4314 71.057 23.9465C71.057 22.6925 71.1387 21.5302 71.3057 20.4595C71.469 19.3926 71.7176 18.3439 72.048 17.3209C72.3745 16.298 72.8014 15.264 73.3172 14.219C73.8331 13.174 74.4232 12.0484 75.0802 10.8384C75.2657 10.4681 75.0542 10.2811 74.4455 10.2811C73.9742 10.2811 73.5399 10.4094 73.1391 10.6661C72.7383 10.9228 72.4673 11.2124 72.3263 11.5387C71.4801 13.2584 70.5486 14.9523 69.5391 16.628C68.5259 18.2999 67.5275 19.7996 66.5403 21.1232C65.553 22.4468 64.5992 23.5175 63.6825 24.3278C62.7658 25.1418 62.0012 25.5488 61.3889 25.5488C60.5872 25.5488 60.1901 24.8741 60.1901 23.5285C60.1901 21.4385 60.6503 19.2422 61.567 16.9396C62.4837 14.6407 63.6936 12.5361 65.2005 10.6294C65.245 10.4424 65.2116 10.2811 65.0928 10.1418C64.9741 10.0024 64.8219 9.95478 64.6326 10.0024C64.0685 10.2811 63.4672 10.6184 62.8326 11.0144C62.1979 11.4104 61.5856 11.8174 60.9992 12.2354C60.4091 12.6534 59.8598 13.0714 59.3402 13.4894C58.8206 13.9074 58.3975 14.2813 58.0709 14.604C58.0226 14.7433 58.0449 14.8937 58.1414 15.0587C58.2342 15.2237 58.353 15.2567 58.494 15.165C58.8688 14.7947 59.3402 14.3877 59.9043 13.944C60.4684 13.504 61.0103 13.097 61.5262 12.7231C60.8656 13.6984 60.2792 14.7433 59.7633 15.858C59.2437 16.9726 58.8094 18.0873 58.4569 19.2056C58.1043 20.3202 57.8222 21.3799 57.6107 22.3772C57.3991 23.3781 57.2915 24.2471 57.2915 24.9914C57.2915 25.9228 57.5253 26.6781 57.9967 27.2574C58.468 27.8404 59.0062 28.13 59.6185 28.13M100.551 13.493C100.551 14.1457 100.384 14.934 100.058 15.8616C99.7275 16.793 99.3638 17.7793 98.9629 18.8242C98.5621 19.8692 98.1984 20.9619 97.8681 22.0985C97.5377 23.2388 97.3744 24.3645 97.3744 25.4791C97.3744 27.2464 97.9163 28.1264 98.9963 28.1264C99.4677 28.1264 99.9613 27.998 100.477 27.7414C100.993 27.4847 101.476 27.1621 101.925 26.7661C102.37 26.3737 102.808 25.9558 103.231 25.5121C103.654 25.0721 104.007 24.6651 104.289 24.2911C104.382 24.1041 104.37 23.9428 104.252 23.8035C104.133 23.6641 104.029 23.6421 103.932 23.7338C102.615 25.2664 101.579 26.0328 100.83 26.0328C100.125 26.0328 99.772 25.4534 99.772 24.2911C99.772 23.3635 99.9501 22.3735 100.303 21.3285C100.655 20.2835 101.045 19.2276 101.468 18.1569C101.891 17.09 102.281 16.056 102.633 15.055C102.986 14.0577 103.164 13.1374 103.164 12.3014C103.164 11.6964 102.997 11.2088 102.671 10.8384C102.34 10.4681 101.917 10.2811 101.401 10.2811C99.8017 10.2811 98.1909 11.0034 96.5691 12.4407C94.9472 13.8817 93.4292 15.9276 92.0189 18.5749C92.3938 17.5519 92.6758 16.5546 92.8651 15.5793C93.0544 14.604 93.1472 13.6287 93.1472 12.6534C93.1472 11.9091 92.969 11.3297 92.6164 10.9118C92.2639 10.4938 91.8037 10.2848 91.2395 10.2848C89.781 10.2848 88.3112 11.0071 86.8304 12.4444C85.3496 13.8854 83.9949 15.7663 82.7739 18.0909C83.1042 17.2073 83.3751 16.3383 83.5867 15.4767C83.7982 14.6187 84.0209 13.6764 84.2584 12.6534C84.3994 12.0044 84.3883 11.4471 84.225 10.9814C84.058 10.5194 83.672 10.2848 83.0596 10.2848C82.1652 10.2848 81.2819 10.6918 80.4134 11.5057C79.5412 12.3197 78.7544 13.2144 78.0493 14.1897C77.9565 14.329 77.9788 14.4573 78.1198 14.5747C78.2608 14.692 78.4018 14.703 78.5429 14.6077C79.0588 13.911 79.5784 13.306 80.0942 12.7964C80.6101 12.2867 81.0592 12.0301 81.434 12.0301C81.9054 12.0301 82.0204 12.4481 81.7866 13.284C81.5491 14.3547 81.2559 15.4913 80.9033 16.6976C80.5507 17.9076 80.161 19.1359 79.7379 20.3935C79.3148 21.6512 78.8917 22.8942 78.4687 24.1225C78.0456 25.3544 77.6447 26.4801 77.2699 27.5031C77.1734 27.7377 77.1994 27.899 77.3404 27.9907C77.4814 28.0824 77.667 28.13 77.9045 28.13C78.2794 28.13 78.632 28.0494 78.9623 27.8844C79.2926 27.7231 79.5041 27.4994 79.5969 27.2207C81.2893 22.3405 83.0782 18.6006 84.9599 15.9973C86.8415 13.394 88.3929 12.0924 89.6177 12.0924C90.4156 12.0924 90.8164 12.745 90.8164 14.043C90.8164 14.6957 90.6494 15.6013 90.3228 16.76C89.9925 17.9223 89.6065 19.1652 89.1574 20.4889C88.7121 21.8125 88.2407 23.1032 87.7471 24.3571C87.2535 25.6111 86.8638 26.6561 86.5817 27.4957C86.4407 27.9137 86.6523 28.1227 87.2164 28.1227C87.5912 28.1227 87.9809 28.042 88.3818 27.877C88.7789 27.7157 89.0275 27.4921 89.124 27.2134C89.9702 24.8448 90.8535 22.7182 91.7702 20.8372C92.687 18.9562 93.6037 17.3649 94.5204 16.0633C95.4371 14.7617 96.3204 13.7644 97.1666 13.0677C98.0128 12.3711 98.7885 12.0227 99.4936 12.0227C100.199 12.0227 100.551 12.5104 100.551 13.4857M107.536 15.165C107.911 14.7947 108.49 14.318 109.266 13.735C110.041 13.1557 110.687 12.6791 111.207 12.3051C110.643 13.141 110.064 14.142 109.477 15.3007C108.887 16.463 108.36 17.6693 107.889 18.9269C107.417 20.1809 107.031 21.4239 106.723 22.6558C106.415 23.8878 106.263 24.9438 106.263 25.8274C106.263 27.3601 106.876 28.1264 108.097 28.1264C108.943 28.1264 109.848 27.7084 110.813 26.8724C111.778 26.0364 112.684 25.1088 113.53 24.0858C113.623 23.8988 113.601 23.7375 113.46 23.5981C113.319 23.4588 113.2 23.4368 113.107 23.5285C112.446 24.2728 111.871 24.8631 111.377 25.3068C110.884 25.7504 110.379 25.9704 109.86 25.9704C109.199 25.9704 108.872 25.4828 108.872 24.5075C108.872 23.7631 109.013 22.8245 109.295 21.6842C109.577 20.5475 109.941 19.3632 110.39 18.1313C110.836 16.8993 111.355 15.6563 111.942 14.4023C112.528 13.1484 113.129 11.9861 113.742 10.9154C113.742 10.4974 113.552 10.2884 113.178 10.2884C112.049 10.8458 110.921 11.5424 109.789 12.3784C108.661 13.2144 107.766 13.9587 107.109 14.6077C107.013 14.747 107.028 14.8973 107.143 15.0623C107.262 15.2273 107.391 15.2603 107.533 15.1687M113.886 7.28917C114.543 6.08286 115.323 4.86189 116.213 3.62992C117.108 2.39795 118.047 1.34197 119.034 0.458323C119.127 0.366659 119.105 0.260328 118.964 0.142997C118.823 0.0293327 118.681 -0.00733317 118.54 0.0366659C116.328 1.94329 114.614 3.73258 113.389 5.40455C113.248 5.59154 113.178 5.82254 113.178 6.1012C113.178 6.37986 113.2 6.62552 113.248 6.83451C113.293 7.04351 113.378 7.20851 113.497 7.32217C113.612 7.4395 113.745 7.4285 113.886 7.28917ZM133.572 23.6678C132.347 25.2958 131.245 26.1061 130.257 26.1061C129.504 26.1061 129.129 25.5268 129.129 24.3645C129.129 22.7402 129.47 20.9619 130.153 19.0332C130.836 17.1046 131.671 15.2567 132.659 13.493C132.941 12.888 133.082 12.2867 133.082 11.6817C133.082 11.3114 132.929 10.9851 132.621 10.7064C132.313 10.4278 131.879 10.2884 131.315 10.2884C130.469 10.2884 129.563 10.5231 128.598 10.9851C127.633 11.4507 126.668 12.0777 125.707 12.866C124.742 13.658 123.814 14.6077 122.92 15.7223C122.025 16.837 121.25 18.0213 120.593 19.2789C120.968 18.1643 121.32 17.0386 121.651 15.8983C121.981 14.7617 122.237 13.68 122.426 12.6571C122.801 11.0768 122.4 10.2884 121.228 10.2884C120.192 10.2884 119.227 10.7064 118.336 11.5424C117.442 12.3784 116.737 13.1924 116.221 13.9807C116.173 14.12 116.21 14.2593 116.328 14.3987C116.444 14.538 116.551 14.56 116.648 14.4683C117.164 13.724 117.657 13.1227 118.129 12.6571C118.6 12.1914 119.067 11.9604 119.539 11.9604C120.055 11.9604 120.222 12.4041 120.032 13.284C119.372 15.748 118.611 18.2339 117.739 20.7419C116.867 23.2498 116.032 25.5048 115.234 27.5031C115.093 27.921 115.282 28.13 115.798 28.13C116.173 28.13 116.573 28.0494 116.997 27.8844C117.42 27.7231 117.679 27.4994 117.772 27.2207C119.557 22.1572 121.498 18.4393 123.592 16.067C125.685 13.6984 127.6 12.5141 129.341 12.5141C129.808 12.5141 130.046 12.7707 130.046 13.2804C130.046 13.6067 129.953 13.933 129.764 14.2557C128.776 16.2063 128.001 18.1496 127.437 20.0746C126.873 22.0032 126.59 23.7595 126.59 25.3361C126.59 27.1951 127.318 28.1227 128.776 28.1227C129.623 28.1227 130.528 27.7157 131.493 26.9017C132.458 26.0878 133.338 25.1491 134.139 24.0785C134.184 23.8915 134.139 23.7521 133.998 23.6605C133.857 23.5688 133.716 23.5688 133.575 23.6605M166.061 10.7394C165.426 10.4388 164.636 10.2848 163.697 10.2848C162.146 10.2848 160.91 10.7028 159.993 11.5387C159.076 12.3747 158.616 13.3977 158.616 14.604C158.616 15.44 158.816 16.221 159.217 16.9396C159.618 17.6619 160.063 18.3806 160.557 19.0992C161.051 19.8216 161.511 20.5622 161.934 21.3285C162.357 22.0948 162.569 22.9198 162.569 23.8035C162.569 24.8264 162.227 25.6624 161.544 26.3114C160.861 26.9641 159.908 27.2867 158.687 27.2867C157.885 27.2867 157.191 27.0887 156.604 26.6927C156.014 26.2968 155.651 25.7064 155.51 24.9144C155.413 24.5441 155.461 24.1115 155.651 23.6238C155.84 23.1362 156.122 22.7072 156.497 22.3332C156.59 22.1938 156.578 22.0545 156.46 21.9152C156.341 21.7758 156.211 21.7538 156.07 21.8455C155.112 22.4725 152.27 25.9558 150.778 26.1684C149.939 26.2857 149.508 25.4241 149.508 23.9391C149.508 22.6852 149.59 21.5229 149.757 20.4522C149.92 19.3852 150.169 18.3366 150.499 17.3136C150.829 16.2906 151.253 15.2567 151.768 14.2117C152.284 13.1667 152.874 12.0411 153.531 10.8311C153.721 10.4608 153.505 10.2738 152.897 10.2738C152.425 10.2738 151.991 10.4021 151.59 10.6588C151.189 10.9154 150.919 11.2051 150.778 11.5314C149.931 13.251 149 14.945 147.99 16.6206C146.977 18.2926 145.979 19.7922 144.992 21.1159C144.004 22.4395 143.05 23.5101 142.134 24.3205C141.217 25.1344 140.452 25.5414 139.84 25.5414C139.038 25.5414 138.641 24.8668 138.641 23.5211C138.641 21.4312 139.102 19.2349 140.018 16.936C140.935 14.637 142.145 12.5324 143.652 10.6258C143.696 10.4388 143.663 10.2774 143.544 10.1381C143.425 9.99878 143.273 9.95111 143.084 9.99878C142.52 10.2774 141.918 10.6148 141.284 11.0108C140.649 11.4067 140.037 11.8137 139.45 12.2317C138.86 12.6497 138.311 13.0677 137.791 13.4857C137.272 13.9037 136.849 14.2777 136.522 14.6003C136.474 14.7397 136.496 14.89 136.593 15.055C136.685 15.22 136.804 15.253 136.945 15.1613C137.32 14.791 137.791 14.384 138.356 13.9404C138.92 13.5004 139.462 13.0934 139.977 12.7194C139.317 13.6947 138.73 14.7397 138.215 15.858C137.695 16.9726 137.261 18.0873 136.908 19.2019C136.556 20.3165 136.273 21.3762 136.062 22.3735C135.85 23.3745 135.743 24.2435 135.743 24.9878C135.743 25.9191 135.977 26.6744 136.448 27.2537C136.919 27.8367 137.457 28.1264 138.07 28.1264C138.586 28.1264 139.246 27.8807 140.044 27.3931C140.842 26.9054 141.703 26.1978 142.62 25.2664C143.537 24.3388 144.49 23.2095 145.478 21.8858C146.465 20.5622 147.408 19.0406 148.298 17.3209C147.827 18.6226 147.486 19.9132 147.274 21.1892C147.062 22.4688 146.955 23.6641 146.955 24.7788C146.955 25.8018 147.166 26.6157 147.589 27.2171C148.013 27.822 148.528 28.1227 149.141 28.1227C149.939 28.1227 150.774 27.7634 151.646 27.0411C152.403 26.4141 153.071 25.7688 153.706 24.9034C153.483 25.3581 153.517 25.4791 153.517 25.7504C153.517 26.3078 153.988 26.8431 154.927 27.3527C155.866 27.866 157.068 28.119 158.527 28.119C160.642 28.119 162.231 27.6094 163.289 26.5864C164.346 25.5634 164.877 24.3095 164.877 22.8208C164.877 21.8932 164.677 21.0425 164.276 20.2762C163.875 19.5099 163.43 18.7876 162.936 18.1166C162.442 17.4456 161.993 16.771 161.596 16.0963C161.195 15.4253 160.995 14.714 160.995 13.9697C160.995 13.042 161.244 12.3454 161.737 11.8797C162.231 11.4177 162.877 11.1831 163.678 11.1831C164.758 11.1831 165.419 11.6487 165.653 12.5764C165.746 12.9027 165.772 13.273 165.723 13.691C165.675 14.109 165.582 14.483 165.441 14.8057C165.393 14.945 165.452 15.0513 165.619 15.121C165.783 15.1907 165.913 15.1797 166.009 15.088C166.243 14.67 166.469 14.1347 166.681 13.4857C166.892 12.8367 167 12.2537 167 11.7441C167 11.3737 166.681 11.0364 166.046 10.7321" fill="black"/>
</svg>
