<svg width="15" height="18" viewBox="0 0 15 18" fill="none" xmlns="http://www.w3.org/2000/svg">
<path d="M9.5 3.5C9.5 2.39543 8.60457 1.5 7.5 1.5C6.39543 1.5 5.5 2.39543 5.5 3.5C5.5 4.60457 6.39543 5.5 7.5 5.5V6.5C5.84315 6.5 4.5 5.15685 4.5 3.5C4.5 1.84315 5.84315 0.5 7.5 0.5C9.15685 0.5 10.5 1.84315 10.5 3.5C10.5 5.15685 9.15685 6.5 7.5 6.5V5.5C8.60457 5.5 9.5 4.60457 9.5 3.5Z" fill="black"/>
<path d="M14 15.5C14 11.9101 11.0899 9 7.5 9C3.91015 9 1 11.9101 1 15.5V17.5H0V15.5C0 11.3579 3.35786 8 7.5 8C11.6421 8 15 11.3579 15 15.5V17.5H14V15.5Z" fill="black"/>
</svg>
