<svg width="211" height="75" viewBox="0 0 211 75" fill="none" xmlns="http://www.w3.org/2000/svg">
<g filter="url(#filter0_d_45_226)">
<path d="M6 38.5C6 19.9985 20.9985 5 39.5 5H173.5C190.897 5 205 19.103 205 36.5C205 53.897 190.897 68 173.5 68H6V38.5Z" fill="#A2E9FF" shape-rendering="crispEdges"/>
<path d="M42.3648 46.5909C37.1356 46.5909 33.2392 43.5909 33 39.3977L37.3065 38.4091C37.4432 41.1023 39.4939 43.0795 42.5357 43.0795C44.8257 43.0795 46.7396 41.9205 46.7396 40.0795C46.7396 35.2386 33.957 36.5 33.957 29.5114C33.957 25.9659 37.2381 23.6136 41.7496 23.6136C46.2953 23.6136 49.7132 26.0682 50.1233 29.6136L45.9535 30.6705C45.7143 28.5909 43.9712 27.0227 41.5446 27.0227C39.5964 27.0227 37.9558 28.0795 37.9558 29.6477C37.9558 34.0114 50.841 32.7159 50.841 40.1136C50.841 43.9318 47.389 46.5909 42.3648 46.5909Z" fill="black"/>
<path d="M53.884 46.1818V23H57.4727V31.5909C58.4297 29.8523 60.4462 28.7273 62.7703 28.7273C66.5641 28.7273 69.2642 31.6932 69.2642 35.75V46.1818H65.6754V36.3295C65.6754 33.9432 64.0691 32.2386 61.8133 32.2386C59.3183 32.2386 57.4727 34.1818 57.4727 36.9091V46.1818H53.884Z" fill="black"/>
<path d="M80.5307 46.5909C75.5065 46.5909 71.952 42.875 71.952 37.6591C71.952 32.4432 75.5065 28.7273 80.5307 28.7273C85.5549 28.7273 89.1436 32.4432 89.1436 37.6591C89.1436 42.875 85.5549 46.5909 80.5307 46.5909ZM80.5307 43.0795C83.3675 43.0795 85.4182 40.8295 85.4182 37.6591C85.4182 34.4205 83.3675 32.1364 80.5307 32.1364C77.6939 32.1364 75.6774 34.4205 75.6774 37.6591C75.6774 40.8295 77.6939 43.0795 80.5307 43.0795Z" fill="black"/>
<path d="M101.431 46.5909C99.039 46.5909 97.0225 45.5341 95.6554 43.7273V53H92.0666V29.1364H94.9718L95.5186 31.7273C96.8858 29.8523 98.9706 28.7273 101.431 28.7273C105.875 28.7273 109.087 32.4091 109.087 37.5909C109.087 42.8409 105.875 46.5909 101.431 46.5909ZM100.509 43.0795C103.345 43.0795 105.396 40.7955 105.396 37.6591C105.396 34.4545 103.345 32.1705 100.509 32.1705C97.6719 32.1705 95.6212 34.4545 95.6212 37.6591C95.6212 40.7955 97.6719 43.0795 100.509 43.0795Z" fill="black"/>
<path d="M119.303 46.1818V24.0227H123.781L133.931 40.7614V24.0227H137.725V46.1818H133.487L123.097 29.5795V46.1818H119.303Z" fill="black"/>
<path d="M149.321 46.5909C144.297 46.5909 140.742 42.875 140.742 37.6591C140.742 32.4432 144.297 28.7273 149.321 28.7273C154.345 28.7273 157.934 32.4432 157.934 37.6591C157.934 42.875 154.345 46.5909 149.321 46.5909ZM149.321 43.0795C152.158 43.0795 154.209 40.8295 154.209 37.6591C154.209 34.4205 152.158 32.1364 149.321 32.1364C146.484 32.1364 144.468 34.4205 144.468 37.6591C144.468 40.8295 146.484 43.0795 149.321 43.0795Z" fill="black"/>
<path d="M162.227 46.1818L159.527 29.1364H163.321L165.098 42.2273L168.14 29.1705H171.49L174.429 42.2273L176.377 29.1364H180L177.061 46.1818H172.891L169.781 33.1591L166.602 46.1818H162.227Z" fill="black"/>
</g>
<defs>
<filter id="filter0_d_45_226" x="0" y="0" width="211" height="75" filterUnits="userSpaceOnUse" color-interpolation-filters="sRGB">
<feFlood flood-opacity="0" result="BackgroundImageFix"/>
<feColorMatrix in="SourceAlpha" type="matrix" values="0 0 0 0 0 0 0 0 0 0 0 0 0 0 0 0 0 0 127 0" result="hardAlpha"/>
<feOffset dy="1"/>
<feGaussianBlur stdDeviation="3"/>
<feComposite in2="hardAlpha" operator="out"/>
<feColorMatrix type="matrix" values="0 0 0 0 0 0 0 0 0 0 0 0 0 0 0 0 0 0 0.15 0"/>
<feBlend mode="normal" in2="BackgroundImageFix" result="effect1_dropShadow_45_226"/>
<feBlend mode="normal" in="SourceGraphic" in2="effect1_dropShadow_45_226" result="shape"/>
</filter>
</defs>
</svg>
