<svg width="640" height="83" viewBox="0 0 640 83" fill="none" xmlns="http://www.w3.org/2000/svg">
<rect width="640" height="81.5494" transform="translate(0 0.491211)" fill="#DFF4FF"/>
<rect x="189.906" y="19.0986" width="56.0958" height="19.2192" rx="0.652395" transform="rotate(-2.18099 189.906 19.0986)" fill="white"/>
<rect x="189.906" y="19.0986" width="56.0958" height="19.2192" rx="0.652395" transform="rotate(-2.18099 189.906 19.0986)" stroke="#FFDE68" stroke-width="1.30479"/>
<path d="M204.95 29.7967C205.893 29.7608 206.711 29.7073 207.404 29.6363C208.097 29.5653 208.805 29.4602 209.528 29.3211L209.689 30.3191C208.973 30.4543 208.263 30.5576 207.559 30.629C206.855 30.6967 205.998 30.7535 204.988 30.7994L204.158 30.831L204.12 29.8283L204.95 29.7967ZM208.686 24.7898L205.188 24.923L205.385 30.1037L204.132 30.1514L203.896 23.9569L208.648 23.7759L208.686 24.7898ZM208.614 27.5763L204.988 27.7144L204.95 26.734L208.577 26.5959L208.614 27.5763ZM211.722 32.8693L210.485 32.9164L210.102 22.8558L211.339 22.8087L211.722 32.8693ZM213.081 27.6851L211.248 27.7549L211.209 26.7188L213.042 26.649L213.081 27.6851ZM222.073 32.503L220.82 32.5507L220.436 22.4623L221.689 22.4146L222.073 32.503ZM216.291 23.3565C216.797 23.3373 217.253 23.4668 217.662 23.745C218.07 24.0196 218.396 24.4219 218.639 24.9519C218.883 25.4782 219.018 26.0978 219.045 26.8109C219.072 27.5276 218.985 28.1595 218.782 28.7065C218.58 29.2497 218.286 29.6756 217.899 29.9841C217.513 30.2927 217.068 30.4565 216.563 30.4758C216.054 30.4952 215.595 30.3657 215.187 30.0875C214.778 29.8092 214.45 29.407 214.203 28.8809C213.96 28.3508 213.825 27.7275 213.797 27.0107C213.77 26.2977 213.858 25.6695 214.06 25.1262C214.266 24.5791 214.563 24.1532 214.949 23.8484C215.335 23.5398 215.783 23.3759 216.291 23.3565ZM216.334 24.4706C216.051 24.4777 215.804 24.5838 215.593 24.789C215.385 24.9903 215.228 25.277 215.124 25.6492C215.019 26.0214 214.976 26.46 214.995 26.9651C215.014 27.4702 215.09 27.9061 215.223 28.273C215.356 28.6361 215.534 28.9101 215.757 29.095C215.983 29.2761 216.237 29.3613 216.52 29.3505C216.802 29.3398 217.047 29.2356 217.255 29.038C217.463 28.8367 217.62 28.5499 217.725 28.1777C217.829 27.8018 217.872 27.3613 217.853 26.8563C217.834 26.3512 217.758 25.9171 217.625 25.554C217.492 25.1908 217.314 24.9168 217.091 24.7319C216.872 24.5431 216.62 24.456 216.334 24.4706ZM224.812 24.4211L226.472 24.3579L226.415 22.8761L227.563 22.8324L227.746 27.6399L223.768 27.7913L223.585 22.9839L224.755 22.9393L224.812 24.4211ZM226.561 26.692L226.508 25.3216L224.848 25.3848L224.901 26.7552L226.561 26.692ZM232.014 28.091L230.833 28.136L230.603 22.0863L231.784 22.0413L232.014 28.091ZM231.082 25.5937L229.355 25.6595L229.317 24.6456L231.044 24.5799L231.082 25.5937ZM229.828 28.124L228.675 28.1679L228.454 22.3522L229.607 22.3083L229.828 28.124ZM232.166 32.0907L230.941 32.1374L230.846 29.6473L225.175 29.8633L225.137 28.8661L232.034 28.6035L232.166 32.0907Z" fill="black"/>
<rect x="126.345" y="21.5869" width="56.0958" height="19.2192" rx="0.652395" transform="rotate(6.40307 126.345 21.5869)" fill="white"/>
<rect x="126.345" y="21.5869" width="56.0958" height="19.2192" rx="0.652395" transform="rotate(6.40307 126.345 21.5869)" stroke="#5691FF" stroke-width="1.30479"/>
<path d="M146.81 34.4544L145.575 34.3157L146.24 28.3825L147.476 28.5211L146.81 34.4544ZM143.426 34.2709C144.124 34.3455 144.719 34.489 145.212 34.7013C145.708 34.9104 146.078 35.1744 146.323 35.4936C146.568 35.8128 146.667 36.1755 146.622 36.5817C146.577 36.9769 146.401 37.3012 146.092 37.5544C145.783 37.8114 145.363 37.9868 144.832 38.0807C144.306 38.1749 143.693 38.1828 142.995 38.1045C142.297 38.0262 141.698 37.8823 141.198 37.6728C140.698 37.4634 140.328 37.1993 140.087 36.8805C139.845 36.5655 139.747 36.2104 139.791 35.8152C139.837 35.4089 140.012 35.0771 140.318 34.8197C140.624 34.5623 141.043 34.3869 141.577 34.2935C142.112 34.1964 142.728 34.1889 143.426 34.2709ZM143.319 35.2237C142.85 35.1711 142.447 35.1633 142.11 35.2003C141.776 35.2377 141.515 35.3186 141.325 35.4432C141.139 35.5682 141.034 35.7377 141.01 35.952C140.987 36.1551 141.052 36.3382 141.206 36.5013C141.364 36.6648 141.603 36.802 141.923 36.9127C142.244 37.0198 142.637 37.0994 143.102 37.1516C143.568 37.2039 143.969 37.2133 144.305 37.18C144.642 37.1431 144.905 37.0623 145.095 36.9377C145.285 36.8132 145.391 36.6493 145.414 36.4462C145.438 36.232 145.371 36.0431 145.214 35.8796C145.06 35.7165 144.823 35.5796 144.503 35.4688C144.186 35.3585 143.791 35.2768 143.319 35.2237ZM142.477 29.3738C142.404 30.0238 142.223 30.6206 141.934 31.1641C141.645 31.7075 141.262 32.1676 140.786 32.5443C140.311 32.9172 139.76 33.177 139.134 33.3237L138.624 32.2679C139.169 32.1458 139.645 31.9356 140.052 31.6373C140.463 31.3393 140.785 30.9865 141.018 30.5788C141.251 30.1674 141.394 29.7272 141.447 29.2582L141.555 28.2942L142.585 28.4099L142.477 29.3738ZM142.721 29.4012C142.671 29.8481 142.714 30.2811 142.85 30.7003C142.987 31.1158 143.221 31.4973 143.552 31.8449C143.883 32.1924 144.298 32.4802 144.796 32.7081L144.072 33.6086C143.496 33.342 143.018 32.991 142.636 32.5555C142.256 32.1164 141.984 31.6184 141.822 31.0617C141.664 30.5018 141.621 29.9097 141.691 29.2855L141.799 28.3216L142.829 28.4372L142.721 29.4012ZM156.355 30.9256L149.918 30.2032L150.028 29.2227L156.465 29.9451L156.355 30.9256ZM157.588 34.284L148.437 33.2569L148.545 32.2874L157.697 33.3145L157.588 34.284ZM156.856 30.6676C156.799 31.1736 156.732 31.6355 156.655 32.0532C156.578 32.4709 156.451 32.9353 156.274 33.4465L155.069 33.1934C155.237 32.6888 155.359 32.2424 155.432 31.8542C155.506 31.466 155.57 31.0245 155.626 30.5296L155.701 29.8593L156.931 29.9973L156.856 30.6676ZM156.053 37.6682L150.33 37.026L150.199 38.1949L148.964 38.0563L149.199 35.9566L154.939 36.6007L155.03 35.7863L149.285 35.1416L149.393 34.1832L156.356 34.9647L156.053 37.6682ZM156.114 39.5262L148.89 38.7155L148.998 37.7516L156.222 38.5623L156.114 39.5262ZM160.065 32.06L161.716 32.2453L161.881 30.7716L163.023 30.8997L162.486 35.6806L158.531 35.2367L159.067 30.4558L160.23 30.5864L160.065 32.06ZM161.455 34.5665L161.608 33.2037L159.957 33.0184L159.805 34.3812L161.455 34.5665ZM166.639 36.7638L165.465 36.632L166.14 30.6156L167.314 30.7474L166.639 36.7638ZM166.09 34.1554L164.373 33.9627L164.486 32.9544L166.203 33.1471L166.09 34.1554ZM164.473 36.4702L163.326 36.3415L163.975 30.5579L165.122 30.6865L164.473 36.4702ZM166.193 40.7414L164.974 40.6046L165.252 38.1283L159.612 37.4954L159.723 36.5038L166.582 37.2734L166.193 40.7414Z" fill="black"/>
<rect x="203.009" y="36.5654" width="76.0958" height="19.2192" rx="0.652395" transform="rotate(5.57696 203.009 36.5654)" fill="white"/>
<rect x="203.009" y="36.5654" width="76.0958" height="19.2192" rx="0.652395" transform="rotate(5.57696 203.009 36.5654)" stroke="#F9B5FF" stroke-width="1.30479"/>
<path d="M216.532 49.0789C217.498 49.1732 218.306 49.2316 218.957 49.2541C219.609 49.2729 220.264 49.2547 220.923 49.1996L220.959 50.2113C220.277 50.2754 219.6 50.2989 218.93 50.282C218.263 50.2617 217.431 50.201 216.433 50.0998L215.634 50.0218L215.733 49.0009L216.532 49.0789ZM220.766 44.7817L217.426 44.4556L216.933 49.5045L215.696 49.3837L216.288 43.325L220.865 43.772L220.766 44.7817ZM223.324 53.2372L222.092 53.1169L223.073 43.069L224.305 43.1893L223.324 53.2372ZM223.152 47.6584L219.984 47.3491L220.082 46.3393L223.25 46.6486L223.152 47.6584ZM228.017 44.5263L232.344 44.9489L232.421 44.161L233.648 44.2808L233.321 47.6208L226.552 46.9599L226.879 43.6198L228.094 43.7384L228.017 44.5263ZM232.185 46.5801L232.257 45.8477L227.929 45.4251L227.857 46.1575L232.185 46.5801ZM234.344 49.3619L225.212 48.4701L225.306 47.5047L234.439 48.3965L234.344 49.3619ZM232.907 52.3806L227.203 51.8236L227.103 52.8556L225.882 52.7364L226.068 50.8334L231.771 51.3903L231.834 50.7467L226.125 50.1892L226.215 49.2738L233.144 49.9504L232.907 52.3806ZM233.016 54.0771L225.82 53.3745L225.912 52.4313L233.108 53.1339L233.016 54.0771ZM236.111 51.1139C237.051 51.2057 237.869 51.2631 238.565 51.2863C239.261 51.3094 239.977 51.3009 240.712 51.2607L240.737 52.2713C240.009 52.3085 239.291 52.315 238.584 52.2908C237.877 52.2628 237.021 52.2035 236.014 52.1126L235.187 52.0319L235.285 51.0332L236.111 51.1139ZM240.49 46.6572L237.005 46.317L236.502 51.4769L235.253 51.355L235.856 45.1853L240.588 45.6474L240.49 46.6572ZM240.042 49.4085L236.43 49.0558L236.525 48.0793L240.137 48.432L240.042 49.4085ZM242.407 55.0726L241.175 54.9523L242.154 44.9321L243.385 45.0524L242.407 55.0726ZM244.453 50.1193L242.628 49.9411L242.729 48.9091L244.554 49.0873L244.453 50.1193ZM252.713 56.1069L251.465 55.985L252.446 45.9371L253.694 46.059L252.713 56.1069ZM248.219 46.2637C248.722 46.3128 249.157 46.5028 249.524 46.8336C249.892 47.1608 250.16 47.6034 250.33 48.1614C250.5 48.7157 250.55 49.3479 250.481 50.0581C250.411 50.772 250.239 51.3862 249.965 51.9009C249.691 52.4119 249.342 52.7941 248.917 53.0477C248.493 53.3013 248.029 53.4035 247.526 53.3544C247.02 53.3049 246.583 53.1147 246.215 52.7839C245.848 52.453 245.578 52.0102 245.404 51.4556C245.234 50.8976 245.184 50.2616 245.254 49.5478C245.324 48.8376 245.495 48.227 245.769 47.716C246.047 47.2017 246.398 46.8197 246.822 46.5698C247.246 46.3162 247.712 46.2142 248.219 46.2637ZM248.11 47.3733C247.83 47.3422 247.57 47.414 247.333 47.5887C247.1 47.7601 246.906 48.0231 246.752 48.3777C246.598 48.7324 246.496 49.1612 246.447 49.6642C246.398 50.1673 246.415 50.6095 246.497 50.991C246.579 51.3687 246.719 51.6642 246.914 51.8775C247.114 52.0875 247.355 52.2062 247.636 52.2336C247.917 52.2611 248.174 52.1909 248.407 52.0232C248.64 51.8519 248.834 51.5888 248.988 51.2342C249.142 50.8759 249.244 50.4452 249.293 49.9422C249.342 49.4391 249.326 48.9987 249.243 48.621C249.16 48.2432 249.021 47.9477 248.826 47.7344C248.634 47.5178 248.395 47.3974 248.11 47.3733ZM256.517 48.4687L258.17 48.6301L258.315 47.1543L259.458 47.2659L258.99 52.054L255.029 51.6672L255.496 46.8791L256.661 46.9928L256.517 48.4687ZM257.943 50.9548L258.077 49.59L256.423 49.4285L256.29 50.7934L257.943 50.9548ZM263.158 53.0772L261.982 52.9623L262.57 46.9369L263.747 47.0517L263.158 53.0772ZM262.572 50.477L260.852 50.309L260.951 49.2993L262.671 49.4672L262.572 50.477ZM260.988 52.8149L259.84 52.7027L260.405 46.9103L261.554 47.0225L260.988 52.8149ZM262.769 57.0608L261.549 56.9416L261.791 54.4616L256.143 53.9101L256.24 52.9169L263.108 53.5876L262.769 57.0608Z" fill="black"/>
<rect x="136.266" y="49.1475" width="66.0958" height="19.2192" rx="0.652395" transform="rotate(-8.0945 136.266 49.1475)" fill="white"/>
<rect x="136.266" y="49.1475" width="66.0958" height="19.2192" rx="0.652395" transform="rotate(-8.0945 136.266 49.1475)" stroke="#6FF164" stroke-width="1.30479"/>
<path d="M158.581 51.7861L151.142 52.8442L151.01 51.917L158.45 50.8589L158.581 51.7861ZM158.873 54.2334L151.549 55.2751L151.417 54.3478L158.741 53.3062L158.873 54.2334ZM154.043 54.5994L152.813 54.7744L152.43 52.0811L153.66 51.9061L154.043 54.5994ZM157.509 54.1064L156.284 54.2807L155.901 51.5874L157.126 51.4131L157.509 54.1064ZM159.989 55.7021L150.904 56.9941L150.767 56.0283L159.851 54.7362L159.989 55.7021ZM159.295 58.9033L153.622 59.7102L153.769 60.7478L152.555 60.9205L152.286 59.0329L157.96 58.226L157.871 57.6023L152.192 58.4101L152.066 57.5215L158.959 56.5411L159.295 58.9033ZM159.792 60.4598L152.634 61.4779L152.504 60.5617L159.662 59.5436L159.792 60.4598ZM169.157 59.235L167.943 59.4077L166.521 49.4125L167.735 49.2398L169.157 59.235ZM169.966 53.8777L168.15 54.1359L168.005 53.1149L169.821 52.8566L169.966 53.8777ZM162.103 56.7922C163.068 56.6587 163.893 56.5207 164.578 56.3782C165.267 56.2352 165.958 56.0506 166.65 55.8245L166.901 56.7967C166.195 57.0286 165.484 57.2216 164.771 57.3756C164.06 57.5292 163.22 57.6769 162.249 57.8187L161.421 57.9365L161.275 56.9099L162.103 56.7922ZM165.563 54.2731L162.212 54.7495L162.552 57.1338L161.332 57.3073L160.854 53.9461L164.198 53.4704L163.944 51.6822L160.588 52.1595L160.446 51.1605L165.027 50.509L165.563 54.2731ZM179.411 57.7766L178.17 57.9532L176.748 47.958L177.99 47.7814L179.411 57.7766ZM172.718 49.2745C173.218 49.2033 173.686 49.2851 174.121 49.5197C174.555 49.7507 174.921 50.1173 175.218 50.6194C175.514 51.1179 175.712 51.7203 175.813 52.4268C175.914 53.1369 175.892 53.7744 175.747 54.3393C175.601 54.9005 175.352 55.3545 175 55.7012C174.648 56.0478 174.221 56.2568 173.721 56.3279C173.217 56.3996 172.747 56.3181 172.312 56.0834C171.877 55.8488 171.51 55.4825 171.21 54.9845C170.913 54.4824 170.715 53.8763 170.614 53.1662C170.513 52.4597 170.536 51.8259 170.681 51.2646C170.83 50.6992 171.08 50.245 171.433 49.902C171.786 49.5553 172.214 49.3462 172.718 49.2745ZM172.875 50.3783C172.595 50.4144 172.36 50.5454 172.171 50.7713C171.984 50.9929 171.858 51.2943 171.792 51.6753C171.726 52.0563 171.729 52.497 171.8 52.9974C171.871 53.4978 171.992 53.9236 172.162 54.2748C172.332 54.6223 172.537 54.8766 172.777 55.0375C173.021 55.1943 173.283 55.2528 173.562 55.2131C173.842 55.1733 174.075 55.0444 174.262 54.8264C174.448 54.6047 174.574 54.3034 174.64 53.9224C174.706 53.5377 174.703 53.0951 174.631 52.5947C174.56 52.0943 174.44 51.6704 174.27 51.3229C174.101 50.9753 173.896 50.7211 173.655 50.5601C173.418 50.3949 173.158 50.3343 172.875 50.3783ZM181.302 49.4556L182.947 49.2217L182.738 47.7536L183.875 47.5919L184.553 52.3549L180.612 52.9154L179.935 48.1524L181.094 47.9875L181.302 49.4556ZM183.276 51.5342L183.083 50.1765L181.438 50.4104L181.631 51.7681L183.276 51.5342ZM188.845 52.3639L187.674 52.5303L186.822 46.5365L187.992 46.3701L188.845 52.3639ZM187.66 49.976L185.949 50.2193L185.806 49.2148L187.517 48.9715L187.66 49.976ZM186.674 52.6219L185.531 52.7844L184.712 47.0224L185.854 46.86L186.674 52.6219ZM189.408 56.3266L188.194 56.4993L187.843 54.0323L182.225 54.8313L182.084 53.8434L188.917 52.8717L189.408 56.3266Z" fill="black"/>
<path d="M294.378 37.6219H296.561V35.673H298.07V41.9886H292.839V35.673H294.378V37.6219ZM296.561 40.6991V38.8821H294.378V40.6991H296.561ZM303.653 42.7945H302.1V39.4682H300.781V42.7213H299.257V35.0869H300.781V38.1348H302.1V34.8377H303.653V42.7945ZM303.653 48.0698H302.027V44.7874H294.583V43.4686H303.653V48.0698ZM315.655 37.2995H311.053V39.6587H315.42V40.9482H311.053V43.6738C312.162 43.664 313.134 43.6322 313.969 43.5785C314.805 43.5248 315.659 43.4246 316.534 43.2781L316.68 44.5969C315.713 44.7483 314.758 44.8534 313.816 44.912C312.878 44.9657 311.771 44.9926 310.497 44.9926H309.398V35.9661H315.655V37.2995ZM319.23 39.9518H321.267V41.3146H319.23V48.0698H317.603V34.8231H319.23V39.9518ZM332.858 41.93H331.216V34.8231H332.858V41.93ZM325.707 43.9082H331.231V42.5454H332.858V47.9086H324.095V42.5454H325.707V43.9082ZM331.231 46.5898V45.1831H325.707V46.5898H331.231ZM325.634 35.4092C326.308 35.4043 326.916 35.5338 327.458 35.7975C328 36.0564 328.425 36.4228 328.733 36.8966C329.04 37.3703 329.194 37.9101 329.194 38.5158C329.194 39.1068 329.038 39.6367 328.725 40.1056C328.418 40.5746 327.993 40.9409 327.451 41.2047C326.913 41.4635 326.308 41.593 325.634 41.593C324.955 41.593 324.344 41.4635 323.802 41.2047C323.26 40.9409 322.832 40.5746 322.52 40.1056C322.212 39.6367 322.058 39.1068 322.058 38.5158C322.058 37.9101 322.212 37.3703 322.52 36.8966C322.832 36.4228 323.26 36.0564 323.802 35.7975C324.344 35.5338 324.955 35.4043 325.634 35.4092ZM325.634 36.772C325.248 36.772 324.903 36.8428 324.6 36.9845C324.303 37.1261 324.068 37.3288 323.897 37.5926C323.731 37.8563 323.65 38.1641 323.655 38.5158C323.65 38.8626 323.731 39.1678 323.897 39.4316C324.068 39.6905 324.303 39.8932 324.6 40.0397C324.903 40.1814 325.248 40.2546 325.634 40.2595C326.015 40.2546 326.354 40.1814 326.652 40.0397C326.95 39.8932 327.182 39.6905 327.348 39.4316C327.514 39.1678 327.597 38.8626 327.597 38.5158C327.597 38.1641 327.514 37.8563 327.348 37.5926C327.182 37.3288 326.95 37.1261 326.652 36.9845C326.354 36.8428 326.015 36.772 325.634 36.772ZM343.1 38.589C343.1 39.2826 343.232 39.9811 343.496 40.6845C343.765 41.3878 344.148 42.0277 344.646 42.6041C345.149 43.1804 345.738 43.6249 346.412 43.9375L345.504 45.227C344.776 44.8851 344.138 44.3844 343.591 43.725C343.044 43.0608 342.617 42.3012 342.309 41.4464C342.001 42.3794 341.564 43.2073 340.998 43.9302C340.431 44.6531 339.774 45.1928 339.027 45.5494L338.074 44.2745C338.753 43.9522 339.349 43.4857 339.862 42.8751C340.38 42.2646 340.775 41.5832 341.049 40.831C341.327 40.0788 341.469 39.3315 341.474 38.589V37.4754H338.587V36.1272H345.87V37.4754H343.1V38.589ZM348.727 39.9811H350.764V41.3439H348.727V48.0698H347.101V34.8231H348.727V39.9811ZM355.453 38.296C355.453 39.0384 355.541 39.7589 355.717 40.4573C355.898 41.1558 356.179 41.7957 356.56 42.3769C356.941 42.9582 357.417 43.4295 357.988 43.791L357.094 45.0365C356.518 44.6897 356.03 44.2257 355.629 43.6444C355.229 43.0583 354.913 42.3867 354.684 41.6296C354.435 42.4551 354.095 43.1877 353.666 43.8276C353.236 44.4675 352.718 44.973 352.112 45.3442L351.101 44.128C351.721 43.7519 352.239 43.2586 352.654 42.648C353.07 42.0375 353.377 41.3658 353.578 40.6332C353.783 39.9005 353.885 39.1458 353.885 38.3692V35.9954H355.453V38.296ZM362.751 48.0698H361.183V34.8231H362.751V48.0698ZM359.996 47.425H358.457V40.7284H356.567V39.3803H358.457V35.0575H359.996V47.425ZM375.309 48.0698H373.667V34.8231H375.309V48.0698ZM372.51 38.1787H364.568V36.8746H367.718V34.9843H369.374V36.8746H372.51V38.1787ZM368.568 39.0286C369.208 39.0286 369.784 39.1629 370.297 39.4316C370.81 39.6954 371.211 40.0641 371.499 40.5379C371.792 41.0117 371.938 41.549 371.938 42.1498C371.938 42.7506 371.792 43.2879 371.499 43.7617C371.211 44.2306 370.81 44.5969 370.297 44.8607C369.784 45.1244 369.208 45.2563 368.568 45.2563C367.923 45.2563 367.344 45.1244 366.832 44.8607C366.324 44.5969 365.923 44.2306 365.63 43.7617C365.342 43.2879 365.198 42.7506 365.198 42.1498C365.198 41.549 365.342 41.0117 365.63 40.5379C365.923 40.0641 366.324 39.6954 366.832 39.4316C367.344 39.1629 367.923 39.0286 368.568 39.0286ZM368.568 40.3621C368.216 40.3621 367.904 40.4353 367.63 40.5819C367.357 40.7284 367.142 40.9385 366.985 41.212C366.829 41.4806 366.751 41.7932 366.751 42.1498C366.751 42.5064 366.829 42.819 366.985 43.0876C367.142 43.3514 367.357 43.5565 367.63 43.7031C367.904 43.8447 368.216 43.9131 368.568 43.9082C368.92 43.9131 369.23 43.8447 369.499 43.7031C369.772 43.5565 369.985 43.3514 370.136 43.0876C370.292 42.819 370.37 42.5064 370.37 42.1498C370.37 41.7932 370.292 41.4806 370.136 41.212C369.985 40.9385 369.772 40.7284 369.499 40.5819C369.23 40.4353 368.92 40.3621 368.568 40.3621ZM391.266 37.49H393.113V38.8381H391.266V41.4757H389.64V34.8231H391.266V37.49ZM391.266 45.5201H384.233V46.6191H391.676V47.9086H382.621V44.3332H389.64V43.3074H382.606V42.0472H391.266V45.5201ZM384.482 35.2627C385.151 35.2627 385.752 35.3897 386.284 35.6437C386.816 35.8928 387.234 36.2445 387.537 36.6987C387.84 37.1481 387.994 37.661 387.998 38.2373C387.994 38.8039 387.84 39.3144 387.537 39.7686C387.234 40.218 386.814 40.5697 386.277 40.8237C385.744 41.0728 385.146 41.1973 384.482 41.1973C383.812 41.1973 383.209 41.0703 382.672 40.8163C382.14 40.5623 381.719 40.2107 381.412 39.7613C381.109 39.3119 380.96 38.8039 380.965 38.2373C380.96 37.661 381.109 37.1481 381.412 36.6987C381.715 36.2445 382.135 35.8928 382.672 35.6437C383.209 35.3897 383.812 35.2627 384.482 35.2627ZM384.482 36.5815C384.11 36.5815 383.778 36.6499 383.485 36.7866C383.192 36.9234 382.963 37.1164 382.797 37.3655C382.635 37.6146 382.557 37.9052 382.562 38.2373C382.557 38.5646 382.635 38.8552 382.797 39.1092C382.963 39.3632 383.192 39.561 383.485 39.7027C383.778 39.8394 384.11 39.9078 384.482 39.9078C384.848 39.9078 385.178 39.8394 385.471 39.7027C385.769 39.561 386.001 39.3632 386.167 39.1092C386.333 38.8552 386.416 38.5646 386.416 38.2373C386.416 37.9052 386.333 37.6146 386.167 37.3655C386.001 37.1164 385.771 36.9234 385.478 36.7866C385.185 36.6499 384.853 36.5815 384.482 36.5815ZM397.347 35.7902C398.012 35.7902 398.603 35.9832 399.12 36.369C399.638 36.75 400.044 37.2946 400.337 38.0029C400.635 38.7062 400.786 39.5268 400.791 40.4647C400.786 41.4122 400.635 42.2402 400.337 42.9484C400.044 43.6567 399.638 44.2013 399.12 44.5823C398.603 44.9633 398.012 45.1537 397.347 45.1537C396.678 45.1537 396.082 44.9633 395.56 44.5823C395.037 44.1964 394.629 43.6493 394.336 42.9411C394.043 42.2328 393.899 41.4074 393.904 40.4647C393.899 39.5317 394.043 38.7111 394.336 38.0029C394.629 37.2946 395.037 36.75 395.56 36.369C396.082 35.9832 396.678 35.7902 397.347 35.7902ZM397.347 37.2556C396.976 37.2556 396.649 37.385 396.366 37.6439C396.082 37.8979 395.862 38.2666 395.706 38.7502C395.55 39.2289 395.472 39.8004 395.472 40.4647C395.472 41.1338 395.55 41.7102 395.706 42.1938C395.862 42.6773 396.082 43.0485 396.366 43.3074C396.649 43.5614 396.976 43.6884 397.347 43.6884C397.723 43.6884 398.053 43.5614 398.336 43.3074C398.62 43.0485 398.837 42.6773 398.989 42.1938C399.145 41.7102 399.223 41.1338 399.223 40.4647C399.223 39.8004 399.145 39.2264 398.989 38.7429C398.837 38.2593 398.62 37.8905 398.336 37.6365C398.053 37.3826 397.723 37.2556 397.347 37.2556ZM404.161 39.9078H406.198V41.2852H404.161V48.0698H402.535V34.8231H404.161V39.9078ZM418.859 46.4726H406.755V45.1391H411.971V42.5601H408.088V35.7023H409.715V37.871H415.855V35.7023H417.481V42.5601H413.583V45.1391H418.859V46.4726ZM415.855 41.2413V39.1752H409.715V41.2413H415.855ZM430.786 48.0698H429.145V34.8231H430.786V48.0698ZM426.83 36.2298C426.83 38.335 426.354 40.1838 425.401 41.7761C424.449 43.3636 422.869 44.68 420.661 45.7252L419.811 44.4211C421.516 43.6103 422.798 42.6407 423.658 41.5124C424.522 40.3792 425.028 39.0482 425.174 37.5193H420.485V36.2298H426.83ZM442.143 45.4322L445.352 42.2377H437.571V40.6991H445.352L442.143 37.5047L443.213 36.4496L448.224 41.4611L443.213 46.4872L442.143 45.4322Z" fill="black"/>
</svg>
