<svg width="640" height="83" viewBox="0 0 640 83" fill="none" xmlns="http://www.w3.org/2000/svg">
<rect width="640" height="81.5494" transform="translate(0 0.491211)" fill="#E7FFD5"/>
<rect x="250.01" y="26.8799" width="66.0958" height="19.2192" rx="9.60958" transform="rotate(-7.20211 250.01 26.8799)" fill="#F9B5FF"/>
<path d="M269.893 36.568L265.153 37.167L264.325 30.6131L269.064 30.0142L269.893 36.568ZM266.235 36.0357L268.547 35.7435L267.964 31.1365L265.653 31.4286L266.235 36.0357ZM272.948 38.6881L271.72 38.8432L270.458 28.8548L271.685 28.6996L272.948 38.6881ZM273.845 33.3827L272.025 33.6126L271.895 32.5784L273.714 32.3485L273.845 33.3827ZM277.497 30.4039C277.603 31.2371 277.588 32.0388 277.453 32.8088C277.321 33.5746 277.073 34.2653 276.709 34.8807C276.345 35.4961 275.875 35.9881 275.3 36.3568L274.417 35.4231C274.929 35.115 275.355 34.7034 275.694 34.1885C276.033 33.6699 276.27 33.095 276.403 32.4638C276.54 31.8284 276.568 31.1844 276.485 30.5317L276.283 28.9334L277.295 28.8055L277.497 30.4039ZM277.724 30.3752C277.802 30.9946 277.981 31.5807 278.261 32.1335C278.541 32.6863 278.904 33.1648 279.353 33.5689C279.804 33.9726 280.308 34.2554 280.865 34.4174L280.259 35.4941C279.634 35.2921 279.07 34.9494 278.567 34.4661C278.063 33.9791 277.652 33.396 277.334 32.717C277.016 32.0379 276.807 31.3002 276.706 30.5038L276.504 28.9054L277.522 28.7768L277.724 30.3752ZM283.227 37.4172L281.983 37.5744L280.717 27.5583L281.961 27.4011L283.227 37.4172ZM292.634 31.2838L291.461 31.4319L290.812 26.2939L291.984 26.1457L292.634 31.2838ZM290.659 31.4883L289.503 31.6344L288.883 26.7231L290.039 26.5771L290.659 31.4883ZM289.566 29.598L287.841 29.816L287.713 28.8094L289.439 28.5914L289.566 29.598ZM293.008 34.2482L287.489 34.9457L287.656 36.2731L286.423 36.4289L286.141 34.1945L291.666 33.4963L291.577 32.7939L286.035 33.4942L285.912 32.5153L292.681 31.6598L293.008 34.2482ZM293.59 35.9615L286.478 36.8603L286.355 35.8924L293.468 34.9937L293.59 35.9615ZM288.349 31.3476L284.405 31.8459L283.891 27.7753L287.834 27.277L288.349 31.3476ZM285.449 30.77L287.087 30.5631L286.81 28.373L285.173 28.5798L285.449 30.77ZM303.481 33.6609L294.344 34.8155L294.216 33.8034L303.353 32.6488L303.481 33.6609ZM299.42 33.5841L298.209 33.7371L297.905 31.3313L299.116 31.1782L299.42 33.5841ZM301.767 28.8541L296.026 29.5796L296.255 31.3937L295.027 31.5488L294.676 28.7669L300.433 28.0393L300.275 26.7894L294.501 27.519L294.375 26.5235L301.361 25.6408L301.767 28.8541ZM302.294 31.1193L295.088 32.03L294.961 31.0289L302.168 30.1183L302.294 31.1193Z" fill="black"/>
<rect x="176.197" y="36.8174" width="56.0958" height="19.2192" rx="9.60958" transform="rotate(-15.9574 176.197 36.8174)" fill="#99D3FF"/>
<path d="M192.873 42.018C193.908 41.7181 194.728 41.4624 195.332 41.251C195.937 41.0395 196.528 40.7951 197.106 40.5178L197.505 41.4067C196.913 41.7034 196.303 41.9629 195.675 42.1851C195.05 42.4063 194.207 42.6686 193.146 42.972L192.363 43.1958L192.09 42.2417L192.873 42.018ZM195.724 37.7759L192.385 38.7308L193.388 42.2361L192.187 42.5794L190.916 38.1361L195.456 36.838L195.724 37.7759ZM196.107 39.864L192.58 40.8725L192.309 39.9238L195.836 38.9153L196.107 39.864ZM200 42.4675L198.81 42.8077L196.762 35.647L197.952 35.3067L200 42.4675ZM200.421 38.8102L198.711 39.2991L198.432 38.3236L200.142 37.8347L200.421 38.8102ZM201.05 44.7009L194.463 46.5845L194.184 45.609L200.771 43.7254L201.05 44.7009ZM195.532 45.8438L194.348 46.1825L193.608 43.5937L194.792 43.255L195.532 45.8438ZM202.36 39.3053C203.395 39.0054 204.215 38.7497 204.819 38.5382C205.424 38.3268 206.015 38.0824 206.593 37.8051L206.992 38.694C206.4 38.9907 205.79 39.2502 205.162 39.4724C204.537 39.6935 203.694 39.9559 202.633 40.2593L201.85 40.4831L201.577 39.529L202.36 39.3053ZM205.211 35.0632L201.872 36.018L202.875 39.5234L201.674 39.8667L200.403 35.4234L204.943 34.1253L205.211 35.0632ZM205.594 37.1513L202.067 38.1598L201.796 37.2111L205.323 36.2026L205.594 37.1513ZM209.487 39.7548L208.297 40.095L206.249 32.9343L207.439 32.594L209.487 39.7548ZM209.908 36.0975L208.198 36.5864L207.919 35.6109L209.629 35.122L209.908 36.0975ZM210.537 41.9882L203.95 43.8718L203.671 42.8963L210.258 41.0127L210.537 41.9882ZM205.019 43.1311L203.835 43.4698L203.095 40.881L204.279 40.5423L205.019 43.1311ZM220.118 39.4631L218.912 39.8079L216.137 30.1012L217.343 29.7564L220.118 39.4631ZM212.324 31.9567C212.81 31.8177 213.285 31.8347 213.748 32.0077C214.21 32.1771 214.622 32.4902 214.985 32.947C215.346 33.4002 215.625 33.9699 215.821 34.6559C216.019 35.3456 216.084 35.9801 216.018 36.5595C215.951 37.1354 215.766 37.6191 215.465 38.0107C215.163 38.4023 214.769 38.6676 214.283 38.8066C213.794 38.9465 213.317 38.93 212.854 38.7571C212.391 38.5841 211.977 38.2715 211.612 37.8193C211.249 37.3625 210.97 36.7893 210.772 36.0996C210.576 35.4136 210.512 34.7826 210.579 34.2068C210.649 33.6263 210.835 33.1421 211.138 32.754C211.439 32.3624 211.835 32.0966 212.324 31.9567ZM212.631 33.0286C212.358 33.1027 212.144 33.2646 211.987 33.5142C211.833 33.7593 211.749 34.0751 211.736 34.4615C211.723 34.848 211.786 35.2842 211.925 35.7701C212.064 36.2561 212.241 36.6614 212.458 36.986C212.673 37.3071 212.911 37.5309 213.172 37.6574C213.435 37.7794 213.702 37.8015 213.974 37.7239C214.245 37.6462 214.458 37.4866 214.614 37.2451C214.768 37.0001 214.851 36.6843 214.865 36.2979C214.877 35.9079 214.813 35.4699 214.674 34.9839C214.535 34.4979 214.358 34.0944 214.143 33.7734C213.927 33.4523 213.689 33.2285 213.429 33.102C213.171 32.9708 212.905 32.9464 212.631 33.0286Z" fill="black"/>
<rect x="230.776" y="37.3789" width="66.0958" height="19.2192" rx="9.60958" transform="rotate(9.65287 230.776 37.3789)" fill="#FFE481"/>
<path d="M251.089 52.5241L242.043 50.9855L242.213 49.9853L251.259 51.5239L251.089 52.5241ZM244.936 54.5877L243.71 54.3793L244.329 50.7411L245.555 50.9495L244.936 54.5877ZM248.376 55.1729L247.173 54.9682L247.791 51.33L248.995 51.5347L248.376 55.1729ZM247.869 46.8533C247.775 47.4028 247.517 47.8868 247.096 48.3051C246.678 48.7241 246.136 49.0409 245.469 49.2556C244.803 49.4703 244.064 49.5595 243.253 49.5232L242.971 48.4857C243.659 48.5198 244.282 48.458 244.84 48.3004C245.399 48.1428 245.849 47.9197 246.192 47.6313C246.536 47.3428 246.737 47.0227 246.797 46.671L246.839 46.4237L247.911 46.606L247.869 46.8533ZM248.017 46.8785C247.958 47.2229 248.04 47.5873 248.261 47.9718C248.486 48.3568 248.835 48.7178 249.309 49.0548C249.787 49.3925 250.354 49.6586 251.011 49.8533L250.403 50.7393C249.628 50.5058 248.962 50.1776 248.404 49.7548C247.847 49.3283 247.441 48.8482 247.185 48.3146C246.929 47.781 246.847 47.2412 246.94 46.6953L246.982 46.448L248.059 46.6312L248.017 46.8785ZM251.054 47.6044L243.69 46.3518L243.856 45.3791L251.22 46.6316L251.054 47.6044ZM248.071 46.4635L246.867 46.2588L247.122 44.7585L248.326 44.9632L248.071 46.4635ZM260.212 53.0072L258.987 52.7988L259.982 46.9458L261.208 47.1542L260.212 53.0072ZM256.822 52.6284C257.514 52.7462 258.1 52.925 258.579 53.1649C259.063 53.4017 259.418 53.6883 259.643 54.0244C259.873 54.3612 259.953 54.7311 259.884 55.1342C259.816 55.5372 259.618 55.8597 259.29 56.1018C258.965 56.3482 258.538 56.5035 258.006 56.5677C257.475 56.6356 256.861 56.6103 256.165 56.4919C255.465 56.3729 254.873 56.1931 254.39 55.9526C253.906 55.7158 253.554 55.4278 253.333 55.0885C253.111 54.753 253.034 54.3837 253.103 53.9807C253.171 53.5777 253.366 53.2545 253.686 53.0112C254.006 52.7678 254.434 52.6144 254.969 52.5508C255.504 52.4835 256.122 52.5094 256.822 52.6284ZM256.659 53.5847C256.194 53.5055 255.794 53.4752 255.459 53.4936C255.124 53.5084 254.862 53.575 254.673 53.6935C254.483 53.8084 254.37 53.9739 254.334 54.1901C254.298 54.3989 254.35 54.5906 254.49 54.7652C254.634 54.9404 254.86 55.0939 255.17 55.2257C255.48 55.3538 255.866 55.4571 256.327 55.5357C256.789 55.6142 257.189 55.6445 257.527 55.6267C257.87 55.6059 258.138 55.5365 258.332 55.4186C258.529 55.3013 258.645 55.1383 258.681 54.9295C258.716 54.7206 258.66 54.5283 258.513 54.3524C258.37 54.1736 258.142 54.0216 257.827 53.8965C257.514 53.7678 257.124 53.6638 256.659 53.5847ZM255.695 46.8161C256.205 46.9027 256.644 47.081 257.012 47.3511C257.385 47.6218 257.656 47.9563 257.826 48.3546C258 48.7498 258.048 49.1746 257.971 49.629C257.894 50.0796 257.708 50.4645 257.412 50.7837C257.121 51.0998 256.755 51.3241 256.314 51.4564C255.877 51.5857 255.404 51.6107 254.893 51.5314C254.385 51.4375 253.945 51.257 253.572 50.99C253.203 50.7199 252.932 50.3872 252.758 49.992C252.588 49.5936 252.541 49.1692 252.618 48.7185C252.695 48.2642 252.879 47.879 253.171 47.5628C253.466 47.2437 253.833 47.0176 254.27 46.8846C254.711 46.7523 255.186 46.7294 255.695 46.8161ZM255.52 47.8493C255.231 47.7964 254.966 47.804 254.724 47.8723C254.482 47.9405 254.28 48.0645 254.118 48.2442C253.96 48.4208 253.857 48.6466 253.811 48.9213C253.765 49.1888 253.789 49.4342 253.883 49.6575C253.978 49.8772 254.126 50.0607 254.327 50.208C254.532 50.3522 254.779 50.4508 255.068 50.5037C255.355 50.5486 255.619 50.537 255.86 50.4688C256.102 50.3969 256.301 50.2723 256.455 50.095C256.614 49.9147 256.716 49.6908 256.762 49.4233C256.808 49.1522 256.786 48.9053 256.695 48.6826C256.609 48.4605 256.463 48.2773 256.257 48.1331C256.052 47.9888 255.806 47.8942 255.52 47.8493ZM269.891 56.3103L268.726 56.1121L269.995 48.6489L271.161 48.8471L269.891 56.3103ZM269.675 52.6602L267.949 52.3667L268.12 51.3664L269.845 51.6599L269.675 52.6602ZM267.739 55.6332L266.585 55.4369L267.772 48.4573L268.926 48.6536L267.739 55.6332ZM269.79 58.6341L262.816 57.4479L262.986 56.4477L269.96 57.6339L269.79 58.6341ZM264.095 57.2753L262.88 57.0687L263.354 54.2824L264.569 54.489L264.095 57.2753ZM266.924 48.986C266.776 49.8544 266.515 50.6129 266.141 51.2618C265.771 51.9113 265.259 52.4594 264.606 52.9063C263.953 53.3532 263.136 53.6911 262.155 53.9201L261.715 52.9517C262.546 52.7614 263.236 52.4943 263.785 52.1503C264.338 51.8032 264.765 51.384 265.067 50.8925C265.37 50.3974 265.578 49.8183 265.691 49.1551L265.754 48.7869L266.924 48.986ZM265.965 49.8352L262.855 49.3061L263.022 48.3224L266.133 48.8514L265.965 49.8352ZM262.232 51.3038L262.237 50.281L265.439 50.6335L265.295 51.4853L262.232 51.3038ZM278.966 60.4041L277.73 60.1938L279.423 50.241L280.659 50.4513L278.966 60.4041ZM272.742 55.8056C273.871 55.9976 274.771 56.1319 275.444 56.2087C276.122 56.2824 276.802 56.3171 277.485 56.3126L277.429 57.338C276.738 57.3485 276.04 57.3166 275.336 57.2421C274.637 57.1683 273.713 57.0357 272.565 56.8443L271.73 56.7022L271.907 55.6635L272.742 55.8056ZM277.478 51.8668L273.911 51.2601L273.06 56.2668L271.839 56.0592L272.861 50.0524L277.648 50.8666L277.478 51.8668Z" fill="black"/>
<path d="M342.749 44.8607H341.108V43.7031H338.514V42.5601H341.108V34.8377H342.749V44.8607ZM343.057 47.806H333.342V43.8936H334.968V46.4872H343.057V47.806ZM331.583 40.787C333.302 40.7773 334.846 40.748 336.214 40.6991C337.581 40.6503 338.885 40.5477 340.126 40.3914L340.214 41.5637C339.154 41.7395 338.04 41.8665 336.873 41.9447V44.4943H335.246V42.0326C334.304 42.0716 333.151 42.0912 331.788 42.0912L331.583 40.787ZM335.906 35.3213C336.546 35.3213 337.112 35.4214 337.606 35.6217C338.104 35.8171 338.492 36.0931 338.771 36.4496C339.054 36.8013 339.198 37.2067 339.203 37.6659C339.198 38.1348 339.056 38.5451 338.778 38.8967C338.5 39.2484 338.111 39.5195 337.613 39.71C337.115 39.9005 336.546 39.9957 335.906 39.9957C335.256 39.9957 334.68 39.9005 334.177 39.71C333.679 39.5195 333.29 39.2484 333.012 38.8967C332.733 38.5451 332.594 38.1348 332.594 37.6659C332.594 37.2067 332.733 36.8013 333.012 36.4496C333.29 36.0931 333.679 35.8171 334.177 35.6217C334.68 35.4214 335.256 35.3213 335.906 35.3213ZM335.906 36.5229C335.373 36.5229 334.944 36.6255 334.616 36.8306C334.294 37.0309 334.133 37.3093 334.133 37.6659C334.133 38.0224 334.294 38.3033 334.616 38.5084C334.944 38.7087 335.373 38.8088 335.906 38.8088C336.419 38.8088 336.836 38.7062 337.159 38.5011C337.481 38.296 337.645 38.0175 337.65 37.6659C337.645 37.3142 337.481 37.0358 337.159 36.8306C336.836 36.6255 336.419 36.5229 335.906 36.5229ZM355.058 38.5451H356.919V39.8932H355.058V44.4064H353.431V34.8231H355.058V38.5451ZM351.101 37.2263H346.779V40.831H347.057C348.249 40.831 349.223 40.8017 349.98 40.7431C350.742 40.6845 351.492 40.577 352.23 40.4207L352.406 41.7395C351.561 41.9056 350.691 42.0179 349.797 42.0765C348.903 42.1351 347.717 42.1645 346.237 42.1645H345.167V35.9221H351.101V37.2263ZM355.585 47.806H346.574V43.3953H348.2V46.4872H355.585V47.806ZM365.887 38.589C365.887 39.2826 366.019 39.9811 366.282 40.6845C366.551 41.3878 366.935 42.0277 367.433 42.6041C367.936 43.1804 368.524 43.6249 369.198 43.9375L368.29 45.227C367.562 44.8851 366.925 44.3844 366.378 43.725C365.831 43.0608 365.403 42.3012 365.095 41.4464C364.788 42.3794 364.351 43.2073 363.784 43.9302C363.217 44.6531 362.56 45.1928 361.813 45.5494L360.861 44.2745C361.54 43.9522 362.136 43.4857 362.648 42.8751C363.166 42.2646 363.562 41.5832 363.835 40.831C364.114 40.0788 364.255 39.3315 364.26 38.589V37.4754H361.374V36.1272H368.656V37.4754H365.887V38.589ZM371.514 39.9811H373.551V41.3439H371.514V48.0698H369.887V34.8231H371.514V39.9811ZM378.24 38.296C378.24 39.0384 378.328 39.7589 378.503 40.4573C378.684 41.1558 378.965 41.7957 379.346 42.3769C379.727 42.9582 380.203 43.4295 380.775 43.791L379.881 45.0365C379.304 44.6897 378.816 44.2257 378.415 43.6444C378.015 43.0583 377.7 42.3867 377.47 41.6296C377.221 42.4551 376.882 43.1877 376.452 43.8276C376.022 44.4675 375.504 44.973 374.899 45.3442L373.888 44.128C374.508 43.7519 375.026 43.2586 375.441 42.648C375.856 42.0375 376.164 41.3658 376.364 40.6332C376.569 39.9005 376.672 39.1458 376.672 38.3692V35.9954H378.24V38.296ZM385.537 48.0698H383.969V34.8231H385.537V48.0698ZM382.782 47.425H381.244V40.7284H379.353V39.3803H381.244V35.0575H382.782V47.425ZM398.095 48.0698H396.454V34.8231H398.095V48.0698ZM395.296 38.1787H387.354V36.8746H390.505V34.9843H392.16V36.8746H395.296V38.1787ZM391.354 39.0286C391.994 39.0286 392.571 39.1629 393.084 39.4316C393.596 39.6954 393.997 40.0641 394.285 40.5379C394.578 41.0117 394.725 41.549 394.725 42.1498C394.725 42.7506 394.578 43.2879 394.285 43.7617C393.997 44.2306 393.596 44.5969 393.084 44.8607C392.571 45.1244 391.994 45.2563 391.354 45.2563C390.71 45.2563 390.131 45.1244 389.618 44.8607C389.11 44.5969 388.709 44.2306 388.416 43.7617C388.128 43.2879 387.984 42.7506 387.984 42.1498C387.984 41.549 388.128 41.0117 388.416 40.5379C388.709 40.0641 389.11 39.6954 389.618 39.4316C390.131 39.1629 390.71 39.0286 391.354 39.0286ZM391.354 40.3621C391.003 40.3621 390.69 40.4353 390.417 40.5819C390.143 40.7284 389.928 40.9385 389.772 41.212C389.616 41.4806 389.537 41.7932 389.537 42.1498C389.537 42.5064 389.616 42.819 389.772 43.0876C389.928 43.3514 390.143 43.5565 390.417 43.7031C390.69 43.8447 391.003 43.9131 391.354 43.9082C391.706 43.9131 392.016 43.8447 392.285 43.7031C392.558 43.5565 392.771 43.3514 392.922 43.0876C393.079 42.819 393.157 42.5064 393.157 42.1498C393.157 41.7932 393.079 41.4806 392.922 41.212C392.771 40.9385 392.558 40.7284 392.285 40.5819C392.016 40.4353 391.706 40.3621 391.354 40.3621ZM414.053 37.49H415.899V38.8381H414.053V41.4757H412.426V34.8231H414.053V37.49ZM414.053 45.5201H407.019V46.6191H414.463V47.9086H405.407V44.3332H412.426V43.3074H405.392V42.0472H414.053V45.5201ZM407.268 35.2627C407.937 35.2627 408.538 35.3897 409.07 35.6437C409.603 35.8928 410.02 36.2445 410.323 36.6987C410.626 37.1481 410.78 37.661 410.785 38.2373C410.78 38.8039 410.626 39.3144 410.323 39.7686C410.02 40.218 409.6 40.5697 409.063 40.8237C408.531 41.0728 407.932 41.1973 407.268 41.1973C406.599 41.1973 405.996 41.0703 405.458 40.8163C404.926 40.5623 404.506 40.2107 404.198 39.7613C403.895 39.3119 403.746 38.8039 403.751 38.2373C403.746 37.661 403.895 37.1481 404.198 36.6987C404.501 36.2445 404.921 35.8928 405.458 35.6437C405.996 35.3897 406.599 35.2627 407.268 35.2627ZM407.268 36.5815C406.897 36.5815 406.565 36.6499 406.272 36.7866C405.979 36.9234 405.749 37.1164 405.583 37.3655C405.422 37.6146 405.344 37.9052 405.348 38.2373C405.344 38.5646 405.422 38.8552 405.583 39.1092C405.749 39.3632 405.979 39.561 406.272 39.7027C406.565 39.8394 406.897 39.9078 407.268 39.9078C407.634 39.9078 407.964 39.8394 408.257 39.7027C408.555 39.561 408.787 39.3632 408.953 39.1092C409.119 38.8552 409.202 38.5646 409.202 38.2373C409.202 37.9052 409.119 37.6146 408.953 37.3655C408.787 37.1164 408.558 36.9234 408.264 36.7866C407.971 36.6499 407.639 36.5815 407.268 36.5815ZM420.134 35.7902C420.798 35.7902 421.389 35.9832 421.907 36.369C422.425 36.75 422.83 37.2946 423.123 38.0029C423.421 38.7062 423.572 39.5268 423.577 40.4647C423.572 41.4122 423.421 42.2402 423.123 42.9484C422.83 43.6567 422.425 44.2013 421.907 44.5823C421.389 44.9633 420.798 45.1537 420.134 45.1537C419.465 45.1537 418.869 44.9633 418.346 44.5823C417.823 44.1964 417.416 43.6493 417.122 42.9411C416.829 42.2328 416.685 41.4074 416.69 40.4647C416.685 39.5317 416.829 38.7111 417.122 38.0029C417.416 37.2946 417.823 36.75 418.346 36.369C418.869 35.9832 419.465 35.7902 420.134 35.7902ZM420.134 37.2556C419.763 37.2556 419.435 37.385 419.152 37.6439C418.869 37.8979 418.649 38.2666 418.493 38.7502C418.336 39.2289 418.258 39.8004 418.258 40.4647C418.258 41.1338 418.336 41.7102 418.493 42.1938C418.649 42.6773 418.869 43.0485 419.152 43.3074C419.435 43.5614 419.763 43.6884 420.134 43.6884C420.51 43.6884 420.84 43.5614 421.123 43.3074C421.406 43.0485 421.623 42.6773 421.775 42.1938C421.931 41.7102 422.009 41.1338 422.009 40.4647C422.009 39.8004 421.931 39.2264 421.775 38.7429C421.623 38.2593 421.406 37.8905 421.123 37.6365C420.84 37.3826 420.51 37.2556 420.134 37.2556ZM426.948 39.9078H428.984V41.2852H426.948V48.0698H425.321V34.8231H426.948V39.9078ZM441.645 46.4726H429.541V45.1391H434.758V42.5601H430.875V35.7023H432.501V37.871H438.641V35.7023H440.268V42.5601H436.37V45.1391H441.645V46.4726ZM438.641 41.2413V39.1752H432.501V41.2413H438.641ZM453.573 48.0698H451.932V34.8231H453.573V48.0698ZM449.616 36.2298C449.616 38.335 449.14 40.1838 448.188 41.7761C447.235 43.3636 445.655 44.68 443.447 45.7252L442.597 44.4211C444.302 43.6103 445.584 42.6407 446.444 41.5124C447.308 40.3792 447.814 39.0482 447.961 37.5193H443.271V36.2298H449.616ZM464.929 45.4322L468.138 42.2377H460.357V40.6991H468.138L464.929 37.5047L465.999 36.4496L471.01 41.4611L465.999 46.4872L464.929 45.4322Z" fill="black"/>
</svg>
