<svg width="93" height="26" viewBox="0 0 93 26" fill="none" xmlns="http://www.w3.org/2000/svg">
<path d="M33.8771 17.4931V15.1796L39.8646 5.85635H43.5525V15.1381H45.3343V17.4931H43.5525V20H40.7486V17.4931H33.8771ZM36.8398 15.1381H40.7901V9.07459H40.6588L36.8398 15.0276V15.1381ZM48.2957 20.1727C47.391 20.1727 46.6382 19.4406 46.652 18.5359C46.6382 17.6381 47.391 16.9061 48.2957 16.9061C49.1658 16.9061 49.9255 17.6381 49.9324 18.5359C49.9255 19.4406 49.1658 20.1727 48.2957 20.1727ZM56.7393 5.66298C59.6606 5.6768 62.43 7.41713 62.4438 12.5552C62.4507 17.3688 60.1648 20.1934 56.6219 20.1934C53.7697 20.1934 51.8222 18.4116 51.5322 16.0221H54.4258C54.6675 17.058 55.4755 17.6727 56.6219 17.6727C58.5349 17.6727 59.557 15.9461 59.5708 13.1285H59.4396C58.7835 14.3715 57.3885 15.1174 55.8208 15.1174C53.2794 15.1174 51.394 13.2044 51.3871 10.5663C51.3802 7.72099 53.5349 5.64917 56.7393 5.66298ZM54.2462 10.4834C54.2532 11.8854 55.2822 12.9696 56.7324 12.9696C58.162 12.9696 59.267 11.8301 59.2601 10.4696C59.2532 9.12293 58.1965 7.97652 56.7532 7.97652C55.3029 7.97652 54.2324 9.08149 54.2462 10.4834ZM69.2254 20.1934C66.2765 20.1934 64.1149 18.453 64.0597 16.0221H66.9119C66.981 17.1202 67.9892 17.8798 69.2254 17.8798C70.6895 17.8798 71.7323 16.8439 71.7254 15.366C71.7323 13.8743 70.6688 12.8246 69.1771 12.8177C68.1205 12.8177 67.3746 13.2113 66.9671 13.9986H64.2945L65.068 5.85635H73.7696V8.26657H67.4851L67.0984 11.837H67.2089C67.7337 11.1395 68.8042 10.6354 70.0473 10.6354C72.6439 10.6354 74.5707 12.576 74.5638 15.2901C74.5707 18.1492 72.4022 20.1934 69.2254 20.1934ZM90.5634 4.01243V14.3094H88.0772V10.1519H85.2595V8.12155H88.0772V4.01243H90.5634ZM75.4805 12.3619C78.3673 11.4365 79.7001 9.15746 79.7554 6.9268H76.1918V4.93094H85.8327V6.9268H82.2899C82.3314 8.96409 83.5952 11.0981 86.3783 12.0373L85.149 13.9986C83.1739 13.3494 81.8203 12.058 81.0468 10.4558C80.2664 12.2307 78.8507 13.6533 76.7581 14.3232L75.4805 12.3619ZM78.6159 21.6022V15.0276H90.5634V21.6022H78.6159ZM81.109 19.6064H88.1256V16.9959H81.109V19.6064Z" fill="#03CF5D"/>
<rect width="26" height="26" transform="matrix(1 0 0 -1 0 26)" fill="#03CF5D"/>
<path d="M15.3148 13.4588L10.4949 6.5H6.5V19.5H10.6852V12.5429L15.5051 19.5H19.5V6.5H15.3148V13.4588Z" fill="white"/>
</svg>
