<svg width="375" height="367" viewBox="0 0 375 367" fill="none" xmlns="http://www.w3.org/2000/svg">
<rect x="-31.75" y="0.25" width="438.5" height="366.5" rx="10.6333" fill="#FAFAFA" stroke="#F3F3F3" stroke-width="0.5"/>
<path d="M69.1221 303.289L72.4717 299.666C72.932 299.165 73.2852 298.755 73.5312 298.436C73.7819 298.117 73.9665 297.818 74.085 297.54C74.208 297.257 74.2718 296.964 74.2764 296.658C74.2718 296.298 74.1784 295.979 73.9961 295.701C73.8138 295.423 73.5654 295.209 73.251 295.059C72.9365 294.904 72.5856 294.826 72.1982 294.826C71.7835 294.826 71.4189 294.91 71.1045 295.079C70.7946 295.248 70.5553 295.482 70.3867 295.783C70.2181 296.079 70.1338 296.421 70.1338 296.809H69.2041C69.2041 296.262 69.334 295.772 69.5938 295.339C69.8581 294.906 70.2181 294.569 70.6738 294.327C71.1341 294.086 71.6514 293.965 72.2256 293.965C72.7907 293.965 73.2965 294.083 73.7432 294.32C74.1943 294.557 74.5452 294.881 74.7959 295.291C75.0511 295.701 75.1787 296.157 75.1787 296.658C75.1787 297.032 75.1126 297.39 74.9805 297.731C74.8483 298.069 74.625 298.445 74.3105 298.859C73.9961 299.27 73.5472 299.785 72.9639 300.404L70.5029 303.057V303.125H75.4795V304H69.1221V303.289ZM80.5244 304H79.54V295.113H79.4854L77.1475 296.658V295.66L79.5127 294.102H80.5244V304ZM92.3096 295.482V295.633C92.3005 296.645 92.2686 297.57 92.2139 298.408C92.1592 299.242 92.0361 300.227 91.8447 301.361L90.9561 301.252C91.111 300.482 91.2249 299.755 91.2979 299.071C91.3753 298.388 91.4209 297.786 91.4346 297.267C91.4528 296.743 91.4619 296.148 91.4619 295.482V295.072H84.0518V294.348H92.3096V295.482ZM93.8271 303.234H82.835V302.496H93.8271V303.234ZM105.134 300.227H104.313V296.891H102.413V300.049H101.593V293.24H102.413V296.152H104.313V293.008H105.134V300.227ZM105.134 304.889H97.2588V300.828H105.134V304.889ZM98.1064 304.178H104.3V301.539H98.1064V304.178ZM100.034 297.014H96.3564V298.955C97.2269 298.955 98.0062 298.928 98.6943 298.873C99.3825 298.814 100.098 298.709 100.841 298.559L100.95 299.283C100.185 299.424 99.4463 299.522 98.7354 299.577C98.029 299.627 97.2132 299.652 96.2881 299.652H95.5088V296.316H99.2139V294.553H95.4814V293.828H100.034V297.014ZM118.026 300.131H107.034V299.42H118.026V300.131ZM116.81 304.779H108.483V301.279H109.358V304.055H116.81V304.779ZM112.517 293.432C113.378 293.432 114.125 293.527 114.759 293.719C115.392 293.906 115.88 294.177 116.222 294.532C116.568 294.888 116.741 295.314 116.741 295.811C116.741 296.303 116.568 296.729 116.222 297.089C115.88 297.444 115.39 297.718 114.752 297.909C114.118 298.096 113.373 298.189 112.517 298.189C111.655 298.189 110.906 298.096 110.268 297.909C109.634 297.718 109.146 297.444 108.805 297.089C108.463 296.729 108.292 296.303 108.292 295.811C108.292 295.314 108.463 294.888 108.805 294.532C109.146 294.172 109.634 293.899 110.268 293.712C110.901 293.525 111.651 293.432 112.517 293.432ZM112.517 294.143C111.847 294.147 111.259 294.218 110.753 294.354C110.247 294.491 109.857 294.685 109.584 294.936C109.311 295.186 109.176 295.478 109.181 295.811C109.176 296.148 109.311 296.442 109.584 296.692C109.857 296.938 110.247 297.13 110.753 297.267C111.259 297.399 111.847 297.465 112.517 297.465C113.187 297.465 113.774 297.399 114.28 297.267C114.786 297.13 115.176 296.938 115.449 296.692C115.727 296.442 115.866 296.148 115.866 295.811C115.866 295.478 115.727 295.186 115.449 294.936C115.176 294.685 114.786 294.491 114.28 294.354C113.774 294.218 113.187 294.147 112.517 294.143ZM133.503 299.762H122.511V299.051H127.583V297.52H123.919V293.582H132.122V294.279H124.767V296.795H132.204V297.52H128.417V299.051H133.503V299.762ZM128.007 300.732C128.864 300.732 129.6 300.817 130.215 300.985C130.835 301.154 131.309 301.4 131.637 301.724C131.969 302.043 132.136 302.428 132.136 302.879C132.136 303.339 131.972 303.731 131.644 304.055C131.315 304.378 130.841 304.624 130.222 304.793C129.602 304.962 128.864 305.048 128.007 305.053C127.141 305.048 126.396 304.962 125.771 304.793C125.152 304.624 124.675 304.378 124.343 304.055C124.015 303.731 123.851 303.339 123.851 302.879C123.851 302.428 124.015 302.043 124.343 301.724C124.675 301.4 125.154 301.154 125.778 300.985C126.403 300.817 127.146 300.732 128.007 300.732ZM128.007 301.416C127.337 301.421 126.754 301.482 126.257 301.601C125.765 301.719 125.386 301.888 125.122 302.106C124.858 302.325 124.726 302.583 124.726 302.879C124.726 303.18 124.858 303.442 125.122 303.665C125.386 303.884 125.765 304.05 126.257 304.164C126.754 304.283 127.337 304.342 128.007 304.342C128.668 304.342 129.244 304.283 129.736 304.164C130.229 304.05 130.607 303.884 130.871 303.665C131.14 303.442 131.274 303.18 131.274 302.879C131.274 302.583 131.14 302.325 130.871 302.106C130.607 301.888 130.229 301.719 129.736 301.601C129.244 301.482 128.668 301.421 128.007 301.416ZM145.603 298.914H140.53V300.24H144.153V302.811H136.839V304.205H144.536V304.916H136.005V302.154H143.319V300.924H135.964V300.24H139.669V298.914H134.61V298.203H145.603V298.914ZM144.167 297.055H136.06V293.418H144.167V297.055ZM136.907 296.344H143.306V294.129H136.907V296.344ZM157.702 300.049H146.71V299.324H151.782V297.738H148.187V293.281H149.048V294.771H155.392V293.281H156.253V297.738H152.644V299.324H157.702V300.049ZM156.321 305.066H155.46V302.072H147.927V301.348H156.321V305.066ZM155.392 297.027V295.455H149.048V297.027H155.392ZM163.007 296.85C163.007 297.515 163.164 298.178 163.479 298.839C163.798 299.5 164.215 300.088 164.729 300.603C165.244 301.118 165.787 301.498 166.356 301.744L165.864 302.428C165.399 302.209 164.951 301.91 164.518 301.532C164.089 301.149 163.706 300.707 163.369 300.206C163.032 299.705 162.77 299.174 162.583 298.613C162.401 299.206 162.141 299.773 161.804 300.315C161.471 300.853 161.093 301.332 160.669 301.751C160.245 302.166 159.808 302.492 159.356 302.729L158.837 302.045C159.388 301.776 159.917 301.361 160.423 300.801C160.933 300.24 161.346 299.611 161.66 298.914C161.979 298.212 162.141 297.524 162.146 296.85V295.004H159.206V294.266H165.987V295.004H163.007V296.85ZM168.708 305.066H167.847V293.008H168.708V305.066ZM181.177 305.066H180.343V298.641H178.388V304.424H177.581V293.295H178.388V297.916H180.343V293.008H181.177V305.066ZM175.913 295.223H172.249V301.252C173.215 301.252 174.022 301.227 174.669 301.177C175.321 301.122 175.977 301.024 176.638 300.883L176.733 301.621C176.05 301.767 175.378 301.865 174.717 301.915C174.056 301.965 173.197 301.995 172.14 302.004H171.388V294.498H175.913V295.223ZM186.919 294.977C186.919 295.528 187.056 296.059 187.329 296.569C187.603 297.08 187.972 297.531 188.437 297.923C188.906 298.31 189.425 298.604 189.995 298.805L189.517 299.502C188.842 299.242 188.241 298.859 187.712 298.354C187.183 297.843 186.789 297.26 186.529 296.604C186.283 297.342 185.891 297.993 185.354 298.559C184.816 299.119 184.189 299.543 183.474 299.83L183.009 299.133C183.597 298.91 184.121 298.588 184.581 298.169C185.046 297.75 185.41 297.262 185.675 296.706C185.944 296.146 186.08 295.551 186.085 294.922V293.623H186.919V294.977ZM192.401 296.248H194.261V296.986H192.401V300.404H191.54V293.008H192.401V296.248ZM188.56 300.732C189.375 300.732 190.077 300.817 190.665 300.985C191.257 301.154 191.711 301.4 192.025 301.724C192.34 302.047 192.497 302.432 192.497 302.879C192.497 303.33 192.34 303.715 192.025 304.034C191.711 304.358 191.26 304.604 190.672 304.772C190.084 304.941 189.38 305.025 188.56 305.025C187.735 305.025 187.026 304.941 186.434 304.772C185.841 304.604 185.388 304.358 185.073 304.034C184.759 303.715 184.604 303.33 184.608 302.879C184.604 302.432 184.759 302.047 185.073 301.724C185.388 301.4 185.841 301.154 186.434 300.985C187.031 300.817 187.739 300.732 188.56 300.732ZM188.56 301.443C187.931 301.443 187.382 301.503 186.912 301.621C186.443 301.735 186.08 301.901 185.825 302.12C185.575 302.334 185.451 302.587 185.456 302.879C185.451 303.175 185.575 303.433 185.825 303.651C186.08 303.87 186.44 304.039 186.905 304.157C187.375 304.276 187.926 304.337 188.56 304.342C189.188 304.337 189.735 304.276 190.2 304.157C190.67 304.039 191.03 303.87 191.28 303.651C191.535 303.433 191.663 303.175 191.663 302.879C191.663 302.587 191.535 302.334 191.28 302.12C191.03 301.901 190.67 301.735 190.2 301.621C189.735 301.503 189.188 301.443 188.56 301.443ZM205.403 305.066H204.569V293.008H205.403V305.066ZM203.011 304.438H202.177V298.518H200.434C200.402 299.292 200.274 299.967 200.051 300.541C199.832 301.115 199.531 301.557 199.148 301.867C198.77 302.177 198.335 302.332 197.843 302.332C197.328 302.332 196.877 302.163 196.489 301.826C196.102 301.489 195.801 301.008 195.587 300.384C195.377 299.759 195.272 299.033 195.272 298.203C195.272 297.369 195.377 296.642 195.587 296.022C195.801 295.398 196.102 294.917 196.489 294.58C196.877 294.243 197.328 294.074 197.843 294.074C198.33 294.074 198.761 294.225 199.135 294.525C199.513 294.826 199.814 295.255 200.037 295.811C200.26 296.367 200.39 297.023 200.427 297.779H202.177V293.281H203.011V304.438ZM197.843 294.881C197.492 294.881 197.182 295.02 196.913 295.298C196.649 295.571 196.444 295.959 196.298 296.46C196.157 296.961 196.088 297.542 196.093 298.203C196.088 298.859 196.157 299.438 196.298 299.939C196.444 300.441 196.649 300.83 196.913 301.108C197.182 301.386 197.492 301.525 197.843 301.525C198.198 301.525 198.51 301.386 198.779 301.108C199.048 300.83 199.256 300.441 199.401 299.939C199.547 299.438 199.62 298.859 199.62 298.203C199.62 297.542 199.547 296.961 199.401 296.46C199.256 295.959 199.048 295.571 198.779 295.298C198.51 295.02 198.198 294.881 197.843 294.881ZM211.337 296.412C211.337 297.105 211.487 297.798 211.788 298.49C212.093 299.183 212.494 299.8 212.991 300.343C213.488 300.881 214.017 301.279 214.577 301.539L214.058 302.25C213.602 302.008 213.167 301.687 212.752 301.286C212.342 300.881 211.977 300.418 211.658 299.898C211.339 299.374 211.093 298.823 210.92 298.244C210.747 298.855 210.503 299.436 210.188 299.987C209.874 300.539 209.512 301.029 209.102 301.457C208.691 301.885 208.261 302.223 207.81 302.469L207.249 301.785C207.805 301.503 208.329 301.076 208.821 300.507C209.318 299.933 209.717 299.285 210.018 298.565C210.318 297.841 210.471 297.123 210.476 296.412V294.088H211.337V296.412ZM217.147 305.08H216.3V297.943H213.265V297.219H216.3V293.008H217.147V305.08ZM232.405 297.219H228.604V298.941H233.677V299.666H222.685V298.941H227.757V297.219H224.229V293.254H225.077V296.494H232.405V297.219ZM228.181 300.664C229.037 300.669 229.773 300.757 230.389 300.931C231.008 301.099 231.482 301.348 231.811 301.676C232.143 302.004 232.31 302.4 232.31 302.865C232.31 303.316 232.143 303.704 231.811 304.027C231.482 304.351 231.008 304.597 230.389 304.766C229.769 304.939 229.033 305.025 228.181 305.025C227.319 305.025 226.576 304.939 225.952 304.766C225.328 304.597 224.849 304.351 224.517 304.027C224.188 303.704 224.024 303.316 224.024 302.865C224.024 302.4 224.188 302.004 224.517 301.676C224.849 301.348 225.326 301.099 225.945 300.931C226.57 300.757 227.315 300.669 228.181 300.664ZM228.181 301.361C227.506 301.366 226.923 301.427 226.431 301.546C225.938 301.664 225.56 301.838 225.296 302.065C225.032 302.289 224.899 302.555 224.899 302.865C224.899 303.161 225.032 303.421 225.296 303.645C225.56 303.863 225.938 304.032 226.431 304.15C226.927 304.269 227.511 304.328 228.181 304.328C228.841 304.328 229.418 304.269 229.91 304.15C230.402 304.032 230.781 303.863 231.045 303.645C231.314 303.421 231.448 303.161 231.448 302.865C231.448 302.555 231.314 302.289 231.045 302.065C230.781 301.842 230.402 301.671 229.91 301.553C229.423 301.43 228.846 301.366 228.181 301.361ZM244.696 300.158H243.835V293.008H244.696V300.158ZM236.37 298.791C237.528 298.791 238.546 298.764 239.426 298.709C240.31 298.654 241.228 298.549 242.181 298.395L242.29 299.133C241.287 299.283 240.337 299.388 239.439 299.447C238.542 299.502 237.519 299.529 236.37 299.529H235.413V296.207H240.021V294.471H235.386V293.746H240.868V296.918H236.247V298.791H236.37ZM244.696 304.889H236.931V300.855H244.696V304.889ZM237.778 304.178H243.849V301.566H237.778V304.178ZM257.876 299.83H252.804V301.32H256.495V305.025H255.634V302.045H248.101V301.32H251.956V299.83H246.884V299.119H257.876V299.83ZM252.804 294.225H256.728V294.922H252.845C252.854 295.419 253.063 295.863 253.474 296.255C253.884 296.642 254.417 296.957 255.073 297.198C255.729 297.44 256.427 297.602 257.165 297.684L256.864 298.354C255.843 298.23 254.923 297.973 254.103 297.581C253.282 297.189 252.708 296.676 252.38 296.043C252.043 296.676 251.462 297.189 250.637 297.581C249.816 297.973 248.898 298.23 247.882 298.354L247.608 297.684C248.338 297.602 249.028 297.44 249.68 297.198C250.336 296.957 250.869 296.642 251.279 296.255C251.689 295.863 251.901 295.419 251.915 294.922H248.046V294.225H251.956V292.926H252.804V294.225ZM262.921 295.346C262.916 295.897 263.049 296.43 263.317 296.945C263.591 297.456 263.962 297.909 264.432 298.306C264.906 298.698 265.432 298.996 266.011 299.201L265.56 299.898C264.871 299.639 264.258 299.256 263.721 298.75C263.188 298.24 262.791 297.656 262.531 297C262.285 297.743 261.891 298.395 261.349 298.955C260.811 299.516 260.182 299.939 259.462 300.227L258.983 299.529C259.58 299.311 260.111 298.992 260.576 298.572C261.046 298.153 261.412 297.661 261.677 297.096C261.941 296.531 262.073 295.929 262.073 295.291V293.732H262.921V295.346ZM268.376 296.768H270.235V297.506H268.376V301.936H267.515V292.994H268.376V296.768ZM268.964 304.779H260.925V301.074H261.813V304.055H268.964V304.779ZM275.239 294.758C275.235 295.355 275.369 295.927 275.643 296.474C275.921 297.016 276.299 297.492 276.777 297.902C277.256 298.312 277.787 298.622 278.37 298.832L277.919 299.516C277.208 299.242 276.579 298.839 276.032 298.306C275.485 297.772 275.08 297.155 274.815 296.453C274.56 297.201 274.157 297.861 273.605 298.436C273.059 299.005 272.427 299.438 271.712 299.734L271.247 299.051C271.83 298.827 272.359 298.499 272.833 298.066C273.307 297.629 273.681 297.125 273.954 296.556C274.232 295.981 274.373 295.382 274.378 294.758V293.596H275.239V294.758ZM280.995 305.066H280.134V301.635H272.942V300.924H280.995V305.066ZM280.995 300.295H280.134V293.008H280.995V300.295ZM294.175 299.625H289.103V301.17H292.808V304.889H284.55V301.17H288.255V299.625H283.183V298.9H294.175V299.625ZM293.095 294.129H291.153V296.904H293.067V297.643H284.249V296.904H286.177V294.129H284.235V293.418H293.095V294.129ZM285.397 304.178H291.974V301.867H285.397V304.178ZM290.292 296.904V294.129H287.038V296.904H290.292ZM306.302 300.938H301.175V305.066H300.341V300.938H295.269V300.227H306.302V300.938ZM297.579 295.277H303.991V293.514H304.853V298.668H296.718V293.514H297.579V295.277ZM303.991 297.957V295.988H297.579V297.957H303.991ZM88.4473 315.332C88.4473 315.865 88.5771 316.376 88.8369 316.863C89.1012 317.346 89.4613 317.772 89.917 318.142C90.3727 318.506 90.89 318.786 91.4688 318.982L91.0449 319.652C90.3522 319.415 89.7415 319.06 89.2129 318.586C88.6888 318.107 88.2992 317.551 88.0439 316.918C87.7933 317.624 87.3923 318.246 86.8408 318.784C86.2894 319.322 85.6491 319.725 84.9199 319.994L84.4824 319.297C85.0703 319.096 85.599 318.8 86.0684 318.408C86.5423 318.012 86.916 317.549 87.1895 317.021C87.4674 316.492 87.6087 315.934 87.6133 315.346V314.648H84.7695V313.924H91.25V314.648H88.4473V315.332ZM93.875 316.18H95.7344V316.904H93.875V320.322H93.0137V313.008H93.875V316.18ZM90.0332 320.678C90.849 320.678 91.5508 320.764 92.1387 320.938C92.7311 321.106 93.1846 321.352 93.499 321.676C93.8135 321.999 93.9707 322.387 93.9707 322.838C93.9707 323.298 93.8135 323.692 93.499 324.021C93.1846 324.349 92.7334 324.597 92.1455 324.766C91.5576 324.939 90.8535 325.025 90.0332 325.025C89.2129 325.025 88.5065 324.939 87.9141 324.766C87.3216 324.597 86.8659 324.349 86.5469 324.021C86.2324 323.692 86.0775 323.298 86.082 322.838C86.0775 322.387 86.2324 321.999 86.5469 321.676C86.8659 321.352 87.3216 321.106 87.9141 320.938C88.5111 320.764 89.2174 320.678 90.0332 320.678ZM90.0332 321.389C89.4043 321.389 88.8551 321.448 88.3857 321.566C87.9163 321.685 87.554 321.854 87.2988 322.072C87.0482 322.291 86.9251 322.546 86.9297 322.838C86.9251 323.143 87.0482 323.41 87.2988 323.638C87.554 323.861 87.9163 324.032 88.3857 324.15C88.8551 324.269 89.4043 324.328 90.0332 324.328C90.6621 324.328 91.209 324.269 91.6738 324.15C92.1432 324.032 92.5033 323.861 92.7539 323.638C93.0091 323.41 93.1367 323.143 93.1367 322.838C93.1367 322.546 93.0091 322.291 92.7539 322.072C92.5033 321.854 92.1432 321.685 91.6738 321.566C91.209 321.448 90.6621 321.389 90.0332 321.389ZM103.24 314.566V314.717C103.231 315.309 103.206 315.863 103.165 316.378C103.129 316.893 103.044 317.479 102.912 318.135L102.051 318.066C102.192 317.378 102.283 316.772 102.324 316.248C102.37 315.724 102.393 315.204 102.393 314.689H97.293V313.951H103.24V314.566ZM100.096 319.276C101.659 319.213 103.031 319.101 104.211 318.941L104.266 319.598C103.14 319.785 101.944 319.91 100.677 319.974C99.4098 320.033 98.0632 320.062 96.6367 320.062L96.541 319.338C97.5391 319.338 98.4414 319.326 99.248 319.304V316.59H100.096V319.276ZM105.947 317.014H107.807V317.752H105.947V322.1H105.086V313.008H105.947V317.014ZM106.344 324.779H98.4277V321.266H99.2891V324.055H106.344V324.779ZM112.592 314.977C112.592 315.528 112.729 316.059 113.002 316.569C113.275 317.08 113.645 317.531 114.109 317.923C114.579 318.31 115.098 318.604 115.668 318.805L115.189 319.502C114.515 319.242 113.913 318.859 113.385 318.354C112.856 317.843 112.462 317.26 112.202 316.604C111.956 317.342 111.564 317.993 111.026 318.559C110.489 319.119 109.862 319.543 109.146 319.83L108.682 319.133C109.27 318.91 109.794 318.588 110.254 318.169C110.719 317.75 111.083 317.262 111.348 316.706C111.617 316.146 111.753 315.551 111.758 314.922V313.623H112.592V314.977ZM118.074 316.248H119.934V316.986H118.074V320.404H117.213V313.008H118.074V316.248ZM114.232 320.732C115.048 320.732 115.75 320.817 116.338 320.985C116.93 321.154 117.384 321.4 117.698 321.724C118.013 322.047 118.17 322.432 118.17 322.879C118.17 323.33 118.013 323.715 117.698 324.034C117.384 324.358 116.933 324.604 116.345 324.772C115.757 324.941 115.053 325.025 114.232 325.025C113.408 325.025 112.699 324.941 112.106 324.772C111.514 324.604 111.061 324.358 110.746 324.034C110.432 323.715 110.277 323.33 110.281 322.879C110.277 322.432 110.432 322.047 110.746 321.724C111.061 321.4 111.514 321.154 112.106 320.985C112.703 320.817 113.412 320.732 114.232 320.732ZM114.232 321.443C113.604 321.443 113.054 321.503 112.585 321.621C112.116 321.735 111.753 321.901 111.498 322.12C111.247 322.334 111.124 322.587 111.129 322.879C111.124 323.175 111.247 323.433 111.498 323.651C111.753 323.87 112.113 324.039 112.578 324.157C113.048 324.276 113.599 324.337 114.232 324.342C114.861 324.337 115.408 324.276 115.873 324.157C116.342 324.039 116.702 323.87 116.953 323.651C117.208 323.433 117.336 323.175 117.336 322.879C117.336 322.587 117.208 322.334 116.953 322.12C116.702 321.901 116.342 321.735 115.873 321.621C115.408 321.503 114.861 321.443 114.232 321.443ZM126.264 313.227C127.148 313.227 127.904 313.309 128.533 313.473C129.167 313.632 129.65 313.869 129.982 314.184C130.32 314.493 130.488 314.872 130.488 315.318C130.488 315.77 130.32 316.155 129.982 316.474C129.65 316.788 129.167 317.027 128.533 317.191C127.904 317.355 127.148 317.438 126.264 317.438C125.38 317.438 124.621 317.355 123.987 317.191C123.358 317.027 122.875 316.788 122.538 316.474C122.205 316.155 122.039 315.77 122.039 315.318C122.039 314.872 122.205 314.493 122.538 314.184C122.875 313.869 123.358 313.632 123.987 313.473C124.621 313.309 125.38 313.227 126.264 313.227ZM126.264 313.896C125.58 313.896 124.988 313.956 124.486 314.074C123.985 314.188 123.6 314.352 123.331 314.566C123.062 314.776 122.928 315.027 122.928 315.318C122.928 315.619 123.062 315.879 123.331 316.098C123.6 316.316 123.983 316.483 124.479 316.597C124.981 316.711 125.576 316.768 126.264 316.768C126.952 316.768 127.547 316.711 128.048 316.597C128.554 316.483 128.941 316.316 129.21 316.098C129.479 315.879 129.613 315.619 129.613 315.318C129.613 315.027 129.479 314.776 129.21 314.566C128.941 314.352 128.554 314.188 128.048 314.074C127.547 313.956 126.952 313.896 126.264 313.896ZM131.773 319.051H120.781V318.34H131.773V319.051ZM130.324 322.783H123.01V324.205H130.707V324.916H122.176V322.113H129.49V320.883H122.135V320.199H130.324V322.783ZM142.205 314.184C142.205 314.749 142.428 315.284 142.875 315.79C143.326 316.291 143.896 316.711 144.584 317.048C145.277 317.385 145.965 317.606 146.648 317.711L146.293 318.422C145.682 318.312 145.076 318.123 144.475 317.854C143.873 317.586 143.331 317.251 142.848 316.85C142.369 316.444 142.009 315.995 141.768 315.503C141.526 316 141.166 316.451 140.688 316.856C140.209 317.257 139.669 317.59 139.067 317.854C138.466 318.119 137.857 318.308 137.242 318.422L136.873 317.711C137.566 317.606 138.256 317.387 138.944 317.055C139.632 316.722 140.2 316.305 140.646 315.804C141.093 315.302 141.316 314.762 141.316 314.184V313.459H142.205V314.184ZM147.25 320.609H142.15V325.066H141.316V320.609H136.258V319.871H147.25V320.609ZM152.268 314.977C152.268 315.528 152.404 316.059 152.678 316.569C152.951 317.08 153.32 317.531 153.785 317.923C154.255 318.31 154.774 318.604 155.344 318.805L154.865 319.502C154.191 319.242 153.589 318.859 153.061 318.354C152.532 317.843 152.138 317.26 151.878 316.604C151.632 317.342 151.24 317.993 150.702 318.559C150.164 319.119 149.538 319.543 148.822 319.83L148.357 319.133C148.945 318.91 149.469 318.588 149.93 318.169C150.395 317.75 150.759 317.262 151.023 316.706C151.292 316.146 151.429 315.551 151.434 314.922V313.623H152.268V314.977ZM157.75 316.248H159.609V316.986H157.75V320.404H156.889V313.008H157.75V316.248ZM153.908 320.732C154.724 320.732 155.426 320.817 156.014 320.985C156.606 321.154 157.06 321.4 157.374 321.724C157.688 322.047 157.846 322.432 157.846 322.879C157.846 323.33 157.688 323.715 157.374 324.034C157.06 324.358 156.608 324.604 156.021 324.772C155.433 324.941 154.729 325.025 153.908 325.025C153.083 325.025 152.375 324.941 151.782 324.772C151.19 324.604 150.736 324.358 150.422 324.034C150.107 323.715 149.952 323.33 149.957 322.879C149.952 322.432 150.107 322.047 150.422 321.724C150.736 321.4 151.19 321.154 151.782 320.985C152.379 320.817 153.088 320.732 153.908 320.732ZM153.908 321.443C153.279 321.443 152.73 321.503 152.261 321.621C151.791 321.735 151.429 321.901 151.174 322.12C150.923 322.334 150.8 322.587 150.805 322.879C150.8 323.175 150.923 323.433 151.174 323.651C151.429 323.87 151.789 324.039 152.254 324.157C152.723 324.276 153.275 324.337 153.908 324.342C154.537 324.337 155.084 324.276 155.549 324.157C156.018 324.039 156.378 323.87 156.629 323.651C156.884 323.433 157.012 323.175 157.012 322.879C157.012 322.587 156.884 322.334 156.629 322.12C156.378 321.901 156.018 321.735 155.549 321.621C155.084 321.503 154.537 321.443 153.908 321.443ZM169.85 317.082H171.709V317.82H169.85V322.059H168.988V313.008H169.85V317.082ZM167.689 315.277H160.498V314.553H163.67V313.021H164.518V314.553H167.689V315.277ZM164.094 316.016C164.659 316.016 165.158 316.109 165.591 316.296C166.028 316.478 166.366 316.738 166.603 317.075C166.844 317.408 166.965 317.798 166.965 318.244C166.965 318.691 166.844 319.08 166.603 319.413C166.366 319.746 166.028 320.003 165.591 320.186C165.158 320.368 164.659 320.459 164.094 320.459C163.52 320.459 163.014 320.37 162.576 320.192C162.143 320.01 161.806 319.753 161.564 319.42C161.327 319.083 161.209 318.691 161.209 318.244C161.209 317.798 161.327 317.406 161.564 317.068C161.806 316.731 162.143 316.471 162.576 316.289C163.014 316.107 163.52 316.016 164.094 316.016ZM164.094 316.713C163.684 316.713 163.321 316.777 163.007 316.904C162.692 317.032 162.449 317.212 162.275 317.444C162.107 317.677 162.025 317.943 162.029 318.244C162.025 318.54 162.107 318.805 162.275 319.037C162.449 319.265 162.692 319.443 163.007 319.57C163.321 319.693 163.684 319.753 164.094 319.748C164.499 319.753 164.857 319.693 165.167 319.57C165.477 319.443 165.718 319.265 165.892 319.037C166.065 318.805 166.154 318.54 166.158 318.244C166.154 317.943 166.065 317.677 165.892 317.444C165.718 317.212 165.477 317.032 165.167 316.904C164.857 316.777 164.499 316.713 164.094 316.713ZM170.438 324.779H162.385V321.32H163.232V324.055H170.438V324.779ZM185.559 315.906H187.281V317.164H185.559V320.076H184.041V312.857H185.559V315.906ZM179.078 321.635H184.041V320.568H185.559V325.066H177.574V320.568H179.078V321.635ZM184.041 323.863V322.811H179.078V323.863H184.041ZM183.152 315.223H175.824V314.006H178.736V312.762H180.254V314.006H183.152V315.223ZM179.488 315.646C180.081 315.646 180.605 315.738 181.061 315.92C181.516 316.098 181.869 316.351 182.12 316.679C182.375 317.007 182.505 317.387 182.51 317.82C182.505 318.253 182.375 318.634 182.12 318.962C181.869 319.29 181.516 319.545 181.061 319.728C180.605 319.905 180.081 319.994 179.488 319.994C178.891 319.994 178.363 319.905 177.902 319.728C177.447 319.545 177.091 319.29 176.836 318.962C176.581 318.634 176.453 318.253 176.453 317.82C176.453 317.387 176.581 317.007 176.836 316.679C177.091 316.351 177.447 316.098 177.902 315.92C178.363 315.738 178.891 315.646 179.488 315.646ZM179.488 316.768C179.014 316.768 178.636 316.861 178.354 317.048C178.071 317.235 177.93 317.492 177.93 317.82C177.93 318.153 178.069 318.413 178.347 318.6C178.629 318.782 179.01 318.873 179.488 318.873C179.967 318.873 180.347 318.78 180.63 318.593C180.917 318.406 181.061 318.148 181.061 317.82C181.061 317.497 180.917 317.242 180.63 317.055C180.343 316.863 179.962 316.768 179.488 316.768ZM189.988 315.182H192.75V313.5H194.254V315.756H196.742V312.857H198.26V319.611H196.742V317.014H194.254V319.229H188.471V313.5H189.988V315.182ZM192.75 317.998V316.357H189.988V317.998H192.75ZM191.629 321.416H196.742V320.158H198.26V325.039H190.111V320.158H191.629V321.416ZM196.742 323.809V322.592H191.629V323.809H196.742ZM207.762 315.086C207.762 315.601 207.871 316.091 208.09 316.556C208.313 317.021 208.644 317.433 209.081 317.793C209.519 318.148 210.049 318.422 210.674 318.613L209.949 319.803C209.27 319.593 208.682 319.279 208.186 318.859C207.693 318.44 207.308 317.946 207.03 317.376C206.752 318.037 206.354 318.611 205.834 319.099C205.314 319.586 204.69 319.953 203.961 320.199L203.195 318.996C203.842 318.782 204.394 318.477 204.85 318.08C205.305 317.679 205.649 317.221 205.882 316.706C206.114 316.191 206.23 315.656 206.23 315.1V314.949H203.619V313.719H210.332V314.949H207.762V315.086ZM213.08 315.824H214.803V317.068H213.08V320.227H211.562V312.857H213.08V315.824ZM209.061 320.5C209.908 320.5 210.642 320.593 211.262 320.78C211.886 320.963 212.365 321.229 212.697 321.58C213.03 321.931 213.199 322.35 213.203 322.838C213.199 323.33 213.028 323.754 212.69 324.109C212.358 324.465 211.882 324.736 211.262 324.923C210.642 325.11 209.908 325.203 209.061 325.203C208.204 325.203 207.461 325.11 206.832 324.923C206.203 324.736 205.72 324.465 205.383 324.109C205.046 323.754 204.877 323.33 204.877 322.838C204.877 322.35 205.046 321.931 205.383 321.58C205.72 321.229 206.203 320.963 206.832 320.78C207.461 320.593 208.204 320.5 209.061 320.5ZM209.061 321.689C208.208 321.689 207.55 321.787 207.085 321.983C206.625 322.179 206.395 322.464 206.395 322.838C206.395 323.221 206.625 323.512 207.085 323.713C207.55 323.913 208.208 324.014 209.061 324.014C209.913 324.014 210.564 323.913 211.016 323.713C211.471 323.512 211.699 323.221 211.699 322.838C211.699 322.464 211.471 322.179 211.016 321.983C210.564 321.787 209.913 321.689 209.061 321.689ZM220.039 318.695H217.264V321.081C218.444 321.067 219.592 320.969 220.709 320.787L220.832 322.031C220.107 322.154 219.417 322.239 218.761 322.284C218.109 322.325 217.391 322.346 216.607 322.346H215.801V317.492H218.562V315.346H215.787V314.115H220.039V318.695ZM226.068 325.217H224.619V312.857H226.068V325.217ZM223.539 324.588H222.09V320.268H220.654V319.023H222.09V317.191H220.654V315.975H222.09V313.076H223.539V324.588ZM232.139 314.621C232.139 315.173 232.25 315.699 232.474 316.2C232.701 316.697 233.039 317.137 233.485 317.52C233.937 317.902 234.481 318.194 235.119 318.395L234.367 319.598C233.665 319.361 233.059 319.019 232.549 318.572C232.043 318.121 231.649 317.588 231.366 316.973C231.079 317.638 230.676 318.215 230.156 318.702C229.641 319.19 229.026 319.557 228.311 319.803L227.545 318.613C228.192 318.39 228.741 318.073 229.192 317.663C229.648 317.253 229.99 316.786 230.218 316.262C230.45 315.738 230.566 315.191 230.566 314.621V313.445H232.139V314.621ZM237.826 325.217H236.295V322.031H229.391V320.814H237.826V325.217ZM237.826 320.254H236.295V312.857H237.826V320.254ZM244.061 315.086C244.061 315.601 244.17 316.091 244.389 316.556C244.612 317.021 244.942 317.433 245.38 317.793C245.817 318.148 246.348 318.422 246.973 318.613L246.248 319.803C245.569 319.593 244.981 319.279 244.484 318.859C243.992 318.44 243.607 317.946 243.329 317.376C243.051 318.037 242.652 318.611 242.133 319.099C241.613 319.586 240.989 319.953 240.26 320.199L239.494 318.996C240.141 318.782 240.693 318.477 241.148 318.08C241.604 317.679 241.948 317.221 242.181 316.706C242.413 316.191 242.529 315.656 242.529 315.1V314.949H239.918V313.719H246.631V314.949H244.061V315.086ZM249.379 315.824H251.102V317.068H249.379V320.227H247.861V312.857H249.379V315.824ZM245.359 320.5C246.207 320.5 246.941 320.593 247.561 320.78C248.185 320.963 248.663 321.229 248.996 321.58C249.329 321.931 249.497 322.35 249.502 322.838C249.497 323.33 249.326 323.754 248.989 324.109C248.657 324.465 248.18 324.736 247.561 324.923C246.941 325.11 246.207 325.203 245.359 325.203C244.503 325.203 243.76 325.11 243.131 324.923C242.502 324.736 242.019 324.465 241.682 324.109C241.344 323.754 241.176 323.33 241.176 322.838C241.176 322.35 241.344 321.931 241.682 321.58C242.019 321.229 242.502 320.963 243.131 320.78C243.76 320.593 244.503 320.5 245.359 320.5ZM245.359 321.689C244.507 321.689 243.849 321.787 243.384 321.983C242.924 322.179 242.693 322.464 242.693 322.838C242.693 323.221 242.924 323.512 243.384 323.713C243.849 323.913 244.507 324.014 245.359 324.014C246.212 324.014 246.863 323.913 247.314 323.713C247.77 323.512 247.998 323.221 247.998 322.838C247.998 322.464 247.77 322.179 247.314 321.983C246.863 321.787 246.212 321.689 245.359 321.689ZM261.766 319.461H260.904V313.008H261.766V319.461ZM254.889 321.689H260.918V320.104H261.766V324.889H254.041V320.104H254.889V321.689ZM260.918 324.178V322.4H254.889V324.178H260.918ZM255.285 313.609C255.887 313.609 256.422 313.726 256.892 313.958C257.366 314.186 257.735 314.509 257.999 314.929C258.268 315.348 258.402 315.829 258.402 316.371C258.402 316.904 258.268 317.381 257.999 317.8C257.735 318.215 257.366 318.538 256.892 318.771C256.422 318.998 255.887 319.11 255.285 319.105C254.684 319.11 254.146 318.998 253.672 318.771C253.198 318.538 252.826 318.215 252.558 317.8C252.293 317.381 252.163 316.904 252.168 316.371C252.163 315.829 252.293 315.348 252.558 314.929C252.826 314.509 253.198 314.186 253.672 313.958C254.146 313.726 254.684 313.609 255.285 313.609ZM255.285 314.348C254.848 314.348 254.456 314.434 254.109 314.607C253.763 314.781 253.492 315.022 253.296 315.332C253.1 315.637 253.002 315.984 253.002 316.371C253.002 316.754 253.1 317.098 253.296 317.403C253.492 317.709 253.763 317.948 254.109 318.121C254.456 318.294 254.848 318.381 255.285 318.381C255.723 318.381 256.115 318.294 256.461 318.121C256.807 317.948 257.078 317.709 257.274 317.403C257.47 317.098 257.568 316.754 257.568 316.371C257.568 315.984 257.47 315.637 257.274 315.332C257.078 315.022 256.807 314.781 256.461 314.607C256.115 314.434 255.723 314.348 255.285 314.348ZM273.824 325.066H272.977V313.008H273.824V325.066ZM265.621 321.143H265.73C266.729 321.143 267.706 321.097 268.663 321.006C269.625 320.915 270.602 320.764 271.596 320.555L271.719 321.307C270.689 321.525 269.691 321.68 268.725 321.771C267.758 321.863 266.76 321.908 265.73 321.908H264.773V314.197H265.621V321.143ZM285.336 317.875H287.414V318.6H285.336V325.08H284.475V313.008H285.336V317.875ZM277.529 321.279C278.742 321.279 279.771 321.25 280.619 321.19C281.471 321.131 282.337 321.02 283.217 320.855L283.34 321.607C282.428 321.771 281.54 321.883 280.674 321.942C279.808 322.002 278.76 322.031 277.529 322.031H276.6V314.197H282.219V314.922H277.461V321.279H277.529ZM289.342 324.068C289.137 324.068 288.961 323.998 288.815 323.856C288.674 323.715 288.604 323.544 288.604 323.344C288.604 323.139 288.674 322.965 288.815 322.824C288.961 322.678 289.137 322.605 289.342 322.605C289.542 322.605 289.713 322.678 289.854 322.824C289.996 322.965 290.066 323.139 290.066 323.344C290.066 323.54 289.996 323.711 289.854 323.856C289.713 323.998 289.542 324.068 289.342 324.068Z" fill="#666666"/>
<path d="M259.215 238.043C261.64 237.971 264.115 237.772 266.646 237.381C263.425 236.243 260.46 234.828 257.693 233.25C259.77 232.596 261.818 231.835 263.816 230.953C265.174 232.162 266.611 233.371 268.111 234.473C270.572 233.975 273.089 233.264 275.649 232.155C272.079 231.927 268.836 231.109 265.828 230C266.291 229.765 268.708 228.492 269.078 228.13C270.543 228.222 272.051 228.215 273.601 228.073C276.936 224.034 279.226 219.156 278.792 214C277.121 218.245 273.764 221.132 269.54 223.01C269.277 224.325 268.872 225.662 268.36 226.999C268.36 226.999 266.532 228.08 265.196 228.756C266.02 225.726 266.476 222.683 266.312 219.86C265.466 221.346 264.3 222.846 262.934 224.268C263.133 226.06 263.212 227.845 263.247 229.687C261.306 230.548 259.308 231.287 257.274 231.927C258.596 229.054 259.656 226.153 260.36 223.287C258.98 224.624 257.437 225.904 255.78 227.127C255.638 228.919 255.453 230.74 255.197 232.539C253.142 233.115 251.059 233.591 248.961 233.975C250.625 231.294 252.09 228.556 253.292 225.783C251.642 226.935 249.885 228.023 248.058 229.033C247.695 230.811 247.276 232.574 246.82 234.345C244.708 234.672 242.589 234.921 240.456 235.084C242.397 232.588 244.154 230.021 245.704 227.412C243.898 228.364 242.021 229.253 240.093 230.071C239.539 231.785 238.934 233.506 238.287 235.212C236.154 235.319 234.021 235.312 231.894 235.212C234.127 232.98 236.118 230.633 237.939 228.201C236.047 228.962 234.12 229.623 232.157 230.192C231.411 231.849 230.614 233.449 229.733 235.07C227.485 234.942 226.504 234.836 223.155 235.084C225.445 232.19 227.542 230.235 230.323 228.08C227.599 228.613 226.547 228.756 222.721 230.078C222.017 231.792 221.427 233.605 220.936 235.355C218.767 235.689 216.62 236.172 214.543 236.876C215.88 233.954 217.651 231.124 219.862 228.414C217.409 229.467 215.105 230.683 213 232.091C212.716 233.925 212.545 235.788 212.445 237.623C210.405 238.412 208.413 239.337 206.515 240.418C207.269 237.303 208.371 234.188 209.885 231.088C207.773 232.624 205.832 234.267 204.09 236.016C204.175 237.865 204.367 239.728 204.602 241.534C202.746 242.686 200.947 243.916 199.233 245.26C199.503 242.075 200.044 238.853 200.897 235.568C199.169 237.424 197.583 239.323 196.154 241.285C196.545 243.099 197.007 244.898 197.498 246.647C195.827 248.048 194.227 249.513 192.684 251.049C192.57 247.863 192.648 244.606 192.982 241.278C191.582 243.319 190.316 245.388 189.157 247.472C189.775 249.214 190.437 250.935 191.141 252.627C188.353 255.529 185.793 258.679 183.347 261.808C182.75 262.555 183.795 263.472 184.428 262.683C186.902 259.518 189.391 256.453 192.15 253.587C193.864 254.22 195.557 254.882 197.228 255.593C199.105 254.668 200.997 253.843 202.874 253.132C199.916 252.556 196.83 252.201 193.672 252.037C195.187 250.53 196.766 249.093 198.401 247.721C200.044 248.553 201.629 249.406 203.187 250.323C205.128 249.641 207.077 249.122 208.982 248.723C206.195 247.699 203.194 246.903 200.086 246.363C201.765 245.047 203.521 243.838 205.334 242.722C206.835 243.774 208.264 244.855 209.658 246.014C211.635 245.659 213.583 245.495 215.461 245.481C212.979 243.931 210.177 242.629 207.197 241.627C209.046 240.574 210.973 239.685 212.95 238.917C214.23 240.226 215.425 241.555 216.556 242.971C218.504 243.006 220.396 243.276 222.166 243.675C220.147 241.619 217.708 239.742 214.984 238.192C216.989 237.509 219.066 237.047 221.149 236.72C222.109 238.291 222.977 239.827 223.738 241.47C226.397 242.238 227.059 242.579 228.957 243.447C227.329 240.787 225.708 238.761 223.276 236.464C226.433 236.229 227.222 236.315 229.612 236.45C230.202 238.163 230.87 239.92 231.596 241.619C233.907 242.395 236.261 243.063 238.643 243.618C236.175 241.392 233.878 239.045 231.83 236.599C234.006 236.706 236.189 236.706 238.358 236.599C239.176 238.242 240.044 239.856 240.954 241.477C243.293 241.968 245.668 242.359 248.093 242.658C245.413 240.702 242.902 238.633 240.57 236.464C242.739 236.3 244.901 236.044 247.048 235.71C248.036 237.246 249.075 238.782 250.156 240.275C252.538 240.517 254.956 240.652 257.43 240.652C254.508 239.038 251.784 237.253 249.224 235.34C251.364 234.949 253.484 234.466 255.581 233.883C256.748 235.312 257.956 236.684 259.229 238.05L259.215 238.043Z" fill="#A8834C"/>
<path d="M259.215 238.043C261.64 237.971 264.115 237.772 266.646 237.381C263.425 236.243 260.46 234.828 257.693 233.25C259.77 232.596 261.818 231.835 263.816 230.953C265.174 232.162 266.611 233.371 268.111 234.473C270.572 233.975 273.089 233.264 275.649 232.155C272.079 231.927 268.836 231.109 265.828 230C266.291 229.765 268.708 228.492 269.078 228.13C270.543 228.222 272.051 228.215 273.601 228.073C276.936 224.034 279.226 219.156 278.792 214C277.121 218.245 273.764 221.132 269.54 223.01C269.277 224.325 268.872 225.662 268.36 226.999C268.36 226.999 266.532 228.08 265.196 228.756C266.02 225.726 266.476 222.683 266.312 219.86C265.466 221.346 264.3 222.846 262.934 224.268C263.133 226.06 263.212 227.845 263.247 229.687C261.306 230.548 259.308 231.287 257.274 231.927C258.596 229.054 259.656 226.153 260.36 223.287C258.98 224.624 257.437 225.904 255.78 227.127C255.638 228.919 255.453 230.74 255.197 232.539C253.142 233.115 251.059 233.591 248.961 233.975C250.625 231.294 252.09 228.556 253.292 225.783C251.642 226.935 249.885 228.023 248.058 229.033C247.695 230.811 247.276 232.574 246.82 234.345C244.708 234.672 242.589 234.921 240.456 235.084C242.397 232.588 244.154 230.021 245.704 227.412C243.898 228.364 242.021 229.253 240.093 230.071C239.539 231.785 238.934 233.506 238.287 235.212C236.154 235.319 234.021 235.312 231.894 235.212C234.127 232.98 236.118 230.633 237.939 228.201C236.047 228.962 234.12 229.623 232.157 230.192C231.411 231.849 230.614 233.449 229.733 235.07C227.485 234.942 226.504 234.836 223.155 235.084C225.445 232.19 227.542 230.235 230.323 228.08C227.599 228.613 226.547 228.756 222.721 230.078C222.017 231.792 221.427 233.605 220.936 235.355C218.767 235.689 216.62 236.172 214.543 236.876C215.88 233.954 217.651 231.124 219.862 228.414C217.409 229.467 215.105 230.683 213 232.091C212.716 233.925 212.545 235.788 212.445 237.623C210.405 238.412 208.413 239.337 206.515 240.418C207.269 237.303 208.371 234.188 209.885 231.088C207.773 232.624 205.832 234.267 204.09 236.016C204.175 237.865 204.367 239.728 204.602 241.534C202.746 242.686 200.947 243.916 199.233 245.26C199.503 242.075 200.044 238.853 200.897 235.568C199.169 237.424 197.583 239.323 196.154 241.285C196.545 243.099 197.007 244.898 197.498 246.647C195.827 248.048 194.227 249.513 192.684 251.049C192.57 247.863 192.648 244.606 192.982 241.278C191.582 243.319 190.316 245.388 189.157 247.472C189.775 249.214 190.437 250.935 191.141 252.627C188.353 255.529 185.793 258.679 183.347 261.808C182.75 262.555 183.795 263.472 184.428 262.683C186.902 259.518 189.391 256.453 192.15 253.587C193.864 254.22 195.557 254.882 197.228 255.593C199.105 254.668 200.997 253.843 202.874 253.132C199.916 252.556 196.83 252.201 193.672 252.037C195.187 250.53 196.766 249.093 198.401 247.721C200.044 248.553 201.629 249.406 203.187 250.323C205.128 249.641 207.077 249.122 208.982 248.723C206.195 247.699 203.194 246.903 200.086 246.363C201.765 245.047 203.521 243.838 205.334 242.722C206.835 243.774 208.264 244.855 209.658 246.014C211.635 245.659 213.583 245.495 215.461 245.481C212.979 243.931 210.177 242.629 207.197 241.627C209.046 240.574 210.973 239.685 212.95 238.917C214.23 240.226 215.425 241.555 216.556 242.971C218.504 243.006 220.396 243.276 222.166 243.675C220.147 241.619 217.708 239.742 214.984 238.192C216.989 237.509 219.066 237.047 221.149 236.72C222.109 238.291 222.977 239.827 223.738 241.47C226.397 242.238 227.059 242.579 228.957 243.447C227.329 240.787 225.708 238.761 223.276 236.464C226.433 236.229 227.222 236.315 229.612 236.45C230.202 238.163 230.87 239.92 231.596 241.619C233.907 242.395 236.261 243.063 238.643 243.618C236.175 241.392 233.878 239.045 231.83 236.599C234.006 236.706 236.189 236.706 238.358 236.599C239.176 238.242 240.044 239.856 240.954 241.477C243.293 241.968 245.668 242.359 248.093 242.658C245.413 240.702 242.902 238.633 240.57 236.464C242.739 236.3 244.901 236.044 247.048 235.71C248.036 237.246 249.075 238.782 250.156 240.275C252.538 240.517 254.956 240.652 257.43 240.652C254.508 239.038 251.784 237.253 249.224 235.34C251.364 234.949 253.484 234.466 255.581 233.883C256.748 235.312 257.956 236.684 259.229 238.05L259.215 238.043Z" fill="url(#paint0_linear_5_185)"/>
<path d="M119.063 227.127C117.406 225.904 115.863 224.624 114.483 223.287C115.18 226.153 116.247 229.054 117.569 231.927C115.535 231.287 113.537 230.548 111.596 229.687C111.632 227.845 111.71 226.06 111.909 224.268C110.551 222.846 109.384 221.346 108.531 219.86C108.368 222.69 108.823 225.726 109.648 228.756C108.304 228.08 106.483 226.999 106.483 226.999C105.978 225.662 105.573 224.325 105.303 223.01C101.079 221.132 97.7293 218.245 96.0511 214C95.6244 219.156 97.9142 224.034 101.242 228.073C102.792 228.215 104.3 228.222 105.765 228.13C106.135 228.485 108.552 229.765 109.015 230C106.014 231.109 102.771 231.934 99.1942 232.155C101.747 233.264 104.264 233.982 106.732 234.473C108.225 233.371 109.662 232.162 111.027 230.953C113.025 231.842 115.073 232.596 117.15 233.25C114.384 234.828 111.418 236.243 108.197 237.381C110.736 237.772 113.203 237.971 115.628 238.043C116.894 236.677 118.11 235.305 119.276 233.876C121.374 234.466 123.493 234.949 125.633 235.34C123.08 237.253 120.357 239.045 117.427 240.652C119.902 240.652 122.319 240.517 124.702 240.275C125.783 238.782 126.821 237.246 127.809 235.71C129.957 236.044 132.119 236.3 134.287 236.464C131.955 238.633 129.445 240.702 126.764 242.658C129.182 242.359 131.564 241.968 133.903 241.477C134.814 239.856 135.681 238.235 136.499 236.599C138.668 236.706 140.851 236.706 143.027 236.599C140.972 239.038 138.675 241.392 136.215 243.618C138.597 243.07 140.951 242.402 143.262 241.619C143.98 239.92 144.648 238.171 145.246 236.45C147.443 236.329 148.375 236.222 151.582 236.464C149.256 238.661 147.614 240.659 145.9 243.447C147.486 242.729 148.261 242.302 151.119 241.47C151.887 239.82 152.748 238.291 153.715 236.72C155.806 237.04 157.875 237.509 159.88 238.192C157.157 239.735 154.725 241.619 152.698 243.675C154.469 243.276 156.353 243.006 158.309 242.971C159.432 241.555 160.634 240.226 161.914 238.917C163.891 239.685 165.818 240.581 167.667 241.627C164.687 242.629 161.893 243.931 159.404 245.481C161.281 245.495 163.23 245.659 165.206 246.014C166.6 244.848 168.03 243.774 169.53 242.722C171.336 243.838 173.1 245.047 174.771 246.363C171.663 246.903 168.662 247.692 165.875 248.723C167.781 249.122 169.729 249.648 171.67 250.323C173.228 249.406 174.821 248.553 176.456 247.721C178.092 249.093 179.67 250.537 181.185 252.037C178.028 252.201 174.942 252.556 171.983 253.132C173.861 253.843 175.752 254.668 177.63 255.593C179.301 254.882 180.986 254.213 182.7 253.587C189.711 260.883 190.387 263.792 191.432 262.818C191.717 262.555 191.745 262.128 191.496 261.808C189.05 258.672 186.49 255.529 183.702 252.627C184.399 250.935 185.068 249.214 185.686 247.472C184.527 245.388 183.262 243.319 181.861 241.278C182.188 244.606 182.273 247.863 182.159 251.049C180.616 249.52 179.009 248.048 177.345 246.647C177.836 244.898 178.298 243.091 178.689 241.285C177.267 239.323 175.681 237.424 173.946 235.568C174.806 238.853 175.347 242.082 175.61 245.26C173.896 243.916 172.097 242.679 170.241 241.534C170.476 239.721 170.668 237.865 170.753 236.016C169.004 234.26 167.07 232.617 164.958 231.088C166.472 234.188 167.574 237.303 168.328 240.418C166.43 239.344 164.438 238.419 162.398 237.623C162.305 235.795 162.127 233.925 161.843 232.091C159.738 230.683 157.434 229.467 154.981 228.414C157.192 231.124 158.963 233.954 160.3 236.876C158.223 236.172 156.076 235.689 153.907 235.355C153.409 233.605 152.826 231.792 152.115 230.078C148.311 228.763 147.095 228.585 144.513 228.08C147.358 230.284 149.448 232.261 151.681 235.084C148.367 234.843 147.329 234.949 145.103 235.077C144.229 233.456 143.432 231.856 142.679 230.199C140.716 229.63 138.782 228.962 136.897 228.208C138.718 230.64 140.716 232.987 142.942 235.219C140.815 235.319 138.675 235.326 136.549 235.219C135.895 233.513 135.297 231.785 134.743 230.078C132.815 229.26 130.938 228.372 129.132 227.419C130.689 230.028 132.439 232.596 134.38 235.091C132.247 234.928 130.127 234.679 128.015 234.352C127.553 232.581 127.141 230.818 126.778 229.04C124.951 228.03 123.194 226.949 121.544 225.79C122.746 228.564 124.211 231.301 125.875 233.982C123.777 233.598 121.687 233.129 119.639 232.546C119.383 230.747 119.191 228.926 119.055 227.134L119.063 227.127Z" fill="#A8834C"/>
<path d="M119.063 227.127C117.406 225.904 115.863 224.624 114.483 223.287C115.18 226.153 116.247 229.054 117.569 231.927C115.535 231.287 113.537 230.548 111.596 229.687C111.632 227.845 111.71 226.06 111.909 224.268C110.551 222.846 109.384 221.346 108.531 219.86C108.368 222.69 108.823 225.726 109.648 228.756C108.304 228.08 106.483 226.999 106.483 226.999C105.978 225.662 105.573 224.325 105.303 223.01C101.079 221.132 97.7293 218.245 96.0511 214C95.6244 219.156 97.9142 224.034 101.242 228.073C102.792 228.215 104.3 228.222 105.765 228.13C106.135 228.485 108.552 229.765 109.015 230C106.014 231.109 102.771 231.934 99.1942 232.155C101.747 233.264 104.264 233.982 106.732 234.473C108.225 233.371 109.662 232.162 111.027 230.953C113.025 231.842 115.073 232.596 117.15 233.25C114.384 234.828 111.418 236.243 108.197 237.381C110.736 237.772 113.203 237.971 115.628 238.043C116.894 236.677 118.11 235.305 119.276 233.876C121.374 234.466 123.493 234.949 125.633 235.34C123.08 237.253 120.357 239.045 117.427 240.652C119.902 240.652 122.319 240.517 124.702 240.275C125.783 238.782 126.821 237.246 127.809 235.71C129.957 236.044 132.119 236.3 134.287 236.464C131.955 238.633 129.445 240.702 126.764 242.658C129.182 242.359 131.564 241.968 133.903 241.477C134.814 239.856 135.681 238.235 136.499 236.599C138.668 236.706 140.851 236.706 143.027 236.599C140.972 239.038 138.675 241.392 136.215 243.618C138.597 243.07 140.951 242.402 143.262 241.619C143.98 239.92 144.648 238.171 145.246 236.45C147.443 236.329 148.375 236.222 151.582 236.464C149.256 238.661 147.614 240.659 145.9 243.447C147.486 242.729 148.261 242.302 151.119 241.47C151.887 239.82 152.748 238.291 153.715 236.72C155.806 237.04 157.875 237.509 159.88 238.192C157.157 239.735 154.725 241.619 152.698 243.675C154.469 243.276 156.353 243.006 158.309 242.971C159.432 241.555 160.634 240.226 161.914 238.917C163.891 239.685 165.818 240.581 167.667 241.627C164.687 242.629 161.893 243.931 159.404 245.481C161.281 245.495 163.23 245.659 165.206 246.014C166.6 244.848 168.03 243.774 169.53 242.722C171.336 243.838 173.1 245.047 174.771 246.363C171.663 246.903 168.662 247.692 165.875 248.723C167.781 249.122 169.729 249.648 171.67 250.323C173.228 249.406 174.821 248.553 176.456 247.721C178.092 249.093 179.67 250.537 181.185 252.037C178.028 252.201 174.942 252.556 171.983 253.132C173.861 253.843 175.752 254.668 177.63 255.593C179.301 254.882 180.986 254.213 182.7 253.587C189.711 260.883 190.387 263.792 191.432 262.818C191.717 262.555 191.745 262.128 191.496 261.808C189.05 258.672 186.49 255.529 183.702 252.627C184.399 250.935 185.068 249.214 185.686 247.472C184.527 245.388 183.262 243.319 181.861 241.278C182.188 244.606 182.273 247.863 182.159 251.049C180.616 249.52 179.009 248.048 177.345 246.647C177.836 244.898 178.298 243.091 178.689 241.285C177.267 239.323 175.681 237.424 173.946 235.568C174.806 238.853 175.347 242.082 175.61 245.26C173.896 243.916 172.097 242.679 170.241 241.534C170.476 239.721 170.668 237.865 170.753 236.016C169.004 234.26 167.07 232.617 164.958 231.088C166.472 234.188 167.574 237.303 168.328 240.418C166.43 239.344 164.438 238.419 162.398 237.623C162.305 235.795 162.127 233.925 161.843 232.091C159.738 230.683 157.434 229.467 154.981 228.414C157.192 231.124 158.963 233.954 160.3 236.876C158.223 236.172 156.076 235.689 153.907 235.355C153.409 233.605 152.826 231.792 152.115 230.078C148.311 228.763 147.095 228.585 144.513 228.08C147.358 230.284 149.448 232.261 151.681 235.084C148.367 234.843 147.329 234.949 145.103 235.077C144.229 233.456 143.432 231.856 142.679 230.199C140.716 229.63 138.782 228.962 136.897 228.208C138.718 230.64 140.716 232.987 142.942 235.219C140.815 235.319 138.675 235.326 136.549 235.219C135.895 233.513 135.297 231.785 134.743 230.078C132.815 229.26 130.938 228.372 129.132 227.419C130.689 230.028 132.439 232.596 134.38 235.091C132.247 234.928 130.127 234.679 128.015 234.352C127.553 232.581 127.141 230.818 126.778 229.04C124.951 228.03 123.194 226.949 121.544 225.79C122.746 228.564 124.211 231.301 125.875 233.982C123.777 233.598 121.687 233.129 119.639 232.546C119.383 230.747 119.191 228.926 119.055 227.134L119.063 227.127Z" fill="url(#paint1_linear_5_185)"/>
<path d="M127.658 166.152H129.832L128.807 171.997H125.895L127.658 166.152ZM141.788 167.567H138.076C138.083 168.319 138.24 169.034 138.548 169.71C138.862 170.38 139.341 170.979 139.983 171.505C140.626 172.031 141.426 172.435 142.383 172.715L141.132 174.766C140.127 174.458 139.262 174.007 138.538 173.412C137.813 172.817 137.239 172.11 136.815 171.29C136.391 172.253 135.793 173.091 135.021 173.802C134.255 174.506 133.325 175.039 132.231 175.401L130.898 173.33C131.89 173.016 132.724 172.561 133.4 171.966C134.077 171.372 134.58 170.695 134.908 169.936C135.243 169.177 135.417 168.388 135.431 167.567H131.616V165.476H141.788V167.567ZM145.992 168.552H148.515V170.685H145.992V175.299H143.367V164.225H145.992V168.552ZM139.881 175.668C141.166 175.661 142.28 175.801 143.224 176.088C144.174 176.369 144.902 176.779 145.408 177.319C145.92 177.859 146.177 178.505 146.177 179.257C146.177 180.009 145.92 180.655 145.408 181.195C144.902 181.742 144.174 182.159 143.224 182.446C142.28 182.74 141.166 182.887 139.881 182.887C138.568 182.887 137.43 182.74 136.466 182.446C135.509 182.159 134.771 181.742 134.251 181.195C133.739 180.655 133.482 180.009 133.482 179.257C133.482 178.505 133.739 177.859 134.251 177.319C134.771 176.779 135.509 176.369 136.466 176.088C137.43 175.801 138.568 175.661 139.881 175.668ZM139.881 177.698C138.637 177.698 137.693 177.828 137.051 178.088C136.415 178.348 136.101 178.737 136.107 179.257C136.101 179.783 136.418 180.183 137.061 180.457C137.704 180.723 138.644 180.856 139.881 180.856C141.098 180.856 142.021 180.723 142.649 180.457C143.278 180.19 143.593 179.79 143.593 179.257C143.593 178.737 143.278 178.348 142.649 178.088C142.021 177.828 141.098 177.698 139.881 177.698ZM156.226 173.187H152.37V176.499C154.052 176.451 155.617 176.311 157.066 176.078L157.271 178.19C156.226 178.375 155.224 178.501 154.267 178.57C153.317 178.631 152.254 178.662 151.078 178.662H149.868V171.136H153.683V168.121H149.848V166.05H156.226V173.187ZM165.475 182.887H162.993V164.225H165.475V182.887ZM161.599 181.984H159.138V175.545H157.087V173.453H159.138V170.91H157.087V168.818H159.138V164.532H161.599V181.984ZM174.642 166.87C174.635 167.677 174.785 168.442 175.093 169.167C175.407 169.892 175.893 170.538 176.549 171.105C177.212 171.666 178.039 172.093 179.03 172.387L177.718 174.438C176.679 174.109 175.787 173.627 175.042 172.992C174.303 172.356 173.719 171.601 173.288 170.726C172.857 171.669 172.259 172.486 171.494 173.176C170.728 173.86 169.809 174.376 168.735 174.725L167.423 172.674C168.421 172.353 169.255 171.891 169.925 171.29C170.602 170.688 171.101 170.008 171.422 169.249C171.75 168.483 171.914 167.69 171.914 166.87V165.086H174.642V166.87ZM183.111 182.887H180.486V178.252H170.273V176.16H183.111V182.887ZM183.111 175.36H180.486V164.225H183.111V175.36ZM196.236 167.567H192.524C192.531 168.319 192.688 169.034 192.996 169.71C193.311 170.38 193.789 170.979 194.432 171.505C195.074 172.031 195.874 172.435 196.831 172.715L195.58 174.766C194.575 174.458 193.71 174.007 192.986 173.412C192.261 172.817 191.687 172.11 191.263 171.29C190.839 172.253 190.241 173.091 189.469 173.802C188.703 174.506 187.773 175.039 186.68 175.401L185.347 173.33C186.338 173.016 187.172 172.561 187.849 171.966C188.525 171.372 189.028 170.695 189.356 169.936C189.691 169.177 189.865 168.388 189.879 167.567H186.064V165.476H196.236V167.567ZM200.44 168.552H202.963V170.685H200.44V175.299H197.815V164.225H200.44V168.552ZM194.329 175.668C195.614 175.661 196.729 175.801 197.672 176.088C198.622 176.369 199.35 176.779 199.856 177.319C200.369 177.859 200.625 178.505 200.625 179.257C200.625 180.009 200.369 180.655 199.856 181.195C199.35 181.742 198.622 182.159 197.672 182.446C196.729 182.74 195.614 182.887 194.329 182.887C193.017 182.887 191.878 182.74 190.915 182.446C189.958 182.159 189.219 181.742 188.7 181.195C188.187 180.655 187.931 180.009 187.931 179.257C187.931 178.505 188.187 177.859 188.7 177.319C189.219 176.779 189.958 176.369 190.915 176.088C191.878 175.801 193.017 175.661 194.329 175.668ZM194.329 177.698C193.085 177.698 192.142 177.828 191.499 178.088C190.863 178.348 190.549 178.737 190.556 179.257C190.549 179.783 190.867 180.183 191.509 180.457C192.152 180.723 193.092 180.856 194.329 180.856C195.546 180.856 196.469 180.723 197.098 180.457C197.727 180.19 198.041 179.79 198.041 179.257C198.041 178.737 197.727 178.348 197.098 178.088C196.469 177.828 195.546 177.698 194.329 177.698ZM225.686 176.714H221.687V182.887H219.021V176.714H215.206V182.887H212.52V176.714H208.603V174.602H225.686V176.714ZM217.093 164.84C218.419 164.84 219.595 165.014 220.62 165.363C221.652 165.711 222.456 166.207 223.03 166.85C223.611 167.485 223.901 168.224 223.901 169.064C223.901 169.892 223.614 170.616 223.04 171.238C222.466 171.854 221.663 172.329 220.63 172.664C219.598 172.999 218.419 173.166 217.093 173.166C215.767 173.166 214.587 172.999 213.555 172.664C212.53 172.329 211.733 171.854 211.166 171.238C210.599 170.616 210.318 169.892 210.325 169.064C210.318 168.224 210.599 167.485 211.166 166.85C211.74 166.207 212.54 165.711 213.565 165.363C214.591 165.014 215.767 164.84 217.093 164.84ZM217.093 166.932C216.259 166.932 215.534 167.014 214.919 167.178C214.304 167.342 213.829 167.584 213.494 167.906C213.166 168.227 213.005 168.613 213.012 169.064C213.005 169.495 213.166 169.864 213.494 170.172C213.829 170.479 214.304 170.715 214.919 170.879C215.534 171.037 216.259 171.115 217.093 171.115C217.934 171.115 218.662 171.037 219.277 170.879C219.892 170.715 220.364 170.479 220.692 170.172C221.027 169.864 221.194 169.495 221.194 169.064C221.194 168.388 220.829 167.865 220.097 167.496C219.373 167.12 218.371 166.932 217.093 166.932ZM232.084 164.778C233.021 164.778 233.868 164.959 234.627 165.322C235.386 165.684 235.98 166.19 236.411 166.839C236.849 167.489 237.067 168.224 237.067 169.044C237.067 169.851 236.849 170.579 236.411 171.228C235.98 171.871 235.386 172.376 234.627 172.746C233.868 173.108 233.021 173.289 232.084 173.289C231.134 173.289 230.276 173.108 229.51 172.746C228.745 172.376 228.143 171.871 227.706 171.228C227.275 170.579 227.06 169.851 227.06 169.044C227.06 168.224 227.275 167.489 227.706 166.839C228.143 166.19 228.741 165.684 229.5 165.322C230.266 164.959 231.127 164.778 232.084 164.778ZM232.084 166.911C231.605 166.911 231.175 166.997 230.792 167.167C230.416 167.332 230.122 167.578 229.91 167.906C229.698 168.227 229.596 168.606 229.603 169.044C229.596 169.481 229.698 169.861 229.91 170.182C230.122 170.503 230.416 170.75 230.792 170.92C231.175 171.091 231.605 171.177 232.084 171.177C232.556 171.177 232.976 171.091 233.345 170.92C233.721 170.75 234.015 170.503 234.227 170.182C234.439 169.861 234.545 169.481 234.545 169.044C234.545 168.6 234.439 168.217 234.227 167.896C234.015 167.574 233.721 167.332 233.345 167.167C232.976 166.997 232.556 166.911 232.084 166.911ZM242.399 173.576H239.774V164.225H242.399V173.576ZM242.399 179.421H232.474V180.631H242.912V182.682H229.91V177.514H239.795V176.365H229.869V174.355H242.399V179.421ZM247.342 171.997H245.168L246.193 166.152H249.105L247.342 171.997Z" fill="#333333"/>
<path d="M125.751 197.992H120.439V199.858H127.679V201.95H110.616V199.858H117.835V197.992H112.77V191.512H115.374V195.9H125.751V197.992ZM119.106 202.955C120.446 202.955 121.602 203.092 122.572 203.365C123.55 203.639 124.298 204.035 124.818 204.555C125.337 205.074 125.601 205.696 125.607 206.421C125.601 207.146 125.337 207.768 124.818 208.287C124.298 208.807 123.55 209.203 122.572 209.477C121.602 209.75 120.446 209.887 119.106 209.887C117.753 209.887 116.584 209.75 115.6 209.477C114.622 209.203 113.87 208.807 113.344 208.287C112.824 207.768 112.564 207.146 112.564 206.421C112.564 205.696 112.824 205.074 113.344 204.555C113.87 204.035 114.622 203.639 115.6 203.365C116.584 203.092 117.753 202.955 119.106 202.955ZM119.106 204.965C116.502 204.944 115.21 205.43 115.23 206.421C115.217 206.906 115.538 207.275 116.194 207.528C116.851 207.774 117.821 207.897 119.106 207.897C120.364 207.897 121.321 207.774 121.978 207.528C122.634 207.275 122.969 206.906 122.982 206.421C122.962 205.43 121.67 204.944 119.106 204.965ZM144.393 202.299H141.768V191.245H144.393V202.299ZM138.384 197.91H132.313V199.53C133.988 199.523 135.414 199.486 136.589 199.417C137.765 199.342 138.951 199.209 140.147 199.018L140.476 201.109C139.108 201.328 137.745 201.475 136.384 201.55C135.024 201.625 133.359 201.663 131.391 201.663H129.75V195.921H135.779V194.362H129.729V192.312H138.384V197.91ZM144.393 209.682H131.883V203.119H144.393V209.682ZM134.467 207.59H141.829V205.19H134.467V207.59ZM163.978 204.042H156.677V209.887H154.093V204.042H146.895V201.991H163.978V204.042ZM151.488 194.096H159.322V191.942H161.947V200.187H148.904V191.942H151.488V194.096ZM159.322 198.095V196.146H151.488V198.095H159.322ZM180.507 194.567H176.795C176.802 195.319 176.959 196.034 177.267 196.71C177.581 197.38 178.06 197.979 178.702 198.505C179.345 199.031 180.145 199.435 181.102 199.715L179.851 201.766C178.846 201.458 177.981 201.007 177.256 200.412C176.532 199.817 175.958 199.11 175.534 198.29C175.11 199.253 174.512 200.091 173.739 200.802C172.974 201.506 172.044 202.039 170.95 202.401L169.617 200.33C170.608 200.016 171.442 199.561 172.119 198.966C172.796 198.372 173.298 197.695 173.626 196.936C173.961 196.177 174.136 195.388 174.149 194.567H170.335V192.476H180.507V194.567ZM184.711 195.552H187.233V197.685H184.711V202.299H182.086V191.225H184.711V195.552ZM178.6 202.668C179.885 202.661 180.999 202.801 181.942 203.088C182.893 203.369 183.621 203.779 184.126 204.319C184.639 204.859 184.896 205.505 184.896 206.257C184.896 207.009 184.639 207.655 184.126 208.195C183.621 208.742 182.893 209.159 181.942 209.446C180.999 209.74 179.885 209.887 178.6 209.887C177.287 209.887 176.149 209.74 175.185 209.446C174.228 209.159 173.49 208.742 172.97 208.195C172.458 207.655 172.201 207.009 172.201 206.257C172.201 205.505 172.458 204.859 172.97 204.319C173.49 203.779 174.228 203.369 175.185 203.088C176.149 202.801 177.287 202.661 178.6 202.668ZM178.6 204.698C177.355 204.698 176.412 204.828 175.77 205.088C175.134 205.348 174.819 205.737 174.826 206.257C174.819 206.783 175.137 207.183 175.78 207.457C176.422 207.723 177.362 207.856 178.6 207.856C179.816 207.856 180.739 207.723 181.368 207.457C181.997 207.19 182.312 206.79 182.312 206.257C182.312 205.737 181.997 205.348 181.368 205.088C180.739 204.828 179.816 204.698 178.6 204.698ZM198.513 193.747C198.513 194.704 198.489 195.603 198.441 196.444C198.393 197.278 198.273 198.204 198.082 199.223L195.519 198.977C195.778 197.548 195.922 196.126 195.949 194.711H188.915V192.578H198.513V193.747ZM193.878 200.463C195.997 200.368 197.836 200.207 199.395 199.981L199.538 201.868C197.822 202.183 196.035 202.391 194.175 202.494C192.316 202.596 190.269 202.654 188.033 202.668L187.808 200.576C189.291 200.576 190.446 200.566 191.273 200.545V196.885H193.878V200.463ZM203.086 196.905H205.342V199.1H203.086V205.19H200.399V191.225H203.086V196.905ZM203.66 209.559H190.556V203.939H193.181V207.467H203.66V209.559ZM213.012 194.157C213.012 194.93 213.166 195.668 213.473 196.372C213.781 197.069 214.252 197.695 214.888 198.249C215.531 198.795 216.327 199.216 217.277 199.51L215.883 201.54C214.912 201.219 214.078 200.754 213.381 200.146C212.684 199.537 212.13 198.816 211.72 197.982C211.303 198.946 210.725 199.78 209.987 200.484C209.255 201.181 208.37 201.704 207.331 202.053L205.916 200.002C206.921 199.667 207.755 199.188 208.418 198.566C209.081 197.944 209.573 197.237 209.895 196.444C210.216 195.644 210.38 194.8 210.387 193.911V192.209H213.012V194.157ZM221.01 195.593H223.532V197.767H221.01V202.299H218.385V191.225H221.01V195.593ZM214.898 202.668C216.184 202.668 217.298 202.812 218.241 203.099C219.185 203.386 219.913 203.799 220.425 204.339C220.938 204.879 221.194 205.525 221.194 206.277C221.194 207.036 220.938 207.686 220.425 208.226C219.919 208.766 219.191 209.176 218.241 209.456C217.298 209.743 216.184 209.887 214.898 209.887C213.586 209.887 212.448 209.743 211.484 209.456C210.527 209.176 209.789 208.766 209.269 208.226C208.756 207.686 208.5 207.036 208.5 206.277C208.5 205.525 208.756 204.879 209.269 204.339C209.789 203.799 210.53 203.386 211.494 203.099C212.458 202.812 213.593 202.668 214.898 202.668ZM214.898 204.719C213.661 204.719 212.721 204.852 212.079 205.119C211.436 205.378 211.118 205.765 211.125 206.277C211.104 207.316 212.362 207.836 214.898 207.836C217.373 207.836 218.61 207.316 218.61 206.277C218.61 205.765 218.292 205.378 217.657 205.119C217.028 204.852 216.108 204.719 214.898 204.719ZM239.098 192.681C239.098 193.433 239.351 194.174 239.856 194.906C240.362 195.63 241.107 196.259 242.092 196.792C243.076 197.326 244.252 197.678 245.619 197.849L244.594 199.961C242.994 199.729 241.603 199.264 240.42 198.566C239.245 197.862 238.342 196.994 237.713 195.962C237.091 196.994 236.196 197.862 235.027 198.566C233.858 199.264 232.48 199.729 230.895 199.961L229.849 197.849C231.202 197.678 232.371 197.326 233.355 196.792C234.34 196.259 235.085 195.63 235.591 194.906C236.097 194.174 236.35 193.433 236.35 192.681V191.778H239.098V192.681ZM246.214 203.509H238.954V209.887H236.37V203.509H229.192V201.376H246.214V203.509ZM254.15 194.157C254.15 194.93 254.304 195.668 254.612 196.372C254.919 197.069 255.391 197.695 256.027 198.249C256.669 198.795 257.466 199.216 258.416 199.51L257.021 201.54C256.051 201.219 255.217 200.754 254.52 200.146C253.822 199.537 253.269 198.816 252.858 197.982C252.441 198.946 251.864 199.78 251.125 200.484C250.394 201.181 249.509 201.704 248.47 202.053L247.055 200.002C248.06 199.667 248.894 199.188 249.557 198.566C250.22 197.944 250.712 197.237 251.033 196.444C251.354 195.644 251.519 194.8 251.525 193.911V192.209H254.15V194.157ZM262.148 195.593H264.671V197.767H262.148V202.299H259.523V191.225H262.148V195.593ZM256.037 202.668C257.322 202.668 258.437 202.812 259.38 203.099C260.323 203.386 261.051 203.799 261.564 204.339C262.077 204.879 262.333 205.525 262.333 206.277C262.333 207.036 262.077 207.686 261.564 208.226C261.058 208.766 260.33 209.176 259.38 209.456C258.437 209.743 257.322 209.887 256.037 209.887C254.725 209.887 253.586 209.743 252.623 209.456C251.666 209.176 250.927 208.766 250.408 208.226C249.895 207.686 249.639 207.036 249.639 206.277C249.639 205.525 249.895 204.879 250.408 204.339C250.927 203.799 251.669 203.386 252.633 203.099C253.597 202.812 254.731 202.668 256.037 202.668ZM256.037 204.719C254.8 204.719 253.86 204.852 253.217 205.119C252.575 205.378 252.257 205.765 252.264 206.277C252.243 207.316 253.501 207.836 256.037 207.836C258.512 207.836 259.749 207.316 259.749 206.277C259.749 205.765 259.431 205.378 258.795 205.119C258.167 204.852 257.247 204.719 256.037 204.719Z" fill="#B2874F"/>
<path d="M200.57 79.8124C196.223 76.8641 190.661 78.0666 187.741 82.499C185.3 86.1969 181.618 86.6598 180.191 86.6598C175.547 86.6598 172.364 83.3996 171.421 80.0237C171.411 79.9885 171.406 79.9633 171.396 79.9281C171.386 79.8929 171.376 79.8526 171.366 79.8124C170.993 78.4037 170.902 77.7345 170.902 76.2353C170.902 68.1653 179.203 59.1797 191.155 59.1797C203.107 59.1797 210.399 68.4772 212.204 73.6442C212.174 73.5537 212.144 73.4631 212.114 73.3675C208.639 63.265 199.037 56 187.725 56C173.494 56 161.951 67.5113 161.951 81.7142C161.951 94.4077 171.129 105.275 183.857 105.275C194.009 105.275 200.832 99.5948 203.964 91.7714C205.684 87.4899 204.463 82.4588 200.565 79.8174L200.57 79.8124Z" fill="#003668"/>
<path d="M212.366 74.1474C210.863 69.1062 203.803 59.1848 191.155 59.1848C179.203 59.1848 170.902 68.1704 170.902 76.2404C170.902 77.7397 170.993 78.4088 171.366 79.8175C171.21 79.2037 171.129 78.5849 171.129 77.9812C171.129 69.5792 179.561 63.7531 188.235 63.7531C199.97 63.7531 209.486 73.2469 209.486 84.9543C209.486 94.1361 204.191 102.075 196.501 105.894C206.415 102.317 213.501 92.8431 213.501 81.7143C213.501 79.0779 213.143 76.7586 212.366 74.1474Z" fill="#E6002D"/>
<path d="M135.808 123.901V118.634H137.654V122.347H147.402V123.901H142.435V125.194H148.33V126.769H134.714V125.194H140.594V123.901H135.808ZM145.178 130.678C145.178 131.151 145.083 131.599 144.886 132.012C144.694 132.424 144.432 132.786 144.114 133.098C143.771 133.405 143.378 133.652 142.934 133.833C142.49 134.014 142.021 134.105 141.522 134.105C141.023 134.105 140.554 134.014 140.11 133.833C139.666 133.652 139.273 133.405 138.93 133.098C138.607 132.786 138.35 132.424 138.158 132.012C137.967 131.599 137.866 131.151 137.866 130.678C137.866 130.205 137.962 129.758 138.158 129.345C138.35 128.933 138.607 128.565 138.93 128.243C139.273 127.946 139.666 127.705 140.11 127.524C140.554 127.343 141.023 127.252 141.522 127.252C142.021 127.252 142.49 127.343 142.934 127.524C143.378 127.705 143.771 127.946 144.114 128.243C144.437 128.565 144.694 128.933 144.886 129.345C145.078 129.758 145.178 130.205 145.178 130.678ZM143.383 130.663C143.383 130.155 143.202 129.717 142.833 129.355C142.47 128.993 142.032 128.807 141.522 128.807C141.013 128.807 140.574 128.988 140.211 129.355C139.848 129.717 139.661 130.155 139.661 130.663C139.661 131.171 139.843 131.604 140.211 131.961C140.574 132.318 141.013 132.5 141.522 132.5C142.032 132.5 142.47 132.318 142.833 131.961C143.202 131.604 143.383 131.171 143.383 130.663Z" fill="#575756"/>
<path d="M159.269 126.14H150.519V121.864H156.929V120.606H150.519V119.031H158.775V123.373H152.35V124.666H159.274V126.14H159.269ZM151.316 127.7H162.956V133.219H151.316V127.7ZM161.13 129.174H153.142V131.694H161.13V129.174ZM161.115 118.734H162.961V126.804H161.115V118.734Z" fill="#575756"/>
<path d="M165.481 127.251V125.677H179.097V127.251H173.187V128.841H178.003V133.545H176.157V130.381H166.227V128.841H171.391V127.251H165.481ZM171.311 119.564V118.437H173.222V119.564H178.073V121.103H173.272L178.204 123.704L177.357 125.012L172.274 122.281L167.226 125.012L166.379 123.704L171.275 121.103H166.495V119.564H171.311Z" fill="#575756"/>
<path d="M185.195 118.653L189.764 125.928L188.302 126.854L185.195 121.783L182.139 126.985L180.647 126.039L185.195 118.648V118.653ZM183.42 128.278V131.593H193.385V133.218H181.58V128.283H183.425L183.42 128.278ZM193.002 128.192H191.176V118.734H193.002V122.13H195.125V123.936H193.002V128.192Z" fill="#575756"/>
<path d="M200.567 118.539L205.231 124.883L203.769 125.879L200.562 121.457L197.374 125.995L195.882 124.999L200.567 118.539ZM197.228 127.564H209.069V133.38H207.223V129.205H197.228V127.564ZM207.223 118.735H209.069V126.603H207.223V118.735Z" fill="#575756"/>
<path d="M224.112 128.429V133.3H212.684V128.429H217.5V127.106H211.59V125.547H225.206V127.106H219.296V128.429H224.112ZM212.452 124.485V122.961H214.48V120.51H212.452V118.956H224.344V120.51H222.301V122.961H224.344V124.485H212.452ZM222.301 129.904H214.48V131.76H222.301V129.904ZM220.541 120.505H216.255V122.956H220.541V120.505Z" fill="#575756"/>
<path d="M227.103 128.067H240.719V129.692H234.824V133.5H232.978V129.692H227.098V128.067H227.103ZM230.008 120.847H237.794V118.976H239.62V126.085H228.192V118.976H230.002V120.847H230.008ZM237.799 122.437H230.013V124.475H237.799V122.437Z" fill="#575756"/>
<defs>
<linearGradient id="paint0_linear_5_185" x1="183.169" y1="238.493" x2="278.841" y2="238.493" gradientUnits="userSpaceOnUse">
<stop stop-color="#B2874F"/>
<stop offset="0.29" stop-color="#EAC892"/>
<stop offset="0.5" stop-color="#F7E1BA"/>
<stop offset="0.73" stop-color="#EAC892"/>
<stop offset="1" stop-color="#B2874F"/>
</linearGradient>
<linearGradient id="paint1_linear_5_185" x1="96.0001" y1="238.5" x2="191.662" y2="238.5" gradientUnits="userSpaceOnUse">
<stop stop-color="#B2874F"/>
<stop offset="0.29" stop-color="#EAC892"/>
<stop offset="0.5" stop-color="#F7E1BA"/>
<stop offset="0.73" stop-color="#EAC892"/>
<stop offset="1" stop-color="#B2874F"/>
</linearGradient>
</defs>
</svg>
