<svg width="287" height="184" viewBox="0 0 287 184" fill="none" xmlns="http://www.w3.org/2000/svg">
<path d="M22.2275 18.1934H12.4453V20.896C14.7129 20.9927 16.4707 21.3882 17.7188 22.0825C18.9668 22.7769 19.5908 23.7305 19.5908 24.9434C19.5908 25.7959 19.2744 26.5254 18.6416 27.1318C18.0088 27.7383 17.0947 28.1953 15.8994 28.5029C14.7129 28.8193 13.2891 28.9775 11.6279 28.9775C9.94922 28.9775 8.50781 28.8193 7.30371 28.5029C6.1084 28.1953 5.19434 27.7383 4.56152 27.1318C3.92871 26.5254 3.6123 25.7959 3.6123 24.9434C3.6123 23.7305 4.23633 22.7769 5.48438 22.0825C6.74121 21.3882 8.50781 20.9927 10.7842 20.896V18.1934H1.02832V16.7695H22.2275V18.1934ZM11.6279 22.2275C10.3359 22.2275 9.21094 22.3374 8.25293 22.5571C7.30371 22.7769 6.57422 23.0933 6.06445 23.5063C5.55469 23.9106 5.2998 24.3896 5.2998 24.9434C5.2998 25.4971 5.55469 25.9805 6.06445 26.3936C6.57422 26.7979 7.30371 27.1099 8.25293 27.3296C9.21094 27.5493 10.3359 27.6592 11.6279 27.6592C12.9023 27.6592 14.0142 27.5493 14.9634 27.3296C15.9126 27.1099 16.6421 26.7979 17.1519 26.3936C17.6704 25.9805 17.9297 25.4971 17.9297 24.9434C17.9297 24.3896 17.6704 23.9106 17.1519 23.5063C16.6421 23.0933 15.9126 22.7769 14.9634 22.5571C14.0142 22.3374 12.9023 22.2275 11.6279 22.2275ZM12.6562 8.3584C12.6562 9.29004 13.0649 10.147 13.8823 10.9292C14.6997 11.7114 15.75 12.3574 17.0332 12.8672C18.3164 13.377 19.626 13.7109 20.9619 13.8691L20.3291 15.1875C19.0811 15.0205 17.8682 14.7217 16.6904 14.291C15.5215 13.8604 14.4844 13.3022 13.5791 12.6167C12.6826 11.9312 12.0322 11.1577 11.6279 10.2964C11.2148 11.1577 10.5601 11.9312 9.66357 12.6167C8.76709 13.3022 7.73438 13.8604 6.56543 14.291C5.39648 14.7217 4.19238 15.0205 2.95312 15.1875L2.32031 13.8691C3.63867 13.7109 4.93506 13.3813 6.20947 12.8804C7.49268 12.3706 8.54297 11.7246 9.36035 10.9424C10.1865 10.1514 10.5996 9.29004 10.5996 8.3584V8.2793H2.97949V6.9082H20.3291V8.2793H12.6562V8.3584ZM45.128 25.9717H23.8233V24.5479H29.2549V18.0747C28.2178 17.5562 27.4136 16.8882 26.8423 16.0708C26.271 15.2534 25.9854 14.3262 25.9854 13.2891C25.9854 12.1113 26.3413 11.0786 27.0533 10.1909C27.7652 9.29443 28.7583 8.6001 30.0328 8.10791C31.3072 7.61572 32.7618 7.36523 34.3965 7.35645C36.0401 7.36523 37.4991 7.61572 38.7735 8.10791C40.0567 8.6001 41.0542 9.29443 41.7662 10.1909C42.4781 11.0786 42.834 12.1113 42.834 13.2891C42.834 14.3086 42.5528 15.2271 41.9903 16.0444C41.4366 16.853 40.6543 17.5166 39.6436 18.0352V24.5479H45.128V25.9717ZM34.3965 8.75391C33.087 8.74512 31.9136 8.92969 30.8765 9.30762C29.8394 9.68555 29.0264 10.2217 28.4375 10.916C27.8575 11.6104 27.5674 12.4014 27.5674 13.2891C27.5674 14.168 27.8619 14.9502 28.4507 15.6357C29.0396 16.3213 29.8526 16.8574 30.8897 17.2441C31.9268 17.6221 33.0957 17.8066 34.3965 17.7979C35.6973 17.8066 36.8706 17.6221 37.9165 17.2441C38.9624 16.8574 39.7798 16.3213 40.3687 15.6357C40.9576 14.9502 41.252 14.168 41.252 13.2891C41.252 12.4014 40.9576 11.6104 40.3687 10.916C39.7798 10.2217 38.9624 9.68555 37.9165 9.30762C36.8794 8.92969 35.7061 8.74512 34.3965 8.75391ZM37.9825 24.5479V18.6812C36.9014 18.9888 35.7061 19.1426 34.3965 19.1426C33.1309 19.1426 31.962 18.9932 30.8897 18.6943V24.5479H37.9825ZM64.7325 13.6582H68.3184V15.082H64.7325V23.2559H63.0714V5.80078H64.7325V13.6582ZM60.5665 10.1777H46.6973V8.78027H52.8145V5.82715H54.4493V8.78027H60.5665V10.1777ZM53.6319 11.6016C54.7218 11.6016 55.6842 11.7817 56.5191 12.1421C57.3629 12.4937 58.0133 12.9946 58.4703 13.645C58.9361 14.2866 59.169 15.0381 59.169 15.8994C59.169 16.7607 58.9361 17.5122 58.4703 18.1538C58.0133 18.7954 57.3629 19.292 56.5191 19.6436C55.6842 19.9951 54.7218 20.1709 53.6319 20.1709C52.5245 20.1709 51.5489 19.9995 50.7052 19.6567C49.8702 19.3052 49.2198 18.8086 48.754 18.167C48.297 17.5166 48.0684 16.7607 48.0684 15.8994C48.0684 15.0381 48.297 14.2822 48.754 13.6318C49.2198 12.9814 49.8702 12.4805 50.7052 12.1289C51.5489 11.7773 52.5245 11.6016 53.6319 11.6016ZM53.6319 12.9463C52.8409 12.9463 52.1422 13.0693 51.5357 13.3154C50.9293 13.5615 50.4591 13.9087 50.1251 14.3569C49.7999 14.8052 49.6417 15.3193 49.6505 15.8994C49.6417 16.4707 49.7999 16.9805 50.1251 17.4287C50.4591 17.8682 50.9293 18.2109 51.5357 18.457C52.1422 18.6943 52.8409 18.8086 53.6319 18.7998C54.4141 18.8086 55.1041 18.6943 55.7017 18.457C56.2994 18.2109 56.7652 17.8682 57.0992 17.4287C57.4332 16.9805 57.6046 16.4707 57.6134 15.8994C57.6046 15.3193 57.4332 14.8052 57.0992 14.3569C56.7652 13.9087 56.2994 13.5615 55.7017 13.3154C55.1041 13.0693 54.4141 12.9463 53.6319 12.9463ZM65.8663 28.5029H50.336V21.832H51.9708V27.1055H65.8663V28.5029ZM83.2433 9.49219C83.2433 10.4326 83.4982 11.3511 84.008 12.2476C84.5265 13.1353 85.2253 13.9219 86.1042 14.6074C86.9919 15.293 87.9806 15.8115 89.0705 16.1631L88.2267 17.4814C86.8996 17.0332 85.7218 16.3564 84.6935 15.4512C83.6652 14.5371 82.9093 13.4912 82.4259 12.3135C81.9337 13.6143 81.1559 14.77 80.0924 15.7808C79.029 16.7915 77.8117 17.5518 76.4406 18.0615L75.5705 16.7168C76.6691 16.3389 77.6754 15.7808 78.5895 15.0425C79.5124 14.2954 80.2419 13.4385 80.778 12.4717C81.3141 11.4961 81.5822 10.4941 81.5822 9.46582V8.54297H76.1505V7.11914H88.6486V8.54297H83.2433V9.49219ZM94.5285 17.877H92.8937V12.5508H87.8576V11.127H92.8937V5.80078H94.5285V17.877ZM94.5285 24.4424H81.2921V27.4219H95.5041V28.793H79.6574V23.124H92.8937V20.5137H79.5783V19.1162H94.5285V24.4424ZM105.722 13.4473C105.722 14.7041 105.986 15.9521 106.513 17.1914C107.04 18.4219 107.752 19.5249 108.649 20.5005C109.554 21.4761 110.547 22.2275 111.628 22.7549L110.626 24.0469C109.343 23.4053 108.192 22.4604 107.172 21.2124C106.161 19.9556 105.419 18.5493 104.944 16.9937C104.461 18.6636 103.687 20.1621 102.624 21.4893C101.56 22.8164 100.361 23.8096 99.0246 24.4688L98.0227 23.2031C99.1301 22.6758 100.145 21.9067 101.068 20.896C102 19.8853 102.738 18.7295 103.283 17.4287C103.837 16.1279 104.113 14.8008 104.113 13.4473V11.2852H98.6291V9.91406H104.087V6.16992H105.748V9.91406H111.154V11.2852H105.722V13.4473ZM116.084 15.5039H120.092V16.9541H116.084V29.0566H114.423V5.80078H116.084V15.5039ZM142.228 18.0615H120.949V16.7168H142.228V18.0615ZM139.538 24.9434H125.247V27.4482H140.329V28.7139H123.613V23.7041H137.877V21.4629H123.56V20.1709H139.538V24.9434ZM139.459 11.1797H125.379V13.4736H139.855V14.7393H123.744V9.99316H137.798V7.83105H123.665V6.5918H139.459V11.1797ZM20.2764 56.5156H3.03223V55.1445H10.8105V52.8242H12.4717V55.1445H20.2764V56.5156ZM19.8281 47.8936H12.498V50.5039H22.2803V51.8486H1.00195V50.5039H10.8369V47.8936H4.00781V41.1436H5.64258V46.5488H19.8281V47.8936ZM11.6279 57.7285C13.8867 57.7285 15.6182 57.9966 16.8223 58.5327C18.0352 59.0601 18.6416 59.8379 18.6416 60.8662C18.6416 61.8857 18.0352 62.6592 16.8223 63.1865C15.6182 63.7139 13.8867 63.9775 11.6279 63.9775C9.36035 63.9775 7.62891 63.7139 6.43359 63.1865C5.23828 62.6592 4.64062 61.8857 4.64062 60.8662C4.64062 59.8291 5.23828 59.0469 6.43359 58.5195C7.62891 57.9922 9.36035 57.7285 11.6279 57.7285ZM11.6279 58.9678C9.94043 58.9678 8.63525 59.1304 7.7124 59.4556C6.79834 59.772 6.3457 60.2422 6.35449 60.8662C6.3457 61.4814 6.79834 61.9473 7.7124 62.2637C8.63525 62.5801 9.94043 62.7383 11.6279 62.7383C13.3154 62.7383 14.6206 62.5801 15.5435 62.2637C16.4663 61.9473 16.9277 61.4814 16.9277 60.8662C16.9277 60.2422 16.4663 59.772 15.5435 59.4556C14.6206 59.1304 13.3154 58.9678 11.6279 58.9678ZM42.9131 64.0566H41.252V40.8008H42.9131V64.0566ZM32.2344 48.4473C32.2344 49.7656 32.5245 51.0488 33.1045 52.2969C33.6934 53.5361 34.4756 54.6348 35.4512 55.5928C36.4268 56.542 37.4815 57.2627 38.6153 57.7549L37.6397 59.0732C36.2686 58.4404 35.0249 57.5 33.9087 56.252C32.8013 54.9951 31.9883 53.5757 31.4698 51.9937C30.9688 53.6636 30.169 55.1621 29.0704 56.4893C27.9717 57.8164 26.7412 58.8096 25.3789 59.4688L24.4034 58.2031C25.5196 57.6758 26.5523 56.9155 27.5015 55.9224C28.4507 54.9204 29.2066 53.769 29.7691 52.4683C30.3404 51.1675 30.626 49.8271 30.626 48.4473V46.2852H24.9834V44.9141H30.5996V41.1699H32.2608V44.9141H37.8243V46.2852H32.2344V48.4473ZM54.713 48.21C54.713 49.4932 55.0162 50.772 55.6226 52.0464C56.2379 53.3208 57.0421 54.4546 58.0352 55.4478C59.0284 56.4409 60.0743 57.1748 61.1729 57.6494L60.2237 58.9678C59.3272 58.5459 58.4615 57.9702 57.6265 57.2407C56.8004 56.5024 56.0621 55.6499 55.4117 54.6831C54.7613 53.7163 54.2559 52.6924 53.8956 51.6113C53.544 52.7539 53.043 53.8481 52.3927 54.894C51.7511 55.9312 51.0216 56.854 50.2042 57.6626C49.3868 58.4624 48.543 59.0908 47.6729 59.5479L46.671 58.2295C47.7345 57.7109 48.754 56.9111 49.7296 55.8301C50.7139 54.749 51.5094 53.5361 52.1158 52.1914C52.731 50.8379 53.043 49.5107 53.0518 48.21V44.6504H47.3829V43.2266H60.461V44.6504H54.713V48.21ZM65.7081 64.0566H64.047V40.8008H65.7081V64.0566ZM81.8986 42.1719C83.0412 42.1807 84.0651 42.4136 84.9704 42.8706C85.8756 43.3276 86.5832 43.9648 87.0929 44.7822C87.6115 45.5908 87.8752 46.5137 87.8839 47.5508C87.8752 48.5879 87.6115 49.5107 87.0929 50.3193C86.5832 51.1279 85.8756 51.7607 84.9704 52.2178C84.0651 52.666 83.0412 52.8945 81.8986 52.9033C80.756 52.8945 79.7277 52.666 78.8136 52.2178C77.9084 51.7607 77.1964 51.1279 76.6779 50.3193C76.1681 49.5107 75.9132 48.5879 75.9132 47.5508C75.9132 46.5137 76.1681 45.5908 76.6779 44.7822C77.1964 43.9648 77.9084 43.3276 78.8136 42.8706C79.7277 42.4136 80.756 42.1807 81.8986 42.1719ZM81.8986 43.5957C81.0812 43.5957 80.3385 43.7715 79.6706 44.123C79.0114 44.4658 78.4928 44.9404 78.1149 45.5469C77.737 46.1445 77.548 46.8125 77.548 47.5508C77.548 48.2891 77.737 48.9614 78.1149 49.5679C78.4928 50.1655 79.0114 50.6401 79.6706 50.9917C80.3385 51.3345 81.0812 51.5059 81.8986 51.5059C82.716 51.5059 83.4543 51.3345 84.1134 50.9917C84.7814 50.6401 85.3044 50.1655 85.6823 49.5679C86.0602 48.9614 86.2492 48.2891 86.2492 47.5508C86.2492 46.8125 86.0602 46.1445 85.6823 45.5469C85.3044 44.9404 84.7814 44.4658 84.1134 44.123C83.4543 43.7715 82.716 43.5957 81.8986 43.5957ZM93.5002 46.1533H97.0861V47.5771H93.5002V52.4551H91.839V40.8008H93.5002V46.1533ZM79.6046 62.0132C80.3957 61.9956 81.2394 61.9253 82.1359 61.8022C83.0412 61.6792 83.9025 61.4814 84.7199 61.209L85.0099 62.5537C83.2082 63.1338 81.2218 63.4238 79.0509 63.4238H77.9962V55.0654H79.6046V62.0132ZM95.9523 56.542H84.1662V55.1973H89.2814V53.0088H90.9162V55.1973H95.9523V56.542ZM90.0724 57.4121C90.9074 57.4121 91.6457 57.5483 92.2873 57.8208C92.9377 58.0845 93.443 58.4668 93.8034 58.9678C94.1725 59.46 94.3615 60.04 94.3703 60.708C94.3615 61.3672 94.1725 61.9429 93.8034 62.4351C93.443 62.9272 92.9377 63.3052 92.2873 63.5688C91.6457 63.8413 90.9074 63.9775 90.0724 63.9775C89.2287 63.9775 88.4816 63.8413 87.8312 63.5688C87.1896 63.3052 86.6886 62.9272 86.3283 62.4351C85.9679 61.9429 85.7921 61.3672 85.8009 60.708C85.7921 60.04 85.9679 59.46 86.3283 58.9678C86.6886 58.4668 87.1896 58.0845 87.8312 57.8208C88.4816 57.5483 89.2287 57.4121 90.0724 57.4121ZM90.0724 58.6514C89.5363 58.6514 89.0529 58.7393 88.6222 58.915C88.2003 59.0908 87.8708 59.3369 87.6335 59.6533C87.3961 59.9609 87.2775 60.3125 87.2775 60.708C87.2775 61.1035 87.3961 61.4551 87.6335 61.7627C87.8708 62.0703 88.2003 62.3076 88.6222 62.4746C89.0529 62.6504 89.5363 62.7383 90.0724 62.7383C90.6086 62.7383 91.0832 62.6504 91.4962 62.4746C91.9181 62.3076 92.2477 62.0703 92.485 61.7627C92.7223 61.4551 92.841 61.1035 92.841 60.708C92.841 60.3125 92.7223 59.9609 92.485 59.6533C92.2477 59.3369 91.9181 59.0908 91.4962 58.915C91.0744 58.7393 90.5998 58.6514 90.0724 58.6514ZM116.902 53.2197H109.598V59.6006H119.486V61.0244H98.1809V59.6006H107.937V53.2197H100.976V42.752H116.664V44.1494H102.637V51.8486H116.902V53.2197ZM142.228 55.1182H120.949V53.6943H130.758V50.9785H123.744V45.5469H137.798V42.8047H123.665V41.4336H139.459V46.8389H125.379V49.6074H139.96V50.9785H132.393V53.6943H142.228V55.1182ZM139.591 63.793H137.904V58.4404H123.323V57.043H139.591V63.793ZM145.247 67.2207H143.692L145.168 60.3916H147.172L145.247 67.2207ZM20.4082 77.8311C20.4082 79.0352 20.3643 80.1646 20.2764 81.2192C20.1885 82.2739 19.9775 83.4473 19.6436 84.7393L16.4004 84.4229C16.6729 83.377 16.8618 82.4189 16.9673 81.5488C17.0728 80.6699 17.1343 79.8174 17.1519 78.9912H11.7861V76.3545H20.4082V77.8311ZM22.5439 88.7471H0.764648V85.9785H10.415V81.9971H13.7373V85.9785H22.5439V88.7471ZM9.99316 77.3828C9.99316 78.1299 9.97119 78.8374 9.92725 79.5054C9.8833 80.1646 9.76904 80.9512 9.58447 81.8652C9.40869 82.7705 9.13184 83.7285 8.75391 84.7393L5.51074 84.3701C6.17871 82.4541 6.56104 80.6611 6.65771 78.9912H2.50488V76.3545H9.99316V77.3828ZM19.8809 99.1621H3.375V90.6455H19.8809V99.1621ZM6.6709 96.4727H16.5322V93.2822H6.6709V96.4727ZM43.2032 77.8311C43.2032 79.0352 43.1592 80.1646 43.0713 81.2192C42.9834 82.2739 42.7725 83.4473 42.4385 84.7393L39.1954 84.4229C39.4678 83.377 39.6568 82.4189 39.7622 81.5488C39.8677 80.6699 39.9292 79.8174 39.9468 78.9912H34.5811V76.3545H43.2032V77.8311ZM45.3389 88.7471H23.5596V85.9785H33.21V81.9971H36.5323V85.9785H45.3389V88.7471ZM32.7881 77.3828C32.7881 78.1299 32.7662 78.8374 32.7222 79.5054C32.6783 80.1646 32.564 80.9512 32.3794 81.8652C32.2037 82.7705 31.9268 83.7285 31.5489 84.7393L28.3057 84.3701C28.9737 82.4541 29.356 80.6611 29.4527 78.9912H25.2998V76.3545H32.7881V77.3828ZM42.6758 99.1621H26.17V90.6455H42.6758V99.1621ZM29.4659 96.4727H39.3272V93.2822H29.4659V96.4727ZM65.2335 84.8184H68.7667V87.5869H65.2335V99.4258H61.9112V75.4316H65.2335V84.8184ZM60.2764 81.707H46.17V79.0176H51.6016V75.8008H54.9766V79.0176H60.2764V81.707ZM53.2891 83.0518C54.4493 83.0518 55.4908 83.2979 56.4137 83.79C57.3453 84.2734 58.0748 84.9502 58.6021 85.8203C59.1383 86.6904 59.4063 87.6748 59.4063 88.7734C59.4063 89.8721 59.1383 90.8564 58.6021 91.7266C58.0748 92.5967 57.3453 93.2778 56.4137 93.77C55.4908 94.2534 54.4493 94.4951 53.2891 94.4951C52.1202 94.4951 51.0699 94.2534 50.1383 93.77C49.2066 93.2778 48.4727 92.5967 47.9366 91.7266C47.4093 90.8564 47.1456 89.8721 47.1456 88.7734C47.1456 87.6748 47.4093 86.6904 47.9366 85.8203C48.4727 84.9502 49.2066 84.2734 50.1383 83.79C51.0699 83.2979 52.1202 83.0518 53.2891 83.0518ZM53.2891 85.7676C52.7266 85.7764 52.2213 85.9038 51.773 86.1499C51.3336 86.396 50.9864 86.7432 50.7315 87.1914C50.4854 87.6396 50.3624 88.167 50.3624 88.7734C50.3624 89.3887 50.4854 89.9204 50.7315 90.3687C50.9864 90.8169 51.3336 91.1597 51.773 91.397C52.2213 91.6255 52.7266 91.7354 53.2891 91.7266C53.8516 91.7354 54.3526 91.6255 54.7921 91.397C55.2315 91.1597 55.5743 90.8169 55.8204 90.3687C56.0665 89.9204 56.1895 89.3887 56.1895 88.7734C56.1895 88.167 56.0665 87.6396 55.8204 87.1914C55.5743 86.7432 55.2315 86.396 54.7921 86.1499C54.3526 85.9038 53.8516 85.7764 53.2891 85.7676ZM89.9005 99.4258H86.7364V75.4316H89.9005V99.4258ZM84.7853 98.3711H81.6476V87.3496H77.7189C77.0157 88.7559 76.0885 90.0479 74.9371 91.2256C73.7858 92.4033 72.3751 93.4756 70.7052 94.4424L68.8068 92.0693C71.1798 90.6543 72.9508 89.0547 74.1197 87.2705C75.2975 85.4863 76.005 83.3945 76.2423 80.9951H70.1251V78.2793H79.5909C79.5734 80.7139 79.2965 82.8496 78.7604 84.6865H81.6476V75.959H84.7853V98.3711ZM116.612 82.3135H119.855V85.1084H116.612V92.9131H113.237V75.4316H116.612V82.3135ZM117.482 99.0039H101.055V91.0674H104.404V96.3145H117.482V99.0039ZM104.324 76.9873C105.537 76.9873 106.64 77.251 107.633 77.7783C108.635 78.2969 109.422 79.022 109.993 79.9536C110.573 80.8765 110.863 81.918 110.863 83.0781C110.863 84.2295 110.573 85.271 109.993 86.2026C109.422 87.1255 108.635 87.8506 107.633 88.3779C106.64 88.9053 105.537 89.1689 104.324 89.1689C103.103 89.1689 101.991 88.9053 100.989 88.3779C99.987 87.8506 99.1916 87.1255 98.6027 86.2026C98.0227 85.271 97.7326 84.2295 97.7326 83.0781C97.7326 81.918 98.0227 80.8765 98.6027 79.9536C99.1828 79.022 99.9738 78.2969 100.976 77.7783C101.987 77.251 103.103 76.9873 104.324 76.9873ZM104.324 79.9141C103.709 79.9053 103.151 80.0283 102.65 80.2832C102.158 80.5293 101.767 80.894 101.477 81.3774C101.187 81.8608 101.046 82.4277 101.055 83.0781C101.046 83.7109 101.187 84.269 101.477 84.7524C101.767 85.2271 102.162 85.5962 102.663 85.8599C103.164 86.1147 103.718 86.2422 104.324 86.2422C104.94 86.2422 105.493 86.1147 105.986 85.8599C106.478 85.5962 106.864 85.2271 107.146 84.7524C107.436 84.269 107.585 83.7109 107.594 83.0781C107.585 82.4277 107.436 81.8608 107.146 81.3774C106.864 80.894 106.478 80.5293 105.986 80.2832C105.493 80.0283 104.94 79.9053 104.324 79.9141ZM141.068 99.4258H137.824V87.4287H135.583V98.2656H132.419V75.8271H135.583V84.7129H137.824V75.4316H141.068V99.4258ZM124.72 90.6323C126.952 90.5708 129.071 90.3467 131.074 89.96L131.417 92.8604C128.657 93.335 125.845 93.5723 122.98 93.5723H121.345V78.0947H124.72V90.6323ZM154.74 81.7598H143.138V79.0967H147.304V76.0908H150.626V79.0967H154.74V81.7598ZM148.991 82.8408C150.002 82.8408 150.903 83.0869 151.694 83.5791C152.494 84.0625 153.118 84.7349 153.566 85.5962C154.023 86.4575 154.256 87.4375 154.265 88.5361C154.256 89.6348 154.023 90.6191 153.566 91.4893C153.118 92.3594 152.494 93.0405 151.694 93.5327C150.903 94.0161 150.002 94.2578 148.991 94.2578C147.981 94.2578 147.071 94.0161 146.262 93.5327C145.463 93.0405 144.834 92.3594 144.377 91.4893C143.92 90.6191 143.692 89.6348 143.692 88.5361C143.692 87.4463 143.92 86.4707 144.377 85.6094C144.834 84.7393 145.463 84.0625 146.262 83.5791C147.071 83.0869 147.981 82.8408 148.991 82.8408ZM148.991 85.6357C148.28 85.6357 147.708 85.895 147.278 86.4136C146.856 86.9321 146.645 87.6396 146.645 88.5361C146.645 89.4326 146.856 90.1357 147.278 90.6455C147.708 91.1553 148.28 91.4102 148.991 91.4102C149.677 91.4102 150.231 91.1553 150.653 90.6455C151.083 90.1357 151.303 89.4326 151.312 88.5361C151.303 87.6396 151.083 86.9321 150.653 86.4136C150.231 85.895 149.677 85.6357 148.991 85.6357ZM163.915 99.4258H160.725V87.877H158.774V98.3975H155.636V75.9062H158.774V85.1875H160.725V75.4316H163.915V99.4258ZM191.206 89.2217H174.226V77.4355H191.022V80.1514H177.548V86.5322H191.206V89.2217ZM193.606 96.499H171.642V93.7305H193.606V96.499ZM214.529 88.8262H211.154V75.458H214.529V88.8262ZM206.803 83.6582H198.998V85.6489C201.31 85.6313 203.191 85.583 204.641 85.5039C206.1 85.4248 207.577 85.2578 209.071 85.0029L209.493 87.6924C207.779 87.9824 206.069 88.1758 204.364 88.2725C202.668 88.3604 200.484 88.4043 197.812 88.4043H195.703V81.1006H203.454V79.2021H195.676V76.5127H206.803V83.6582ZM201.82 91.8848H211.18V89.8281H214.529V99.1621H198.471V89.8281H201.82V91.8848ZM211.18 96.4727V94.4951H201.82V96.4727H211.18ZM237.403 99.4258H234.054V75.4316H237.403V99.4258ZM221.846 90.6323C225.406 90.5708 228.825 90.2236 232.103 89.5908L232.525 92.3594C228.913 93.1152 225.098 93.4932 221.081 93.4932H220.633H218.524V77.7256H221.846V90.6323ZM258.958 84.3438H262.492V87.0859H258.958V99.4785H255.583V75.4316H258.958V84.3438ZM252.235 80.3623H244.325V90.8828C246.214 90.8652 247.902 90.7993 249.387 90.6851C250.873 90.5708 252.367 90.3818 253.87 90.1182L254.239 92.9395C252.63 93.2119 251.044 93.4009 249.479 93.5063C247.924 93.603 246.135 93.6514 244.114 93.6514H243.006H240.976V77.6465H252.235V80.3623ZM265.933 97.2373C265.529 97.2373 265.155 97.1362 264.813 96.9341C264.47 96.7319 264.197 96.4639 263.995 96.1299C263.802 95.7871 263.71 95.418 263.718 95.0225C263.71 94.627 263.802 94.2622 263.995 93.9282C264.197 93.5942 264.47 93.3306 264.813 93.1372C265.155 92.9351 265.529 92.834 265.933 92.834C266.311 92.834 266.667 92.9351 267.001 93.1372C267.344 93.3306 267.616 93.5942 267.818 93.9282C268.021 94.2622 268.122 94.627 268.122 95.0225C268.122 95.418 268.021 95.7871 267.818 96.1299C267.616 96.4639 267.344 96.7319 267.001 96.9341C266.667 97.1362 266.311 97.2373 265.933 97.2373Z" fill="#333333"/>
<path d="M13.1719 130.484H0.609375V129.656H6.40625V127.844H2.29688V122.75H3.28125V124.453H10.5312V122.75H11.5156V127.844H7.39062V129.656H13.1719V130.484ZM11.5938 136.219H10.6094V132.797H2V131.969H11.5938V136.219ZM10.5312 127.031V125.234H3.28125V127.031H10.5312ZM18.6488 124.922C18.6435 125.526 18.7894 126.104 19.0863 126.656C19.3883 127.208 19.8024 127.693 20.3284 128.109C20.8545 128.521 21.4456 128.833 22.1019 129.047L21.6331 129.828C20.831 129.557 20.1253 129.151 19.5159 128.609C18.9118 128.062 18.4639 127.43 18.1722 126.711C17.8805 127.503 17.4196 128.198 16.7894 128.797C16.1592 129.391 15.43 129.833 14.6019 130.125L14.0863 129.344C14.7581 129.115 15.3649 128.781 15.9066 128.344C16.4534 127.906 16.8831 127.393 17.1956 126.805C17.5081 126.216 17.6644 125.594 17.6644 124.938V124.234H14.43V123.406H21.8363V124.234H18.6488V124.922ZM24.8519 125.703H26.9769V126.547H24.8519V129.969H23.8675V122.438H24.8519V125.703ZM17.1956 132.5H23.8675V130.656H24.8519V136.016H16.2113V130.656H17.1956V132.5ZM23.8675 135.203V133.297H17.1956V135.203H23.8675ZM38.235 128.203H40.61V129.047H38.235V136.219H37.2506V122.438H38.235V128.203ZM35.7819 125.531H27.5475V124.703H31.2194V122.578H32.2038V124.703H35.7819V125.531ZM31.735 126.797C32.3756 126.797 32.9485 126.93 33.4538 127.195C33.959 127.461 34.3522 127.831 34.6334 128.305C34.9199 128.779 35.0631 129.318 35.0631 129.922C35.0631 130.526 34.9199 131.065 34.6334 131.539C34.3522 132.013 33.959 132.383 33.4538 132.648C32.9485 132.914 32.3756 133.047 31.735 133.047C31.0944 133.047 30.5189 132.914 30.0084 132.648C29.5032 132.383 29.1074 132.013 28.8209 131.539C28.5397 131.065 28.4017 130.526 28.4069 129.922C28.4017 129.318 28.5397 128.779 28.8209 128.305C29.1074 127.831 29.5032 127.461 30.0084 127.195C30.5189 126.93 31.0944 126.797 31.735 126.797ZM31.735 127.625C31.2819 127.63 30.873 127.734 30.5084 127.938C30.1439 128.135 29.8574 128.409 29.6491 128.758C29.4459 129.102 29.3444 129.49 29.3444 129.922C29.3444 130.354 29.4459 130.745 29.6491 131.094C29.8574 131.438 30.1439 131.708 30.5084 131.906C30.873 132.099 31.2819 132.193 31.735 132.188C32.1881 132.193 32.597 132.099 32.9616 131.906C33.3261 131.708 33.61 131.438 33.8131 131.094C34.0215 130.745 34.1256 130.354 34.1256 129.922C34.1256 129.49 34.0215 129.102 33.8131 128.758C33.61 128.409 33.3261 128.135 32.9616 127.938C32.597 127.734 32.1881 127.63 31.735 127.625ZM52.0869 125.281V125.453C52.0765 126.589 52.0426 127.602 51.9853 128.492C51.928 129.378 51.7952 130.401 51.5869 131.562L50.5869 131.438C50.8004 130.333 50.9358 129.344 50.9931 128.469C51.0556 127.589 51.0921 126.583 51.1025 125.453V125.281V124.719H42.4931V123.891H52.0869V125.281ZM53.6963 134.172H41.1338V133.328H46.1963V128.344H47.165V133.328H53.6963V134.172ZM61.8531 123.531C62.4781 123.531 63.0354 123.706 63.525 124.055C64.0198 124.398 64.4156 124.893 64.7125 125.539C65.0146 126.18 65.1917 126.932 65.2438 127.797H68.5719V122.438H69.5406V136.234H68.5719V128.609H65.2516C65.2151 129.505 65.0484 130.289 64.7516 130.961C64.4599 131.633 64.0641 132.151 63.5641 132.516C63.0641 132.88 62.4938 133.062 61.8531 133.062C61.1865 133.062 60.5927 132.867 60.0719 132.477C59.5563 132.086 59.1552 131.531 58.8688 130.812C58.5823 130.089 58.4417 129.25 58.4469 128.297C58.4417 127.344 58.5823 126.508 58.8688 125.789C59.1552 125.065 59.5563 124.508 60.0719 124.117C60.5927 123.727 61.1865 123.531 61.8531 123.531ZM61.8531 124.406C61.3688 124.406 60.9391 124.57 60.5641 124.898C60.1943 125.227 59.9052 125.685 59.6969 126.273C59.4885 126.862 59.3844 127.536 59.3844 128.297C59.3844 129.057 59.4859 129.734 59.6891 130.328C59.8974 130.917 60.1891 131.375 60.5641 131.703C60.9391 132.026 61.3688 132.188 61.8531 132.188C62.3323 132.188 62.7594 132.023 63.1344 131.695C63.5094 131.367 63.801 130.909 64.0094 130.32C64.2177 129.732 64.3219 129.057 64.3219 128.297C64.3219 127.542 64.2177 126.87 64.0094 126.281C63.801 125.688 63.5094 125.227 63.1344 124.898C62.7594 124.57 62.3323 124.406 61.8531 124.406ZM83.0331 136.234H82.0644V130.266H79.0331V129.422H82.0644V126.5H79.1425V125.656H82.0644V122.438H83.0331V136.234ZM73.2363 132.125C74.3925 132.125 75.442 132.094 76.3847 132.031C77.3326 131.969 78.33 131.854 79.3769 131.688L79.4706 132.531C78.4081 132.703 77.4029 132.82 76.455 132.883C75.5123 132.94 74.4394 132.969 73.2363 132.969H72.2206V127.656H77.2363V124.562H72.1894V123.719H78.205V128.484H73.205V132.125H73.2363ZM97.7913 130.375H92.0881V133.328H91.0881V130.375H85.1819V129.531H97.7913V130.375ZM96.385 135.891H86.8538V131.891H87.8225V135.031H96.385V135.891ZM91.4631 122.812C92.4371 122.812 93.286 122.924 94.01 123.148C94.7392 123.367 95.3017 123.685 95.6975 124.102C96.0933 124.513 96.2913 125 96.2913 125.562C96.2913 126.12 96.0933 126.604 95.6975 127.016C95.3017 127.422 94.7392 127.734 94.01 127.953C93.286 128.172 92.4371 128.281 91.4631 128.281C90.4944 128.281 89.6454 128.172 88.9163 127.953C88.1923 127.734 87.6324 127.422 87.2366 127.016C86.8407 126.604 86.6454 126.12 86.6506 125.562C86.6454 125 86.8407 124.513 87.2366 124.102C87.6324 123.685 88.1923 123.367 88.9163 123.148C89.6454 122.924 90.4944 122.812 91.4631 122.812ZM91.4631 123.641C90.7183 123.641 90.0595 123.721 89.4866 123.883C88.9136 124.039 88.4683 124.263 88.1506 124.555C87.8381 124.841 87.6819 125.177 87.6819 125.562C87.6819 125.938 87.8407 126.268 88.1584 126.555C88.4761 126.841 88.9189 127.062 89.4866 127.219C90.0595 127.375 90.7183 127.453 91.4631 127.453C92.2131 127.453 92.8746 127.375 93.4475 127.219C94.0204 127.062 94.4657 126.841 94.7834 126.555C95.1011 126.268 95.26 125.938 95.26 125.562C95.26 125.177 95.1011 124.841 94.7834 124.555C94.4657 124.263 94.0204 124.039 93.4475 123.883C92.8746 123.721 92.2131 123.641 91.4631 123.641ZM112.979 126.703H115.104V127.547H112.979V132.547H111.995V122.438H112.979V126.703ZM113.651 135.891H104.448V131.594H105.417V135.062H113.651V135.891ZM103.854 125.859H108.261V123.438H109.229V130.188H102.886V123.438H103.854V125.859ZM108.261 129.375V126.656H103.854V129.375H108.261ZM127.097 136.234H126.128V130.266H123.097V129.422H126.128V126.5H123.206V125.656H126.128V122.438H127.097V136.234ZM117.3 132.125C118.456 132.125 119.506 132.094 120.448 132.031C121.396 131.969 122.394 131.854 123.441 131.688L123.534 132.531C122.472 132.703 121.467 132.82 120.519 132.883C119.576 132.94 118.503 132.969 117.3 132.969H116.284V127.656H121.3V124.562H116.253V123.719H122.269V128.484H117.269V132.125H117.3ZM141.824 130.156H129.261V129.344H135.058V127.594H130.871V123.094H140.246V123.891H131.839V126.766H140.339V127.594H136.011V129.344H141.824V130.156ZM135.542 131.266C136.522 131.266 137.363 131.362 138.066 131.555C138.774 131.747 139.316 132.029 139.691 132.398C140.071 132.763 140.261 133.203 140.261 133.719C140.261 134.245 140.074 134.693 139.699 135.062C139.324 135.432 138.782 135.714 138.074 135.906C137.365 136.099 136.522 136.198 135.542 136.203C134.553 136.198 133.701 136.099 132.988 135.906C132.279 135.714 131.735 135.432 131.355 135.062C130.98 134.693 130.792 134.245 130.792 133.719C130.792 133.203 130.98 132.763 131.355 132.398C131.735 132.029 132.282 131.747 132.996 131.555C133.709 131.362 134.558 131.266 135.542 131.266ZM135.542 132.047C134.777 132.052 134.11 132.122 133.542 132.258C132.98 132.393 132.548 132.586 132.246 132.836C131.944 133.086 131.792 133.38 131.792 133.719C131.792 134.062 131.944 134.362 132.246 134.617C132.548 134.867 132.98 135.057 133.542 135.188C134.11 135.323 134.777 135.391 135.542 135.391C136.298 135.391 136.957 135.323 137.519 135.188C138.082 135.057 138.514 134.867 138.816 134.617C139.123 134.362 139.277 134.062 139.277 133.719C139.277 133.38 139.123 133.086 138.816 132.836C138.514 132.586 138.082 132.393 137.519 132.258C136.957 132.122 136.298 132.052 135.542 132.047ZM155.332 129.188H149.535V130.703H153.676V133.641H145.316V135.234H154.113V136.047H144.363V132.891H152.723V131.484H144.316V130.703H148.551V129.188H142.769V128.375H155.332V129.188ZM153.691 127.062H144.426V122.906H153.691V127.062ZM145.394 126.25H152.707V123.719H145.394V126.25ZM164.348 125.094C164.348 125.703 164.497 126.286 164.793 126.844C165.096 127.396 165.507 127.883 166.028 128.305C166.549 128.721 167.14 129.042 167.801 129.266L167.317 130.031C166.525 129.76 165.827 129.354 165.223 128.812C164.624 128.266 164.179 127.63 163.887 126.906C163.601 127.714 163.142 128.424 162.512 129.039C161.882 129.654 161.15 130.115 160.317 130.422L159.817 129.625C160.489 129.396 161.093 129.057 161.629 128.609C162.171 128.156 162.598 127.628 162.911 127.023C163.228 126.419 163.39 125.781 163.395 125.109V124.312H160.145V123.484H167.551V124.312H164.348V125.094ZM170.551 126.062H172.676V126.891H170.551V130.797H169.567V122.438H170.551V126.062ZM166.161 131.203C167.093 131.203 167.895 131.302 168.567 131.5C169.244 131.693 169.762 131.974 170.122 132.344C170.481 132.714 170.661 133.156 170.661 133.672C170.661 134.198 170.481 134.648 170.122 135.023C169.762 135.398 169.247 135.682 168.575 135.875C167.903 136.073 167.098 136.172 166.161 136.172C165.223 136.172 164.416 136.073 163.739 135.875C163.062 135.682 162.541 135.398 162.176 135.023C161.817 134.648 161.64 134.198 161.645 133.672C161.64 133.156 161.817 132.714 162.176 132.344C162.541 131.974 163.062 131.693 163.739 131.5C164.421 131.302 165.228 131.203 166.161 131.203ZM166.161 132.016C165.442 132.016 164.814 132.083 164.278 132.219C163.741 132.354 163.327 132.547 163.036 132.797C162.749 133.047 162.609 133.339 162.614 133.672C162.609 134.021 162.749 134.326 163.036 134.586C163.327 134.841 163.741 135.036 164.278 135.172C164.814 135.307 165.442 135.375 166.161 135.375C166.879 135.375 167.504 135.307 168.036 135.172C168.572 135.036 168.984 134.841 169.27 134.586C169.562 134.326 169.708 134.021 169.708 133.672C169.708 133.339 169.562 133.047 169.27 132.797C168.984 132.547 168.572 132.354 168.036 132.219C167.504 132.083 166.879 132.016 166.161 132.016ZM178.606 128.625H174.778V131.953H175.184C175.976 131.953 176.736 131.927 177.466 131.875C178.2 131.818 178.971 131.719 179.778 131.578L179.856 132.406C178.94 132.557 178.083 132.661 177.286 132.719C176.489 132.771 175.622 132.797 174.684 132.797H173.809V127.797H177.669V124.844H173.778V124.016H178.606V128.625ZM185.059 136.219H184.106V122.438H185.059V136.219ZM182.341 135.484H181.387V130.359H179.434V129.531H181.387V126.922H179.434V126.109H181.387V122.719H182.341V135.484ZM188.193 135.078C187.958 135.078 187.758 134.997 187.591 134.836C187.429 134.674 187.349 134.479 187.349 134.25C187.349 134.016 187.429 133.818 187.591 133.656C187.758 133.49 187.958 133.406 188.193 133.406C188.422 133.406 188.617 133.49 188.778 133.656C188.94 133.818 189.021 134.016 189.021 134.25C189.021 134.474 188.94 134.669 188.778 134.836C188.617 134.997 188.422 135.078 188.193 135.078ZM5.53125 146.812C5.53125 147.401 5.65625 147.961 5.90625 148.492C6.16146 149.023 6.53906 149.495 7.03906 149.906C7.53906 150.312 8.14583 150.625 8.85938 150.844L8.03125 152.203C7.25521 151.964 6.58333 151.604 6.01562 151.125C5.45312 150.646 5.01302 150.081 4.69531 149.43C4.3776 150.185 3.92188 150.841 3.32812 151.398C2.73438 151.956 2.02083 152.375 1.1875 152.656L0.3125 151.281C1.05208 151.036 1.68229 150.688 2.20312 150.234C2.72396 149.776 3.11719 149.253 3.38281 148.664C3.64844 148.076 3.78125 147.464 3.78125 146.828V146.656H0.796875V145.25H8.46875V146.656H5.53125V146.812ZM11.6094 147.656H13.5781V149.078H11.6094V152.688H9.875V144.266H11.6094V147.656ZM7.01562 153C7.98438 153 8.82292 153.107 9.53125 153.32C10.2448 153.529 10.7917 153.833 11.1719 154.234C11.5521 154.635 11.7448 155.115 11.75 155.672C11.7448 156.234 11.5495 156.719 11.1641 157.125C10.7839 157.531 10.2396 157.841 9.53125 158.055C8.82292 158.268 7.98438 158.375 7.01562 158.375C6.03646 158.375 5.1875 158.268 4.46875 158.055C3.75 157.841 3.19792 157.531 2.8125 157.125C2.42708 156.719 2.23438 156.234 2.23438 155.672C2.23438 155.115 2.42708 154.635 2.8125 154.234C3.19792 153.833 3.75 153.529 4.46875 153.32C5.1875 153.107 6.03646 153 7.01562 153ZM7.01562 154.359C6.04167 154.359 5.28906 154.471 4.75781 154.695C4.23177 154.919 3.96875 155.245 3.96875 155.672C3.96875 156.109 4.23177 156.443 4.75781 156.672C5.28906 156.901 6.04167 157.016 7.01562 157.016C7.98958 157.016 8.73438 156.901 9.25 156.672C9.77083 156.443 10.0312 156.109 10.0312 155.672C10.0312 155.245 9.77083 154.919 9.25 154.695C8.73438 154.471 7.98958 154.359 7.01562 154.359ZM19.2425 150.938H16.0706V153.664C17.4196 153.648 18.7321 153.536 20.0081 153.328L20.1488 154.75C19.3206 154.891 18.5316 154.987 17.7816 155.039C17.0368 155.086 16.2165 155.109 15.3206 155.109H14.3988V149.562H17.555V147.109H14.3831V145.703H19.2425V150.938ZM26.1331 158.391H24.4769V144.266H26.1331V158.391ZM23.2425 157.672H21.5863V152.734H19.9456V151.312H21.5863V149.219H19.9456V147.828H21.5863V144.516H23.2425V157.672ZM39.6725 158.391H38.0006V144.266H39.6725V158.391ZM36.7663 157.703H35.11V150.984H33.7663C33.7142 151.896 33.5527 152.688 33.2819 153.359C33.0163 154.026 32.6595 154.539 32.2116 154.898C31.7636 155.253 31.2506 155.427 30.6725 155.422C30.0631 155.427 29.5267 155.227 29.0631 154.82C28.6048 154.409 28.2506 153.823 28.0006 153.062C27.7506 152.297 27.6256 151.401 27.6256 150.375C27.6256 149.349 27.7506 148.458 28.0006 147.703C28.2506 146.943 28.6048 146.359 29.0631 145.953C29.5267 145.547 30.0631 145.344 30.6725 145.344C31.2402 145.344 31.7428 145.513 32.1803 145.852C32.623 146.19 32.9772 146.677 33.2428 147.312C33.5136 147.948 33.6829 148.703 33.7506 149.578H35.11V144.516H36.7663V157.703ZM30.6725 146.984C30.3756 146.979 30.1178 147.107 29.8991 147.367C29.6803 147.628 29.5136 148.013 29.3991 148.523C29.2845 149.034 29.2298 149.651 29.235 150.375C29.2298 151.099 29.2845 151.716 29.3991 152.227C29.5136 152.737 29.6803 153.122 29.8991 153.383C30.1178 153.643 30.3756 153.771 30.6725 153.766C31.1465 153.776 31.5136 153.487 31.7741 152.898C32.0397 152.31 32.1725 151.469 32.1725 150.375C32.1725 149.281 32.0397 148.44 31.7741 147.852C31.5136 147.263 31.1465 146.974 30.6725 146.984ZM56.2513 151.547H54.5169V144.266H56.2513V151.547ZM56.2513 155.781H48.5325V156.891H56.7044V158.266H46.8138V154.516H54.5325V153.5H46.7825V152.141H56.2513V155.781ZM52.7513 146.516H51.4856V149.594C52.1471 149.536 52.7669 149.474 53.345 149.406L53.4231 150.656C51.1471 151.01 48.3033 151.188 44.8919 151.188L44.7044 149.812L46.3138 149.797V146.516H45.0794V145.172H52.7513V146.516ZM47.9856 149.766C48.6002 149.75 49.2148 149.727 49.8294 149.695V146.516H47.9856V149.766ZM70.8844 156.672H57.9781V155.25H60.9625V151.68C60.3896 151.346 59.9443 150.932 59.6266 150.438C59.3141 149.943 59.1604 149.385 59.1656 148.766C59.1604 148.031 59.3818 147.38 59.8297 146.812C60.2776 146.245 60.9 145.807 61.6969 145.5C62.4938 145.188 63.3948 145.031 64.4 145.031C65.4104 145.031 66.3141 145.188 67.1109 145.5C67.913 145.807 68.538 146.245 68.9859 146.812C69.4391 147.375 69.6656 148.026 69.6656 148.766C69.6656 149.37 69.512 149.919 69.2047 150.414C68.9026 150.904 68.4729 151.312 67.9156 151.641V155.25H70.8844V156.672ZM64.4 146.406C63.6969 146.406 63.0771 146.503 62.5406 146.695C62.0094 146.883 61.5953 147.154 61.2984 147.508C61.0068 147.862 60.8635 148.281 60.8688 148.766C60.8635 149.245 61.0068 149.661 61.2984 150.016C61.5953 150.37 62.012 150.643 62.5484 150.836C63.0849 151.029 63.7021 151.125 64.4 151.125C65.0979 151.125 65.7151 151.029 66.2516 150.836C66.7932 150.643 67.2125 150.37 67.5094 150.016C67.8115 149.661 67.9625 149.245 67.9625 148.766C67.9625 148.286 67.8115 147.87 67.5094 147.516C67.2125 147.156 66.7958 146.883 66.2594 146.695C65.7229 146.503 65.1031 146.406 64.4 146.406ZM66.15 155.25V152.305C65.5979 152.424 65.0146 152.484 64.4 152.484C63.8115 152.484 63.2385 152.427 62.6813 152.312V155.25H66.15ZM82.6269 148.719H84.5956V150.156H82.6269V154.828H80.8925V144.281H82.6269V148.719ZM79.8769 147.234H71.5019V145.844H74.83V144.266H76.5644V145.844H79.8769V147.234ZM75.6894 147.812C76.3613 147.812 76.9576 147.924 77.4784 148.148C77.9993 148.372 78.4055 148.69 78.6972 149.102C78.9889 149.508 79.1373 149.979 79.1425 150.516C79.1373 151.047 78.9889 151.516 78.6972 151.922C78.4055 152.323 77.9993 152.635 77.4784 152.859C76.9576 153.078 76.3613 153.188 75.6894 153.188C75.0123 153.188 74.4107 153.078 73.8847 152.859C73.3586 152.635 72.9498 152.323 72.6581 151.922C72.3665 151.516 72.2206 151.047 72.2206 150.516C72.2206 149.979 72.3665 149.508 72.6581 149.102C72.9498 148.69 73.3586 148.372 73.8847 148.148C74.4107 147.924 75.0123 147.812 75.6894 147.812ZM75.6894 149.156C75.1425 149.156 74.7076 149.276 74.3847 149.516C74.067 149.755 73.9081 150.089 73.9081 150.516C73.9081 150.932 74.0696 151.26 74.3925 151.5C74.7154 151.74 75.1477 151.854 75.6894 151.844C76.231 151.854 76.6659 151.74 76.9941 151.5C77.3222 151.26 77.4863 150.932 77.4863 150.516C77.4863 150.089 77.3222 149.755 76.9941 149.516C76.6711 149.276 76.2363 149.156 75.6894 149.156ZM83.1894 158.109H73.58V154H75.3144V156.703H83.1894V158.109ZM100.19 146.297H96.0963C96.1483 146.745 96.3697 147.172 96.7603 147.578C97.1509 147.984 97.6848 148.333 98.3619 148.625C99.039 148.917 99.8202 149.115 100.706 149.219L100.049 150.594C98.7994 150.443 97.7239 150.107 96.8228 149.586C95.9218 149.065 95.2785 148.419 94.8931 147.648C94.5077 148.419 93.8671 149.065 92.9713 149.586C92.0754 150.107 91.0025 150.443 89.7525 150.594L89.1119 149.219C89.9973 149.115 90.7759 148.917 91.4478 148.625C92.1249 148.333 92.6561 147.984 93.0416 147.578C93.427 147.172 93.6483 146.745 93.7056 146.297H89.6431V144.906H100.19V146.297ZM101.362 152.781H95.9088V155.359H94.19V152.781H88.4556V151.375H101.362V152.781ZM99.94 158.109H90.0181V154.062H91.7525V156.703H99.94V158.109ZM113.729 158.406H111.979V144.266H113.729V158.406ZM104.464 148.953H107.886V145.422H109.604V155.078H102.729V145.422H104.464V148.953ZM107.886 153.656V150.312H104.464V153.656H107.886ZM128.363 151.375H122.769V152.438H126.753V155.906H118.722V156.938H127.144V158.266H117.019V154.656H125.05V153.75H117.003V152.438H121.034V151.375H115.488V150H128.363V151.375ZM126.706 149.109H117.113V144.703H126.706V149.109ZM118.816 147.75H124.972V146.062H118.816V147.75ZM141.886 153.859H136.261V158.391H134.542V153.859H128.98V152.484H141.886V153.859ZM132.261 146.562H138.574V144.828H140.324V151.016H130.542V144.828H132.261V146.562ZM138.574 149.609V147.938H132.261V149.609H138.574ZM154.348 158.406H152.629V150.781H149.973V149.375H152.629V144.266H154.348V158.406ZM149.754 146.906H144.894V149.438H149.191V150.812H144.894V153.719C146.051 153.714 147.053 153.685 147.902 153.633C148.756 153.581 149.613 153.484 150.473 153.344L150.644 154.75C149.665 154.901 148.694 155.005 147.73 155.062C146.767 155.115 145.608 155.146 144.254 155.156H143.144V145.484H149.754V146.906ZM157.449 160.266H155.965L156.777 155.891H158.762L157.449 160.266ZM168.309 146.812C168.309 147.401 168.434 147.961 168.684 148.492C168.94 149.023 169.317 149.495 169.817 149.906C170.317 150.312 170.924 150.625 171.637 150.844L170.809 152.203C170.033 151.964 169.361 151.604 168.794 151.125C168.231 150.646 167.791 150.081 167.473 149.43C167.156 150.185 166.7 150.841 166.106 151.398C165.512 151.956 164.799 152.375 163.966 152.656L163.091 151.281C163.83 151.036 164.46 150.688 164.981 150.234C165.502 149.776 165.895 149.253 166.161 148.664C166.427 148.076 166.559 147.464 166.559 146.828V146.656H163.575V145.25H171.247V146.656H168.309V146.812ZM174.387 147.656H176.356V149.078H174.387V152.688H172.653V144.266H174.387V147.656ZM169.794 153C170.762 153 171.601 153.107 172.309 153.32C173.023 153.529 173.57 153.833 173.95 154.234C174.33 154.635 174.523 155.115 174.528 155.672C174.523 156.234 174.328 156.719 173.942 157.125C173.562 157.531 173.018 157.841 172.309 158.055C171.601 158.268 170.762 158.375 169.794 158.375C168.815 158.375 167.966 158.268 167.247 158.055C166.528 157.841 165.976 157.531 165.591 157.125C165.205 156.719 165.012 156.234 165.012 155.672C165.012 155.115 165.205 154.635 165.591 154.234C165.976 153.833 166.528 153.529 167.247 153.32C167.966 153.107 168.815 153 169.794 153ZM169.794 154.359C168.82 154.359 168.067 154.471 167.536 154.695C167.01 154.919 166.747 155.245 166.747 155.672C166.747 156.109 167.01 156.443 167.536 156.672C168.067 156.901 168.82 157.016 169.794 157.016C170.768 157.016 171.512 156.901 172.028 156.672C172.549 156.443 172.809 156.109 172.809 155.672C172.809 155.245 172.549 154.919 172.028 154.695C171.512 154.471 170.768 154.359 169.794 154.359ZM182.021 150.938H178.849V153.664C180.198 153.648 181.51 153.536 182.786 153.328L182.927 154.75C182.099 154.891 181.31 154.987 180.56 155.039C179.815 155.086 178.995 155.109 178.099 155.109H177.177V149.562H180.333V147.109H177.161V145.703H182.021V150.938ZM188.911 158.391H187.255V144.266H188.911V158.391ZM186.021 157.672H184.364V152.734H182.724V151.312H184.364V149.219H182.724V147.828H184.364V144.516H186.021V157.672ZM205.912 147.188H194.381V145.781H199.303V144.234H201.021V145.781H205.912V147.188ZM206.646 154.812H201.021V158.406H199.303V154.812H193.74V153.391H206.646V154.812ZM200.162 147.828C201.157 147.828 202.011 147.922 202.724 148.109C203.443 148.292 203.993 148.562 204.373 148.922C204.753 149.276 204.943 149.708 204.943 150.219C204.943 150.729 204.753 151.164 204.373 151.523C203.993 151.878 203.443 152.148 202.724 152.336C202.011 152.518 201.157 152.609 200.162 152.609C199.167 152.609 198.31 152.518 197.592 152.336C196.878 152.148 196.331 151.878 195.951 151.523C195.571 151.164 195.381 150.729 195.381 150.219C195.381 149.708 195.571 149.276 195.951 148.922C196.331 148.562 196.878 148.292 197.592 148.109C198.31 147.922 199.167 147.828 200.162 147.828ZM200.162 149.125C199.183 149.125 198.441 149.219 197.935 149.406C197.435 149.589 197.188 149.859 197.193 150.219C197.188 150.578 197.435 150.852 197.935 151.039C198.441 151.221 199.183 151.312 200.162 151.312C201.141 151.312 201.883 151.221 202.388 151.039C202.894 150.852 203.146 150.578 203.146 150.219C203.146 149.859 202.894 149.589 202.388 149.406C201.883 149.219 201.141 149.125 200.162 149.125ZM215.866 146.344C215.86 146.859 215.985 147.365 216.241 147.859C216.496 148.349 216.871 148.789 217.366 149.18C217.866 149.565 218.465 149.859 219.163 150.062L218.35 151.438C217.569 151.208 216.894 150.862 216.327 150.398C215.759 149.93 215.314 149.378 214.991 148.742C214.663 149.445 214.202 150.06 213.608 150.586C213.019 151.112 212.324 151.5 211.522 151.75L210.663 150.391C211.376 150.156 211.993 149.826 212.514 149.398C213.035 148.971 213.431 148.49 213.702 147.953C213.978 147.417 214.116 146.875 214.116 146.328V146.281H211.147V144.875H218.788V146.281H215.866V146.344ZM222.553 151.5H220.819V148.641H218.397V147.25H220.819V144.266H222.553V151.5ZM222.553 155.766H214.991V156.875H223.006V158.234H213.256V154.469H220.819V153.469H213.241V152.094H222.553V155.766ZM229.202 148.75C229.202 149.458 229.332 150.164 229.592 150.867C229.858 151.57 230.244 152.211 230.749 152.789C231.254 153.367 231.858 153.823 232.561 154.156L231.592 155.469C230.848 155.12 230.199 154.617 229.647 153.961C229.1 153.305 228.673 152.552 228.366 151.703C228.048 152.62 227.598 153.43 227.014 154.133C226.436 154.836 225.754 155.365 224.967 155.719L224.014 154.375C224.733 154.052 225.353 153.591 225.874 152.992C226.4 152.393 226.798 151.724 227.069 150.984C227.345 150.245 227.483 149.5 227.483 148.75V148.016H224.467V146.625H227.483V144.562H229.217V146.625H232.186V148.016H229.202V148.75ZM235.296 149.859H237.467V151.312H235.296V158.391H233.561V144.266H235.296V149.859ZM249.007 149.906H250.96V151.344H249.007V158.391H247.257V144.266H249.007V149.906ZM241.976 145.75C241.97 147.109 241.882 148.331 241.71 149.414C241.543 150.492 241.236 151.529 240.788 152.523C240.34 153.513 239.71 154.448 238.898 155.328L237.538 154.344C238.184 153.656 238.702 152.945 239.093 152.211C239.489 151.471 239.78 150.695 239.968 149.883C240.155 149.07 240.273 148.167 240.319 147.172H238.101V145.75H241.976ZM245.882 145.75C245.877 147.198 245.799 148.508 245.648 149.68C245.502 150.846 245.213 151.99 244.78 153.109C244.348 154.224 243.731 155.266 242.929 156.234L241.538 155.281C242.184 154.51 242.697 153.701 243.077 152.852C243.463 151.997 243.741 151.115 243.913 150.203C244.085 149.286 244.192 148.276 244.233 147.172H242.444V145.75H245.882ZM256.577 148.281C256.577 149.057 256.723 149.826 257.015 150.586C257.312 151.341 257.734 152.021 258.281 152.625C258.833 153.224 259.479 153.677 260.218 153.984L259.265 155.359C258.447 155.01 257.736 154.487 257.132 153.789C256.528 153.091 256.059 152.281 255.726 151.359C255.393 152.349 254.921 153.227 254.312 153.992C253.708 154.753 252.999 155.323 252.187 155.703L251.187 154.344C251.911 154.01 252.546 153.521 253.093 152.875C253.645 152.229 254.07 151.505 254.367 150.703C254.663 149.896 254.812 149.089 254.812 148.281V147.094H251.702V145.656H259.671V147.094H256.577V148.281ZM262.999 158.391H261.249V144.266H262.999V158.391ZM1.10938 178.188L4.9375 174.047C5.46354 173.474 5.86719 173.005 6.14844 172.641C6.4349 172.276 6.64583 171.935 6.78125 171.617C6.92188 171.294 6.99479 170.958 7 170.609C6.99479 170.198 6.88802 169.833 6.67969 169.516C6.47135 169.198 6.1875 168.953 5.82812 168.781C5.46875 168.604 5.06771 168.516 4.625 168.516C4.15104 168.516 3.73438 168.612 3.375 168.805C3.02083 168.997 2.7474 169.266 2.55469 169.609C2.36198 169.948 2.26562 170.339 2.26562 170.781H1.20312C1.20312 170.156 1.35156 169.596 1.64844 169.102C1.95052 168.607 2.36198 168.221 2.88281 167.945C3.40885 167.669 4 167.531 4.65625 167.531C5.30208 167.531 5.88021 167.667 6.39062 167.938C6.90625 168.208 7.30729 168.578 7.59375 169.047C7.88542 169.516 8.03125 170.036 8.03125 170.609C8.03125 171.036 7.95573 171.445 7.80469 171.836C7.65365 172.221 7.39844 172.651 7.03906 173.125C6.67969 173.594 6.16667 174.182 5.5 174.891L2.6875 177.922V178H8.375V179H1.10938V178.188ZM13.8206 179H12.6956V168.844H12.6331L9.96125 170.609V169.469L12.6644 167.688H13.8206V179ZM26.9694 169.266V169.438C26.959 170.594 26.9225 171.651 26.86 172.609C26.7975 173.562 26.6569 174.688 26.4381 175.984L25.4225 175.859C25.5996 174.979 25.7298 174.148 25.8131 173.367C25.9017 172.586 25.9537 171.898 25.9694 171.305C25.9902 170.706 26.0006 170.026 26.0006 169.266V168.797H17.5319V167.969H26.9694V169.266ZM28.7037 178.125H16.1412V177.281H28.7037V178.125ZM41.3056 174.688H40.3681V170.875H38.1963V174.484H37.2588V166.703H38.1963V170.031H40.3681V166.438H41.3056V174.688ZM41.3056 180.016H32.3056V175.375H41.3056V180.016ZM33.2744 179.203H40.3525V176.188H33.2744V179.203ZM35.4775 171.016H31.2744V173.234C32.2692 173.234 33.1598 173.203 33.9463 173.141C34.7327 173.073 35.5504 172.953 36.3994 172.781L36.5244 173.609C35.6494 173.771 34.8056 173.883 33.9931 173.945C33.1858 174.003 32.2535 174.031 31.1963 174.031H30.3056V170.219H34.54V168.203H30.2744V167.375H35.4775V171.016ZM54.9231 180.219H53.97V166.438H54.9231V180.219ZM52.1888 179.5H51.2356V172.734H49.2434C49.207 173.62 49.0611 174.391 48.8059 175.047C48.5559 175.703 48.2122 176.208 47.7747 176.562C47.3424 176.917 46.845 177.094 46.2825 177.094C45.694 177.094 45.1783 176.901 44.7356 176.516C44.2929 176.13 43.9492 175.581 43.7044 174.867C43.4648 174.154 43.345 173.323 43.345 172.375C43.345 171.422 43.4648 170.591 43.7044 169.883C43.9492 169.169 44.2929 168.62 44.7356 168.234C45.1783 167.849 45.694 167.656 46.2825 167.656C46.8398 167.656 47.332 167.828 47.7591 168.172C48.1914 168.516 48.5351 169.005 48.7903 169.641C49.0455 170.276 49.194 171.026 49.2356 171.891H51.2356V166.75H52.1888V179.5ZM46.2825 168.578C45.8815 168.578 45.5273 168.737 45.22 169.055C44.9179 169.367 44.6835 169.81 44.5169 170.383C44.3554 170.956 44.2773 171.62 44.2825 172.375C44.2773 173.125 44.3554 173.786 44.5169 174.359C44.6835 174.932 44.9179 175.378 45.22 175.695C45.5273 176.013 45.8815 176.172 46.2825 176.172C46.6888 176.172 47.0455 176.013 47.3528 175.695C47.6601 175.378 47.8971 174.932 48.0638 174.359C48.2304 173.786 48.3138 173.125 48.3138 172.375C48.3138 171.62 48.2304 170.956 48.0638 170.383C47.8971 169.81 47.6601 169.367 47.3528 169.055C47.0455 168.737 46.6888 168.578 46.2825 168.578ZM61.3844 170.328C61.3844 171.12 61.5563 171.911 61.9 172.703C62.249 173.495 62.7073 174.201 63.275 174.82C63.8427 175.435 64.4469 175.891 65.0875 176.188L64.4938 177C63.9729 176.724 63.4755 176.357 63.0016 175.898C62.5328 175.435 62.1161 174.906 61.7516 174.312C61.387 173.714 61.1057 173.083 60.9078 172.422C60.7099 173.12 60.4313 173.784 60.0719 174.414C59.7125 175.044 59.2984 175.604 58.8297 176.094C58.3609 176.583 57.8688 176.969 57.3531 177.25L56.7125 176.469C57.3479 176.146 57.9469 175.659 58.5094 175.008C59.0771 174.352 59.5328 173.612 59.8766 172.789C60.2203 171.961 60.3948 171.141 60.4 170.328V167.672H61.3844V170.328ZM68.025 180.234H67.0563V172.078H63.5875V171.25H67.0563V166.438H68.025V180.234ZM84.3225 172.203H86.6975V173.047H84.3225V180.219H83.3381V166.438H84.3225V172.203ZM81.8694 169.531H73.635V168.703H77.3069V166.578H78.2913V168.703H81.8694V169.531ZM77.8225 170.797C78.4631 170.797 79.036 170.93 79.5413 171.195C80.0465 171.461 80.4397 171.831 80.7209 172.305C81.0074 172.779 81.1506 173.318 81.1506 173.922C81.1506 174.526 81.0074 175.065 80.7209 175.539C80.4397 176.013 80.0465 176.383 79.5413 176.648C79.036 176.914 78.4631 177.047 77.8225 177.047C77.1819 177.047 76.6064 176.914 76.0959 176.648C75.5907 176.383 75.1949 176.013 74.9084 175.539C74.6272 175.065 74.4892 174.526 74.4944 173.922C74.4892 173.318 74.6272 172.779 74.9084 172.305C75.1949 171.831 75.5907 171.461 76.0959 171.195C76.6064 170.93 77.1819 170.797 77.8225 170.797ZM77.8225 171.625C77.3694 171.63 76.9605 171.734 76.5959 171.938C76.2314 172.135 75.9449 172.409 75.7366 172.758C75.5334 173.102 75.4319 173.49 75.4319 173.922C75.4319 174.354 75.5334 174.745 75.7366 175.094C75.9449 175.438 76.2314 175.708 76.5959 175.906C76.9605 176.099 77.3694 176.193 77.8225 176.188C78.2756 176.193 78.6845 176.099 79.0491 175.906C79.4136 175.708 79.6975 175.438 79.9006 175.094C80.109 174.745 80.2131 174.354 80.2131 173.922C80.2131 173.49 80.109 173.102 79.9006 172.758C79.6975 172.409 79.4136 172.135 79.0491 171.938C78.6845 171.734 78.2756 171.63 77.8225 171.625ZM100.159 172.875H97.8306V180.219H96.8463V166.438H97.8306V172.031H100.159V172.875ZM88.7994 175.828H88.8931H89.1744C90.2317 175.828 91.2655 175.779 92.2759 175.68C93.2916 175.581 94.3306 175.417 95.3931 175.188L95.5181 176.047C94.3879 176.276 93.2864 176.438 92.2134 176.531C91.1457 176.625 90.039 176.672 88.8931 176.672H87.8306V167.797H88.7994V175.828ZM112.151 180.219H111.167V176.109H102.823V175.312H112.151V180.219ZM112.151 174.562H111.167V166.438H112.151V174.562ZM103.854 168.922C103.854 169.307 103.901 169.729 103.995 170.188C104.089 170.646 104.248 171.107 104.472 171.57C104.696 172.029 104.987 172.43 105.347 172.773C105.867 172.289 106.242 171.693 106.472 170.984C106.706 170.271 106.823 169.583 106.823 168.922V167.266H107.761V168.922C107.755 169.432 107.831 169.956 107.987 170.492C108.149 171.023 108.399 171.518 108.737 171.977C109.076 172.435 109.5 172.797 110.011 173.062L109.448 173.781C108.922 173.49 108.482 173.099 108.128 172.609C107.774 172.115 107.503 171.56 107.315 170.945C107.154 171.581 106.912 172.159 106.589 172.68C106.266 173.195 105.849 173.609 105.339 173.922C104.828 173.604 104.409 173.177 104.081 172.641C103.758 172.104 103.516 171.513 103.354 170.867C103.162 171.487 102.891 172.052 102.542 172.562C102.193 173.073 101.761 173.479 101.245 173.781L100.667 173.062C101.172 172.776 101.591 172.393 101.925 171.914C102.263 171.43 102.511 170.924 102.667 170.398C102.828 169.867 102.912 169.375 102.917 168.922V167.266H103.854V168.922ZM122.246 170.969C122.246 171.714 122.402 172.453 122.714 173.188C123.027 173.917 123.449 174.57 123.98 175.148C124.516 175.727 125.105 176.172 125.746 176.484L125.152 177.25C124.391 176.87 123.709 176.31 123.105 175.57C122.506 174.826 122.066 173.992 121.785 173.07C121.498 174.06 121.04 174.948 120.41 175.734C119.779 176.521 119.069 177.109 118.277 177.5L117.683 176.75C118.339 176.438 118.941 175.982 119.488 175.383C120.04 174.784 120.477 174.099 120.8 173.328C121.128 172.557 121.293 171.771 121.293 170.969V169.688H118.043V168.875H121.277V166.656H122.261V168.875H125.464V169.688H122.246V170.969ZM128.386 172.188H130.761V173.047H128.386V180.219H127.402V166.438H128.386V172.188ZM142.207 168.312C142.207 169.135 142.186 169.885 142.144 170.562C142.103 171.234 141.999 172 141.832 172.859H143.91V173.688H131.285V172.859H140.84C141.006 171.99 141.111 171.219 141.152 170.547C141.199 169.875 141.223 169.13 141.223 168.312V168.109H132.91V167.281H142.207V168.312ZM142.629 179.875H132.973V175.359H133.957V179.031H142.629V179.875ZM149.262 170.969C149.262 171.714 149.418 172.453 149.731 173.188C150.043 173.917 150.465 174.57 150.996 175.148C151.533 175.727 152.121 176.172 152.762 176.484L152.168 177.25C151.408 176.87 150.725 176.31 150.121 175.57C149.522 174.826 149.082 173.992 148.801 173.07C148.514 174.06 148.056 174.948 147.426 175.734C146.796 176.521 146.085 177.109 145.293 177.5L144.699 176.75C145.356 176.438 145.957 175.982 146.504 175.383C147.056 174.784 147.494 174.099 147.817 173.328C148.145 172.557 148.309 171.771 148.309 170.969V169.688H145.059V168.875H148.293V166.656H149.277V168.875H152.481V169.688H149.262V170.969ZM155.402 172.188H157.777V173.047H155.402V180.219H154.418V166.438H155.402V172.188ZM169.223 168.312C169.223 169.135 169.202 169.885 169.161 170.562C169.119 171.234 169.015 172 168.848 172.859H170.926V173.688H158.301V172.859H167.856C168.023 171.99 168.127 171.219 168.168 170.547C168.215 169.875 168.239 169.13 168.239 168.312V168.109H159.926V167.281H169.223V168.312ZM169.645 179.875H159.989V175.359H160.973V179.031H169.645V179.875ZM186.443 173.797H182.114V177.578H187.974V178.422H175.349V177.578H181.13V173.797H177.005V167.594H186.302V168.422H177.989V172.984H186.443V173.797ZM193.029 167.359C193.727 167.359 194.349 167.492 194.896 167.758C195.448 168.023 195.88 168.398 196.193 168.883C196.505 169.367 196.664 169.922 196.669 170.547C196.664 171.12 196.529 171.635 196.263 172.094C195.997 172.547 195.628 172.911 195.154 173.188C194.685 173.464 194.143 173.633 193.529 173.695V176.195C194.992 176.138 196.315 176.031 197.497 175.875L197.576 176.625C196.362 176.823 195.089 176.958 193.755 177.031C192.422 177.104 191.039 177.141 189.607 177.141H188.872L188.685 176.297C190.367 176.286 191.654 176.266 192.544 176.234V173.695C191.919 173.638 191.367 173.471 190.888 173.195C190.409 172.919 190.037 172.555 189.771 172.102C189.511 171.643 189.383 171.125 189.388 170.547C189.383 169.922 189.534 169.367 189.841 168.883C190.149 168.398 190.578 168.023 191.13 167.758C191.682 167.492 192.315 167.359 193.029 167.359ZM193.029 168.203C192.513 168.208 192.05 168.312 191.638 168.516C191.232 168.714 190.914 168.99 190.685 169.344C190.456 169.698 190.341 170.099 190.341 170.547C190.341 170.995 190.456 171.398 190.685 171.758C190.919 172.112 191.24 172.388 191.646 172.586C192.052 172.784 192.513 172.88 193.029 172.875C193.539 172.88 193.995 172.784 194.396 172.586C194.802 172.388 195.12 172.112 195.349 171.758C195.578 171.398 195.695 170.995 195.701 170.547C195.695 170.099 195.578 169.698 195.349 169.344C195.12 168.99 194.802 168.714 194.396 168.516C193.995 168.312 193.539 168.208 193.029 168.203ZM199.404 172.219H201.779V173.062H199.404V180.219H198.435V166.438H199.404V172.219ZM213.459 173.969H204.021V167.766H213.318V168.594H204.99V173.141H213.459V173.969ZM214.99 178.266H202.365V177.422H214.99V178.266ZM227.201 180.234H226.232V166.438H227.201V180.234ZM217.826 176.016C219.076 176.016 220.246 175.979 221.334 175.906C222.423 175.833 223.571 175.698 224.779 175.5L224.873 176.344C223.634 176.536 222.462 176.672 221.357 176.75C220.253 176.823 219.076 176.859 217.826 176.859H216.686V171.703H222.045V168.594H216.67V167.75H223.029V172.531H217.701V176.016H217.826ZM235.491 167.469C235.491 168.557 235.274 169.557 234.842 170.469H237.35V166.75H238.303V174.234H237.35V171.297H234.381C233.923 172.005 233.332 172.643 232.608 173.211C231.889 173.779 231.048 174.271 230.084 174.688L229.569 173.938C231.038 173.328 232.194 172.544 233.038 171.586C233.886 170.622 234.368 169.531 234.483 168.312H230.116V167.469H235.491ZM241.038 174.453H240.1V166.438H241.038V174.453ZM234.084 175.953C234.084 176.615 234.264 177.25 234.623 177.859C234.988 178.469 235.501 178.958 236.163 179.328C236.605 179.062 236.985 178.737 237.303 178.352C237.621 177.961 237.863 177.557 238.03 177.141C238.196 176.719 238.282 176.323 238.288 175.953V174.938H239.241V175.953C239.241 176.432 239.358 176.904 239.592 177.367C239.832 177.831 240.168 178.247 240.6 178.617C241.038 178.982 241.543 179.26 242.116 179.453L241.631 180.203C240.944 179.953 240.35 179.589 239.85 179.109C239.355 178.63 238.988 178.086 238.748 177.477C238.53 178.086 238.204 178.641 237.772 179.141C237.34 179.646 236.814 180.036 236.194 180.312C235.538 180.047 234.988 179.667 234.545 179.172C234.103 178.682 233.782 178.125 233.584 177.5C233.334 178.089 232.965 178.622 232.475 179.102C231.991 179.581 231.423 179.948 230.772 180.203L230.272 179.453C230.824 179.245 231.319 178.951 231.756 178.57C232.194 178.19 232.535 177.771 232.78 177.312C233.024 176.849 233.147 176.396 233.147 175.953V174.938H234.084V175.953ZM245.514 176.453H252.796V174.703H253.796V180.016H244.53V174.703H245.514V176.453ZM252.796 179.203V177.266H245.514V179.203H252.796ZM255.452 173.641H242.889V172.797H255.452V173.641ZM249.671 167.297C249.671 167.87 249.926 168.414 250.436 168.93C250.952 169.445 251.6 169.88 252.382 170.234C253.163 170.583 253.936 170.812 254.702 170.922L254.327 171.703C253.634 171.594 252.944 171.401 252.257 171.125C251.574 170.844 250.957 170.492 250.405 170.07C249.858 169.648 249.447 169.177 249.171 168.656C248.9 169.177 248.491 169.651 247.944 170.078C247.397 170.5 246.78 170.849 246.092 171.125C245.405 171.401 244.712 171.594 244.014 171.703L243.639 170.922C244.421 170.807 245.199 170.578 245.975 170.234C246.757 169.891 247.4 169.464 247.905 168.953C248.415 168.438 248.671 167.885 248.671 167.297V166.578H249.671V167.297ZM267.679 180.219H266.71V166.438H267.679V180.219ZM258.304 175.734H258.429C259.569 175.734 260.687 175.682 261.78 175.578C262.879 175.474 263.996 175.302 265.132 175.062L265.273 175.922C264.095 176.172 262.955 176.349 261.851 176.453C260.746 176.557 259.606 176.609 258.429 176.609H257.335V167.797H258.304V175.734ZM280.515 172H282.89V172.828H280.515V180.234H279.531V166.438H280.515V172ZM271.593 175.891C272.979 175.891 274.156 175.857 275.124 175.789C276.098 175.721 277.088 175.594 278.093 175.406L278.234 176.266C277.192 176.453 276.176 176.581 275.187 176.648C274.197 176.716 272.999 176.75 271.593 176.75H270.531V167.797H276.953V168.625H271.515V175.891H271.593ZM284.773 179.078C284.539 179.078 284.338 178.997 284.172 178.836C284.01 178.674 283.929 178.479 283.929 178.25C283.929 178.016 284.01 177.818 284.172 177.656C284.338 177.49 284.539 177.406 284.773 177.406C285.002 177.406 285.198 177.49 285.359 177.656C285.521 177.818 285.601 178.016 285.601 178.25C285.601 178.474 285.521 178.669 285.359 178.836C285.198 178.997 285.002 179.078 284.773 179.078Z" fill="#666666"/>
</svg>
