<svg width="306" height="146" viewBox="0 0 306 146" fill="none" xmlns="http://www.w3.org/2000/svg">
<path d="M3.90234 40.4111V53.5684C6.5127 53.5552 9.04395 53.4233 12.0498 52.7773L12.2871 54.2539C9.09668 54.9131 6.45996 55.0449 3.69141 55.0449H2.24121V40.4111H3.90234ZM20.8564 37.8008V61.0566H19.248V37.8008H20.8564ZM15.873 38.4072V59.8174H14.291V47.1875H8.75391V45.79H14.291V38.4072H15.873ZM42.9131 37.8008V61.083H41.252V37.8008H42.9131ZM30.626 39.6465C34.0537 39.6465 36.5059 42.7842 36.5059 47.6885C36.5059 52.5928 34.0537 55.7305 30.626 55.7305C27.1719 55.7305 24.7461 52.5928 24.7461 47.6885C24.7461 42.7842 27.1719 39.6465 30.626 39.6465ZM30.626 41.123C28.1211 41.123 26.3545 43.8125 26.3545 47.6885C26.3545 51.5908 28.1211 54.2539 30.626 54.2539C33.1309 54.2539 34.8711 51.5908 34.8711 47.6885C34.8711 43.8125 33.1309 41.123 30.626 41.123ZM65.7872 37.8008V61.083H64.1524V48.0049H58.1407V55.0713H47.5938V39.6201H49.255V45.8164H56.5323V39.6201H58.1407V46.6074H64.1524V37.8008H65.7872ZM49.255 53.6738H56.5323V47.1875H49.255V53.6738ZM88.464 39.6201V41.0176H85.9328V48.875C87.1061 48.7959 88.2663 48.6904 89.3605 48.5586L89.4396 49.8506C84.8517 50.5625 79.4992 50.6152 75.6759 50.6152L75.465 49.165L78.6291 49.1387V41.0176H76.1242V39.6201H88.464ZM94.5548 37.8008V52.1973H92.8937V47.583H88.5959V46.2119H92.8937V43.4961H88.5959V42.0986H92.8937V37.8008H94.5548ZM86.9084 52.7246C91.7336 52.7246 94.6339 54.2012 94.6339 56.8379C94.6339 59.4746 91.7336 60.9775 86.9084 60.9775C82.0832 60.9775 79.1828 59.4746 79.2091 56.8379C79.1828 54.2012 82.0832 52.7246 86.9084 52.7246ZM86.9084 54.043C83.1642 54.043 80.8175 55.124 80.8439 56.8379C80.8175 58.5781 83.1642 59.6328 86.9084 59.6328C90.6525 59.6328 92.9992 58.5781 92.9992 56.8379C92.9992 55.124 90.6525 54.043 86.9084 54.043ZM80.2638 49.1123C81.5822 49.0991 82.9533 49.0464 84.3244 48.9805V41.0176H80.2638V49.1123ZM117.35 37.8008V51.459H115.689V45.1836H110.626V43.7861H115.689V37.8008H117.35ZM117.35 52.6719V60.7139H102.294V52.6719H117.35ZM103.929 54.0166V59.3428H115.715V54.0166H103.929ZM106.038 42.0723C106.038 45.1572 108.596 48.084 111.892 49.2705L111.022 50.5889C108.385 49.6133 106.236 47.583 105.247 45.0781C104.258 47.8862 101.965 50.1011 99.2092 51.1426L98.3391 49.8242C101.661 48.6377 104.377 45.5 104.377 42.0723V40.8066H98.9191V39.3828H111.417V40.8066H106.038V42.0723ZM145.986 38.4863V40.3584C145.986 42.125 145.986 44.1553 145.511 46.7393H148.596V49.4287H139.262V52.8828H146.012V61.4258H142.637V55.5195H128.847V52.8828H135.887V49.4287H126.632V46.7393H142.11C142.558 44.498 142.624 42.7314 142.637 41.1494H129.322V38.4863H145.986ZM170.125 37.4316V61.4258H166.882V49.4287H164.641V60.2656H161.477V37.8271H164.641V46.7129H166.882V37.4316H170.125ZM153.778 40.0947V52.6191C155.702 52.5796 157.812 52.4082 160.132 51.96L160.475 54.8604C157.258 55.4141 154.516 55.5723 152.037 55.5723H150.403V40.0947H153.778ZM186.922 39.9102V59H182.941V43.6807H182.835L178.458 46.4229V42.916L183.178 39.9102H186.922ZM197.852 38.4336C201.517 38.4072 204.18 40.4902 204.18 43.5225C204.18 46.5283 201.517 48.6377 197.852 48.6113C194.187 48.6377 191.524 46.5283 191.55 43.5225C191.524 40.4902 194.187 38.4072 197.852 38.4336ZM197.852 41.123C196.059 41.123 194.793 41.9932 194.793 43.5225C194.793 45.0254 196.059 45.8955 197.852 45.8691C199.698 45.8955 200.99 45.0254 200.99 43.5225C200.99 41.9932 199.698 41.123 197.852 41.123ZM210.245 37.458V61.4258H206.922V37.458H210.245ZM190.074 50.0879C194.319 50.0879 200.357 49.9824 205.472 49.2178L205.683 51.6963C203.706 52.0918 201.675 52.3423 199.671 52.4873V60.7139H196.323V52.6982C194.213 52.7905 192.223 52.8037 190.496 52.8301L190.074 50.0879Z" fill="#333333"/>
<path d="M33.8771 17.4931V15.1796L39.8646 5.85635H43.5525V15.1381H45.3343V17.4931H43.5525V20H40.7486V17.4931H33.8771ZM36.8398 15.1381H40.7901V9.07459H40.6588L36.8398 15.0276V15.1381ZM48.2957 20.1727C47.391 20.1727 46.6382 19.4406 46.652 18.5359C46.6382 17.6381 47.391 16.9061 48.2957 16.9061C49.1658 16.9061 49.9255 17.6381 49.9324 18.5359C49.9255 19.4406 49.1658 20.1727 48.2957 20.1727ZM56.7393 5.66298C59.6606 5.6768 62.43 7.41713 62.4438 12.5552C62.4507 17.3688 60.1648 20.1934 56.6219 20.1934C53.7697 20.1934 51.8222 18.4116 51.5322 16.0221H54.4258C54.6675 17.058 55.4755 17.6727 56.6219 17.6727C58.5349 17.6727 59.557 15.9461 59.5708 13.1285H59.4396C58.7835 14.3715 57.3885 15.1174 55.8208 15.1174C53.2794 15.1174 51.394 13.2044 51.3871 10.5663C51.3802 7.72099 53.5349 5.64917 56.7393 5.66298ZM54.2462 10.4834C54.2532 11.8854 55.2822 12.9696 56.7324 12.9696C58.162 12.9696 59.267 11.8301 59.2601 10.4696C59.2532 9.12293 58.1965 7.97652 56.7532 7.97652C55.3029 7.97652 54.2324 9.08149 54.2462 10.4834ZM69.2254 20.1934C66.2765 20.1934 64.1149 18.453 64.0597 16.0221H66.9119C66.981 17.1202 67.9892 17.8798 69.2254 17.8798C70.6895 17.8798 71.7323 16.8439 71.7254 15.366C71.7323 13.8743 70.6688 12.8246 69.1771 12.8177C68.1205 12.8177 67.3746 13.2113 66.9671 13.9986H64.2945L65.068 5.85635H73.7696V8.26657H67.4851L67.0984 11.837H67.2089C67.7337 11.1395 68.8042 10.6354 70.0473 10.6354C72.6439 10.6354 74.5707 12.576 74.5638 15.2901C74.5707 18.1492 72.4022 20.1934 69.2254 20.1934ZM90.5634 4.01243V14.3094H88.0772V10.1519H85.2595V8.12155H88.0772V4.01243H90.5634ZM75.4805 12.3619C78.3673 11.4365 79.7001 9.15746 79.7554 6.9268H76.1918V4.93094H85.8327V6.9268H82.2899C82.3314 8.96409 83.5952 11.0981 86.3783 12.0373L85.149 13.9986C83.1739 13.3494 81.8203 12.058 81.0468 10.4558C80.2664 12.2307 78.8507 13.6533 76.7581 14.3232L75.4805 12.3619ZM78.6159 21.6022V15.0276H90.5634V21.6022H78.6159ZM81.109 19.6064H88.1256V16.9959H81.109V19.6064Z" fill="#03CF5D"/>
<path d="M5.04688 97.1562C2.625 97.1562 0.90625 95.8438 0.859375 93.9375H2.90625C2.96875 94.8438 3.875 95.4375 5.04688 95.4375C6.29688 95.4375 7.1875 94.75 7.1875 93.75C7.1875 92.7344 6.3125 92 4.84375 92H3.82812V90.4375H4.84375C6.04688 90.4375 6.89062 89.7656 6.875 88.7812C6.89062 87.8281 6.17188 87.1875 5.0625 87.1875C4 87.1875 3.07812 87.7812 3.04688 88.7344H1.09375C1.14062 86.8281 2.85938 85.5312 5.07812 85.5312C7.375 85.5312 8.85938 86.9375 8.84375 88.6719C8.85938 89.9375 8.01562 90.8594 6.78125 91.1094V91.2031C8.375 91.4219 9.28125 92.4375 9.26562 93.8594C9.28125 95.7656 7.5 97.1562 5.04688 97.1562ZM17.43 85.4844V92.1562H10.7425V85.4844H17.43ZM12.4456 86.875V90.7812H15.7269V86.875H12.4456ZM21.3988 84.2656V88.4062H23.3675V89.8594H21.3988V94.5781H19.6644V84.2656H21.3988ZM21.9613 96.7031V98.1094H12.3519V93.5781H14.0863V96.7031H21.9613ZM27.5944 95.1719V92.2188H24.6413V90.4844H27.5944V87.5312H29.3131V90.4844H32.2819V92.2188H29.3131V95.1719H27.5944ZM48.1731 84.4375V88.7031H50.2981V89.5469H48.1731V94.5469H47.1888V84.4375H48.1731ZM48.845 97.0625V97.8906H39.6419V93.5938H40.6106V97.0625H48.845ZM39.0481 85.4375V87.8594H43.4544V85.4375H44.4231V92.1875H38.0794V85.4375H39.0481ZM39.0481 91.375H43.4544V88.6562H39.0481V91.375ZM62.2906 84.4375V98.2344H61.3219V92.2656H58.2906V91.4219H61.3219V88.5H58.4V87.6562H61.3219V84.4375H62.2906ZM52.4938 94.125C54.6813 94.125 56.4469 94.0312 58.6344 93.6875L58.7281 94.5312C56.4781 94.8906 54.7125 94.9688 52.4938 94.9688H51.4781V89.6562H56.4938V86.5625H51.4469V85.7188H57.4625V90.4844H52.4625V94.125H52.4938ZM75.7831 84.4375V94.5781H74.7988V84.4375H75.7831ZM76.2363 97.0625V97.8906H66.9863V93.5312H67.9706V97.0625H76.2363ZM68.3769 85.4375C70.4238 85.4375 71.9394 86.8125 71.9394 88.7812C71.9394 90.7656 70.4238 92.1562 68.3769 92.1406C66.33 92.1562 64.7988 90.7656 64.8144 88.7812C64.7988 86.8125 66.33 85.4375 68.3769 85.4375ZM68.3769 86.2969C66.8769 86.2969 65.7675 87.3594 65.7675 88.7812C65.7675 90.2188 66.8769 91.2656 68.3769 91.2656C69.8613 91.2656 70.9863 90.2188 70.9863 88.7812C70.9863 87.3594 69.8613 86.2969 68.3769 86.2969ZM82.4788 85.4688C84.6506 85.4688 86.1506 86.7656 86.1663 88.6562C86.1506 90.5625 84.6506 91.8438 82.4788 91.8438C80.3225 91.8438 78.7913 90.5625 78.7913 88.6562C78.7913 86.7656 80.3225 85.4688 82.4788 85.4688ZM82.4788 86.3438C80.9006 86.3438 79.7444 87.3125 79.76 88.6562C79.7444 90 80.9006 90.9844 82.4788 90.9688C84.0569 90.9844 85.1975 90 85.1975 88.6562C85.1975 87.3125 84.0569 86.3438 82.4788 86.3438ZM89.1819 84.4375V98.2344H88.1975V84.4375H89.1819ZM78.0413 94.25C80.6194 94.2656 84.1506 94.25 87.2444 93.7812L87.3225 94.5312C84.135 95.125 80.6975 95.125 78.1975 95.125L78.0413 94.25ZM99.8388 87.4531C99.8388 89.3906 101.464 91.0625 103.464 91.7188L102.948 92.5C101.339 91.9375 99.9716 90.7578 99.37 89.2188C98.7841 90.875 97.4169 92.1641 95.7763 92.7969L95.245 92C97.245 91.2812 98.8388 89.4844 98.8544 87.4531V86.4688H95.5106V85.6406H103.151V86.4688H99.8388V87.4531ZM106.339 84.4375V94.5938H105.354V84.4375H106.339ZM106.792 97.0625V97.8906H97.5419V93.6094H98.5263V97.0625H106.792ZM119.847 84.4375V92.2812H118.863V84.4375H119.847ZM119.847 93.125V98.0156H110.972V93.125H119.847ZM111.941 93.9375V97.2031H118.878V93.9375H111.941ZM113.269 86.3438C113.253 88.3906 114.894 90.1562 116.863 90.8594L116.363 91.625C114.761 91.0391 113.402 89.8125 112.784 88.2188C112.191 89.9141 110.831 91.2578 109.191 91.9062L108.691 91.125C110.691 90.375 112.269 88.4688 112.284 86.3438V84.9844H113.269V86.3438ZM128.293 84.6875C131.324 84.6875 133.121 85.5312 133.121 87.0781C133.121 88.6406 131.324 89.5 128.293 89.5C125.261 89.5 123.464 88.6406 123.464 87.0781C123.464 85.5312 125.261 84.6875 128.293 84.6875ZM128.293 85.4531C125.933 85.4531 124.48 86.0781 124.48 87.0781C124.48 88.125 125.933 88.7344 128.293 88.7344C130.668 88.7344 132.121 88.125 132.121 87.0781C132.121 86.0781 130.668 85.4531 128.293 85.4531ZM134.589 90.5312V91.3438H122.027V90.5312H134.589ZM132.933 92.6562V95.6094H124.574V97.2344H133.371V98.0469H123.621V94.8438H131.98V93.4375H123.574V92.6562H132.933ZM149.809 84.4375V87.9062H151.934V88.7344H149.809V92.2812H148.824V84.4375H149.809ZM140.809 90.5312C143.606 90.5469 145.246 90.4531 147.184 90.0625L147.324 90.8906C145.309 91.2812 143.637 91.375 140.809 91.375H139.762V85.3906H145.856V86.2031H140.746V90.5312H140.809ZM149.809 93.0469V98.0156H141.199V93.0469H149.809ZM142.152 93.8594V97.1875H148.824V93.8594H142.152ZM156.254 85.5312C158.27 85.5312 159.692 87.3906 159.692 90.2969C159.692 93.2031 158.27 95.0625 156.254 95.0625C154.239 95.0625 152.833 93.2031 152.848 90.2969C152.833 87.3906 154.239 85.5312 156.254 85.5312ZM156.254 86.4062C154.801 86.4062 153.77 88 153.77 90.2969C153.77 92.6094 154.801 94.1875 156.254 94.1875C157.739 94.1875 158.739 92.6094 158.754 90.2969C158.739 88 157.739 86.4062 156.254 86.4062ZM163.192 84.4375V90.0469H165.567V90.8906H163.192V98.2188H162.208V84.4375H163.192ZM177.747 84.4375V94.7031H176.809V89.3438H174.622V94.2188H173.684V84.7031H174.622V88.5H176.809V84.4375H177.747ZM178.2 96.8906V97.7188H168.778V93.2188H169.762V96.8906H178.2ZM167.809 85.6094V90.8906C169.325 90.8828 170.802 90.8047 172.622 90.4688L172.731 91.3125C170.809 91.6719 169.262 91.75 167.669 91.7344H166.825V85.6094H167.809ZM194.451 84.4375V98.2344H193.466V84.4375H194.451ZM187.169 85.5312C189.201 85.5312 190.654 87.3906 190.654 90.2969C190.654 93.2031 189.201 95.0625 187.169 95.0625C185.122 95.0625 183.685 93.2031 183.685 90.2969C183.685 87.3906 185.122 85.5312 187.169 85.5312ZM187.169 86.4062C185.685 86.4062 184.638 88 184.638 90.2969C184.638 92.6094 185.685 94.1875 187.169 94.1875C188.654 94.1875 189.685 92.6094 189.685 90.2969C189.685 88 188.654 86.4062 187.169 86.4062ZM200.318 85.5312C202.334 85.5312 203.756 87.3906 203.756 90.2969C203.756 93.2031 202.334 95.0625 200.318 95.0625C198.303 95.0625 196.896 93.2031 196.912 90.2969C196.896 87.3906 198.303 85.5312 200.318 85.5312ZM200.318 86.4062C198.865 86.4062 197.834 88 197.834 90.2969C197.834 92.6094 198.865 94.1875 200.318 94.1875C201.803 94.1875 202.803 92.6094 202.818 90.2969C202.803 88 201.803 86.4062 200.318 86.4062ZM209.584 87.9844V88.8438H207.256V92.1094H209.584V92.9531H207.256V98.2188H206.271V84.4375H207.256V87.9844H209.584ZM221.482 84.4375V98.2188H220.514V84.4375H221.482ZM217.42 85.9531C217.404 89.8438 215.451 93.3594 210.92 95.5469L210.373 94.7344C214.154 92.9453 216.178 90.125 216.436 86.7656H210.982V85.9531H217.42ZM225.022 97.0781C224.553 97.0781 224.178 96.7031 224.178 96.25C224.178 95.7812 224.553 95.4062 225.022 95.4062C225.475 95.4062 225.85 95.7812 225.85 96.25C225.85 96.7031 225.475 97.0781 225.022 97.0781ZM11.3438 106.438V111.094H13.4688V111.938H11.3438V116.781H10.3594V106.438H11.3438ZM8.875 108.203V109.031H0.65625V108.203H4.28125V106.453H5.25V108.203H8.875ZM4.76562 109.875C6.71875 109.875 8.04688 110.875 8.04688 112.422C8.04688 113.969 6.71875 114.953 4.76562 114.953C2.78125 114.953 1.46875 113.969 1.46875 112.422C1.46875 110.875 2.78125 109.875 4.76562 109.875ZM4.76562 110.672C3.34375 110.672 2.39062 111.375 2.40625 112.422C2.39062 113.453 3.34375 114.156 4.76562 114.141C6.17188 114.156 7.10938 113.453 7.125 112.422C7.10938 111.375 6.17188 110.672 4.76562 110.672ZM12.0156 119.062V119.891H2.8125V115.938H3.78125V119.062H12.0156ZM29.0163 106.438V116.656H28.0319V111.234H24.5475V114.234H18.3756V107.359H19.36V109.922H23.5631V107.359H24.5475V110.391H28.0319V106.438H29.0163ZM29.3444 119.062V119.891H20.1881V115.656H21.1725V119.062H29.3444ZM19.36 113.406H23.5631V110.703H19.36V113.406ZM36.8919 106.859V108.75H39.4544V106.859H40.4075V112.359H35.9388V106.859H36.8919ZM36.8919 111.531H39.4544V109.516H36.8919V111.531ZM42.5325 106.859V108.75H45.095V106.859H46.0325V112.359H41.5794V106.859H42.5325ZM42.5325 111.531H45.095V109.516H42.5325V111.531ZM47.2981 113.844V114.672H41.5481V117.531H40.5794V114.672H34.6888V113.844H47.2981ZM45.8919 119.172V120H36.345V116.25H37.3294V119.172H45.8919ZM59.5406 106.438V116.578H58.5563V106.438H59.5406ZM59.9938 119.062V119.891H50.7438V115.531H51.7281V119.062H59.9938ZM52.1344 107.438C54.1813 107.438 55.6969 108.812 55.6969 110.781C55.6969 112.766 54.1813 114.156 52.1344 114.141C50.0875 114.156 48.5563 112.766 48.5719 110.781C48.5563 108.812 50.0875 107.438 52.1344 107.438ZM52.1344 108.297C50.6344 108.297 49.525 109.359 49.525 110.781C49.525 112.219 50.6344 113.266 52.1344 113.266C53.6188 113.266 54.7438 112.219 54.7438 110.781C54.7438 109.359 53.6188 108.297 52.1344 108.297ZM76.5725 106.438V120.234H75.5881V106.438H76.5725ZM69.2913 107.531C71.3225 107.531 72.7756 109.391 72.7756 112.297C72.7756 115.203 71.3225 117.062 69.2913 117.062C67.2444 117.062 65.8069 115.203 65.8069 112.297C65.8069 109.391 67.2444 107.531 69.2913 107.531ZM69.2913 108.406C67.8069 108.406 66.76 110 66.76 112.297C66.76 114.609 67.8069 116.188 69.2913 116.188C70.7756 116.188 71.8069 114.609 71.8069 112.297C71.8069 110 70.7756 108.406 69.2913 108.406ZM90.1119 106.438V113.672H89.1431V111.781H85.6588V113.062H79.4869V107.094H80.4713V109.203H84.6744V107.094H85.6588V108.484H89.1431V106.438H90.1119ZM90.1119 114.391V117.5H82.2681V119.203H90.69V120.016H81.2994V116.719H89.1431V115.203H81.2525V114.391H90.1119ZM80.4713 112.25H84.6744V110.016H80.4713V112.25ZM85.6588 110.984H89.1431V109.266H85.6588V110.984ZM98.5419 106.688C101.573 106.688 103.37 107.531 103.37 109.078C103.37 110.641 101.573 111.5 98.5419 111.5C95.5106 111.5 93.7138 110.641 93.7138 109.078C93.7138 107.531 95.5106 106.688 98.5419 106.688ZM98.5419 107.453C96.1825 107.453 94.7294 108.078 94.7294 109.078C94.7294 110.125 96.1825 110.734 98.5419 110.734C100.917 110.734 102.37 110.125 102.37 109.078C102.37 108.078 100.917 107.453 98.5419 107.453ZM104.839 112.531V113.344H92.2763V112.531H104.839ZM103.183 114.656V117.609H94.8231V119.234H103.62V120.047H93.87V116.844H102.229V115.438H93.8231V114.656H103.183ZM120.683 106.438V114.828H119.699V112.812H115.839V111.969H119.699V109.922H116.011C115.089 112.164 112.894 113.812 109.949 114.703L109.527 113.906C112.902 112.883 115.168 110.898 115.402 108.344H110.23V107.5H116.464C116.464 108.07 116.394 108.609 116.261 109.125H119.699V106.438H120.683ZM116.199 114.953C118.996 114.953 120.761 115.922 120.761 117.547C120.761 119.188 118.996 120.156 116.199 120.156C113.386 120.156 111.621 119.188 111.621 117.547C111.621 115.922 113.386 114.953 116.199 114.953ZM116.199 115.766C114.011 115.766 112.589 116.438 112.589 117.547C112.589 118.656 114.011 119.344 116.199 119.344C118.355 119.344 119.777 118.656 119.777 117.547C119.777 116.438 118.355 115.766 116.199 115.766ZM134.191 106.438V114.797H133.207V111.516H130.676V110.672H133.207V106.438H134.191ZM134.191 115.578V120.016H125.269V115.578H134.191ZM126.238 116.375V119.203H133.223V116.375H126.238ZM130.863 107.969V108.781H122.832V107.969H126.363V106.297H127.332V107.969H130.863ZM126.848 109.578C128.691 109.578 130.004 110.578 130.004 112.031C130.004 113.5 128.691 114.469 126.848 114.469C124.988 114.469 123.676 113.5 123.676 112.031C123.676 110.578 124.988 109.578 126.848 109.578ZM126.848 110.359C125.535 110.359 124.613 111.062 124.629 112.031C124.613 113.016 125.535 113.688 126.848 113.703C128.144 113.688 129.066 113.016 129.066 112.031C129.066 111.062 128.144 110.359 126.848 110.359ZM147.074 106.375V109.844H149.215V110.672H147.074V114.047H146.09V106.375H147.074ZM147.074 114.812V117.734H139.387V119.25H147.606V120.047H138.418V116.969H146.09V115.578H138.387V114.812H147.074ZM144.606 107.766V108.562H136.387V107.766H140.012V106.266H140.981V107.766H144.606ZM140.496 109.281C142.481 109.281 143.777 110.156 143.777 111.547C143.777 112.953 142.481 113.812 140.496 113.812C138.496 113.812 137.199 112.953 137.199 111.547C137.199 110.156 138.496 109.281 140.496 109.281ZM140.496 110.031C139.074 110.047 138.121 110.656 138.137 111.547C138.121 112.453 139.074 113.047 140.496 113.047C141.902 113.047 142.84 112.453 142.856 111.547C142.84 110.656 141.902 110.047 140.496 110.031ZM162.481 106.766V112.156H164.356V106.438H165.309V120.219H164.356V112.984H162.481V119.516H161.559V106.766H162.481ZM156.872 108.203V109.031H154.794V115.672C155.333 115.664 156.122 115.609 156.981 115.391L157.091 116.25C155.872 116.531 154.919 116.531 154.387 116.531H153.872V108.203H156.872ZM160.559 108.203V109.031H158.403V115.688C159.091 115.672 159.966 115.617 160.887 115.328L161.012 116.188C159.825 116.531 158.825 116.531 158.044 116.531H157.497V108.203H160.559ZM168.911 118.047L167.771 122.094H166.849L167.724 118.047H168.911ZM176.771 106.656V108.094H184.021V106.656H185.006V111.172H175.787V106.656H176.771ZM176.771 110.375H184.021V108.875H176.771V110.375ZM186.662 112.438V113.281H180.865V114.781H185.006V117.703H176.646V119.234H185.443V120.047H175.693V116.938H184.053V115.562H175.646V114.781H179.881V113.281H174.099V112.438H186.662ZM198.967 106.438V116.734H197.982V112.531H195.42V111.688H197.982V109.953H195.42V109.125H197.982V106.438H198.967ZM195.357 107.594V108.422H193.857V113.453C194.553 113.414 195.24 113.359 195.889 113.281L195.936 114.031C193.232 114.453 190.045 114.484 187.779 114.5L187.654 113.625L189.529 113.609V108.422H188.045V107.594H195.357ZM199.357 119.062V119.891H190.186V115.844H191.17V119.062H199.357ZM190.498 113.594C191.279 113.586 192.092 113.562 192.904 113.516V108.422H190.498V113.594ZM211.85 106.438V110.188H213.975V111.047H211.85V114.734H210.866V106.438H211.85ZM211.85 115.578V120.016H203.241V115.578H211.85ZM204.194 116.375V119.203H210.866V116.375H204.194ZM209.381 107.969V108.797H201.163V107.969H204.788V106.312H205.756V107.969H209.381ZM205.272 109.578C207.241 109.578 208.553 110.547 208.553 112.031C208.553 113.531 207.241 114.469 205.272 114.469C203.272 114.469 201.975 113.531 201.975 112.031C201.975 110.547 203.272 109.578 205.272 109.578ZM205.272 110.359C203.85 110.359 202.897 111.047 202.913 112.031C202.897 113.031 203.85 113.688 205.272 113.703C206.678 113.688 207.616 113.031 207.631 112.031C207.616 111.047 206.678 110.359 205.272 110.359ZM225.936 106.438V120.234H224.952V106.438H225.936ZM218.655 107.531C220.686 107.531 222.139 109.391 222.139 112.297C222.139 115.203 220.686 117.062 218.655 117.062C216.608 117.062 215.171 115.203 215.171 112.297C215.171 109.391 216.608 107.531 218.655 107.531ZM218.655 108.406C217.171 108.406 216.124 110 216.124 112.297C216.124 114.609 217.171 116.188 218.655 116.188C220.139 116.188 221.171 114.609 221.171 112.297C221.171 110 220.139 108.406 218.655 108.406ZM242.406 106.438V109.688H244.546V110.531H242.406V114.234H241.421V106.438H242.406ZM242.406 115.031V120.016H233.765V115.031H242.406ZM234.718 115.828V119.188H241.437V115.828H234.718ZM233.374 107.141V112.219H233.452C235.484 112.219 237.562 112.062 239.874 111.594L239.999 112.438C237.624 112.922 235.562 113.062 233.452 113.062H232.374V107.141H233.374ZM249.976 110.828C249.976 113.188 251.867 115.578 253.804 116.422L253.242 117.203C251.656 116.461 250.14 114.812 249.492 112.844C248.851 114.914 247.343 116.742 245.804 117.547L245.211 116.766C247.086 115.844 248.976 113.219 248.992 110.828V108.719H245.633V107.875H253.383V108.719H249.976V110.828ZM256.492 106.438V120.219H255.508V106.438H256.492ZM266.086 107.25C268.133 107.266 269.617 108.562 269.633 110.438C269.617 112.312 268.133 113.594 266.086 113.609C264.039 113.594 262.539 112.312 262.539 110.438C262.539 108.562 264.039 107.266 266.086 107.25ZM266.086 108.094C264.617 108.094 263.508 109.109 263.508 110.438C263.508 111.766 264.617 112.781 266.086 112.781C267.555 112.781 268.664 111.766 268.664 110.438C268.664 109.109 267.555 108.094 266.086 108.094ZM272.961 106.438V109.609H275.086V110.453H272.961V113.344H271.977V106.438H272.961ZM264.727 114.891V119C265.477 118.992 266.688 118.891 267.758 118.531L267.93 119.328C266.524 119.781 265.164 119.844 264.399 119.844H263.774V114.891H264.727ZM274.414 114.969V115.766H267.43V114.969H270.461V113.672H271.43V114.969H274.414ZM270.93 116.281C272.414 116.281 273.461 117.031 273.477 118.234C273.461 119.422 272.414 120.172 270.93 120.172C269.43 120.172 268.383 119.422 268.399 118.234C268.383 117.031 269.43 116.281 270.93 116.281ZM270.93 117.016C269.961 117.016 269.274 117.516 269.274 118.234C269.274 118.953 269.961 119.438 270.93 119.438C271.883 119.438 272.571 118.953 272.571 118.234C272.571 117.516 271.883 117.016 270.93 117.016ZM286.829 112.984V113.797H282.501V117.578H288.36V118.422H275.735V117.578H281.516V113.797H277.391V107.594H286.688V108.422H278.376V112.984H286.829ZM301.837 114.078V114.922H289.228V114.078H295.04V112.469H290.884V109.25H299.212V107.625H290.837V106.812H300.196V110.016H291.853V111.656H300.493V112.469H296.009V114.078H301.837ZM300.274 116.062V120.062H299.274V116.891H290.634V116.062H300.274ZM12.2969 128.281V138.625H10.5625V133.484H8.01562C7.64844 135.141 6.1875 136.266 4.39062 136.266C2.26562 136.266 0.65625 134.781 0.65625 132.703C0.65625 130.625 2.26562 129.156 4.39062 129.156C6.23438 129.156 7.72656 130.328 8.04688 132.062H10.5625V128.281H12.2969ZM12.6562 140.703V142.109H3.03125V137.578H4.76562V140.703H12.6562ZM4.39062 130.672C3.20312 130.672 2.3125 131.453 2.3125 132.703C2.3125 133.953 3.20312 134.766 4.39062 134.766C5.54688 134.766 6.42188 133.953 6.4375 132.703C6.42188 131.453 5.54688 130.672 4.39062 130.672ZM26.1331 128.266V142.391H24.4769V128.266H26.1331ZM23.2581 128.531V141.703H21.6175V134.594H19.5863V133.188H21.6175V128.531H23.2581ZM18.3363 132.125C18.3363 134.516 19.1956 136.906 21.2113 138.062L20.18 139.344C18.8753 138.562 18.0081 137.219 17.5238 135.609C17.0238 137.352 16.1253 138.836 14.7894 139.672L13.7269 138.375C15.7738 137.141 16.6644 134.578 16.6644 132.125V131.188H14.2113V129.781H20.6175V131.188H18.3363V132.125ZM40.6413 133.719V135.141H38.5475V142.359H36.8131V128.266H38.5475V133.719H40.6413ZM29.7038 129.641V137.438C31.5866 137.406 33.5944 137.242 35.7194 136.797L35.9069 138.266C33.5319 138.734 31.2663 138.875 29.1725 138.875H27.985V129.641H29.7038ZM57.3763 139.266V140.688H44.47V139.266H50.0325V136.516H45.8919V129.203H47.6263V131.516H54.1731V129.203H55.9075V136.516H51.7513V139.266H57.3763ZM47.6263 135.109H54.1731V132.906H47.6263V135.109ZM70.2281 130.156V131.562H58.5563V130.156H63.5406V128.453H65.2594V130.156H70.2281ZM70.8844 139.469V140.875H57.9781V139.469H63.5406V137.734C61.0953 137.539 59.6188 136.562 59.6344 135C59.6188 133.297 61.4469 132.281 64.4 132.281C67.3063 132.281 69.15 133.297 69.15 135C69.15 136.555 67.6656 137.531 65.2594 137.719V139.469H70.8844ZM64.4 133.641C62.4781 133.656 61.4 134.109 61.4156 135C61.4 135.906 62.4781 136.359 64.4 136.375C66.2906 136.359 67.3688 135.906 67.3688 135C67.3688 134.109 66.2906 133.656 64.4 133.641ZM76.5488 132.281C76.5488 134.469 77.8456 136.953 80.08 137.984L79.1113 139.359C77.5175 138.609 76.3378 137.094 75.705 135.328C75.0644 137.266 73.83 138.922 72.205 139.703L71.1894 138.344C73.4394 137.281 74.7988 134.625 74.8144 132.281V131.094H71.7363V129.656H79.5019V131.094H76.5488V132.281ZM82.5488 128.266V133.766H84.7206V135.219H82.5488V142.391H80.8144V128.266H82.5488ZM96.7288 128.266V136.219H95.01V128.266H96.7288ZM87.5725 129.094V133.938C89.7834 133.914 91.6897 133.758 93.6819 133.328L93.9006 134.766C91.6506 135.219 89.5256 135.391 87.0256 135.406H85.8225V129.094H87.5725ZM96.7288 136.828V142.203H87.4006V136.828H96.7288ZM89.1038 138.188V140.828H95.0413V138.188H89.1038ZM103.081 129.25C105.315 129.234 106.956 130.656 106.971 132.656C106.956 134.672 105.315 136.078 103.081 136.078C100.862 136.078 99.2056 134.672 99.2056 132.656C99.2056 130.656 100.862 129.234 103.081 129.25ZM103.081 130.75C101.846 130.75 100.924 131.484 100.924 132.656C100.924 133.844 101.846 134.562 103.081 134.562C104.331 134.562 105.268 133.844 105.268 132.656C105.268 131.484 104.331 130.75 103.081 130.75ZM110.268 128.266V142.406H108.534V128.266H110.268ZM98.565 138.031C101.112 138.031 104.643 138 107.69 137.562L107.831 138.828C104.659 139.438 101.268 139.453 98.7838 139.453L98.565 138.031ZM126.722 128.844V133.75H122.784V135.234H128.363V136.641H115.488V135.234H121.034V133.75H117.113V128.844H126.722ZM118.8 130.203V132.375H125.003V130.203H118.8ZM126.784 137.828V142.391H125.05V139.203H116.909V137.828H126.784ZM141.902 139.234V140.641H128.996V139.234H134.527V135.969H136.246V139.234H141.902ZM136.292 130.156C136.292 132.297 138.433 134.406 141.402 134.875L140.652 136.312C138.261 135.859 136.308 134.492 135.371 132.641C134.433 134.484 132.496 135.875 130.121 136.312L129.371 134.875C132.324 134.406 134.433 132.281 134.449 130.156V129.125H136.292V130.156ZM154.269 128.266V142.406H152.551V128.266H154.269ZM149.926 129.5V134.797H145.066V137.641C147.293 137.625 149.215 137.516 151.41 137.141L151.566 138.562C149.16 138.984 147.051 139.062 144.519 139.062H143.285V133.422H148.16V130.906H143.269V129.5H149.926ZM168.199 128.266V142.391H166.527V128.266H168.199ZM165.293 128.516V141.703H163.637V134.984H162.293C162.129 137.734 160.949 139.438 159.199 139.422C157.356 139.438 156.152 137.484 156.152 134.375C156.152 131.266 157.356 129.344 159.199 129.344C160.91 129.344 162.074 130.938 162.277 133.578H163.637V128.516H165.293ZM159.199 130.984C158.309 130.969 157.746 132.172 157.762 134.375C157.746 136.578 158.309 137.781 159.199 137.766C160.137 137.781 160.699 136.578 160.699 134.375C160.699 132.172 160.137 130.969 159.199 130.984ZM184.981 128.266V142.391H183.231V128.266H184.981ZM172.903 134.828C174.684 134.828 176.716 134.812 178.762 134.719C179.083 132.977 179.153 131.648 179.184 130.688H174.091V129.281H180.903V130.016C180.903 130.961 180.903 132.492 180.544 134.609C181.153 134.57 181.755 134.516 182.341 134.453L182.466 135.75C181.114 135.93 179.731 136.047 178.372 136.125V141.594H176.622V136.203C175.395 136.242 174.216 136.258 173.122 136.266L172.903 134.828ZM201.779 128.266V142.391H200.029V128.266H201.779ZM197.56 129.766C197.56 133.969 195.935 137.547 190.982 139.891L190.076 138.5C193.771 136.742 195.49 134.352 195.794 131.141H190.794V129.766H197.56ZM209.912 128.406C213.131 128.406 214.99 129.266 215.006 130.828C214.99 132.406 213.131 133.25 209.912 133.266C206.693 133.25 204.818 132.406 204.818 130.828C204.818 129.266 206.693 128.406 209.912 128.406ZM209.912 129.703C207.756 129.703 206.631 130.094 206.646 130.828C206.631 131.609 207.756 131.969 209.912 131.984C212.099 131.969 213.209 131.609 213.209 130.828C213.209 130.094 212.099 129.703 209.912 129.703ZM216.365 134V135.359H210.771V136.438H214.756V139.891H206.724V140.938H215.146V142.266H205.021V138.656H213.053V137.719H205.006V136.438H209.037V135.359H203.49V134H216.365ZM228.748 128.266V142.406H226.998V128.266H228.748ZM221.139 129.297C223.264 129.297 224.811 131.234 224.826 134.281C224.811 137.359 223.264 139.281 221.139 139.281C218.998 139.281 217.451 137.359 217.451 134.281C217.451 131.234 218.998 129.297 221.139 129.297ZM221.139 130.859C219.936 130.859 219.123 132.125 219.123 134.281C219.123 136.453 219.936 137.719 221.139 137.719C222.326 137.719 223.139 136.453 223.139 134.281C223.139 132.125 222.326 130.859 221.139 130.859ZM242.038 129.562V130.922C242.022 132.672 242.022 134.641 241.475 137.594L239.725 137.406C240.272 134.656 240.272 132.648 240.288 130.953H231.85V129.562H242.038ZM243.381 139.141V140.562H230.506V139.141H235.256V134.234H236.975V139.141H243.381ZM252.507 137.453C252.507 138.625 253.046 139.859 254.257 140.625C255.483 139.805 256.054 138.523 256.069 137.453V136.875H257.773V137.453C257.757 138.938 258.632 140.312 260.491 140.906L259.648 142.172C258.273 141.711 257.358 140.812 256.866 139.688C256.413 140.797 255.577 141.789 254.304 142.297C252.96 141.812 252.116 140.859 251.679 139.734C251.171 140.82 250.273 141.703 248.96 142.172L248.101 140.906C249.929 140.266 250.804 138.828 250.819 137.453V136.875H252.507V137.453ZM259.257 128.281V136.281H257.507V128.281H259.257ZM251.554 129.031C253.726 129.031 255.351 130.406 255.351 132.391C255.351 134.359 253.726 135.734 251.554 135.734C249.366 135.734 247.741 134.359 247.741 132.391C247.741 130.406 249.366 129.031 251.554 129.031ZM251.554 130.5C250.319 130.5 249.429 131.234 249.444 132.391C249.429 133.547 250.319 134.297 251.554 134.297C252.773 134.297 253.648 133.547 253.648 132.391C253.648 131.234 252.773 130.5 251.554 130.5ZM264.265 136.734V138.078H270.484V136.734H272.218V142.219H262.546V136.734H264.265ZM264.265 140.844H270.484V139.406H264.265V140.844ZM273.874 134.516V135.938H260.999V134.516H273.874ZM268.328 128.953C268.328 130.469 270.265 132.062 273.187 132.406L272.578 133.781C270.21 133.461 268.343 132.414 267.437 130.984C266.523 132.422 264.648 133.461 262.296 133.781L261.656 132.406C264.609 132.047 266.531 130.516 266.546 128.953V128.422H268.328V128.953ZM286.289 128.266V142.391H284.57V128.266H286.289ZM277.039 129.641V137.359C279.023 137.328 281.133 137.148 283.304 136.719L283.523 138.172C281.039 138.688 278.726 138.844 276.539 138.844H275.32V129.641H277.039ZM299.078 128.266V133.625H301.25V135.047H299.078V142.406H297.344V128.266H299.078ZM295.203 129.609V131.016H290.328V137.5C292.523 137.5 294.258 137.391 296.203 137.047L296.406 138.516C294.219 138.891 292.312 138.953 289.766 138.953H288.594V129.609H295.203ZM303.242 141.125C302.571 141.125 302.024 140.578 302.024 139.906C302.024 139.25 302.571 138.703 303.242 138.703C303.883 138.703 304.446 139.25 304.446 139.906C304.446 140.578 303.883 141.125 303.242 141.125Z" fill="#666666"/>
<rect width="26" height="26" transform="matrix(1 0 0 -1 0 26)" fill="#03CF5D"/>
<path d="M15.3148 13.4588L10.4949 6.5H6.5V19.5H10.6852V12.5429L15.5051 19.5H19.5V6.5H15.3148V13.4588Z" fill="white"/>
</svg>
