<svg width="322" height="148" viewBox="0 0 322 148" fill="none" xmlns="http://www.w3.org/2000/svg">
<path d="M20.1973 29.083H18.5361V16.6641H13.1309V15.2666H18.5361V5.80078H20.1973V29.083ZM8.83301 13.4473C8.83301 14.7393 9.11426 16.0093 9.67676 17.2573C10.2393 18.4966 10.9951 19.5996 11.9443 20.5664C12.8936 21.5244 13.9307 22.2539 15.0557 22.7549L14.0801 24.0732C12.7266 23.4316 11.5093 22.4824 10.4282 21.2256C9.34717 19.9688 8.55615 18.5449 8.05518 16.9541C7.56299 18.6328 6.78076 20.1401 5.7085 21.4761C4.64502 22.812 3.44531 23.8096 2.10938 24.4688L1.13379 23.2031C2.24121 22.6758 3.25635 21.9067 4.1792 20.896C5.11084 19.8853 5.84912 18.7295 6.39404 17.4287C6.94775 16.1279 7.22461 14.8008 7.22461 13.4473V11.2852H1.71387V9.91406H7.22461V6.16992H8.88574V9.91406H14.291V11.2852H8.83301V13.4473ZM34.3965 6.32812C36.0664 6.32812 37.5122 6.50391 38.7339 6.85547C39.9644 7.19824 40.9048 7.69922 41.5552 8.3584C42.2144 9.00879 42.544 9.79102 42.544 10.7051C42.544 11.6104 42.2144 12.3882 41.5552 13.0386C40.9048 13.689 39.9688 14.1855 38.7471 14.5283C37.5254 14.8623 36.0752 15.0293 34.3965 15.0293C32.7266 15.0293 31.2808 14.8623 30.0591 14.5283C28.8374 14.1855 27.897 13.689 27.2378 13.0386C26.5787 12.3882 26.2491 11.6104 26.2491 10.7051C26.2491 9.79102 26.5787 9.00879 27.2378 8.3584C27.897 7.69922 28.8374 7.19824 30.0591 6.85547C31.2808 6.50391 32.7266 6.32812 34.3965 6.32812ZM34.3965 7.69922C33.0957 7.69922 31.9576 7.82227 30.982 8.06836C30.0152 8.31445 29.2681 8.66602 28.7408 9.12305C28.2134 9.57129 27.9541 10.0986 27.9629 10.7051C27.9541 11.3027 28.209 11.8257 28.7276 12.2739C29.2549 12.7222 30.0064 13.0693 30.982 13.3154C31.9576 13.5527 33.0957 13.6758 34.3965 13.6846C35.6885 13.6758 36.8223 13.5527 37.7979 13.3154C38.7735 13.0693 39.5249 12.7222 40.0523 12.2739C40.5884 11.8257 40.8565 11.3027 40.8565 10.7051C40.8565 10.0986 40.5884 9.57129 40.0523 9.12305C39.5249 8.66602 38.7735 8.31445 37.7979 8.06836C36.8223 7.82227 35.6885 7.69922 34.3965 7.69922ZM42.3858 28.7139H26.46V21.1729H42.3858V28.7139ZM28.0948 27.3428H40.7774V22.5176H28.0948V27.3428ZM45.0225 18.6416H23.8233V17.2441H45.0225V18.6416ZM64.7726 7.35645C64.7726 8.29687 64.6583 9.20215 64.4298 10.0723H70.0988V5.80078H71.7599V19.3799H70.0988V16.374H63.6124V14.9502H70.0988V11.4434H63.9552C63.1818 13.2539 61.9073 14.8228 60.132 16.1499C58.3566 17.4771 56.2032 18.4922 53.672 19.1953L52.9864 17.8506C54.92 17.3145 56.6119 16.6025 58.0621 15.7148C59.5123 14.8271 60.6593 13.7944 61.503 12.6167C62.3556 11.439 62.8522 10.1514 62.9928 8.75391H54.1466V7.35645H64.7726ZM63.2696 29.0303H61.5821V21.9111H55.7023V20.4873H63.2696V29.0303ZM71.7599 29.0303H70.0988V21.9111H64.4298V20.4873H71.7599V29.0303ZM94.1593 14.4492H78.339V6.64453H79.9738V13.0518H94.1593V14.4492ZM96.6378 19.1953H75.3595V17.8242H96.6378V19.1953ZM94.2912 28.4766H78.2336V21.7266H79.8683V27.0527H94.2912V28.4766ZM122.268 12.999H125.854V14.4229H122.268V22.8604H120.607V5.80078H122.268V12.999ZM123.402 28.5029H107.871V21.252H109.506V27.1055H123.402V28.5029ZM106.869 11.5752H114.305V7.48828H115.94V18.8789H105.235V7.48828H106.869V11.5752ZM114.305 17.5078V12.9199H106.869V17.5078H114.305ZM146.091 29.083H144.456V19.0107H139.341V17.5869H144.456V12.6562H139.526V11.2324H144.456V5.80078H146.091V29.083ZM129.559 22.1484C131.51 22.1484 133.281 22.0957 134.872 21.9902C136.471 21.8848 138.155 21.6914 139.921 21.4102L140.079 22.834C138.286 23.124 136.59 23.3218 134.991 23.4272C133.4 23.5239 131.589 23.5723 129.559 23.5723H127.845V14.6074H136.309V9.38672H127.792V7.96289H137.944V16.0049H129.506V22.1484H129.559ZM170.943 18.8262H149.743V17.4551H159.526V14.502H152.459V6.9082H168.28V8.25293H154.094V13.1045H168.438V14.502H161.134V17.4551H170.943V18.8262ZM160.343 20.6982C161.995 20.6982 163.415 20.8608 164.601 21.186C165.797 21.5112 166.711 21.9858 167.344 22.6099C167.985 23.2251 168.306 23.9678 168.306 24.8379C168.306 25.7256 167.99 26.4814 167.357 27.1055C166.724 27.7295 165.81 28.2041 164.615 28.5293C163.419 28.8545 161.995 29.0215 160.343 29.0303C158.673 29.0215 157.236 28.8545 156.032 28.5293C154.837 28.2041 153.918 27.7295 153.277 27.1055C152.644 26.4814 152.327 25.7256 152.327 24.8379C152.327 23.9678 152.644 23.2251 153.277 22.6099C153.918 21.9858 154.841 21.5112 156.045 21.186C157.249 20.8608 158.682 20.6982 160.343 20.6982ZM160.343 22.0166C159.051 22.0254 157.926 22.144 156.968 22.3726C156.019 22.6011 155.289 22.9263 154.78 23.3481C154.27 23.77 154.015 24.2666 154.015 24.8379C154.015 25.418 154.27 25.9233 154.78 26.354C155.289 26.7759 156.019 27.0967 156.968 27.3164C157.926 27.5449 159.051 27.6592 160.343 27.6592C161.617 27.6592 162.729 27.5449 163.679 27.3164C164.628 27.0967 165.357 26.7759 165.867 26.354C166.386 25.9233 166.645 25.418 166.645 24.8379C166.645 24.2666 166.386 23.77 165.867 23.3481C165.357 22.9263 164.628 22.6011 163.679 22.3726C162.729 22.144 161.617 22.0254 160.343 22.0166ZM193.738 17.1914H183.955V19.749H190.943V24.7061H176.836V27.3955H191.681V28.7666H175.228V23.4404H189.334V21.0674H175.149V19.749H182.294V17.1914H172.538V15.8203H193.738V17.1914ZM190.969 13.6055H175.333V6.5918H190.969V13.6055ZM176.968 12.2344H189.308V7.96289H176.968V12.2344ZM208.953 10.2832C208.953 11.3115 209.203 12.2959 209.704 13.2363C210.214 14.168 210.908 14.9897 211.787 15.7017C212.666 16.4048 213.664 16.9453 214.78 17.3232L213.962 18.6152C212.626 18.1582 211.449 17.4727 210.429 16.5586C209.418 15.6357 208.667 14.5635 208.175 13.3418C207.691 14.7041 206.918 15.9038 205.854 16.9409C204.791 17.978 203.556 18.7559 202.15 19.2744L201.306 17.9297C202.44 17.543 203.459 16.9717 204.365 16.2158C205.279 15.4512 205.999 14.5591 206.527 13.5396C207.063 12.52 207.335 11.4434 207.344 10.3096V8.96484H201.86V7.56738H214.358V8.96484H208.953V10.2832ZM219.42 11.918H223.006V13.3154H219.42V19.9072H217.759V5.80078H219.42V11.918ZM212.011 20.5928C213.584 20.5928 214.938 20.7598 216.072 21.0938C217.214 21.4189 218.089 21.8936 218.695 22.5176C219.302 23.1416 219.605 23.8887 219.605 24.7588C219.605 25.6465 219.302 26.4067 218.695 27.0396C218.089 27.6724 217.219 28.1514 216.085 28.4766C214.951 28.8105 213.593 28.9775 212.011 28.9775C210.429 28.9775 209.067 28.8105 207.924 28.4766C206.782 28.1514 205.903 27.6724 205.288 27.0396C204.681 26.4067 204.382 25.6465 204.391 24.7588C204.382 23.8887 204.681 23.1416 205.288 22.5176C205.903 21.8936 206.782 21.4189 207.924 21.0938C209.076 20.7598 210.438 20.5928 212.011 20.5928ZM212.011 21.9639C210.798 21.9639 209.739 22.0781 208.834 22.3066C207.929 22.5352 207.23 22.8604 206.738 23.2822C206.254 23.7041 206.017 24.1963 206.026 24.7588C206.017 25.3477 206.254 25.8618 206.738 26.3013C207.23 26.7319 207.929 27.0615 208.834 27.29C209.739 27.5186 210.798 27.6328 212.011 27.6328C213.224 27.6328 214.279 27.5186 215.175 27.29C216.081 27.0615 216.775 26.7319 217.258 26.3013C217.75 25.8618 217.997 25.3477 217.997 24.7588C217.997 24.1963 217.75 23.7041 217.258 23.2822C216.775 22.8604 216.081 22.5352 215.175 22.3066C214.279 22.0781 213.224 21.9639 212.011 21.9639ZM233.013 16.2422H226.553V21.8584H227.239C228.575 21.8584 229.858 21.8145 231.088 21.7266C232.328 21.6299 233.628 21.4629 234.991 21.2256L235.123 22.623C233.576 22.8779 232.13 23.0537 230.785 23.1504C229.44 23.2383 227.977 23.2822 226.395 23.2822H224.918V14.8447H231.431V9.86133H224.866V8.46387H233.013V16.2422ZM243.903 29.0566H242.294V5.80078H243.903V29.0566ZM239.315 27.8174H237.707V19.1689H234.411V17.7715H237.707V13.3682H234.411V11.9971H237.707V6.27539H239.315V27.8174ZM248.373 32.2207H246.817L248.293 25.3916H250.297L248.373 32.2207ZM20.9355 57.9658H17.5869V49.3701H13.6582V46.6543H17.5869V40.458H20.9355V57.9658ZM21.5156 64.0039H5.00977V56.4365H8.38477V61.3145H21.5156V64.0039ZM9.78223 45.1514C9.78223 46.1094 9.97998 47.0454 10.3755 47.9595C10.7798 48.8735 11.395 49.6997 12.2212 50.438C13.0474 51.1763 14.0713 51.7432 15.293 52.1387L13.6318 54.8018C12.3398 54.3887 11.228 53.769 10.2964 52.9429C9.37354 52.1167 8.63965 51.1411 8.09473 50.0161C7.5498 51.2642 6.78955 52.3408 5.81396 53.2461C4.84717 54.1514 3.67383 54.8369 2.29395 55.3027L0.580078 52.5605C1.8457 52.165 2.90918 51.5806 3.77051 50.8071C4.64062 50.0337 5.28662 49.1592 5.7085 48.1836C6.13037 47.1992 6.3457 46.1797 6.35449 45.125V44.7559H1.5293V42.0664H14.5547V44.7559H9.78223V45.1514ZM45.4444 54.96H36.4004V59.0996H33.0782V54.96H23.4805V52.2969H45.4444V54.96ZM42.6231 50.3193H26.2227V41.4863H42.6231V50.3193ZM29.5186 47.709H39.3272V44.0967H29.5186V47.709ZM43.0186 64.0039H26.0645V57.0166H29.4131V61.3145H43.0186V64.0039ZM65.6163 44.7295H60.8439C60.8527 45.6963 61.0548 46.6147 61.4503 47.4849C61.8546 48.3462 62.4698 49.1152 63.296 49.792C64.1222 50.4688 65.1505 50.9873 66.381 51.3477L64.7726 53.9844C63.4806 53.5889 62.3688 53.0088 61.4371 52.2441C60.5055 51.4795 59.7672 50.5698 59.2223 49.5151C58.6774 50.7544 57.9083 51.8311 56.9152 52.7451C55.9308 53.6504 54.7355 54.3359 53.3292 54.8018L51.6154 52.1387C52.8898 51.7344 53.962 51.1499 54.8321 50.3853C55.7023 49.6206 56.3483 48.7505 56.7701 47.7749C57.2008 46.7993 57.4249 45.7842 57.4425 44.7295H52.5382V42.04H65.6163V44.7295ZM71.0216 45.9951H74.2648V48.7373H71.0216V54.6699H67.6466V40.4316H71.0216V45.9951ZM63.1642 55.1445C64.8165 55.1357 66.2491 55.3159 67.462 55.6851C68.6837 56.0454 69.6197 56.5728 70.2701 57.2671C70.9293 57.9614 71.2589 58.792 71.2589 59.7588C71.2589 60.7256 70.9293 61.5562 70.2701 62.2505C69.6197 62.9536 68.6837 63.4897 67.462 63.8589C66.2491 64.2368 64.8165 64.4258 63.1642 64.4258C61.4767 64.4258 60.0133 64.2368 58.774 63.8589C57.5436 63.4897 56.5944 62.9536 55.9264 62.2505C55.2672 61.5562 54.9376 60.7256 54.9376 59.7588C54.9376 58.792 55.2672 57.9614 55.9264 57.2671C56.5944 56.5728 57.5436 56.0454 58.774 55.6851C60.0133 55.3159 61.4767 55.1357 63.1642 55.1445ZM63.1642 57.7549C61.5646 57.7549 60.3517 57.9219 59.5255 58.2559C58.7081 58.5898 58.3038 59.0908 58.3126 59.7588C58.3038 60.4355 58.7125 60.9497 59.5387 61.3013C60.3649 61.644 61.5734 61.8154 63.1642 61.8154C64.7286 61.8154 65.9152 61.644 66.7238 61.3013C67.5323 60.9585 67.9366 60.4443 67.9366 59.7588C67.9366 59.0908 67.5323 58.5898 66.7238 58.2559C65.9152 57.9219 64.7286 57.7549 63.1642 57.7549ZM83.6388 51.9541H78.6818V56.2124C80.8439 56.1509 82.8566 55.9707 84.7199 55.6719L84.9836 58.3877C83.6388 58.625 82.3512 58.7876 81.1208 58.8755C79.8991 58.9546 78.5324 58.9941 77.0207 58.9941H75.465V49.3174H80.3693V45.4414H75.4386V42.7783H83.6388V51.9541ZM95.5304 64.4258H92.34V40.4316H95.5304V64.4258ZM90.547 63.2656H87.383V54.9863H84.7462V52.2969H87.383V49.0273H84.7462V46.3379H87.383V40.8271H90.547V63.2656ZM106.882 46.9707C106.882 48.2979 107.106 49.603 107.554 50.8862C108.011 52.1606 108.693 53.3076 109.598 54.3271C110.503 55.3467 111.602 56.1289 112.894 56.6738L111.074 59.3105C109.695 58.7305 108.512 57.8779 107.528 56.7529C106.544 55.6279 105.77 54.314 105.208 52.811C104.654 54.4458 103.876 55.8828 102.874 57.1221C101.872 58.3525 100.686 59.2842 99.3147 59.917L97.3898 57.2539C98.673 56.6826 99.7673 55.8521 100.673 54.7622C101.587 53.6724 102.272 52.4507 102.729 51.0972C103.195 49.7349 103.428 48.3594 103.428 46.9707V45.4941H98.3391V42.752H111.892V45.4941H106.882V46.9707ZM117.666 64.4258H114.265V40.4316H117.666V64.4258ZM139.934 53.8262H132.973V58.9414H142.333V61.6836H120.369V58.9414H129.624V53.8262H122.953V42.1191H139.749V44.8086H126.328V51.1631H139.934V53.8262ZM151.997 45.8633C151.989 47.3311 152.195 48.7549 152.617 50.1348C153.039 51.5059 153.676 52.7363 154.529 53.8262C155.381 54.916 156.427 55.7598 157.666 56.3574L155.636 59.0469C154.388 58.4316 153.32 57.5659 152.432 56.4497C151.553 55.3335 150.855 54.0239 150.336 52.521C149.8 54.1206 149.057 55.5225 148.108 56.7266C147.168 57.9219 146.038 58.8447 144.72 59.4951L142.637 56.7793C143.947 56.1816 145.05 55.3159 145.946 54.1821C146.843 53.0396 147.511 51.752 147.95 50.3193C148.398 48.8779 148.622 47.3926 148.622 45.8633V42.2773H151.997V45.8633ZM162.096 49.6865H165.629V52.5342H162.096V64.4258H158.721V40.4316H162.096V49.6865ZM184.891 49.6338H188.292V52.4023H184.891V64.373H181.516V40.4316H184.891V49.6338ZM178.484 42.8838C178.466 46.707 177.605 50.0864 175.9 53.022C174.203 55.9487 171.435 58.3525 167.594 60.2334L165.696 57.6494C168.552 56.2168 170.745 54.5205 172.274 52.5605C173.812 50.6006 174.74 48.2891 175.056 45.626H167.067V42.8838H178.484ZM213.474 46.3379H216.717V49.1592H213.474V54.9072H210.099V40.4316H213.474V46.3379ZM213.474 64.1621H197.786V55.9619H213.474V64.1621ZM201.108 61.4727H210.152V58.5986H201.108V61.4727ZM208.675 45.2568H194.437V42.5938H199.895V40.2998H203.244V42.5938H208.675V45.2568ZM201.556 45.9951C202.699 45.9951 203.718 46.1797 204.615 46.5488C205.511 46.9092 206.21 47.4146 206.711 48.0649C207.212 48.7153 207.462 49.458 207.462 50.293C207.462 51.1543 207.212 51.9146 206.711 52.5737C206.21 53.2329 205.511 53.7427 204.615 54.103C203.727 54.4634 202.707 54.6436 201.556 54.6436C200.387 54.6436 199.35 54.4634 198.445 54.103C197.548 53.7427 196.85 53.2329 196.349 52.5737C195.848 51.9146 195.597 51.1543 195.597 50.293C195.597 49.458 195.848 48.7153 196.349 48.0649C196.85 47.4146 197.553 46.9092 198.458 46.5488C199.363 46.1797 200.396 45.9951 201.556 45.9951ZM201.556 48.5264C200.739 48.5264 200.088 48.6846 199.605 49.001C199.121 49.3086 198.884 49.7393 198.893 50.293C198.884 50.8906 199.117 51.3521 199.592 51.6772C200.075 52.0024 200.73 52.165 201.556 52.165C202.382 52.165 203.041 52.0024 203.534 51.6772C204.026 51.3521 204.272 50.8906 204.272 50.293C204.272 49.7393 204.021 49.3086 203.52 49.001C203.028 48.6846 202.373 48.5264 201.556 48.5264ZM223.138 43.1738C223.129 45.3975 223.024 47.4102 222.822 49.2119C222.628 51.0137 222.264 52.7671 221.727 54.4722C221.2 56.1685 220.449 57.7725 219.473 59.2842L216.863 57.9131C217.663 56.7002 218.3 55.4741 218.774 54.2349C219.249 52.9868 219.596 51.6948 219.816 50.3589C220.036 49.0229 220.172 47.5332 220.225 45.8896H217.654V43.1738H223.138ZM228.517 43.1738C228.508 44.4219 228.486 45.5425 228.451 46.5356C228.416 47.5288 228.354 48.4912 228.267 49.4229H230.336V40.959H233.5V63.3711H230.336V52.1387H227.924C227.66 53.6943 227.278 55.1665 226.777 56.5552C226.285 57.9438 225.643 59.2578 224.852 60.4971L222.294 59.0732C223.147 57.7725 223.81 56.4277 224.285 55.0391C224.76 53.6416 225.094 52.2222 225.287 50.7808C225.48 49.3306 225.599 47.7002 225.643 45.8896H223.824V43.1738H228.517ZM238.22 64.4258H235.003V40.4316H238.22V64.4258ZM264.747 46.2061H267.99V49.001H264.747V54.4854H261.372V40.4316H264.747V46.2061ZM252.38 57.2275H261.372V55.4082H264.747V64.1621H249.032V55.4082H252.38V57.2275ZM261.372 61.5254V59.8115H252.38V61.5254H261.372ZM259.948 45.1777H245.709V42.541H251.167V40.2734H254.516V42.541H259.948V45.1777ZM252.829 45.8633C253.98 45.8633 255.004 46.0391 255.9 46.3906C256.797 46.7422 257.491 47.2388 257.983 47.8804C258.484 48.522 258.735 49.2646 258.735 50.1084C258.735 50.9521 258.484 51.6948 257.983 52.3364C257.491 52.978 256.797 53.4746 255.9 53.8262C255.004 54.1777 253.98 54.3535 252.829 54.3535C251.66 54.3535 250.623 54.1777 249.717 53.8262C248.821 53.4746 248.122 52.978 247.621 52.3364C247.12 51.6948 246.87 50.9521 246.87 50.1084C246.87 49.2646 247.12 48.522 247.621 47.8804C248.122 47.2388 248.821 46.7422 249.717 46.3906C250.623 46.0391 251.66 45.8633 252.829 45.8633ZM252.829 48.3418C252.011 48.3242 251.361 48.4736 250.877 48.79C250.394 49.1064 250.157 49.5459 250.166 50.1084C250.157 50.6797 250.394 51.1235 250.877 51.4399C251.361 51.7476 252.011 51.9014 252.829 51.9014C253.655 51.9014 254.314 51.7476 254.806 51.4399C255.298 51.1235 255.544 50.6797 255.544 50.1084C255.544 49.5459 255.294 49.1064 254.793 48.79C254.301 48.4736 253.646 48.3242 252.829 48.3418ZM288.675 64.4258H285.327V40.4316H288.675V64.4258ZM273.119 55.6323C276.678 55.5708 280.097 55.2236 283.376 54.5908L283.797 57.3594C280.185 58.1152 276.371 58.4932 272.354 58.4932H271.906H269.796V42.7256H273.119V55.6323ZM310.231 49.3438H313.764V52.0859H310.231V64.4785H306.856V40.4316H310.231V49.3438ZM303.507 45.3623H295.597V55.8828C297.487 55.8652 299.174 55.7993 300.66 55.6851C302.145 55.5708 303.639 55.3818 305.142 55.1182L305.511 57.9395C303.903 58.2119 302.316 58.4009 300.752 58.5063C299.196 58.603 297.408 58.6514 295.386 58.6514H294.279H292.249V42.6465H303.507V45.3623ZM317.206 62.2373C316.801 62.2373 316.428 62.1362 316.085 61.9341C315.742 61.7319 315.47 61.4639 315.268 61.1299C315.074 60.7871 314.982 60.418 314.991 60.0225C314.982 59.627 315.074 59.2622 315.268 58.9282C315.47 58.5942 315.742 58.3306 316.085 58.1372C316.428 57.9351 316.801 57.834 317.206 57.834C317.584 57.834 317.94 57.9351 318.274 58.1372C318.616 58.3306 318.889 58.5942 319.091 58.9282C319.293 59.2622 319.394 59.627 319.394 60.0225C319.394 60.418 319.293 60.7871 319.091 61.1299C318.889 61.4639 318.616 61.7319 318.274 61.9341C317.94 62.1362 317.584 62.2373 317.206 62.2373Z" fill="#333333"/>
<path d="M11.3438 91.0938H13.4688V91.9375H11.3438V96.7812H10.3594V86.4375H11.3438V91.0938ZM8.875 89.0312H0.65625V88.2031H4.28125V86.4531H5.25V88.2031H8.875V89.0312ZM4.76562 89.875C5.41146 89.875 5.98177 89.9818 6.47656 90.1953C6.97656 90.4036 7.36198 90.7005 7.63281 91.0859C7.90885 91.4661 8.04688 91.9115 8.04688 92.4219C8.04688 92.9323 7.90885 93.3776 7.63281 93.7578C7.36198 94.138 6.97656 94.4323 6.47656 94.6406C5.98177 94.849 5.41146 94.9531 4.76562 94.9531C4.10938 94.9531 3.53125 94.8516 3.03125 94.6484C2.53646 94.4401 2.15104 94.1458 1.875 93.7656C1.60417 93.3802 1.46875 92.9323 1.46875 92.4219C1.46875 91.9115 1.60417 91.4635 1.875 91.0781C2.15104 90.6927 2.53646 90.3958 3.03125 90.1875C3.53125 89.9792 4.10938 89.875 4.76562 89.875ZM4.76562 90.6719C4.29688 90.6719 3.88281 90.7448 3.52344 90.8906C3.16406 91.0365 2.88542 91.2422 2.6875 91.5078C2.49479 91.7734 2.40104 92.0781 2.40625 92.4219C2.40104 92.7604 2.49479 93.0625 2.6875 93.3281C2.88542 93.5885 3.16406 93.7917 3.52344 93.9375C3.88281 94.0781 4.29688 94.1458 4.76562 94.1406C5.22917 94.1458 5.63802 94.0781 5.99219 93.9375C6.34635 93.7917 6.6224 93.5885 6.82031 93.3281C7.01823 93.0625 7.11979 92.7604 7.125 92.4219C7.11979 92.0781 7.01823 91.7734 6.82031 91.5078C6.6224 91.2422 6.34635 91.0365 5.99219 90.8906C5.63802 90.7448 5.22917 90.6719 4.76562 90.6719ZM12.0156 99.8906H2.8125V95.9375H3.78125V99.0625H12.0156V99.8906ZM29.0163 94.625H28.0319V92.3125H24.5788V93.5469H18.3288V87.5H24.5788V88.75H28.0319V86.4375H29.0163V94.625ZM19.2975 92.7344H23.61V88.3125H19.2975V92.7344ZM24.485 95.0312C25.4329 95.0365 26.248 95.1406 26.9303 95.3438C27.6178 95.5469 28.1439 95.8438 28.5084 96.2344C28.8782 96.6198 29.0631 97.0833 29.0631 97.625C29.0631 98.1615 28.8782 98.6198 28.5084 99C28.1439 99.3854 27.6178 99.6771 26.9303 99.875C26.248 100.073 25.4329 100.172 24.485 100.172C23.5371 100.172 22.7194 100.073 22.0319 99.875C21.3496 99.6771 20.8261 99.3854 20.4616 99C20.097 98.6198 19.9173 98.1615 19.9225 97.625C19.9173 97.0833 20.097 96.6198 20.4616 96.2344C20.8261 95.849 21.3496 95.5547 22.0319 95.3516C22.7194 95.1432 23.5371 95.0365 24.485 95.0312ZM24.485 95.8281C23.7506 95.8333 23.1126 95.9089 22.5709 96.0547C22.0293 96.2005 21.6126 96.4089 21.3209 96.6797C21.0293 96.9453 20.886 97.2604 20.8913 97.625C20.886 97.9792 21.0293 98.2891 21.3209 98.5547C21.6126 98.8203 22.0293 99.0234 22.5709 99.1641C23.1178 99.3047 23.7558 99.375 24.485 99.375C25.2142 99.375 25.8496 99.3047 26.3913 99.1641C26.9381 99.0234 27.3574 98.8203 27.6491 98.5547C27.9459 98.2891 28.0944 97.9792 28.0944 97.625C28.0944 97.2604 27.9459 96.9453 27.6491 96.6797C27.3574 96.4089 26.9381 96.2005 26.3913 96.0547C25.8496 95.9089 25.2142 95.8333 24.485 95.8281ZM28.0319 91.4844V89.5781H24.5788V91.4844H28.0319ZM35.6806 87.4688C36.3942 87.4688 37.0296 87.6042 37.5869 87.875C38.1442 88.1406 38.5791 88.5156 38.8916 89C39.2041 89.4792 39.3629 90.0312 39.3681 90.6562C39.3629 91.2865 39.2041 91.8438 38.8916 92.3281C38.5791 92.8073 38.1442 93.1797 37.5869 93.4453C37.0348 93.7109 36.3994 93.8438 35.6806 93.8438C34.9671 93.8438 34.3291 93.7109 33.7666 93.4453C33.2093 93.1797 32.7744 92.8047 32.4619 92.3203C32.1494 91.8359 31.9931 91.2812 31.9931 90.6562C31.9931 90.0365 32.1494 89.4844 32.4619 89C32.7796 88.5156 33.2171 88.1406 33.7744 87.875C34.3317 87.6042 34.9671 87.4688 35.6806 87.4688ZM35.6806 88.3438C35.1598 88.3438 34.691 88.4427 34.2744 88.6406C33.8629 88.8385 33.54 89.1146 33.3056 89.4688C33.0713 89.8177 32.9567 90.2135 32.9619 90.6562C32.9567 91.099 33.0713 91.4974 33.3056 91.8516C33.54 92.2057 33.8629 92.4818 34.2744 92.6797C34.691 92.8776 35.1598 92.974 35.6806 92.9688C36.2015 92.974 36.6676 92.8776 37.0791 92.6797C37.4905 92.4818 37.8134 92.2057 38.0478 91.8516C38.2822 91.4974 38.3994 91.099 38.3994 90.6562C38.3994 90.2135 38.2822 89.8177 38.0478 89.4688C37.8134 89.1146 37.4905 88.8385 37.0791 88.6406C36.6676 88.4427 36.2015 88.3438 35.6806 88.3438ZM42.3838 100.234H41.3994V86.4375H42.3838V100.234ZM32.3056 96.25C33.8108 96.25 35.2405 96.2188 36.5947 96.1562C37.9489 96.0885 39.2327 95.9635 40.4463 95.7812L40.5244 96.5312C39.5452 96.7135 38.5244 96.849 37.4619 96.9375C36.4046 97.0208 35.4254 97.0729 34.5244 97.0938C33.6233 97.1146 32.5817 97.125 31.3994 97.125L31.2431 96.25H32.3056ZM52.7438 89.0938C52.7438 89.7031 52.8922 90.2865 53.1891 90.8438C53.4911 91.3958 53.9026 91.8828 54.4234 92.3047C54.9443 92.7214 55.5354 93.0417 56.1969 93.2656L55.7125 94.0312C54.9208 93.7604 54.2229 93.3542 53.6188 92.8125C53.0198 92.2656 52.5745 91.6302 52.2828 90.9062C51.9964 91.7135 51.538 92.4245 50.9078 93.0391C50.2776 93.6536 49.5458 94.1146 48.7125 94.4219L48.2125 93.625C48.8844 93.3958 49.4885 93.0573 50.025 92.6094C50.5667 92.1562 50.9938 91.6276 51.3063 91.0234C51.624 90.4193 51.7854 89.7812 51.7906 89.1094V88.3125H48.5406V87.4844H55.9469V88.3125H52.7438V89.0938ZM58.9469 90.0625H61.0719V90.8906H58.9469V94.7969H57.9625V86.4375H58.9469V90.0625ZM54.5563 95.2031C55.4885 95.2031 56.2906 95.3021 56.9625 95.5C57.6396 95.6927 58.1578 95.974 58.5172 96.3438C58.8766 96.7135 59.0563 97.1562 59.0563 97.6719C59.0563 98.1979 58.8766 98.6484 58.5172 99.0234C58.1578 99.3984 57.6422 99.6823 56.9703 99.875C56.2984 100.073 55.4938 100.172 54.5563 100.172C53.6188 100.172 52.8115 100.073 52.1344 99.875C51.4573 99.6823 50.9365 99.3984 50.5719 99.0234C50.2125 98.6484 50.0354 98.1979 50.0406 97.6719C50.0354 97.1562 50.2125 96.7135 50.5719 96.3438C50.9365 95.974 51.4573 95.6927 52.1344 95.5C52.8167 95.3021 53.624 95.2031 54.5563 95.2031ZM54.5563 96.0156C53.8375 96.0156 53.2099 96.0833 52.6734 96.2188C52.137 96.3542 51.7229 96.5469 51.4313 96.7969C51.1448 97.0469 51.0042 97.3385 51.0094 97.6719C51.0042 98.0208 51.1448 98.3255 51.4313 98.5859C51.7229 98.8411 52.137 99.0365 52.6734 99.1719C53.2099 99.3073 53.8375 99.375 54.5563 99.375C55.275 99.375 55.9 99.3073 56.4313 99.1719C56.9677 99.0365 57.3792 98.8411 57.6656 98.5859C57.9573 98.3255 58.1031 98.0208 58.1031 97.6719C58.1031 97.3385 57.9573 97.0469 57.6656 96.7969C57.3792 96.5469 56.9677 96.3542 56.4313 96.2188C55.9 96.0833 55.275 96.0156 54.5563 96.0156ZM67.0019 92.625H63.1738V95.9531H63.58C64.3717 95.9531 65.1321 95.9271 65.8613 95.875C66.5956 95.8177 67.3665 95.7188 68.1738 95.5781L68.2519 96.4062C67.3352 96.5573 66.4784 96.6615 65.6816 96.7188C64.8847 96.7708 64.0175 96.7969 63.08 96.7969H62.205V91.7969H66.0644V88.8438H62.1738V88.0156H67.0019V92.625ZM73.455 100.219H72.5019V86.4375H73.455V100.219ZM70.7363 99.4844H69.7831V94.3594H67.83V93.5312H69.7831V90.9219H67.83V90.1094H69.7831V86.7188H70.7363V99.4844ZM80.0256 90.8281C80.0256 91.5885 80.2053 92.3464 80.5647 93.1016C80.9293 93.8568 81.4058 94.5286 81.9944 95.1172C82.5829 95.7057 83.2027 96.1406 83.8538 96.4219L83.2913 97.2031C82.76 96.9531 82.247 96.612 81.7522 96.1797C81.2626 95.7422 80.8251 95.237 80.4397 94.6641C80.0543 94.0911 79.7548 93.4844 79.5413 92.8438C79.3329 93.5208 79.036 94.1693 78.6506 94.7891C78.2704 95.4036 77.8381 95.9505 77.3538 96.4297C76.8694 96.9036 76.3694 97.276 75.8538 97.5469L75.26 96.7656C75.8902 96.4583 76.4944 95.9844 77.0725 95.3438C77.6558 94.7031 78.1272 93.9844 78.4866 93.1875C78.8511 92.3854 79.036 91.599 79.0413 90.8281V88.7188H75.6819V87.875H83.4319V88.7188H80.0256V90.8281ZM86.5413 100.219H85.5569V86.4375H86.5413V100.219ZM99.8306 93.7969H95.5025V97.5781H101.362V98.4219H88.7369V97.5781H94.5181V93.7969H90.3931V87.5938H99.69V88.4219H91.3775V92.9844H99.8306V93.7969ZM106.729 90.3281C106.724 91.1042 106.893 91.8828 107.237 92.6641C107.581 93.4453 108.034 94.1484 108.597 94.7734C109.159 95.3932 109.755 95.8594 110.386 96.1719L109.776 96.9688C109.011 96.5573 108.308 95.9505 107.667 95.1484C107.031 94.3411 106.56 93.4505 106.253 92.4766C106.055 93.1641 105.776 93.8177 105.417 94.4375C105.058 95.0573 104.643 95.6094 104.175 96.0938C103.711 96.5729 103.224 96.9531 102.714 97.2344L102.073 96.4531C102.709 96.125 103.308 95.6354 103.87 94.9844C104.438 94.3281 104.893 93.5911 105.237 92.7734C105.581 91.9505 105.755 91.1354 105.761 90.3281V87.6719H106.729V90.3281ZM112.854 92.1094H115.229V92.9844H112.854V100.219H111.87V86.4375H112.854V92.1094ZM128.378 98.4531H115.753V97.6094H121.534V94.8281H117.378V90.7031H125.769V88.3281H117.331V87.5H126.738V91.5312H118.347V94H127.066V94.8281H122.519V97.6094H128.378V98.4531ZM133.98 90.3281C133.98 91.1198 134.152 91.9115 134.496 92.7031C134.845 93.4948 135.303 94.2005 135.871 94.8203C136.438 95.4349 137.042 95.8906 137.683 96.1875L137.089 97C136.569 96.724 136.071 96.3568 135.597 95.8984C135.128 95.4349 134.712 94.9062 134.347 94.3125C133.983 93.7135 133.701 93.0833 133.503 92.4219C133.306 93.1198 133.027 93.7839 132.667 94.4141C132.308 95.0443 131.894 95.6042 131.425 96.0938C130.957 96.5833 130.464 96.9688 129.949 97.25L129.308 96.4688C129.944 96.1458 130.542 95.6589 131.105 95.0078C131.673 94.3516 132.128 93.612 132.472 92.7891C132.816 91.9609 132.99 91.1406 132.996 90.3281V87.6719H133.98V90.3281ZM140.621 100.234H139.652V92.0781H136.183V91.25H139.652V86.4375H140.621V100.234ZM143.644 102.094H142.723L143.598 98.0469H144.785L143.644 102.094ZM162.598 98.4062H149.973V97.5625H155.754V94.4531H151.504V87.4375H152.504V90.0312H160.036V87.4375H161.004V94.4531H156.739V97.5625H162.598V98.4062ZM160.036 93.625V90.8594H152.504V93.625H160.036ZM175.356 89.4062H164.137V88.5625H169.278V86.6875H170.247V88.5625H175.356V89.4062ZM176.106 98.5156H163.481V97.6875H169.278V95.6328C168.45 95.6016 167.736 95.4792 167.137 95.2656C166.539 95.0469 166.078 94.75 165.755 94.375C165.437 93.9948 165.278 93.5469 165.278 93.0312C165.278 92.4948 165.458 92.0312 165.817 91.6406C166.177 91.25 166.692 90.9531 167.364 90.75C168.041 90.5469 168.841 90.4479 169.762 90.4531C170.674 90.4479 171.466 90.5495 172.137 90.7578C172.815 90.9609 173.335 91.2578 173.7 91.6484C174.065 92.0339 174.247 92.4948 174.247 93.0312C174.247 93.5417 174.085 93.987 173.762 94.3672C173.44 94.7474 172.979 95.0469 172.38 95.2656C171.781 95.4792 171.07 95.6016 170.247 95.6328V97.6875H176.106V98.5156ZM169.762 91.25C169.054 91.25 168.434 91.3229 167.903 91.4688C167.377 91.6094 166.971 91.8151 166.684 92.0859C166.403 92.3516 166.262 92.6667 166.262 93.0312C166.262 93.3958 166.406 93.7135 166.692 93.9844C166.979 94.2552 167.385 94.4635 167.911 94.6094C168.437 94.7552 169.054 94.8281 169.762 94.8281C170.466 94.8281 171.08 94.7552 171.606 94.6094C172.132 94.4635 172.536 94.2552 172.817 93.9844C173.104 93.7135 173.247 93.3958 173.247 93.0312C173.247 92.6667 173.104 92.3516 172.817 92.0859C172.536 91.8151 172.132 91.6094 171.606 91.4688C171.08 91.3229 170.466 91.25 169.762 91.25ZM181.505 90.8281C181.505 91.5521 181.674 92.2891 182.013 93.0391C182.351 93.7839 182.802 94.4583 183.364 95.0625C183.927 95.6615 184.526 96.1146 185.161 96.4219L184.583 97.2031C184.073 96.9479 183.586 96.599 183.122 96.1562C182.659 95.7083 182.245 95.2005 181.88 94.6328C181.521 94.0599 181.239 93.4583 181.036 92.8281C180.828 93.5052 180.534 94.1536 180.153 94.7734C179.778 95.3932 179.351 95.9427 178.872 96.4219C178.393 96.901 177.901 97.276 177.396 97.5469L176.786 96.7656C177.411 96.4531 178.013 95.9766 178.591 95.3359C179.174 94.6953 179.646 93.9766 180.005 93.1797C180.364 92.3776 180.547 91.5938 180.552 90.8281V88.7188H177.271V87.875H184.724V88.7188H181.505V90.8281ZM187.599 92.1094H189.974V92.9531H187.599V100.219H186.614V86.4375H187.599V92.1094ZM201.81 94.2812H200.841V86.4375H201.81V94.2812ZM192.388 92.25H192.482C193.695 92.25 194.839 92.2031 195.912 92.1094C196.99 92.0104 198.076 91.8438 199.169 91.6094L199.326 92.4375C198.164 92.6719 197.037 92.8411 195.943 92.9453C194.849 93.0443 193.695 93.0938 192.482 93.0938H191.388V87.25H192.388V92.25ZM201.81 100.016H192.935V94.9531H201.81V100.016ZM193.919 99.1875H200.857V95.75H193.919V99.1875ZM208.521 87.4688C209.235 87.4688 209.87 87.6042 210.428 87.875C210.985 88.1406 211.42 88.5156 211.732 89C212.045 89.4792 212.204 90.0312 212.209 90.6562C212.204 91.2865 212.045 91.8438 211.732 92.3281C211.42 92.8073 210.985 93.1797 210.428 93.4453C209.875 93.7109 209.24 93.8438 208.521 93.8438C207.808 93.8438 207.17 93.7109 206.607 93.4453C206.05 93.1797 205.615 92.8047 205.303 92.3203C204.99 91.8359 204.834 91.2812 204.834 90.6562C204.834 90.0365 204.99 89.4844 205.303 89C205.62 88.5156 206.058 88.1406 206.615 87.875C207.172 87.6042 207.808 87.4688 208.521 87.4688ZM208.521 88.3438C208 88.3438 207.532 88.4427 207.115 88.6406C206.704 88.8385 206.381 89.1146 206.146 89.4688C205.912 89.8177 205.797 90.2135 205.803 90.6562C205.797 91.099 205.912 91.4974 206.146 91.8516C206.381 92.2057 206.704 92.4818 207.115 92.6797C207.532 92.8776 208 92.974 208.521 92.9688C209.042 92.974 209.508 92.8776 209.92 92.6797C210.331 92.4818 210.654 92.2057 210.888 91.8516C211.123 91.4974 211.24 91.099 211.24 90.6562C211.24 90.2135 211.123 89.8177 210.888 89.4688C210.654 89.1146 210.331 88.8385 209.92 88.6406C209.508 88.4427 209.042 88.3438 208.521 88.3438ZM215.224 100.234H214.24V86.4375H215.224V100.234ZM205.146 96.25C206.651 96.25 208.081 96.2188 209.435 96.1562C210.789 96.0885 212.073 95.9635 213.287 95.7812L213.365 96.5312C212.386 96.7135 211.365 96.849 210.303 96.9375C209.245 97.0208 208.266 97.0729 207.365 97.0938C206.464 97.1146 205.422 97.125 204.24 97.125L204.084 96.25H205.146ZM231.788 89.9219H233.913V90.75H231.788V94.2969H230.803V86.4375H231.788V89.9219ZM232.178 95.9062H230.163V99.1719H232.35V100H222.897V99.1719H225.053V95.9062H223.006V95.0781H232.178V95.9062ZM224.944 87.2656C225.631 87.2656 226.243 87.401 226.78 87.6719C227.316 87.9375 227.735 88.3151 228.038 88.8047C228.345 89.2891 228.501 89.8438 228.506 90.4688C228.501 91.0938 228.345 91.6484 228.038 92.1328C227.735 92.6172 227.316 92.9922 226.78 93.2578C226.243 93.5234 225.631 93.6562 224.944 93.6562C224.256 93.6562 223.642 93.5234 223.1 93.2578C222.558 92.9922 222.134 92.6172 221.827 92.1328C221.519 91.6484 221.366 91.0938 221.366 90.4688C221.366 89.8438 221.519 89.2891 221.827 88.8047C222.134 88.3151 222.558 87.9375 223.1 87.6719C223.642 87.401 224.256 87.2656 224.944 87.2656ZM224.944 88.1094C224.444 88.1042 223.993 88.2031 223.592 88.4062C223.196 88.6094 222.886 88.8906 222.663 89.25C222.439 89.6094 222.329 90.0156 222.334 90.4688C222.329 90.9219 222.439 91.3281 222.663 91.6875C222.886 92.0469 223.196 92.3281 223.592 92.5312C223.993 92.7344 224.444 92.8385 224.944 92.8438C225.439 92.8385 225.881 92.7344 226.272 92.5312C226.668 92.3281 226.978 92.0469 227.202 91.6875C227.431 91.3281 227.548 90.9219 227.553 90.4688C227.548 90.0156 227.431 89.6094 227.202 89.25C226.978 88.8906 226.668 88.6094 226.272 88.4062C225.881 88.2031 225.439 88.1042 224.944 88.1094ZM229.209 99.1719V95.9062H226.006V99.1719H229.209ZM246.327 100.219H245.374V86.4375H246.327V100.219ZM243.592 99.5H242.639V92.7344H240.647C240.611 93.6198 240.465 94.3906 240.21 95.0469C239.96 95.7031 239.616 96.2083 239.178 96.5625C238.746 96.9167 238.249 97.0938 237.686 97.0938C237.098 97.0938 236.582 96.901 236.139 96.5156C235.697 96.1302 235.353 95.5807 235.108 94.8672C234.869 94.1536 234.749 93.3229 234.749 92.375C234.749 91.4219 234.869 90.5911 235.108 89.8828C235.353 89.1693 235.697 88.6198 236.139 88.2344C236.582 87.849 237.098 87.6562 237.686 87.6562C238.244 87.6562 238.736 87.8281 239.163 88.1719C239.595 88.5156 239.939 89.0052 240.194 89.6406C240.449 90.276 240.598 91.026 240.639 91.8906H242.639V86.75H243.592V99.5ZM237.686 88.5781C237.285 88.5781 236.931 88.737 236.624 89.0547C236.322 89.3672 236.087 89.8099 235.921 90.3828C235.759 90.9557 235.681 91.6198 235.686 92.375C235.681 93.125 235.759 93.7865 235.921 94.3594C236.087 94.9323 236.322 95.3776 236.624 95.6953C236.931 96.013 237.285 96.1719 237.686 96.1719C238.092 96.1719 238.449 96.013 238.757 95.6953C239.064 95.3776 239.301 94.9323 239.467 94.3594C239.634 93.7865 239.717 93.125 239.717 92.375C239.717 91.6198 239.634 90.9557 239.467 90.3828C239.301 89.8099 239.064 89.3672 238.757 89.0547C238.449 88.737 238.092 88.5781 237.686 88.5781ZM256.327 90.3281C256.327 91.1198 256.499 91.9115 256.843 92.7031C257.192 93.4948 257.65 94.2005 258.218 94.8203C258.786 95.4349 259.39 95.8906 260.031 96.1875L259.437 97C258.916 96.724 258.419 96.3568 257.945 95.8984C257.476 95.4349 257.059 94.9062 256.695 94.3125C256.33 93.7135 256.049 93.0833 255.851 92.4219C255.653 93.1198 255.374 93.7839 255.015 94.4141C254.656 95.0443 254.242 95.6042 253.773 96.0938C253.304 96.5833 252.812 96.9688 252.296 97.25L251.656 96.4688C252.291 96.1458 252.89 95.6589 253.452 95.0078C254.02 94.3516 254.476 93.612 254.82 92.7891C255.163 91.9609 255.338 91.1406 255.343 90.3281V87.6719H256.327V90.3281ZM262.968 100.234H261.999V92.0781H258.531V91.25H261.999V86.4375H262.968V100.234ZM276.445 100.219H275.476V86.4375H276.445V100.219ZM272.383 87.9531C272.372 89.9792 271.833 91.8203 270.765 93.4766C269.698 95.1328 268.07 96.4896 265.883 97.5469L265.336 96.7344C267.205 95.849 268.651 94.7266 269.672 93.3672C270.692 92.0026 271.265 90.4688 271.39 88.7656H265.945V87.9531H272.383ZM289.484 92.2188H291.672V93.0469H289.484V100.219H288.516V86.4375H289.484V92.2188ZM282.828 87.9531C282.818 89.6615 282.547 91.2943 282.016 92.8516C281.49 94.4036 280.635 95.7969 279.453 97.0312L278.641 96.4688C279.672 95.4375 280.453 94.263 280.984 92.9453C281.516 91.6276 281.82 90.2448 281.898 88.7969H279.031V87.9531H282.828ZM286.609 87.9531C286.589 92.224 285.536 95.5573 283.453 97.9531L282.625 97.4062C283.667 96.2604 284.422 94.9427 284.891 93.4531C285.359 91.9583 285.62 90.4062 285.672 88.7969H283.25V87.9531H286.609ZM296.93 90.8281C296.93 91.5885 297.11 92.3464 297.469 93.1016C297.834 93.8568 298.31 94.5286 298.899 95.1172C299.487 95.7057 300.107 96.1406 300.758 96.4219L300.196 97.2031C299.664 96.9531 299.151 96.612 298.657 96.1797C298.167 95.7422 297.729 95.237 297.344 94.6641C296.959 94.0911 296.659 93.4844 296.446 92.8438C296.237 93.5208 295.94 94.1693 295.555 94.7891C295.175 95.4036 294.742 95.9505 294.258 96.4297C293.774 96.9036 293.274 97.276 292.758 97.5469L292.164 96.7656C292.795 96.4583 293.399 95.9844 293.977 95.3438C294.56 94.7031 295.032 93.9844 295.391 93.1875C295.756 92.3854 295.94 91.599 295.946 90.8281V88.7188H292.586V87.875H300.336V88.7188H296.93V90.8281ZM303.446 100.219H302.461V86.4375H303.446V100.219ZM6.03125 118.117C7.38542 118.039 8.59375 117.922 9.65625 117.766L9.79688 119.047C8.39583 119.302 6.96354 119.469 5.5 119.547C4.04167 119.62 2.45833 119.656 0.75 119.656L0.53125 118.25C2.17188 118.24 3.42708 118.221 4.29688 118.195V115.828H6.03125V118.117ZM9.07812 111.406H6.05469C6.08594 111.917 6.23698 112.398 6.50781 112.852C6.77865 113.299 7.16667 113.695 7.67188 114.039C8.17708 114.378 8.77604 114.635 9.46875 114.812L8.67188 116.172C7.84896 115.948 7.14062 115.604 6.54688 115.141C5.95312 114.677 5.49219 114.125 5.16406 113.484C4.85156 114.161 4.39844 114.742 3.80469 115.227C3.21615 115.706 2.51042 116.057 1.6875 116.281L0.859375 114.969C1.55729 114.776 2.15365 114.503 2.64844 114.148C3.14844 113.794 3.53385 113.383 3.80469 112.914C4.07552 112.445 4.22656 111.943 4.25781 111.406H1.28125V110H4.29688V108.391H6.03125V110H9.07812V111.406ZM12.2344 122.406H10.5V108.266H12.2344V122.406ZM26.8831 120.641H13.9769V119.234H19.5081V115.969H21.2269V119.234H26.8831V120.641ZM21.2738 110.156C21.2738 110.865 21.4925 111.552 21.93 112.219C22.3727 112.885 22.9821 113.458 23.7581 113.938C24.5394 114.411 25.4144 114.724 26.3831 114.875L25.6331 116.312C24.4404 116.089 23.3779 115.654 22.4456 115.008C21.5185 114.357 20.8206 113.57 20.3519 112.648C20.0394 113.258 19.6227 113.815 19.1019 114.32C18.581 114.82 17.9795 115.242 17.2972 115.586C16.6149 115.924 15.8831 116.167 15.1019 116.312L14.3519 114.875C15.3102 114.724 16.1748 114.411 16.9456 113.938C17.7217 113.458 18.3284 112.885 18.7659 112.219C19.2034 111.547 19.4248 110.859 19.43 110.156V109.125H21.2738V110.156ZM36.0244 121H33.9775V111.672H33.915L31.2744 113.359V111.5L34.0713 109.688H36.0244V121ZM49.8138 118.688H48.0794V113.984H44.3919V112.609H48.0794V111.328H44.3919V109.953H48.0794V108.281H49.8138V118.688ZM50.1731 122.109H40.5325V117.766H42.2825V120.703H50.1731V122.109ZM40.5169 115.328C41.4856 115.318 42.3997 115.279 43.2591 115.211C44.1236 115.138 45.0065 115.021 45.9075 114.859L46.0794 116.266C45.0794 116.453 44.1002 116.581 43.1419 116.648C42.1835 116.716 41.1054 116.755 39.9075 116.766H38.7981V109.219H40.5169V115.328ZM56.0719 109.25C56.8063 109.245 57.4677 109.388 58.0563 109.68C58.65 109.966 59.1135 110.37 59.4469 110.891C59.7854 111.411 59.9573 112 59.9625 112.656C59.9573 113.318 59.7854 113.909 59.4469 114.43C59.1135 114.951 58.6526 115.357 58.0641 115.648C57.4755 115.935 56.8115 116.078 56.0719 116.078C55.3375 116.078 54.676 115.932 54.0875 115.641C53.499 115.349 53.0354 114.945 52.6969 114.43C52.3635 113.909 52.1969 113.318 52.1969 112.656C52.1969 112 52.3635 111.411 52.6969 110.891C53.0354 110.37 53.499 109.966 54.0875 109.68C54.6813 109.388 55.3427 109.245 56.0719 109.25ZM56.0719 110.75C55.6604 110.75 55.2906 110.828 54.9625 110.984C54.6344 111.141 54.3766 111.365 54.1891 111.656C54.0068 111.943 53.9156 112.276 53.9156 112.656C53.9156 113.042 54.0068 113.38 54.1891 113.672C54.3766 113.958 54.6344 114.18 54.9625 114.336C55.2906 114.487 55.6604 114.562 56.0719 114.562C56.4885 114.562 56.8609 114.487 57.1891 114.336C57.5224 114.18 57.7828 113.958 57.9703 113.672C58.163 113.38 58.2594 113.042 58.2594 112.656C58.2594 112.276 58.163 111.943 57.9703 111.656C57.7828 111.365 57.5224 111.141 57.1891 110.984C56.8609 110.828 56.4885 110.75 56.0719 110.75ZM63.2594 122.406H61.525V108.266H63.2594V122.406ZM51.5563 118.031C53.2854 118.031 54.9 118.003 56.4 117.945C57.9052 117.883 59.3323 117.755 60.6813 117.562L60.8219 118.828C59.426 119.099 58.0068 119.271 56.5641 119.344C55.1266 119.417 53.5302 119.453 51.775 119.453L51.5563 118.031ZM73.8225 111.656C73.8173 112.526 73.9605 113.372 74.2522 114.195C74.5439 115.018 74.9657 115.75 75.5178 116.391C76.0699 117.031 76.7183 117.51 77.4631 117.828L76.4319 119.219C75.635 118.849 74.9397 118.31 74.3459 117.602C73.7574 116.893 73.2965 116.068 72.9631 115.125C72.6298 116.146 72.1584 117.042 71.5491 117.812C70.9449 118.578 70.2235 119.156 69.385 119.547L68.3225 118.094C69.0881 117.766 69.7522 117.271 70.3147 116.609C70.8824 115.943 71.3147 115.18 71.6116 114.32C71.9084 113.456 72.0569 112.568 72.0569 111.656V109.406H73.8225V111.656ZM80.2288 122.406H78.4788V108.266H80.2288V122.406ZM93.1275 112.328H95.0963V113.781H93.1275V118.453H91.3619V108.266H93.1275V112.328ZM89.2838 109.344C89.2838 110.583 89.0233 111.706 88.5025 112.711C87.9817 113.711 87.2265 114.573 86.2369 115.297C85.2525 116.016 84.0598 116.578 82.6588 116.984L81.94 115.609C83.0077 115.302 83.9296 114.909 84.7056 114.43C85.4869 113.945 86.1041 113.393 86.5572 112.773C87.0103 112.154 87.2864 111.484 87.3853 110.766H82.5338V109.344H89.2838ZM93.6588 122.109H84.0494V117.406H85.815V120.703H93.6588V122.109ZM106.948 122.234H105.964V108.438H106.948V122.234ZM99.6669 109.531C100.339 109.531 100.938 109.727 101.464 110.117C101.995 110.508 102.409 111.065 102.706 111.789C103.003 112.508 103.151 113.344 103.151 114.297C103.151 115.25 103.003 116.089 102.706 116.812C102.409 117.531 101.995 118.086 101.464 118.477C100.938 118.867 100.339 119.062 99.6669 119.062C98.9898 119.062 98.3856 118.867 97.8544 118.477C97.3283 118.086 96.9169 117.531 96.62 116.812C96.3283 116.089 96.1825 115.25 96.1825 114.297C96.1825 113.344 96.3283 112.508 96.62 111.789C96.9169 111.065 97.3283 110.508 97.8544 110.117C98.3856 109.727 98.9898 109.531 99.6669 109.531ZM99.6669 110.406C99.1773 110.406 98.7398 110.57 98.3544 110.898C97.9742 111.227 97.6747 111.688 97.4559 112.281C97.2424 112.87 97.1356 113.542 97.1356 114.297C97.1356 115.057 97.2424 115.732 97.4559 116.32C97.6747 116.909 97.9742 117.367 98.3544 117.695C98.7398 118.023 99.1773 118.188 99.6669 118.188C100.156 118.188 100.591 118.026 100.972 117.703C101.352 117.375 101.649 116.917 101.862 116.328C102.076 115.734 102.183 115.057 102.183 114.297C102.183 113.542 102.076 112.87 101.862 112.281C101.649 111.688 101.352 111.227 100.972 110.898C100.591 110.57 100.156 110.406 99.6669 110.406ZM124.027 115.625H123.043V108.438H124.027V115.625ZM124.027 119.469H116.121V121.219H124.589V122.047H115.152V118.719H123.043V117.125H115.105V116.328H124.027V119.469ZM120.761 110.219H119.277V114.008C120.048 113.951 120.787 113.88 121.496 113.797L121.543 114.547C120.329 114.724 119.011 114.852 117.589 114.93C116.173 115.008 114.793 115.047 113.449 115.047H113.043L112.918 114.203L114.793 114.188V110.219H113.308V109.406H120.761V110.219ZM115.746 114.172C116.751 114.146 117.61 114.109 118.324 114.062V110.219H115.746V114.172ZM138.816 120.391H126.191V119.547H129.41V115.711C128.795 115.404 128.319 115.008 127.98 114.523C127.642 114.039 127.473 113.49 127.473 112.875C127.473 112.177 127.683 111.565 128.105 111.039C128.527 110.508 129.116 110.096 129.871 109.805C130.626 109.513 131.488 109.365 132.457 109.359C133.431 109.365 134.295 109.513 135.051 109.805C135.811 110.096 136.402 110.508 136.824 111.039C137.246 111.565 137.457 112.177 137.457 112.875C137.457 113.479 137.29 114.023 136.957 114.508C136.629 114.987 136.165 115.38 135.566 115.688V119.547H138.816V120.391ZM132.457 110.188C131.681 110.182 130.986 110.292 130.371 110.516C129.756 110.74 129.275 111.057 128.926 111.469C128.582 111.88 128.41 112.349 128.41 112.875C128.41 113.396 128.584 113.859 128.933 114.266C129.282 114.672 129.764 114.99 130.379 115.219C130.993 115.443 131.686 115.552 132.457 115.547C133.228 115.552 133.923 115.443 134.543 115.219C135.163 114.99 135.647 114.672 135.996 114.266C136.345 113.859 136.519 113.396 136.519 112.875C136.519 112.349 136.345 111.88 135.996 111.469C135.647 111.057 135.163 110.74 134.543 110.516C133.928 110.292 133.233 110.182 132.457 110.188ZM134.582 119.547V116.07C133.941 116.253 133.233 116.344 132.457 116.344C131.707 116.344 131.014 116.255 130.379 116.078V119.547H134.582ZM150.434 112.031H152.559V112.875H150.434V116.422H149.449V108.438H150.434V112.031ZM142.777 118.656H149.449V117.047H150.434V122.016H141.809V117.047H142.777V118.656ZM149.449 121.203V119.453H142.777V121.203H149.449ZM147.965 110.75H139.746V109.938H143.371V108.297H144.34V109.938H147.965V110.75ZM143.856 111.484C144.507 111.484 145.08 111.583 145.574 111.781C146.069 111.979 146.452 112.26 146.723 112.625C146.999 112.984 147.137 113.406 147.137 113.891C147.137 114.375 146.999 114.799 146.723 115.164C146.452 115.529 146.069 115.81 145.574 116.008C145.08 116.206 144.507 116.302 143.856 116.297C143.194 116.302 142.613 116.206 142.113 116.008C141.619 115.81 141.236 115.529 140.965 115.164C140.694 114.799 140.559 114.375 140.559 113.891C140.559 113.406 140.694 112.984 140.965 112.625C141.236 112.26 141.619 111.979 142.113 111.781C142.613 111.583 143.194 111.484 143.856 111.484ZM143.856 112.266C143.387 112.26 142.973 112.326 142.613 112.461C142.254 112.596 141.975 112.789 141.777 113.039C141.585 113.289 141.491 113.573 141.496 113.891C141.491 114.208 141.585 114.492 141.777 114.742C141.975 114.992 142.254 115.188 142.613 115.328C142.973 115.464 143.387 115.531 143.856 115.531C144.319 115.531 144.728 115.464 145.082 115.328C145.436 115.188 145.712 114.995 145.91 114.75C146.108 114.5 146.21 114.214 146.215 113.891C146.21 113.568 146.108 113.284 145.91 113.039C145.712 112.789 145.436 112.596 145.082 112.461C144.728 112.326 144.319 112.26 143.856 112.266ZM164.489 122.219H163.52V108.438H164.489V122.219ZM155.114 117.734H155.239C156.379 117.734 157.497 117.682 158.59 117.578C159.689 117.474 160.806 117.302 161.942 117.062L162.083 117.922C160.905 118.172 159.765 118.349 158.661 118.453C157.556 118.557 156.416 118.609 155.239 118.609H154.145V109.797H155.114V117.734ZM177.325 114H179.7V114.828H177.325V122.234H176.341V108.438H177.325V114ZM168.403 117.891C169.789 117.891 170.966 117.857 171.934 117.789C172.908 117.721 173.898 117.594 174.903 117.406L175.044 118.266C174.002 118.453 172.986 118.581 171.997 118.648C171.007 118.716 169.809 118.75 168.403 118.75H167.341V109.797H173.762V110.625H168.325V117.891H168.403ZM181.583 121.078C181.349 121.078 181.148 120.997 180.982 120.836C180.82 120.674 180.739 120.479 180.739 120.25C180.739 120.016 180.82 119.818 180.982 119.656C181.148 119.49 181.349 119.406 181.583 119.406C181.812 119.406 182.008 119.49 182.169 119.656C182.331 119.818 182.411 120.016 182.411 120.25C182.411 120.474 182.331 120.669 182.169 120.836C182.008 120.997 181.812 121.078 181.583 121.078ZM192.271 121H190.224V111.672H190.162L187.521 113.359V111.5L190.318 109.688H192.271V121ZM205.998 118.484H204.248V108.281H205.998V118.484ZM206.389 122.109H196.654V117.453H198.404V120.703H206.389V122.109ZM198.295 109.203C199.003 109.203 199.647 109.357 200.225 109.664C200.803 109.966 201.259 110.385 201.592 110.922C201.925 111.458 202.092 112.062 202.092 112.734C202.092 113.417 201.925 114.029 201.592 114.57C201.259 115.107 200.803 115.526 200.225 115.828C199.647 116.13 199.003 116.281 198.295 116.281C197.581 116.281 196.933 116.13 196.35 115.828C195.772 115.526 195.316 115.107 194.982 114.57C194.649 114.029 194.482 113.417 194.482 112.734C194.482 112.062 194.649 111.458 194.982 110.922C195.316 110.385 195.772 109.966 196.35 109.664C196.933 109.357 197.581 109.203 198.295 109.203ZM198.295 110.719C197.894 110.719 197.532 110.802 197.209 110.969C196.886 111.135 196.634 111.372 196.451 111.68C196.269 111.987 196.18 112.339 196.186 112.734C196.18 113.141 196.269 113.497 196.451 113.805C196.634 114.112 196.886 114.349 197.209 114.516C197.532 114.682 197.894 114.766 198.295 114.766C198.686 114.766 199.04 114.682 199.357 114.516C199.675 114.349 199.925 114.112 200.107 113.805C200.295 113.497 200.389 113.141 200.389 112.734C200.389 112.339 200.295 111.987 200.107 111.68C199.925 111.372 199.675 111.135 199.357 110.969C199.04 110.802 198.686 110.719 198.295 110.719ZM218.897 111.734H220.85V113.156H218.897V116.516H217.147V108.266H218.897V111.734ZM214.288 116.781C215.246 116.781 216.079 116.893 216.788 117.117C217.501 117.336 218.051 117.654 218.436 118.07C218.821 118.487 219.017 118.984 219.022 119.562C219.017 120.151 218.821 120.656 218.436 121.078C218.051 121.5 217.504 121.82 216.795 122.039C216.087 122.263 215.251 122.375 214.288 122.375C213.314 122.375 212.467 122.263 211.748 122.039C211.03 121.82 210.475 121.5 210.084 121.078C209.699 120.656 209.506 120.151 209.506 119.562C209.506 118.984 209.699 118.487 210.084 118.07C210.475 117.654 211.03 117.336 211.748 117.117C212.472 116.893 213.319 116.781 214.288 116.781ZM214.288 118.172C213.308 118.172 212.551 118.292 212.014 118.531C211.483 118.771 211.22 119.115 211.225 119.562C211.22 120.021 211.483 120.372 212.014 120.617C212.551 120.862 213.308 120.984 214.288 120.984C215.251 120.984 215.998 120.862 216.53 120.617C217.066 120.372 217.334 120.021 217.334 119.562C217.334 119.115 217.066 118.771 216.53 118.531C215.998 118.292 215.251 118.172 214.288 118.172ZM214.616 110.672H210.006V114.219C211.423 114.214 212.556 114.182 213.405 114.125C214.254 114.062 215.079 113.948 215.881 113.781L216.053 115.172C215.183 115.359 214.28 115.482 213.342 115.539C212.405 115.596 211.1 115.625 209.428 115.625H208.288V109.266H214.616V110.672ZM232.616 110.656H231.366V114.664C231.939 114.622 232.444 114.573 232.882 114.516V113.25H234.819V112.031H232.882V110.641H234.819V108.266H236.554V116.922H234.819V114.641H232.921L232.991 115.797C231.788 115.995 230.502 116.128 229.132 116.195C227.767 116.263 226.366 116.297 224.929 116.297L224.741 114.859L226.335 114.852V110.656H225.101V109.25H232.616V110.656ZM231.773 117.172C232.778 117.172 233.64 117.273 234.358 117.477C235.082 117.68 235.637 117.977 236.023 118.367C236.408 118.758 236.601 119.229 236.601 119.781C236.601 120.318 236.408 120.781 236.023 121.172C235.637 121.562 235.082 121.859 234.358 122.062C233.634 122.271 232.773 122.375 231.773 122.375C230.778 122.375 229.918 122.271 229.194 122.062C228.476 121.859 227.924 121.562 227.538 121.172C227.158 120.781 226.97 120.318 226.976 119.781C226.97 119.229 227.158 118.758 227.538 118.367C227.918 117.977 228.468 117.68 229.187 117.477C229.911 117.273 230.773 117.172 231.773 117.172ZM231.773 118.5C230.783 118.5 230.023 118.609 229.491 118.828C228.96 119.047 228.694 119.365 228.694 119.781C228.694 120.188 228.96 120.497 229.491 120.711C230.023 120.924 230.783 121.031 231.773 121.031C232.767 121.031 233.53 120.924 234.062 120.711C234.598 120.497 234.866 120.188 234.866 119.781C234.866 119.365 234.601 119.047 234.069 118.828C233.538 118.609 232.773 118.5 231.773 118.5ZM228.023 114.828C228.387 114.818 228.944 114.797 229.694 114.766V110.656H228.023V114.828ZM249.562 110.141C249.562 110.917 249.544 111.604 249.507 112.203C249.476 112.802 249.395 113.469 249.265 114.203H251.14V115.609H247.781V118.797H246.093V115.609H244.218V118.797H242.515V115.609H238.234V114.203H247.515C247.645 113.5 247.729 112.857 247.765 112.273C247.807 111.685 247.827 111.042 247.827 110.344H239.812V108.984H249.562V110.141ZM249.937 122.109H239.687V117.578H241.421V120.703H249.937V122.109ZM260.281 121H258.234V111.672H258.172L255.531 113.359V111.5L258.328 109.688H260.281V121ZM263.055 124.266H261.571L262.383 119.891H264.367L263.055 124.266ZM269.922 121.156C269.016 121.156 268.238 120.93 267.587 120.477C266.941 120.018 266.443 119.354 266.094 118.484C265.751 117.615 265.579 116.568 265.579 115.344C265.579 114.125 265.751 113.081 266.094 112.211C266.443 111.336 266.943 110.672 267.594 110.219C268.245 109.76 269.021 109.531 269.922 109.531C270.818 109.531 271.592 109.76 272.243 110.219C272.899 110.672 273.399 111.336 273.743 112.211C274.092 113.081 274.266 114.125 274.266 115.344C274.266 116.568 274.092 117.615 273.743 118.484C273.399 119.354 272.902 120.018 272.251 120.477C271.605 120.93 270.829 121.156 269.922 121.156ZM269.922 119.453C270.402 119.453 270.811 119.299 271.149 118.992C271.493 118.68 271.756 118.219 271.938 117.609C272.126 116.995 272.219 116.24 272.219 115.344C272.219 114.458 272.126 113.708 271.938 113.094C271.756 112.474 271.493 112.008 271.149 111.695C270.805 111.378 270.396 111.219 269.922 111.219C269.449 111.219 269.04 111.378 268.696 111.695C268.352 112.008 268.087 112.474 267.899 113.094C267.717 113.708 267.626 114.458 267.626 115.344C267.626 116.24 267.717 116.995 267.899 117.609C268.087 118.219 268.35 118.68 268.688 118.992C269.032 119.299 269.443 119.453 269.922 119.453ZM279.821 121.156C278.915 121.156 278.136 120.93 277.485 120.477C276.839 120.018 276.342 119.354 275.993 118.484C275.649 117.615 275.478 116.568 275.478 115.344C275.478 114.125 275.649 113.081 275.993 112.211C276.342 111.336 276.842 110.672 277.493 110.219C278.144 109.76 278.92 109.531 279.821 109.531C280.717 109.531 281.491 109.76 282.142 110.219C282.798 110.672 283.298 111.336 283.642 112.211C283.991 113.081 284.165 114.125 284.165 115.344C284.165 116.568 283.991 117.615 283.642 118.484C283.298 119.354 282.8 120.018 282.149 120.477C281.504 120.93 280.728 121.156 279.821 121.156ZM279.821 119.453C280.3 119.453 280.709 119.299 281.048 118.992C281.392 118.68 281.655 118.219 281.837 117.609C282.024 116.995 282.118 116.24 282.118 115.344C282.118 114.458 282.024 113.708 281.837 113.094C281.655 112.474 281.392 112.008 281.048 111.695C280.704 111.378 280.295 111.219 279.821 111.219C279.347 111.219 278.938 111.378 278.595 111.695C278.251 112.008 277.985 112.474 277.798 113.094C277.616 113.708 277.524 114.458 277.524 115.344C277.524 116.24 277.616 116.995 277.798 117.609C277.985 118.219 278.248 118.68 278.587 118.992C278.931 119.299 279.342 119.453 279.821 119.453ZM289.72 121.156C288.814 121.156 288.035 120.93 287.384 120.477C286.738 120.018 286.241 119.354 285.892 118.484C285.548 117.615 285.376 116.568 285.376 115.344C285.376 114.125 285.548 113.081 285.892 112.211C286.241 111.336 286.741 110.672 287.392 110.219C288.043 109.76 288.819 109.531 289.72 109.531C290.616 109.531 291.389 109.76 292.04 110.219C292.697 110.672 293.197 111.336 293.54 112.211C293.889 113.081 294.064 114.125 294.064 115.344C294.064 116.568 293.889 117.615 293.54 118.484C293.197 119.354 292.699 120.018 292.048 120.477C291.402 120.93 290.626 121.156 289.72 121.156ZM289.72 119.453C290.199 119.453 290.608 119.299 290.947 118.992C291.29 118.68 291.553 118.219 291.736 117.609C291.923 116.995 292.017 116.24 292.017 115.344C292.017 114.458 291.923 113.708 291.736 113.094C291.553 112.474 291.29 112.008 290.947 111.695C290.603 111.378 290.194 111.219 289.72 111.219C289.246 111.219 288.837 111.378 288.493 111.695C288.15 112.008 287.884 112.474 287.697 113.094C287.514 113.708 287.423 114.458 287.423 115.344C287.423 116.24 287.514 116.995 287.697 117.609C287.884 118.219 288.147 118.68 288.486 118.992C288.829 119.299 289.241 119.453 289.72 119.453ZM306.744 122.391H305.009V108.266H306.744V122.391ZM295.666 118.469C296.16 118.464 296.694 118.458 297.267 118.453C297.84 118.443 298.343 118.432 298.775 118.422V117.125C298.244 117.042 297.78 116.883 297.384 116.648C296.994 116.414 296.689 116.12 296.47 115.766C296.257 115.406 296.15 115.005 296.15 114.562C296.15 114.036 296.296 113.573 296.587 113.172C296.879 112.771 297.285 112.461 297.806 112.242C298.332 112.018 298.936 111.906 299.619 111.906C300.306 111.906 300.916 112.018 301.447 112.242C301.978 112.461 302.392 112.771 302.689 113.172C302.986 113.573 303.134 114.036 303.134 114.562C303.134 115 303.025 115.396 302.806 115.75C302.593 116.104 302.288 116.401 301.892 116.641C301.496 116.875 301.035 117.034 300.509 117.117V118.359C301.822 118.302 303.046 118.198 304.181 118.047L304.306 119.344C302.926 119.578 301.509 119.732 300.056 119.805C298.603 119.872 297.015 119.906 295.291 119.906L295.041 118.469H295.666ZM303.931 111.266H295.337V109.891H298.775V108.312H300.509V109.891H303.931V111.266ZM299.619 113.234C299.072 113.245 298.632 113.367 298.298 113.602C297.965 113.836 297.801 114.156 297.806 114.562C297.801 114.828 297.874 115.06 298.025 115.258C298.181 115.451 298.397 115.599 298.673 115.703C298.949 115.802 299.265 115.849 299.619 115.844C300.176 115.854 300.621 115.745 300.955 115.516C301.293 115.281 301.462 114.964 301.462 114.562C301.462 114.156 301.296 113.836 300.962 113.602C300.629 113.367 300.181 113.245 299.619 113.234ZM313.142 109.469C313.856 109.469 314.491 109.604 315.049 109.875C315.606 110.141 316.041 110.516 316.353 111C316.666 111.479 316.825 112.031 316.83 112.656C316.825 113.286 316.666 113.844 316.353 114.328C316.041 114.807 315.606 115.18 315.049 115.445C314.497 115.711 313.861 115.844 313.142 115.844C312.429 115.844 311.791 115.711 311.228 115.445C310.671 115.18 310.236 114.805 309.924 114.32C309.611 113.836 309.455 113.281 309.455 112.656C309.455 112.036 309.611 111.484 309.924 111C310.241 110.516 310.679 110.141 311.236 109.875C311.794 109.604 312.429 109.469 313.142 109.469ZM313.142 110.344C312.622 110.344 312.153 110.443 311.736 110.641C311.325 110.839 311.002 111.115 310.767 111.469C310.533 111.818 310.419 112.214 310.424 112.656C310.419 113.099 310.533 113.497 310.767 113.852C311.002 114.206 311.325 114.482 311.736 114.68C312.153 114.878 312.622 114.974 313.142 114.969C313.663 114.974 314.129 114.878 314.541 114.68C314.952 114.482 315.275 114.206 315.51 113.852C315.744 113.497 315.861 113.099 315.861 112.656C315.861 112.214 315.744 111.818 315.51 111.469C315.275 111.115 314.952 110.839 314.541 110.641C314.129 110.443 313.663 110.344 313.142 110.344ZM319.846 122.234H318.861V108.438H319.846V122.234ZM309.767 118.25C311.273 118.25 312.702 118.219 314.057 118.156C315.411 118.089 316.695 117.964 317.908 117.781L317.986 118.531C317.007 118.714 315.986 118.849 314.924 118.938C313.866 119.021 312.887 119.073 311.986 119.094C311.085 119.115 310.044 119.125 308.861 119.125L308.705 118.25H309.767ZM5.14062 133.094C5.14062 133.703 5.28906 134.286 5.58594 134.844C5.88802 135.396 6.29948 135.883 6.82031 136.305C7.34115 136.721 7.93229 137.042 8.59375 137.266L8.10938 138.031C7.31771 137.76 6.61979 137.354 6.01562 136.812C5.41667 136.266 4.97135 135.63 4.67969 134.906C4.39323 135.714 3.9349 136.424 3.30469 137.039C2.67448 137.654 1.94271 138.115 1.10938 138.422L0.609375 137.625C1.28125 137.396 1.88542 137.057 2.42188 136.609C2.96354 136.156 3.39062 135.628 3.70312 135.023C4.02083 134.419 4.18229 133.781 4.1875 133.109V132.312H0.9375V131.484H8.34375V132.312H5.14062V133.094ZM11.3438 134.062H13.4688V134.891H11.3438V138.797H10.3594V130.438H11.3438V134.062ZM6.95312 139.203C7.88542 139.203 8.6875 139.302 9.35938 139.5C10.0365 139.693 10.5547 139.974 10.9141 140.344C11.2734 140.714 11.4531 141.156 11.4531 141.672C11.4531 142.198 11.2734 142.648 10.9141 143.023C10.5547 143.398 10.0391 143.682 9.36719 143.875C8.69531 144.073 7.89062 144.172 6.95312 144.172C6.01562 144.172 5.20833 144.073 4.53125 143.875C3.85417 143.682 3.33333 143.398 2.96875 143.023C2.60938 142.648 2.43229 142.198 2.4375 141.672C2.43229 141.156 2.60938 140.714 2.96875 140.344C3.33333 139.974 3.85417 139.693 4.53125 139.5C5.21354 139.302 6.02083 139.203 6.95312 139.203ZM6.95312 140.016C6.23438 140.016 5.60677 140.083 5.07031 140.219C4.53385 140.354 4.11979 140.547 3.82812 140.797C3.54167 141.047 3.40104 141.339 3.40625 141.672C3.40104 142.021 3.54167 142.326 3.82812 142.586C4.11979 142.841 4.53385 143.036 5.07031 143.172C5.60677 143.307 6.23438 143.375 6.95312 143.375C7.67188 143.375 8.29688 143.307 8.82812 143.172C9.36458 143.036 9.77604 142.841 10.0625 142.586C10.3542 142.326 10.5 142.021 10.5 141.672C10.5 141.339 10.3542 141.047 10.0625 140.797C9.77604 140.547 9.36458 140.354 8.82812 140.219C8.29688 140.083 7.67188 140.016 6.95312 140.016ZM19.3988 136.625H15.5706V139.953H15.9769C16.7685 139.953 17.529 139.927 18.2581 139.875C18.9925 139.818 19.7633 139.719 20.5706 139.578L20.6488 140.406C19.7321 140.557 18.8753 140.661 18.0784 140.719C17.2816 140.771 16.4144 140.797 15.4769 140.797H14.6019V135.797H18.4613V132.844H14.5706V132.016H19.3988V136.625ZM25.8519 144.219H24.8988V130.438H25.8519V144.219ZM23.1331 143.484H22.18V138.359H20.2269V137.531H22.18V134.922H20.2269V134.109H22.18V130.719H23.1331V143.484ZM40.2194 137.703H27.61V136.906H40.2194V137.703ZM38.6256 141.781H30.1569V143.266H39.0944V144.016H29.1881V141.047H37.6413V139.719H29.1569V138.953H38.6256V141.781ZM38.5788 133.625H30.235V134.984H38.8131V135.734H29.2663V132.922H37.5944V131.641H29.2194V130.906H38.5788V133.625ZM56.0325 138.828H55.0481V136.812H51.1888V135.969H55.0481V133.922H51.3528C50.8997 135.026 50.1497 135.987 49.1028 136.805C48.0611 137.617 46.7929 138.25 45.2981 138.703L44.8763 137.906C46.0065 137.562 46.9986 137.117 47.8528 136.57C48.707 136.023 49.3841 135.393 49.8841 134.68C50.3841 133.961 50.6705 133.182 50.7434 132.344H45.5794V131.5H51.8138C51.8138 132.057 51.746 132.599 51.6106 133.125H55.0481V130.438H56.0325V138.828ZM51.5481 138.953C52.4752 138.953 53.2825 139.057 53.97 139.266C54.6575 139.469 55.1861 139.766 55.5559 140.156C55.9257 140.547 56.1106 141.01 56.1106 141.547C56.1106 142.089 55.9257 142.555 55.5559 142.945C55.1861 143.336 54.6575 143.635 53.97 143.844C53.2825 144.052 52.4752 144.156 51.5481 144.156C50.6158 144.156 49.8033 144.052 49.1106 143.844C48.4231 143.635 47.8945 143.336 47.5247 142.945C47.1549 142.555 46.97 142.089 46.97 141.547C46.97 141.01 47.1549 140.547 47.5247 140.156C47.8945 139.766 48.4231 139.469 49.1106 139.266C49.8033 139.057 50.6158 138.953 51.5481 138.953ZM51.5481 139.766C50.8242 139.766 50.1888 139.839 49.6419 139.984C49.1002 140.125 48.6809 140.331 48.3841 140.602C48.0872 140.867 47.9388 141.182 47.9388 141.547C47.9388 141.911 48.0872 142.229 48.3841 142.5C48.6809 142.771 49.1002 142.979 49.6419 143.125C50.1888 143.271 50.8242 143.344 51.5481 143.344C52.2617 143.344 52.8893 143.271 53.4309 143.125C53.9726 142.979 54.3893 142.771 54.6809 142.5C54.9778 142.229 55.1263 141.911 55.1263 141.547C55.1263 141.182 54.9778 140.867 54.6809 140.602C54.3893 140.331 53.9726 140.125 53.4309 139.984C52.8945 139.839 52.2669 139.766 51.5481 139.766ZM69.5406 138.797H68.5563V135.516H66.025V134.672H68.5563V130.438H69.5406V138.797ZM69.5406 144.016H60.6188V139.578H69.5406V144.016ZM61.5875 143.203H68.5719V140.375H61.5875V143.203ZM66.2125 132.781H58.1813V131.969H61.7125V130.297H62.6813V131.969H66.2125V132.781ZM62.1969 133.578C62.8063 133.578 63.3505 133.682 63.8297 133.891C64.3089 134.094 64.6813 134.383 64.9469 134.758C65.2177 135.128 65.3531 135.552 65.3531 136.031C65.3531 136.516 65.2177 136.943 64.9469 137.312C64.6813 137.677 64.3089 137.961 63.8297 138.164C63.3505 138.367 62.8063 138.469 62.1969 138.469C61.5823 138.469 61.0328 138.367 60.5484 138.164C60.0693 137.961 59.6943 137.677 59.4234 137.312C59.1578 136.943 59.025 136.516 59.025 136.031C59.025 135.552 59.1578 135.128 59.4234 134.758C59.6943 134.383 60.0693 134.094 60.5484 133.891C61.0328 133.682 61.5823 133.578 62.1969 133.578ZM62.1969 134.359C61.7646 134.359 61.3792 134.432 61.0406 134.578C60.7021 134.719 60.4391 134.917 60.2516 135.172C60.0641 135.427 59.9729 135.714 59.9781 136.031C59.9729 136.354 60.0641 136.643 60.2516 136.898C60.4391 137.148 60.7021 137.344 61.0406 137.484C61.3792 137.625 61.7646 137.698 62.1969 137.703C62.624 137.698 63.0068 137.625 63.3453 137.484C63.6839 137.344 63.9469 137.148 64.1344 136.898C64.3219 136.643 64.4156 136.354 64.4156 136.031C64.4156 135.714 64.3193 135.427 64.1266 135.172C63.9391 134.917 63.676 134.719 63.3375 134.578C63.0042 134.432 62.624 134.359 62.1969 134.359ZM82.4238 135.094H84.5488V135.938H82.4238V140.781H81.4394V130.438H82.4238V135.094ZM79.955 133.031H71.7363V132.203H75.3613V130.453H76.33V132.203H79.955V133.031ZM75.8456 133.875C76.4915 133.875 77.0618 133.982 77.5566 134.195C78.0566 134.404 78.442 134.701 78.7128 135.086C78.9889 135.466 79.1269 135.911 79.1269 136.422C79.1269 136.932 78.9889 137.378 78.7128 137.758C78.442 138.138 78.0566 138.432 77.5566 138.641C77.0618 138.849 76.4915 138.953 75.8456 138.953C75.1894 138.953 74.6113 138.852 74.1113 138.648C73.6165 138.44 73.231 138.146 72.955 137.766C72.6842 137.38 72.5488 136.932 72.5488 136.422C72.5488 135.911 72.6842 135.464 72.955 135.078C73.231 134.693 73.6165 134.396 74.1113 134.188C74.6113 133.979 75.1894 133.875 75.8456 133.875ZM75.8456 134.672C75.3769 134.672 74.9628 134.745 74.6034 134.891C74.2441 135.036 73.9654 135.242 73.7675 135.508C73.5748 135.773 73.481 136.078 73.4863 136.422C73.481 136.76 73.5748 137.062 73.7675 137.328C73.9654 137.589 74.2441 137.792 74.6034 137.938C74.9628 138.078 75.3769 138.146 75.8456 138.141C76.3092 138.146 76.718 138.078 77.0722 137.938C77.4264 137.792 77.7024 137.589 77.9003 137.328C78.0982 137.062 78.1998 136.76 78.205 136.422C78.1998 136.078 78.0982 135.773 77.9003 135.508C77.7024 135.242 77.4264 135.036 77.0722 134.891C76.718 134.745 76.3092 134.672 75.8456 134.672ZM83.0956 143.891H73.8925V139.938H74.8613V143.062H83.0956V143.891ZM93.2681 133.094C93.2681 133.703 93.4166 134.286 93.7134 134.844C94.0155 135.396 94.427 135.883 94.9478 136.305C95.4686 136.721 96.0598 137.042 96.7213 137.266L96.2369 138.031C95.4452 137.76 94.7473 137.354 94.1431 136.812C93.5442 136.266 93.0989 135.63 92.8072 134.906C92.5207 135.714 92.0624 136.424 91.4322 137.039C90.802 137.654 90.0702 138.115 89.2369 138.422L88.7369 137.625C89.4088 137.396 90.0129 137.057 90.5494 136.609C91.091 136.156 91.5181 135.628 91.8306 135.023C92.1483 134.419 92.3098 133.781 92.315 133.109V132.312H89.065V131.484H96.4713V132.312H93.2681V133.094ZM99.4713 134.062H101.596V134.891H99.4713V138.797H98.4869V130.438H99.4713V134.062ZM95.0806 139.203C96.0129 139.203 96.815 139.302 97.4869 139.5C98.164 139.693 98.6822 139.974 99.0416 140.344C99.4009 140.714 99.5806 141.156 99.5806 141.672C99.5806 142.198 99.4009 142.648 99.0416 143.023C98.6822 143.398 98.1666 143.682 97.4947 143.875C96.8228 144.073 96.0181 144.172 95.0806 144.172C94.1431 144.172 93.3358 144.073 92.6588 143.875C91.9817 143.682 91.4608 143.398 91.0963 143.023C90.7369 142.648 90.5598 142.198 90.565 141.672C90.5598 141.156 90.7369 140.714 91.0963 140.344C91.4608 139.974 91.9817 139.693 92.6588 139.5C93.341 139.302 94.1483 139.203 95.0806 139.203ZM95.0806 140.016C94.3619 140.016 93.7343 140.083 93.1978 140.219C92.6614 140.354 92.2473 140.547 91.9556 140.797C91.6692 141.047 91.5285 141.339 91.5338 141.672C91.5285 142.021 91.6692 142.326 91.9556 142.586C92.2473 142.841 92.6614 143.036 93.1978 143.172C93.7343 143.307 94.3619 143.375 95.0806 143.375C95.7994 143.375 96.4244 143.307 96.9556 143.172C97.4921 143.036 97.9035 142.841 98.19 142.586C98.4817 142.326 98.6275 142.021 98.6275 141.672C98.6275 141.339 98.4817 141.047 98.19 140.797C97.9035 140.547 97.4921 140.354 96.9556 140.219C96.4244 140.083 95.7994 140.016 95.0806 140.016ZM107.526 136.625H103.698V139.953H104.104C104.896 139.953 105.656 139.927 106.386 139.875C107.12 139.818 107.891 139.719 108.698 139.578L108.776 140.406C107.86 140.557 107.003 140.661 106.206 140.719C105.409 140.771 104.542 140.797 103.604 140.797H102.729V135.797H106.589V132.844H102.698V132.016H107.526V136.625ZM113.979 144.219H113.026V130.438H113.979V144.219ZM111.261 143.484H110.308V138.359H108.354V137.531H110.308V134.922H108.354V134.109H110.308V130.719H111.261V143.484ZM120.55 134.828C120.55 135.589 120.73 136.346 121.089 137.102C121.454 137.857 121.93 138.529 122.519 139.117C123.107 139.706 123.727 140.141 124.378 140.422L123.816 141.203C123.284 140.953 122.771 140.612 122.277 140.18C121.787 139.742 121.349 139.237 120.964 138.664C120.579 138.091 120.279 137.484 120.066 136.844C119.857 137.521 119.56 138.169 119.175 138.789C118.795 139.404 118.363 139.951 117.878 140.43C117.394 140.904 116.894 141.276 116.378 141.547L115.784 140.766C116.415 140.458 117.019 139.984 117.597 139.344C118.18 138.703 118.652 137.984 119.011 137.188C119.376 136.385 119.56 135.599 119.566 134.828V132.719H116.206V131.875H123.956V132.719H120.55V134.828ZM127.066 144.219H126.081V130.438H127.066V144.219ZM140.355 137.797H136.027V141.578H141.886V142.422H129.261V141.578H135.042V137.797H130.917V131.594H140.214V132.422H131.902V136.984H140.355V137.797ZM147.254 134.328C147.249 135.104 147.418 135.883 147.762 136.664C148.105 137.445 148.558 138.148 149.121 138.773C149.683 139.393 150.28 139.859 150.91 140.172L150.301 140.969C149.535 140.557 148.832 139.951 148.191 139.148C147.556 138.341 147.084 137.451 146.777 136.477C146.579 137.164 146.301 137.818 145.941 138.438C145.582 139.057 145.168 139.609 144.699 140.094C144.236 140.573 143.749 140.953 143.238 141.234L142.598 140.453C143.233 140.125 143.832 139.635 144.394 138.984C144.962 138.328 145.418 137.591 145.762 136.773C146.105 135.951 146.28 135.135 146.285 134.328V131.672H147.254V134.328ZM153.379 136.109H155.754V136.984H153.379V144.219H152.394V130.438H153.379V136.109ZM166.887 136.141H169.215V136.984H166.887V144.219H165.902V130.438H166.887V136.141ZM163.356 131.938C163.35 133.25 163.121 134.497 162.668 135.68C162.215 136.857 161.514 137.945 160.567 138.945C159.624 139.945 158.429 140.802 156.981 141.516L156.434 140.734C158.251 139.839 159.66 138.708 160.66 137.344C161.66 135.974 162.223 134.448 162.348 132.766H157.043V131.938H163.356ZM177.434 143H176.309V132.844H176.247L173.575 134.609V133.469L176.278 131.688H177.434V143ZM181.114 141.469C180.88 141.469 180.679 141.388 180.513 141.227C180.351 141.065 180.271 140.87 180.271 140.641C180.271 140.406 180.351 140.208 180.513 140.047C180.679 139.88 180.88 139.797 181.114 139.797C181.344 139.797 181.539 139.88 181.7 140.047C181.862 140.208 181.943 140.406 181.943 140.641C181.943 140.865 181.862 141.06 181.7 141.227C181.539 141.388 181.344 141.469 181.114 141.469ZM181.114 134.891C180.88 134.891 180.679 134.81 180.513 134.648C180.351 134.487 180.271 134.292 180.271 134.062C180.271 133.828 180.351 133.63 180.513 133.469C180.679 133.302 180.88 133.219 181.114 133.219C181.344 133.219 181.539 133.302 181.7 133.469C181.862 133.63 181.943 133.828 181.943 134.062C181.943 134.286 181.862 134.482 181.7 134.648C181.539 134.81 181.344 134.891 181.114 134.891ZM187.466 143H186.341V132.844H186.279L183.607 134.609V133.469L186.31 131.688H187.466V143ZM202.412 142.453H189.787V141.609H195.568V138.828H191.412V134.703H199.803V132.328H191.365V131.5H200.771V135.531H192.381V138H201.099V138.828H196.553V141.609H202.412V142.453ZM217.928 137.797H213.6V141.578H219.459V142.422H206.834V141.578H212.616V137.797H208.491V131.594H217.788V132.422H209.475V136.984H217.928V137.797ZM224.514 131.359C225.212 131.359 225.835 131.492 226.382 131.758C226.934 132.023 227.366 132.398 227.678 132.883C227.991 133.367 228.15 133.922 228.155 134.547C228.15 135.12 228.014 135.635 227.749 136.094C227.483 136.547 227.113 136.911 226.639 137.188C226.171 137.464 225.629 137.633 225.014 137.695V140.195C226.478 140.138 227.801 140.031 228.983 139.875L229.061 140.625C227.848 140.823 226.574 140.958 225.241 141.031C223.908 141.104 222.525 141.141 221.092 141.141H220.358L220.171 140.297C221.853 140.286 223.139 140.266 224.03 140.234V137.695C223.405 137.638 222.853 137.471 222.374 137.195C221.895 136.919 221.522 136.555 221.257 136.102C220.996 135.643 220.869 135.125 220.874 134.547C220.869 133.922 221.02 133.367 221.327 132.883C221.634 132.398 222.064 132.023 222.616 131.758C223.168 131.492 223.801 131.359 224.514 131.359ZM224.514 132.203C223.999 132.208 223.535 132.312 223.124 132.516C222.717 132.714 222.4 132.99 222.171 133.344C221.941 133.698 221.827 134.099 221.827 134.547C221.827 134.995 221.941 135.398 222.171 135.758C222.405 136.112 222.725 136.388 223.132 136.586C223.538 136.784 223.999 136.88 224.514 136.875C225.025 136.88 225.481 136.784 225.882 136.586C226.288 136.388 226.606 136.112 226.835 135.758C227.064 135.398 227.181 134.995 227.186 134.547C227.181 134.099 227.064 133.698 226.835 133.344C226.606 132.99 226.288 132.714 225.882 132.516C225.481 132.312 225.025 132.208 224.514 132.203ZM230.889 136.219H233.264V137.062H230.889V144.219H229.921V130.438H230.889V136.219ZM244.944 137.969H235.507V131.766H244.804V132.594H236.476V137.141H244.944V137.969ZM246.476 142.266H233.851V141.422H246.476V142.266ZM258.687 144.234H257.718V130.438H258.687V144.234ZM249.312 140.016C250.562 140.016 251.731 139.979 252.82 139.906C253.908 139.833 255.057 139.698 256.265 139.5L256.359 140.344C255.119 140.536 253.947 140.672 252.843 140.75C251.739 140.823 250.562 140.859 249.312 140.859H248.171V135.703H253.531V132.594H248.156V131.75H254.515V136.531H249.187V140.016H249.312ZM266.976 131.469C266.976 132.557 266.76 133.557 266.328 134.469H268.836V130.75H269.789V138.234H268.836V135.297H265.867C265.409 136.005 264.817 136.643 264.093 137.211C263.375 137.779 262.534 138.271 261.57 138.688L261.054 137.938C262.523 137.328 263.679 136.544 264.523 135.586C265.372 134.622 265.854 133.531 265.968 132.312H261.601V131.469H266.976ZM272.523 138.453H271.586V130.438H272.523V138.453ZM265.57 139.953C265.57 140.615 265.75 141.25 266.109 141.859C266.474 142.469 266.987 142.958 267.648 143.328C268.091 143.062 268.471 142.737 268.789 142.352C269.106 141.961 269.349 141.557 269.515 141.141C269.682 140.719 269.768 140.323 269.773 139.953V138.938H270.726V139.953C270.726 140.432 270.843 140.904 271.078 141.367C271.317 141.831 271.653 142.247 272.086 142.617C272.523 142.982 273.028 143.26 273.601 143.453L273.117 144.203C272.429 143.953 271.836 143.589 271.336 143.109C270.841 142.63 270.474 142.086 270.234 141.477C270.015 142.086 269.69 142.641 269.258 143.141C268.825 143.646 268.299 144.036 267.679 144.312C267.023 144.047 266.474 143.667 266.031 143.172C265.588 142.682 265.268 142.125 265.07 141.5C264.82 142.089 264.45 142.622 263.961 143.102C263.476 143.581 262.909 143.948 262.258 144.203L261.758 143.453C262.31 143.245 262.804 142.951 263.242 142.57C263.679 142.19 264.021 141.771 264.265 141.312C264.51 140.849 264.633 140.396 264.633 139.953V138.938H265.57V139.953ZM277 140.453H284.281V138.703H285.281V144.016H276.016V138.703H277V140.453ZM284.281 143.203V141.266H277V143.203H284.281ZM286.938 137.641H274.375V136.797H286.938V137.641ZM281.156 131.297C281.156 131.87 281.411 132.414 281.922 132.93C282.438 133.445 283.086 133.88 283.867 134.234C284.648 134.583 285.422 134.812 286.188 134.922L285.812 135.703C285.12 135.594 284.43 135.401 283.742 135.125C283.06 134.844 282.443 134.492 281.891 134.07C281.344 133.648 280.932 133.177 280.656 132.656C280.385 133.177 279.977 133.651 279.43 134.078C278.883 134.5 278.266 134.849 277.578 135.125C276.891 135.401 276.198 135.594 275.5 135.703L275.125 134.922C275.906 134.807 276.685 134.578 277.461 134.234C278.242 133.891 278.885 133.464 279.391 132.953C279.901 132.438 280.156 131.885 280.156 131.297V130.578H281.156V131.297ZM299.164 144.219H298.196V130.438H299.164V144.219ZM289.789 139.734H289.914C291.055 139.734 292.172 139.682 293.266 139.578C294.365 139.474 295.482 139.302 296.617 139.062L296.758 139.922C295.581 140.172 294.44 140.349 293.336 140.453C292.232 140.557 291.091 140.609 289.914 140.609H288.821V131.797H289.789V139.734ZM312.001 136H314.376V136.828H312.001V144.234H311.016V130.438H312.001V136ZM303.079 139.891C304.464 139.891 305.641 139.857 306.61 139.789C307.584 139.721 308.574 139.594 309.579 139.406L309.719 140.266C308.678 140.453 307.662 140.581 306.672 140.648C305.683 140.716 304.485 140.75 303.079 140.75H302.016V131.797H308.438V132.625H303.001V139.891H303.079ZM316.259 143.078C316.024 143.078 315.824 142.997 315.657 142.836C315.496 142.674 315.415 142.479 315.415 142.25C315.415 142.016 315.496 141.818 315.657 141.656C315.824 141.49 316.024 141.406 316.259 141.406C316.488 141.406 316.683 141.49 316.845 141.656C317.006 141.818 317.087 142.016 317.087 142.25C317.087 142.474 317.006 142.669 316.845 142.836C316.683 142.997 316.488 143.078 316.259 143.078Z" fill="#666666"/>
</svg>
