<svg width="313" height="149" viewBox="0 0 313 149" fill="none" xmlns="http://www.w3.org/2000/svg">
<path d="M18.8789 5.80078V15.8467H22.834V17.2705H18.8789V29.0566H17.2441V5.80078H18.8789ZM0.738281 22.9658C2.70264 22.9658 4.99658 22.9526 7.38281 22.8604V20.1182C4.57471 19.8809 2.74219 18.2856 2.76855 15.8994C2.74219 13.2891 4.93066 11.6016 8.2002 11.6016C11.4434 11.6016 13.6582 13.2891 13.6582 15.8994C13.6582 18.2725 11.8257 19.8677 9.04395 20.1182V22.8076C11.3115 22.689 13.5923 22.5044 15.7148 22.2012L15.8467 23.4932C10.7314 24.3633 5.16797 24.416 1.05469 24.416L0.738281 22.9658ZM15.2402 8.70117V10.0986H1.13379V8.70117H7.38281V5.80078H9.04395V8.70117H15.2402ZM8.2002 12.9199C5.87988 12.9199 4.32422 14.1592 4.32422 15.8994C4.32422 17.6396 5.87988 18.8262 8.2002 18.7998C10.5205 18.8262 12.0498 17.6396 12.0762 15.8994C12.0498 14.1592 10.5205 12.9199 8.2002 12.9199ZM31.4698 10.2832C31.4698 13.4473 33.9746 16.1895 37.2969 17.3232L36.4795 18.6152C33.8164 17.7056 31.6807 15.7939 30.7051 13.3418C29.7163 16.1104 27.4356 18.2461 24.667 19.2744L23.8233 17.9297C27.1983 16.7695 29.835 13.79 29.8614 10.3096V8.96484H24.377V7.56738H36.875V8.96484H31.4698V10.2832ZM41.9375 5.80078V11.918H45.5235V13.3154H41.9375V19.9072H40.2764V5.80078H41.9375ZM34.5284 20.5928C39.2745 20.5928 42.1221 22.1221 42.1221 24.7588C42.1221 27.4482 39.2745 28.9775 34.5284 28.9775C29.7823 28.9775 26.8819 27.4482 26.9082 24.7588C26.8819 22.1221 29.7823 20.5928 34.5284 20.5928ZM34.5284 21.9639C30.8633 21.9639 28.5166 23.0449 28.543 24.7588C28.5166 26.5518 30.8633 27.6328 34.5284 27.6328C38.1934 27.6328 40.5137 26.5518 40.5137 24.7588C40.5137 23.0449 38.1934 21.9639 34.5284 21.9639ZM72.5245 8.54297V9.94043H53.7247V8.54297H62.3468V5.61621H64.0079V8.54297H72.5245ZM73.8956 20.8564V22.2803H64.0079V29.083H62.3468V22.2803H52.5909V20.8564H73.8956ZM63.1642 11.417C67.8312 11.417 70.6261 12.7881 70.6261 15.2666C70.6261 17.6924 67.8312 19.0898 63.1642 19.0898C58.4972 19.0898 55.7023 17.6924 55.7286 15.2666C55.7023 12.7881 58.4972 11.417 63.1642 11.417ZM63.1642 12.709C59.6046 12.709 57.4161 13.6846 57.4425 15.2666C57.4161 16.8223 59.6046 17.7979 63.1642 17.7715C66.7238 17.7979 68.8859 16.8223 68.9122 15.2666C68.8859 13.6846 66.7238 12.709 63.1642 12.709ZM78.7873 25.3916L76.8625 32.2207H75.3068L76.7834 25.3916H78.7873ZM107.423 5.80078V29.0566H105.815V16.7959H102.255V27.8438H100.673V6.32812H102.255V15.3457H105.815V5.80078H107.423ZM94.2659 12.3398C94.2659 16.6377 96.1907 20.3818 99.4338 22.0166L98.4319 23.335C96.0325 22.0298 94.3186 19.6436 93.5012 16.6641C92.697 20.0522 90.9304 22.6494 88.4387 24.126L87.3577 22.8604C90.6799 21.041 92.6575 17.1387 92.6575 12.3398V10.0986H87.8586V8.6748H98.8274V10.0986H94.2659V12.3398ZM128.241 5.80078V15.4248H132.169V16.8486H128.241V29.0566H126.579V5.80078H128.241ZM122.282 8.33203C122.255 14.792 119.038 20.7773 111.524 24.4951L110.601 23.1768C116.797 20.1182 120.172 15.3457 120.594 9.72949H111.629V8.33203H122.282ZM157.219 5.80078V11.2852H160.831V12.709H157.219V18.958H155.558V5.80078H157.219ZM157.219 20.3027V28.7139H142.638V20.3027H157.219ZM144.246 21.6475V27.3164H155.584V21.6475H144.246ZM141.979 6.9873V15.5566H142.111C145.538 15.5566 149.045 15.293 152.948 14.502L153.159 15.9258C149.151 16.7432 145.67 16.9805 142.111 16.9805H140.291V6.9873H141.979ZM169.995 13.21C169.995 17.1914 173.185 21.2256 176.454 22.6494L175.505 23.9678C172.829 22.7153 170.271 19.9336 169.177 16.6113C168.096 20.105 165.552 23.1899 162.954 24.5479L161.953 23.2295C165.117 21.6738 168.307 17.2441 168.333 13.21V9.65039H162.664V8.22656H175.743V9.65039H169.995V13.21ZM180.99 5.80078V29.0566H179.329V5.80078H180.99ZM197.18 7.17188C200.634 7.19824 203.139 9.38672 203.166 12.5508C203.139 15.7148 200.634 17.877 197.18 17.9033C193.726 17.877 191.195 15.7148 191.195 12.5508C191.195 9.38672 193.726 7.19824 197.18 7.17188ZM197.18 8.5957C194.702 8.5957 192.83 10.3096 192.83 12.5508C192.83 14.792 194.702 16.5059 197.18 16.5059C199.659 16.5059 201.531 14.792 201.531 12.5508C201.531 10.3096 199.659 8.5957 197.18 8.5957ZM208.782 5.80078V11.1533H212.368V12.5771H208.782V17.4551H207.121V5.80078H208.782ZM194.886 20.0654V27C196.152 26.9868 198.195 26.8154 200.001 26.209L200.291 27.5537C197.918 28.3184 195.624 28.4238 194.333 28.4238H193.278V20.0654H194.886ZM211.234 20.1973V21.542H199.448V20.1973H204.563V18.0088H206.198V20.1973H211.234ZM205.354 22.4121C207.859 22.4121 209.625 23.6777 209.652 25.708C209.625 27.7119 207.859 28.9775 205.354 28.9775C202.823 28.9775 201.056 27.7119 201.083 25.708C201.056 23.6777 202.823 22.4121 205.354 22.4121ZM205.354 23.6514C203.719 23.6514 202.559 24.4951 202.559 25.708C202.559 26.9209 203.719 27.7383 205.354 27.7383C206.962 27.7383 208.123 26.9209 208.123 25.708C208.123 24.4951 206.962 23.6514 205.354 23.6514ZM232.236 13.0518V14.4492H216.416V6.64453H218.05V13.0518H232.236ZM234.714 17.8242V19.1953H213.436V17.8242H234.714ZM232.368 27.0527V28.4766H216.31V21.7266H217.945V27.0527H232.368ZM9.54492 46.0742C9.54492 48.7637 11.3115 51.5322 15.2139 52.7188L13.6055 55.3291C10.916 54.5645 9.01758 52.9165 7.93652 50.8203C6.86865 53.0879 4.95703 54.8677 2.18848 55.7246L0.553711 53.0879C4.45605 51.9277 6.19629 49.001 6.19629 46.0742V45.8896H1.37109V43.2529H6.19629V40.5898H9.59766V43.2529H14.3965V45.8896H9.54492V46.0742ZM20.9355 40.458V58.2559H17.5869V50.1611H13.6055V47.4453H17.5869V40.458H20.9355ZM21.5156 61.3145V64.0039H5.00977V56.7266H8.38477V61.3145H21.5156ZM43.7305 40.458V57.9922H40.3819V52.2969H34.8975C33.7373 53.5229 32.063 54.2744 30.2041 54.2744C26.5655 54.2744 23.7969 51.6377 23.8233 48.0781C23.7969 44.4658 26.5655 41.8555 30.2041 41.8291C32.063 41.8423 33.7242 42.5806 34.8975 43.8066H40.3819V40.458H43.7305ZM44.3106 61.3145V64.0039H27.8047V56.2256H31.1797V61.3145H44.3106ZM30.2041 44.835C28.3321 44.835 26.9873 46.0479 27.0137 48.0781C26.9873 50.082 28.3321 51.2949 30.2041 51.2949C31.9707 51.2949 33.3418 50.082 33.3418 48.0781C33.3418 46.0479 31.9707 44.835 30.2041 44.835ZM36.3477 46.4961C36.4663 46.9971 36.5323 47.5244 36.5323 48.0781C36.5323 48.6055 36.4663 49.1196 36.3477 49.6074H40.3819V46.4961H36.3477ZM73.9484 58.8623V61.5518H51.9845V58.8623H61.1603V53.4307H64.5089V58.8623H73.9484ZM64.6144 43.5166C64.6144 46.9443 67.6993 50.5566 73.1837 51.4004L71.7599 54.1953C67.5411 53.4307 64.4034 51.1763 62.8214 48.1836C61.2394 51.1631 58.128 53.4438 53.9357 54.1953L52.5118 51.4004C57.9435 50.5566 61.0021 46.918 61.0284 43.5166V41.8027H64.6144V43.5166ZM95.715 40.4316V64.4258H92.4982V52.4023H90.4679V63.3184H87.2775V56.4365L85.3791 58.9678C83.151 57.7944 81.714 55.8037 80.8703 53.3252C80.0661 56.1729 78.6422 58.48 76.3615 59.8379L74.2785 57.2539C77.9171 55.1973 79.1564 50.9521 79.1564 46.3643V45.5996H75.0959V42.9102H86.091V45.5996H82.4259V46.3643C82.4259 50.5435 83.6652 54.5249 87.2775 56.3838V40.7744H90.4679V49.6602H92.4982V40.4316H95.715ZM109.809 42.4092V53.9316H98.2863V42.4092H109.809ZM101.609 45.0986V51.2949H106.487V45.0986H101.609ZM116.612 40.4316V47.3398H119.855V50.1084H116.612V57.9395H113.237V40.4316H116.612ZM117.482 61.3145V64.0039H101.055V56.2256H104.404V61.3145H117.482ZM134.885 45.8633C134.859 50.1611 136.704 54.5117 140.554 56.3574L138.524 59.0469C135.953 57.7812 134.226 55.4082 133.224 52.5078C132.182 55.6191 130.324 58.1636 127.608 59.4951L125.525 56.7793C129.585 54.9072 131.51 50.3193 131.51 45.8633V42.2773H134.885V45.8633ZM144.984 40.4316V49.6865H148.517V52.5342H144.984V64.4258H141.609V40.4316H144.984ZM170.732 51.7959V54.4854H148.847V51.7959H153.778V48.9219C152.024 48.144 151.035 46.9575 151.035 45.415C151.035 42.5146 154.437 40.7744 159.789 40.7744C165.089 40.7744 168.491 42.5146 168.517 45.415C168.504 46.9707 167.475 48.1836 165.696 48.9482V51.7959H170.732ZM159.763 55.751C164.957 55.751 168.095 57.2803 168.121 60.0488C168.095 62.8701 164.957 64.3994 159.763 64.3994C154.49 64.3994 151.352 62.8701 151.352 60.0488C151.352 57.2803 154.49 55.751 159.763 55.751ZM159.763 58.2822C156.441 58.2822 154.753 58.8623 154.78 60.0488C154.753 61.2881 156.441 61.8945 159.763 61.8945C163.006 61.8945 164.72 61.2881 164.746 60.0488C164.72 58.8623 163.006 58.2822 159.763 58.2822ZM159.789 43.3584C156.388 43.3584 154.516 44.0703 154.542 45.415C154.516 46.7334 156.388 47.3926 159.789 47.3926C163.138 47.3926 165.036 46.7334 165.036 45.415C165.036 44.0703 163.138 43.3584 159.789 43.3584ZM157.179 51.7959H162.347V49.792C161.556 49.8843 160.699 49.9238 159.789 49.9238C158.853 49.9238 157.983 49.8843 157.179 49.7656V51.7959ZM190.679 40.4316V46.2061H193.922V49.001H190.679V54.4854H187.304V40.4316H190.679ZM178.313 55.4082V57.2275H187.304V55.4082H190.679V64.1621H174.964V55.4082H178.313ZM178.313 61.5254H187.304V59.8115H178.313V61.5254ZM185.88 42.541V45.1777H171.642V42.541H177.1V40.2734H180.449V42.541H185.88ZM178.761 45.8633C182.242 45.8633 184.667 47.5508 184.667 50.1084C184.667 52.666 182.242 54.3535 178.761 54.3535C175.228 54.3535 172.802 52.666 172.802 50.1084C172.802 47.5508 175.228 45.8633 178.761 45.8633ZM178.761 48.3418C177.153 48.3154 176.072 48.9746 176.098 50.1084C176.072 51.2686 177.153 51.9014 178.761 51.9014C180.369 51.9014 181.477 51.2686 181.477 50.1084C181.477 48.9746 180.369 48.3154 178.761 48.3418ZM214.608 40.4316V64.4258H211.259V40.4316H214.608ZM199.051 42.7256V55.6191C202.294 55.5796 205.775 55.2764 209.308 54.5908L209.73 57.3594C205.511 58.2295 201.556 58.5195 197.838 58.4932H195.729V42.7256H199.051ZM236.164 40.4316V49.3438H239.697V52.0859H236.164V64.4785H232.789V40.4316H236.164ZM229.44 42.6465V45.3623H221.53V55.8828C225.01 55.8433 227.884 55.6851 231.075 55.1182L231.444 57.9395C227.726 58.5723 224.456 58.6777 220.211 58.6514H218.181V42.6465H229.44ZM243.138 62.2373C241.899 62.2373 240.897 61.2354 240.923 60.0225C240.897 58.8096 241.899 57.834 243.138 57.834C244.298 57.834 245.327 58.8096 245.327 60.0225C245.327 61.2354 244.298 62.2373 243.138 62.2373Z" fill="#333333"/>
<path d="M1.10938 100V99.1875L4.9375 95.0469C6.39062 93.4688 6.98438 92.6719 7 91.6094C6.98438 90.3594 5.96875 89.5156 4.625 89.5156C3.1875 89.5156 2.26562 90.4531 2.26562 91.7812H1.20312C1.20312 89.875 2.67188 88.5312 4.65625 88.5312C6.625 88.5312 8.03125 89.875 8.03125 91.6094C8.03125 92.875 7.45312 93.8281 5.5 95.8906L2.6875 98.9219V99H8.375V100H1.10938ZM13.8206 88.6875V100H12.6956V89.8438H12.6331L9.96125 91.6094V90.4688L12.6644 88.6875H13.8206ZM26.9694 88.9688V90.2656C26.9537 91.9375 26.9537 93.9375 26.4381 96.9844L25.4225 96.8594C26.0006 94 26.0006 91.9062 26.0006 90.2656V89.7969H17.5319V88.9688H26.9694ZM28.7037 98.2812V99.125H16.1412V98.2812H28.7037ZM41.3056 87.4375V95.6875H40.3681V91.875H38.1963V95.4844H37.2588V87.7031H38.1963V91.0312H40.3681V87.4375H41.3056ZM41.3056 96.375V101.016H32.3056V96.375H41.3056ZM33.2744 97.1875V100.203H40.3525V97.1875H33.2744ZM35.4775 88.375V92.0156H31.2744V94.2344C33.1728 94.2344 34.6416 94.1328 36.3994 93.7812L36.5244 94.6094C34.6806 94.9531 33.165 95.0312 31.1963 95.0312H30.3056V91.2188H34.54V89.2031H30.2744V88.375H35.4775ZM47.6731 88.4688C49.845 88.4688 51.345 89.7656 51.3606 91.6562C51.345 93.5625 49.845 94.8438 47.6731 94.8438C45.5169 94.8438 43.9856 93.5625 43.9856 91.6562C43.9856 89.7656 45.5169 88.4688 47.6731 88.4688ZM47.6731 89.3438C46.095 89.3438 44.9388 90.3125 44.9544 91.6562C44.9388 93 46.095 93.9844 47.6731 93.9688C49.2513 93.9844 50.3919 93 50.3919 91.6562C50.3919 90.3125 49.2513 89.3438 47.6731 89.3438ZM54.3763 87.4375V101.234H53.3919V87.4375H54.3763ZM43.2356 97.25C45.8138 97.2656 49.345 97.25 52.4388 96.7812L52.5169 97.5312C49.3294 98.125 45.8919 98.125 43.3919 98.125L43.2356 97.25ZM72.83 98.5469V99.3906H60.205V98.5469H65.9863V95H61.7363V88.625H71.2206V95H66.9706V98.5469H72.83ZM62.6894 89.4375V94.2031H70.2519V89.4375H62.6894ZM86.2756 94.4375V95.25H73.7131V94.4375H86.2756ZM84.8069 91.9531V92.7969H75.3225V88.0625H84.6975V88.875H76.3069V91.9531H84.8069ZM84.9319 100.031V100.875H75.3694V96.875H76.3538V100.031H84.9319ZM95.2919 90.0938C95.2919 91.9688 96.7763 93.5938 98.745 94.2656L98.2606 95.0312C96.6825 94.4922 95.4169 93.3594 94.8388 91.9062C94.2528 93.5469 92.9013 94.8125 91.2606 95.4219L90.7606 94.625C92.7606 93.9375 94.3231 92.1719 94.3388 90.1094V89.3125H91.0888V88.4844H98.495V89.3125H95.2919V90.0938ZM101.495 87.4375V91.0625H103.62V91.8906H101.495V95.7969H100.511V87.4375H101.495ZM97.1044 96.2031C99.9169 96.2031 101.604 97.1094 101.604 98.6719C101.604 100.266 99.9169 101.172 97.1044 101.172C94.2919 101.172 92.5731 100.266 92.5888 98.6719C92.5731 97.1094 94.2919 96.2031 97.1044 96.2031ZM97.1044 97.0156C94.9325 97.0156 93.5419 97.6562 93.5575 98.6719C93.5419 99.7344 94.9325 100.375 97.1044 100.375C99.2763 100.375 100.651 99.7344 100.651 98.6719C100.651 97.6562 99.2763 97.0156 97.1044 97.0156ZM109.55 89.0156V93.625H105.722V96.9531C107.316 96.9688 108.839 96.8984 110.722 96.5781L110.8 97.4062C108.831 97.7344 107.3 97.7969 105.628 97.7969H104.753V92.7969H108.613V89.8438H104.722V89.0156H109.55ZM116.003 87.4375V101.219H115.05V87.4375H116.003ZM113.284 87.7188V100.484H112.331V95.3594H110.378V94.5312H112.331V91.9219H110.378V91.1094H112.331V87.7188H113.284ZM130.339 94.3438V95.1719H117.777V94.3438H120.98V92.2969C119.847 91.8828 119.214 91.1797 119.214 90.2344C119.214 88.625 121.043 87.7188 124.043 87.7188C127.043 87.7188 128.871 88.625 128.871 90.2344C128.871 91.1719 128.246 91.875 127.136 92.2812V94.3438H130.339ZM124.058 96.3438C127.011 96.3281 128.777 97.1875 128.777 98.75C128.777 100.312 127.011 101.188 124.058 101.188C121.074 101.188 119.308 100.312 119.308 98.75C119.308 97.1875 121.074 96.3281 124.058 96.3438ZM124.058 97.1094C121.746 97.125 120.308 97.7344 120.308 98.75C120.308 99.7812 121.746 100.391 124.058 100.391C126.339 100.391 127.793 99.7812 127.793 98.75C127.793 97.7344 126.339 97.125 124.058 97.1094ZM124.043 88.5C121.699 88.5 120.214 89.1719 120.23 90.2344C120.214 91.3125 121.699 91.9688 124.043 91.9688C126.386 91.9688 127.871 91.3125 127.871 90.2344C127.871 89.1719 126.386 88.5 124.043 88.5ZM121.964 94.3438H126.168V92.5625C125.55 92.6875 124.839 92.75 124.043 92.75C123.269 92.75 122.574 92.6875 121.964 92.5625V94.3438ZM143.848 94.1719V95H138.051V96.7656H142.285V101.016H132.848V96.7656H137.082V95H131.285V94.1719H143.848ZM142.613 87.9062V88.7188H140.394V91.8906H142.582V92.7344H132.504V91.8906H134.707V88.7188H132.488V87.9062H142.613ZM133.816 97.5625V100.203H141.332V97.5625H133.816ZM135.691 91.8906H139.41V88.7188H135.691V91.8906ZM157.356 94.7656V95.5781H144.793V94.7656H157.356ZM155.965 100.062V100.891H146.449V96.8906H147.449V100.062H155.965ZM151.059 87.9219C154.012 87.9219 155.887 88.9219 155.887 90.6406C155.887 92.3438 154.012 93.3594 151.059 93.3594C148.09 93.3594 146.231 92.3438 146.231 90.6406C146.231 88.9219 148.09 87.9219 151.059 87.9219ZM151.059 88.7344C148.746 88.75 147.231 89.4844 147.246 90.6406C147.231 91.8125 148.746 92.5312 151.059 92.5312C153.371 92.5312 154.887 91.8125 154.887 90.6406C154.887 89.4844 153.371 88.75 151.059 88.7344ZM173.028 87.9062V88.9844C173.028 90.0391 173.028 91.25 172.731 92.8281H174.606V94.2344H168.997V96.4375H173.059V101.391H171.325V97.8281H163.012V96.4375H167.262V94.2344H161.7V92.8281H170.981C171.262 91.3828 171.294 90.2812 171.294 89.2969H163.294V87.9062H173.028ZM187.333 87.2656V101.391H185.661V94.25H184.099V100.672H182.474V87.5312H184.099V92.8281H185.661V87.2656H187.333ZM177.568 88.8906V96.3438C178.786 96.3203 180.122 96.2188 181.599 95.9219L181.771 97.4375C179.864 97.7812 178.255 97.875 176.755 97.875H175.818V88.8906H177.568ZM199.553 88.4375C199.553 90.2188 201.537 92.0156 204.553 92.4062L203.865 93.8125C201.467 93.4531 199.56 92.2734 198.646 90.6719C197.717 92.2734 195.818 93.4531 193.443 93.8125L192.756 92.4062C195.74 92.0156 197.724 90.2188 197.724 88.4375V87.7188H199.553V88.4375ZM205.068 95.0312V96.4688H199.459V101.391H197.74V96.4688H192.193V95.0312H205.068ZM210.764 89.7188C210.764 91.4531 211.889 93.1719 214.107 93.9062L213.232 95.25C211.654 94.7266 210.529 93.6641 209.92 92.3438C209.287 93.7891 208.115 94.9375 206.467 95.5L205.545 94.1562C207.826 93.4062 209.014 91.5781 209.014 89.7188V89.5469H206.029V88.1562H213.701V89.5469H210.764V89.7188ZM216.842 87.2656V90.7969H218.811V92.25H216.842V95.7812H215.107V87.2656H216.842ZM216.842 96.4375V101.391H215.107V97.8281H207.436V96.4375H216.842ZM223.131 87.8906C224.959 87.875 226.397 88.9297 226.756 90.4844H229.303V87.2656H231.038V94.8438H229.303V91.8906H226.772C226.42 93.4766 224.967 94.5469 223.131 94.5469C220.959 94.5469 219.397 93.1562 219.397 91.2031C219.397 89.2812 220.959 87.875 223.131 87.8906ZM223.131 89.3438C221.913 89.3438 221.053 90.0625 221.053 91.2031C221.053 92.3281 221.913 93.0781 223.131 93.0781C224.319 93.0781 225.163 92.3281 225.178 91.2031C225.163 90.0625 224.319 89.3438 223.131 89.3438ZM223.444 95.5V97H229.303V95.5H231.038V101.219H221.725V95.5H223.444ZM223.444 99.8125H229.303V98.3438H223.444V99.8125ZM239.124 88.375C241.999 88.3906 244.124 89.875 244.124 92.125C244.124 94.375 241.999 95.8594 239.124 95.8438C236.264 95.8594 234.139 94.375 234.139 92.125C234.139 89.875 236.264 88.3906 239.124 88.375ZM239.124 89.1875C236.811 89.1875 235.061 90.4062 235.061 92.125C235.061 93.8438 236.811 95.0312 239.124 95.0312C241.436 95.0312 243.186 93.8438 243.186 92.125C243.186 90.4062 241.436 89.1875 239.124 89.1875ZM245.483 98.4844V99.3281H232.858V98.4844H245.483ZM258.991 98.6094V99.4531H246.366V98.6094H252.148V95.8281H247.991V91.7031H256.382V89.3281H247.944V88.5H257.351V92.5312H248.96V95H257.679V95.8281H253.132V98.6094H258.991ZM275.148 87.4375V101.219H274.195V87.4375H275.148ZM272.367 87.7969V100.469H271.429V93.2969H268.945V92.4688H271.429V87.7969H272.367ZM267.367 91.4219C267.351 93.8594 268.554 96.25 270.414 97.3281L269.804 98.0781C268.414 97.2344 267.375 95.6719 266.898 93.8125C266.406 95.8125 265.336 97.5078 263.914 98.3906L263.289 97.6562C265.164 96.5312 266.414 94 266.414 91.4219V89.9531H263.617V89.125H270.023V89.9531H267.367V91.4219ZM281.453 90.0625C281.453 91.9688 282.938 93.6406 284.906 94.3281L284.406 95.1094C282.836 94.5312 281.57 93.3672 280.984 91.8906C280.406 93.5234 279.07 94.7734 277.453 95.3906L276.922 94.625C278.922 93.8906 280.484 92.125 280.5 90.0781V89.2812H277.25V88.4531H284.656V89.2812H281.453V90.0625ZM287.656 87.4375V91.1719H289.781V92.0312H287.656V95.7344H286.672V87.4375H287.656ZM287.656 96.5156V101.219H286.672V97.3438H278.703V96.5156H287.656ZM298.43 92.0469V92.8594H295.555V94.9531C296.907 94.8906 298.258 94.7969 299.508 94.6562L299.571 95.4062C296.602 95.8125 293.258 95.9062 290.649 95.9062L290.492 95.0781C291.735 95.0703 293.133 95.0469 294.571 95V92.8594H291.774V88.3594H298.321V89.1875H292.774V92.0469H298.43ZM301.727 87.4531V97.7344H300.742V87.4531H301.727ZM302.211 100.062V100.891H292.914V97.0469H293.883V100.062H302.211ZM6.875 110.406C9.79688 110.406 11.875 111.812 11.875 113.953C11.875 115.984 10.0312 117.32 7.375 117.469V120.547H13.2344V121.391H0.609375V120.547H6.39062V117.469C3.74219 117.328 1.89062 115.984 1.89062 113.953C1.89062 111.812 3.96875 110.406 6.875 110.406ZM6.875 111.219C4.54688 111.219 2.82812 112.328 2.82812 113.953C2.82812 115.578 4.54688 116.688 6.875 116.688C9.20312 116.688 10.9375 115.578 10.9375 113.953C10.9375 112.328 9.20312 111.219 6.875 111.219ZM26.68 116.344V117.156H14.1175V116.344H19.9144V114.594H15.7269V110.094H25.1019V110.891H16.6956V113.766H25.1956V114.594H20.8675V116.344H26.68ZM20.3988 118.266C23.3363 118.266 25.1175 119.156 25.1175 120.719C25.1175 122.312 23.3363 123.188 20.3988 123.203C17.43 123.188 15.6488 122.312 15.6488 120.719C15.6488 119.156 17.43 118.266 20.3988 118.266ZM20.3988 119.047C18.0863 119.062 16.6488 119.688 16.6488 120.719C16.6488 121.766 18.0863 122.391 20.3988 122.391C22.68 122.391 24.1331 121.766 24.1331 120.719C24.1331 119.688 22.68 119.062 20.3988 119.047ZM40.5631 115.031V115.875H38.235V123.219H37.2506V109.438H38.235V115.031H40.5631ZM29.2038 110.797V118.828H29.2975C31.3756 118.844 33.4538 118.688 35.7975 118.188L35.9225 119.047C33.5319 119.531 31.4225 119.672 29.2975 119.672H28.235V110.797H29.2038ZM53.7275 117.547V118.375H47.8681V123.203H46.915V118.375H41.1181V117.547H53.7275ZM52.0556 110.219V115.531H42.79V110.219H52.0556ZM43.7588 111.047V114.75H51.0869V111.047H43.7588ZM56.6575 121.047L55.5169 125.094H54.595L55.47 121.047H56.6575ZM68.7675 110.672V111.953H72.2206V109.438H73.205V119.516H72.2206V115.734H68.7675V117H62.5175V110.672H68.7675ZM63.4863 111.484V116.203H67.7988V111.484H63.4863ZM73.5331 122.062V122.891H64.3769V118.625H65.3613V122.062H73.5331ZM68.7675 114.891H72.2206V112.797H68.7675V114.891ZM83.0025 110.688V122H81.8775V111.844H81.815L79.1431 113.609V112.469L81.8463 110.688H83.0025ZM89.3856 122.156C86.9638 122.156 85.5575 120.016 85.5575 116.344C85.5575 112.688 86.9794 110.531 89.3856 110.531C91.7763 110.531 93.1981 112.688 93.1981 116.344C93.1981 120.016 91.7919 122.156 89.3856 122.156ZM89.3856 121.156C91.1044 121.156 92.12 119.406 92.12 116.344C92.12 113.281 91.0888 111.516 89.3856 111.516C87.6669 111.516 86.6513 113.281 86.6513 116.344C86.6513 119.406 87.6669 121.156 89.3856 121.156ZM98.3938 122.156C95.9719 122.156 94.5656 120.016 94.5656 116.344C94.5656 112.688 95.9875 110.531 98.3938 110.531C100.784 110.531 102.206 112.688 102.206 116.344C102.206 120.016 100.8 122.156 98.3938 122.156ZM98.3938 121.156C100.113 121.156 101.128 119.406 101.128 116.344C101.128 113.281 100.097 111.516 98.3938 111.516C96.675 111.516 95.6594 113.281 95.6594 116.344C95.6594 119.406 96.675 121.156 98.3938 121.156ZM106.043 115.75C104.683 115.766 103.871 114.719 103.886 113.125C103.871 111.562 104.714 110.516 106.043 110.516C107.402 110.516 108.183 111.562 108.183 113.125C108.183 114.719 107.371 115.766 106.043 115.75ZM106.043 114.969C106.824 114.969 107.261 114.266 107.261 113.125C107.261 112.016 106.839 111.297 106.043 111.312C105.261 111.328 104.808 112.016 104.808 113.125C104.808 114.266 105.246 114.969 106.043 114.969ZM112.636 122.156C111.277 122.156 110.48 121.125 110.48 119.531C110.48 117.969 111.308 116.922 112.636 116.922C113.98 116.922 114.777 117.969 114.777 119.531C114.777 121.125 113.964 122.156 112.636 122.156ZM112.636 121.359C113.418 121.359 113.855 120.656 113.855 119.531C113.855 118.422 113.433 117.703 112.636 117.719C111.855 117.719 111.402 118.422 111.402 119.531C111.402 120.656 111.839 121.359 112.636 121.359ZM104.886 122L112.668 110.688H113.683L105.918 122H104.886ZM126.559 110.781C126.559 112.828 129.371 114.469 131.637 114.812L131.231 115.625C129.199 115.258 126.918 114.055 126.059 112.281C125.199 114.07 122.918 115.25 120.887 115.625L120.465 114.812C122.746 114.469 125.543 112.875 125.543 110.781V109.953H126.559V110.781ZM132.324 117.281V118.125H126.496V123.219H125.543V118.125H119.762V117.281H132.324ZM137.786 110.469C139.958 110.469 141.458 111.766 141.473 113.656C141.458 115.562 139.958 116.844 137.786 116.844C135.629 116.844 134.098 115.562 134.098 113.656C134.098 111.766 135.629 110.469 137.786 110.469ZM137.786 111.344C136.208 111.344 135.051 112.312 135.067 113.656C135.051 115 136.208 115.984 137.786 115.969C139.364 115.984 140.504 115 140.504 113.656C140.504 112.312 139.364 111.344 137.786 111.344ZM144.489 109.438V123.234H143.504V109.438H144.489ZM133.348 119.25C135.926 119.266 139.458 119.25 142.551 118.781L142.629 119.531C139.442 120.125 136.004 120.125 133.504 120.125L133.348 119.25ZM148.794 121.047L147.653 125.094H146.731L147.606 121.047H148.794ZM164.716 109.438V113.141H166.841V113.969H164.716V117.734H163.732V109.438H164.716ZM160.326 118.016C163.122 118.016 164.826 118.969 164.826 120.594C164.826 122.234 163.122 123.172 160.326 123.172C157.513 123.172 155.794 122.234 155.81 120.594C155.794 118.969 157.513 118.016 160.326 118.016ZM160.326 118.844C158.154 118.828 156.763 119.516 156.763 120.594C156.763 121.672 158.154 122.359 160.326 122.359C162.482 122.359 163.888 121.672 163.888 120.594C163.888 119.516 162.482 118.828 160.326 118.844ZM155.701 115.656C158.513 115.656 160.169 115.578 162.107 115.188L162.232 116.016C160.216 116.406 158.544 116.484 155.701 116.484H154.654V110.531H160.763V111.359H155.622V115.656H155.701ZM171.381 109.969C173.443 109.984 174.912 111.219 174.928 113C174.912 114.797 173.443 116.016 171.381 116.016C169.318 116.016 167.834 114.797 167.849 113C167.834 111.219 169.318 109.984 171.381 109.969ZM171.381 110.812C169.896 110.812 168.803 111.734 168.818 113C168.803 114.266 169.896 115.188 171.381 115.188C172.865 115.188 173.974 114.266 173.974 113C173.974 111.734 172.865 110.812 171.381 110.812ZM178.818 109.438V116.562H177.834V109.438H178.818ZM178.818 117.266V120.453H170.943V122.203H179.349V123.016H169.99V119.688H177.849V118.078H169.943V117.266H178.818ZM191.334 110.781C191.334 112.828 194.147 114.469 196.413 114.812L196.006 115.625C193.975 115.258 191.694 114.055 190.834 112.281C189.975 114.07 187.694 115.25 185.663 115.625L185.241 114.812C187.522 114.469 190.319 112.875 190.319 110.781V109.953H191.334V110.781ZM197.1 117.281V118.125H191.272V123.219H190.319V118.125H184.538V117.281H197.1ZM200.717 117.328V119.281H207.983V117.328H208.967V123.016H199.733V117.328H200.717ZM200.717 122.203H207.983V120.078H200.717V122.203ZM208.967 110.094V111.078C208.967 112.117 208.967 113.383 208.577 115.141H210.671V115.984H198.046V115.141H207.608C207.983 113.383 207.983 112.125 207.983 111.078V110.922H199.671V110.094H208.967ZM222.288 109.438V114.094H224.413V114.938H222.288V119.781H221.304V109.438H222.288ZM219.819 111.203V112.031H211.601V111.203H215.226V109.453H216.194V111.203H219.819ZM215.71 112.875C217.663 112.875 218.991 113.875 218.991 115.422C218.991 116.969 217.663 117.953 215.71 117.953C213.726 117.953 212.413 116.969 212.413 115.422C212.413 113.875 213.726 112.875 215.71 112.875ZM215.71 113.672C214.288 113.672 213.335 114.375 213.351 115.422C213.335 116.453 214.288 117.156 215.71 117.141C217.116 117.156 218.054 116.453 218.069 115.422C218.054 114.375 217.116 113.672 215.71 113.672ZM222.96 122.062V122.891H213.757V118.938H214.726V122.062H222.96ZM232.617 112.266C232.617 113.797 233.773 115.375 235.539 116.016L235.008 116.797C233.64 116.266 232.633 115.211 232.148 113.969C231.648 115.32 230.601 116.547 229.226 117.156L228.679 116.391C230.461 115.609 231.664 113.797 231.679 112.266V110.297H232.617V112.266ZM240.258 109.438V117.984H239.32V114.094H237.258V117.547H236.32V109.703H237.258V113.266H239.32V109.438H240.258ZM235.758 118.328C238.586 118.328 240.336 119.219 240.336 120.75C240.336 122.281 238.586 123.172 235.758 123.172C232.898 123.172 231.164 122.281 231.164 120.75C231.164 119.219 232.898 118.328 235.758 118.328ZM235.758 119.109C233.539 119.109 232.133 119.734 232.148 120.75C232.133 121.766 233.539 122.391 235.758 122.391C237.945 122.391 239.351 121.766 239.367 120.75C239.351 119.734 237.945 119.109 235.758 119.109ZM252.688 109.438V115.391H255.031V116.234H252.688V123.219H251.719V109.438H252.688ZM241.938 119.609C243.102 119.609 244.461 119.602 245.875 119.547V117.922C244.211 117.781 243.125 116.836 243.141 115.422C243.125 113.875 244.422 112.875 246.359 112.875C248.281 112.875 249.594 113.875 249.594 115.422C249.594 116.828 248.508 117.773 246.859 117.922V119.516C248.203 119.445 249.555 119.336 250.812 119.156L250.891 119.922C247.859 120.438 244.562 120.469 242.125 120.469L241.938 119.609ZM250.531 111.156V111.984H242.172V111.156H245.875V109.438H246.859V111.156H250.531ZM246.359 113.656C244.984 113.656 244.062 114.391 244.062 115.422C244.062 116.453 244.984 117.156 246.359 117.141C247.734 117.156 248.641 116.453 248.656 115.422C248.641 114.391 247.734 113.656 246.359 113.656ZM268.211 115.906V116.703H255.602V115.906H268.211ZM266.617 117.953V120.781H258.149V122.266H267.086V123.016H257.18V120.047H265.633V118.719H257.149V117.953H266.617ZM266.571 109.906V112.625H258.227V113.984H266.805V114.734H257.258V111.922H265.586V110.641H257.211V109.906H266.571ZM277.149 113.328C277.134 115.734 278.931 118.234 280.806 119.172L280.196 119.969C278.681 119.156 277.298 117.453 276.681 115.469C276.071 117.57 274.657 119.391 273.134 120.234L272.493 119.453C274.399 118.469 276.165 115.828 276.181 113.328V110.672H277.149V113.328ZM283.274 109.438V115.109H285.649V115.984H283.274V123.219H282.29V109.438H283.274ZM298.736 116.344V117.172H286.173V116.344H289.376V114.297C288.243 113.883 287.611 113.18 287.611 112.234C287.611 110.625 289.439 109.719 292.439 109.719C295.439 109.719 297.267 110.625 297.267 112.234C297.267 113.172 296.642 113.875 295.533 114.281V116.344H298.736ZM292.454 118.344C295.408 118.328 297.173 119.188 297.173 120.75C297.173 122.312 295.408 123.188 292.454 123.188C289.47 123.188 287.704 122.312 287.704 120.75C287.704 119.188 289.47 118.328 292.454 118.344ZM292.454 119.109C290.142 119.125 288.704 119.734 288.704 120.75C288.704 121.781 290.142 122.391 292.454 122.391C294.736 122.391 296.189 121.781 296.189 120.75C296.189 119.734 294.736 119.125 292.454 119.109ZM292.439 110.5C290.095 110.5 288.611 111.172 288.626 112.234C288.611 113.312 290.095 113.969 292.439 113.969C294.783 113.969 296.267 113.312 296.267 112.234C296.267 111.172 294.783 110.5 292.439 110.5ZM290.361 116.344H294.564V114.562C293.947 114.688 293.236 114.75 292.439 114.75C291.665 114.75 290.97 114.688 290.361 114.562V116.344ZM306.65 111.906V112.719H299.65V111.906H302.65V109.859H303.65V111.906H306.65ZM303.15 113.75C304.869 113.766 306.103 115.031 306.103 116.844C306.103 118.672 304.869 119.953 303.15 119.953C301.431 119.953 300.197 118.672 300.197 116.844C300.197 115.031 301.431 113.766 303.15 113.75ZM303.15 114.594C301.947 114.609 301.072 115.578 301.087 116.844C301.072 118.125 301.947 119.094 303.15 119.078C304.337 119.094 305.212 118.125 305.228 116.844C305.212 115.578 304.337 114.609 303.15 114.594ZM311.369 109.438V123.219H310.431V116.141H308.353V122.516H307.431V109.781H308.353V115.312H310.431V109.438H311.369ZM11.1875 131.438V137.391H13.5312V138.234H11.1875V145.219H10.2188V131.438H11.1875ZM0.4375 141.609C1.60156 141.609 2.96094 141.602 4.375 141.547V139.922C2.71094 139.781 1.625 138.836 1.64062 137.422C1.625 135.875 2.92188 134.875 4.85938 134.875C6.78125 134.875 8.09375 135.875 8.09375 137.422C8.09375 138.828 7.00781 139.773 5.35938 139.922V141.516C6.70312 141.445 8.05469 141.336 9.3125 141.156L9.39062 141.922C6.35938 142.438 3.0625 142.469 0.625 142.469L0.4375 141.609ZM9.03125 133.156V133.984H0.671875V133.156H4.375V131.438H5.35938V133.156H9.03125ZM4.85938 135.656C3.48438 135.656 2.5625 136.391 2.5625 137.422C2.5625 138.453 3.48438 139.156 4.85938 139.141C6.23438 139.156 7.14062 138.453 7.15625 137.422C7.14062 136.391 6.23438 135.656 4.85938 135.656ZM18.6488 134.094C18.6488 135.969 20.1331 137.594 22.1019 138.266L21.6175 139.031C20.0394 138.492 18.7738 137.359 18.1956 135.906C17.6097 137.547 16.2581 138.812 14.6175 139.422L14.1175 138.625C16.1175 137.938 17.68 136.172 17.6956 134.109V133.312H14.4456V132.484H21.8519V133.312H18.6488V134.094ZM24.8519 131.438V135.062H26.9769V135.891H24.8519V139.797H23.8675V131.438H24.8519ZM20.4613 140.203C23.2738 140.203 24.9613 141.109 24.9613 142.672C24.9613 144.266 23.2738 145.172 20.4613 145.172C17.6488 145.172 15.93 144.266 15.9456 142.672C15.93 141.109 17.6488 140.203 20.4613 140.203ZM20.4613 141.016C18.2894 141.016 16.8988 141.656 16.9144 142.672C16.8988 143.734 18.2894 144.375 20.4613 144.375C22.6331 144.375 24.0081 143.734 24.0081 142.672C24.0081 141.656 22.6331 141.016 20.4613 141.016ZM42.9775 133.062V133.891H31.8369V133.062H36.9463V131.328H37.9306V133.062H42.9775ZM43.79 140.359V141.203H37.9306V145.234H36.9463V141.203H31.165V140.359H43.79ZM37.4306 134.766C40.1963 134.766 41.8525 135.578 41.8525 137.047C41.8525 138.484 40.1963 139.312 37.4306 139.312C34.665 139.312 33.0088 138.484 33.0244 137.047C33.0088 135.578 34.665 134.766 37.4306 134.766ZM37.4306 135.531C35.3213 135.531 34.0244 136.109 34.04 137.047C34.0244 137.969 35.3213 138.547 37.4306 138.531C39.54 138.547 40.8213 137.969 40.8369 137.047C40.8213 136.109 39.54 135.531 37.4306 135.531ZM56.4388 131.438V145.219H55.4856V131.438H56.4388ZM53.7044 131.75V144.5H52.7513V137.734H50.7669C50.6497 140.406 49.5013 142.094 47.7981 142.094C46.0169 142.094 44.8606 140.25 44.8606 137.375C44.8606 134.484 46.0169 132.656 47.7981 132.656C49.4778 132.656 50.6184 134.281 50.7513 136.891H52.7513V131.75H53.7044ZM47.7981 133.578C46.5794 133.578 45.7825 135.094 45.7981 137.375C45.7825 139.641 46.5794 141.172 47.7981 141.172C49.0325 141.172 49.8294 139.641 49.8294 137.375C49.8294 135.094 49.0325 133.578 47.7981 133.578ZM69.275 137.984V138.797H64.9469V142.578H70.8063V143.422H58.1813V142.578H63.9625V138.797H59.8375V132.594H69.1344V133.422H60.8219V137.984H69.275ZM78.885 132.297C81.01 132.297 82.5413 134.234 82.5569 137.281C82.5413 140.359 81.01 142.281 78.885 142.281C76.7444 142.281 75.1975 140.359 75.2131 137.281C75.1975 134.234 76.7444 132.297 78.885 132.297ZM78.885 133.859C77.6975 133.859 76.885 135.125 76.885 137.281C76.885 139.453 77.6975 140.719 78.885 140.719C80.0881 140.719 80.885 139.453 80.885 137.281C80.885 135.125 80.0881 133.859 78.885 133.859ZM86.1506 131.266V136.688H88.3225V138.156H86.1506V145.391H84.4163V131.266H86.1506ZM100.346 131.266V145.406H98.5963V131.266H100.346ZM92.7369 132.297C94.8619 132.297 96.4088 134.234 96.4244 137.281C96.4088 140.359 94.8619 142.281 92.7369 142.281C90.5963 142.281 89.0494 140.359 89.0494 137.281C89.0494 134.234 90.5963 132.297 92.7369 132.297ZM92.7369 133.859C91.5338 133.859 90.7213 135.125 90.7213 137.281C90.7213 139.453 91.5338 140.719 92.7369 140.719C93.9244 140.719 94.7369 139.453 94.7369 137.281C94.7369 135.125 93.9244 133.859 92.7369 133.859ZM106.683 132.25C108.917 132.234 110.558 133.656 110.573 135.656C110.558 137.672 108.917 139.078 106.683 139.078C104.464 139.078 102.808 137.672 102.808 135.656C102.808 133.656 104.464 132.234 106.683 132.25ZM106.683 133.75C105.448 133.75 104.526 134.484 104.526 135.656C104.526 136.844 105.448 137.562 106.683 137.562C107.933 137.562 108.87 136.844 108.87 135.656C108.87 134.484 107.933 133.75 106.683 133.75ZM113.87 131.266V145.406H112.136V131.266H113.87ZM102.167 141.031C104.714 141.031 108.245 141 111.292 140.562L111.433 141.828C108.261 142.438 104.87 142.453 102.386 142.453L102.167 141.031ZM131.98 139.188V140.594H128.839V145.391H127.074V140.594H123.949V145.391H122.168V140.594H119.074V139.188H131.98ZM125.496 131.766C128.496 131.781 130.589 133 130.589 134.922C130.589 136.812 128.496 138.016 125.496 138.016C122.48 138.016 120.418 136.812 120.433 134.922C120.418 133 122.48 131.781 125.496 131.766ZM125.496 133.172C123.496 133.172 122.199 133.812 122.214 134.922C122.199 136 123.496 136.641 125.496 136.641C127.496 136.641 128.793 136 128.793 134.922C128.793 133.812 127.496 133.172 125.496 133.172ZM143.879 131.812V132.688C143.879 133.547 143.879 134.656 143.629 136.047L141.91 135.891C142.098 134.789 142.137 133.93 142.144 133.188H134.098V131.812H143.879ZM145.441 136.688V138.047H132.629V136.688H137.598V134.484H139.316V136.688H145.441ZM143.91 139.062V142.703H135.832V143.891H144.269V145.25H134.098V141.516H142.176V140.453H134.082V139.062H143.91ZM158.996 138.578V139.969H153.543V142.406H151.824V139.969H146.09V138.578H158.996ZM157.574 143.703V145.109H147.652V141.219H149.371V143.703H157.574ZM149.496 131.719V133.312H155.59V131.719H157.309V137.469H147.777V131.719H149.496ZM149.496 136.094H155.59V134.609H149.496V136.094ZM171.801 131.266V145.391H170.129V131.266H171.801ZM168.895 131.516V144.703H167.239V137.984H165.895C165.731 140.734 164.551 142.438 162.801 142.422C160.958 142.438 159.754 140.484 159.754 137.375C159.754 134.266 160.958 132.344 162.801 132.344C164.512 132.344 165.676 133.938 165.879 136.578H167.239V131.516H168.895ZM162.801 133.984C161.911 133.969 161.348 135.172 161.364 137.375C161.348 139.578 161.911 140.781 162.801 140.766C163.739 140.781 164.301 139.578 164.301 137.375C164.301 135.172 163.739 133.969 162.801 133.984ZM188.849 131.266V145.391H187.193V138.234H185.739V144.703H184.099V131.516H185.739V136.797H187.193V131.266H188.849ZM180.989 134.875C180.989 137.391 181.833 139.703 183.927 140.781L182.911 142.109C181.568 141.391 180.685 140.148 180.193 138.609C179.708 140.367 178.825 141.781 177.427 142.609L176.364 141.281C178.458 140.094 179.302 137.625 179.302 134.875V134.203H176.786V132.812H183.302V134.203H180.989V134.875ZM201.169 131.266V136.781H203.263V138.234H201.169V145.359H199.435V131.266H201.169ZM197.435 132.734C197.435 136.891 195.716 140.531 191.013 142.844L190.029 141.5C193.466 139.789 195.326 137.383 195.685 134.172H190.794V132.734H197.435ZM218.232 131.281V134.344H220.217V135.781H218.232V139.234H216.498V131.281H218.232ZM218.232 139.922V145.203H209.092V139.922H218.232ZM210.795 141.281V143.828H216.529V141.281H210.795ZM209.451 131.969V136.938C211.264 136.922 213.17 136.758 215.232 136.359L215.436 137.781C213.092 138.25 210.92 138.375 208.873 138.375H207.701V131.969H209.451ZM225.928 135.281C225.928 137.594 227.288 140.031 229.569 140.984L228.616 142.359C226.944 141.641 225.725 140.156 225.084 138.359C224.428 140.297 223.194 141.922 221.538 142.703L220.538 141.344C222.772 140.312 224.163 137.688 224.163 135.281V134.094H221.053V132.656H229.022V134.094H225.928V135.281ZM232.35 131.266V145.391H230.6V131.266H232.35ZM241.491 132C243.648 131.984 245.226 133.359 245.241 135.266C245.226 137.203 243.648 138.562 241.491 138.562C239.351 138.562 237.726 137.203 237.741 135.266C237.726 133.359 239.351 131.984 241.491 132ZM241.491 133.422C240.319 133.422 239.429 134.156 239.444 135.266C239.429 136.391 240.319 137.141 241.491 137.141C242.663 137.141 243.554 136.391 243.554 135.266C243.554 134.156 242.663 133.422 241.491 133.422ZM248.726 131.266V134.281H250.694V135.719H248.726V138.266H246.991V131.266H248.726ZM240.632 139.688V143.578C241.444 143.539 242.28 143.422 243.085 143.156L243.335 144.516C242.085 144.953 240.882 145 239.679 145H238.929V139.688H240.632ZM249.96 139.719V141.016H242.851V139.719H245.569V138.641H247.273V139.719H249.96ZM246.398 141.391C247.991 141.391 249.101 142.172 249.101 143.391C249.101 144.609 247.991 145.375 246.398 145.375C244.788 145.375 243.694 144.609 243.71 143.391C243.694 142.172 244.788 141.391 246.398 141.391ZM246.398 142.594C245.726 142.609 245.241 142.906 245.257 143.391C245.241 143.891 245.726 144.172 246.398 144.172C247.054 144.172 247.538 143.891 247.538 143.391C247.538 142.906 247.054 142.609 246.398 142.594ZM254.359 139.734V141.078H260.577V139.734H262.312V145.219H252.64V139.734H254.359ZM254.359 143.844H260.577V142.406H254.359V143.844ZM263.968 137.516V138.938H251.093V137.516H263.968ZM258.421 131.953C258.421 133.469 260.359 135.062 263.281 135.406L262.671 136.781C260.304 136.461 258.437 135.414 257.531 133.984C256.617 135.422 254.742 136.461 252.39 136.781L251.749 135.406C254.702 135.047 256.624 133.516 256.64 131.953V131.422H258.421V131.953ZM276.383 131.266V145.391H274.664V131.266H276.383ZM267.133 132.641V140.359C269.117 140.328 271.226 140.148 273.398 139.719L273.617 141.172C271.133 141.688 268.82 141.844 266.633 141.844H265.414V132.641H267.133ZM289.172 131.266V136.625H291.344V138.047H289.172V145.406H287.438V131.266H289.172ZM285.297 132.609V134.016H280.422V140.5C282.617 140.5 284.352 140.391 286.297 140.047L286.5 141.516C284.312 141.891 282.406 141.953 279.859 141.953H278.688V132.609H285.297ZM293.336 144.125C292.664 144.125 292.117 143.578 292.117 142.906C292.117 142.25 292.664 141.703 293.336 141.703C293.977 141.703 294.539 142.25 294.539 142.906C294.539 143.578 293.977 144.125 293.336 144.125Z" fill="#666666"/>
</svg>
