<svg width="187" height="33" viewBox="0 0 187 33" fill="none" xmlns="http://www.w3.org/2000/svg">
<path d="M18.9406 5.01243V9.99171H21.3301V12.0497H18.9406V17.761H16.4061V5.01243H18.9406ZM4.72101 14.0525C8.69891 12.9406 10.9503 10.8757 11.3508 8.3826H5.49449V6.3453H14.0856C14.0856 11.1588 11.0884 14.5152 5.75692 16.0276L4.72101 14.0525ZM7.36603 22.4917V16.4558H9.89366V20.482H19.5414V22.4917H7.36603ZM36.7028 5.01243V18.1133H34.2167V13.7279H31.9584V11.6837H34.2167V10.1506H31.9584V8.14779H34.2167V5.01243H36.7028ZM21.7167 13.9213C22.3037 13.9213 22.939 13.9213 23.602 13.9144V8.28591H22.1725V6.28315H31.6338V8.28591H30.1766V13.6865C30.7705 13.645 31.3506 13.5898 31.91 13.5276L32.0067 15.3439C28.6849 15.8826 24.7899 15.9586 21.9791 15.9655L21.7167 13.9213ZM24.8796 22.4917V17.1326H27.3935V20.482H37.1241V22.4917H24.8796ZM26.0191 13.8729C26.6062 13.8591 27.2001 13.8453 27.794 13.8177V8.28591H26.0191V13.8729ZM52.7109 5.04005V10.4889H55.1004V12.5331H52.7109V18.3135H50.2109V5.04005H52.7109ZM38.6018 8.86602V6.9047H42.6419V5.01243H45.1281V6.9047H49.1543V8.86602H38.6018ZM39.472 12.9406C39.4651 10.8757 41.2883 9.49447 43.885 9.49447C46.454 9.49447 48.2565 10.8757 48.2565 12.9406C48.2565 14.9848 46.454 16.3384 43.885 16.3315C41.2883 16.3384 39.4651 14.9848 39.472 12.9406ZM41.1778 22.4917V17.2845H43.664V20.482H53.3463V22.4917H41.1778ZM41.896 12.9406C41.896 13.9144 42.6902 14.4392 43.885 14.4392C45.0728 14.4392 45.8877 13.9144 45.8946 12.9406C45.8877 11.9461 45.0728 11.4006 43.885 11.3936C42.6902 11.4006 41.896 11.9461 41.896 12.9406ZM65.2488 10.3992C65.2419 13.0649 66.195 15.7928 68.7571 17.1326L67.3759 18.9627C65.7668 18.1478 64.7102 16.7113 64.0886 14.9779C63.4671 16.8633 62.4104 18.4586 60.7944 19.3702L59.3787 17.5124C61.9132 16.0552 62.887 13.1547 62.9008 10.3992V10.0608H59.9519V8.03729H62.9008V5.63398H65.2281V8.03729H68.1494V10.0608H65.2488V10.3992ZM68.9574 21.9807V5.28867H71.3124V11.8702H72.8317V5.01243H75.2143V22.8025H72.8317V13.9006H71.3124V21.9807H68.9574ZM86.174 6.26243V8.23757H80.0691V9.6395H85.6561V11.5663H80.0691V12.9959C83.1906 12.9959 85.1796 12.9613 87.424 12.5815L87.6727 14.5359C85.145 14.9503 82.8868 14.9986 79.0953 14.9917H77.5553V6.26243H86.174ZM79.2956 19.4254C79.2956 17.2914 81.6091 16.0483 85.4213 16.0483C89.1713 16.0483 91.547 17.2914 91.5539 19.4254C91.547 21.5663 89.1713 22.8025 85.4213 22.7956C81.6091 22.8025 79.2956 21.5663 79.2956 19.4254ZM81.7887 19.4254C81.7818 20.3992 83.0318 20.8964 85.4213 20.9033C87.7693 20.8964 89.0608 20.3992 89.0608 19.4254C89.0608 18.4655 87.7693 17.9613 85.4213 17.9613C83.0318 17.9613 81.7818 18.4655 81.7887 19.4254ZM88.9641 15.7997V5.04005H91.4641V15.7997H88.9641ZM104.154 7.8163C104.154 9.97099 105.411 12.0428 108.222 12.9061L106.903 14.8467C105.01 14.2251 103.698 13.0097 102.932 11.4558C102.165 13.2445 100.784 14.6533 98.7534 15.3439L97.4136 13.3895C100.376 12.395 101.647 10.0262 101.661 7.57459V5.96547H104.154V7.8163ZM99.8653 19.3494C99.8584 17.2017 102.206 15.924 105.95 15.9309C109.637 15.924 111.951 17.2017 111.951 19.3494C111.951 21.5387 109.637 22.8025 105.95 22.7956C102.206 22.8025 99.8584 21.5387 99.8653 19.3494ZM102.358 19.3494C102.351 20.3646 103.622 20.8412 105.95 20.8481C108.263 20.8412 109.492 20.3646 109.492 19.3494C109.492 18.3895 108.263 17.8715 105.95 17.8715C103.622 17.8715 102.351 18.3895 102.358 19.3494ZM109.285 15.5649V5.01243H111.785V9.1768H114.175V11.2417H111.785V15.5649H109.285ZM128.67 5.01243V9.02486H131.06V11.076H128.67V14.9986H126.17V5.01243H128.67ZM115.259 14.3356V6.13812H123.187V8.12017H117.738V12.3467C120.963 12.326 122.731 12.2017 124.713 11.8011L124.976 13.7624C122.738 14.2666 120.687 14.3425 116.744 14.3356H115.259ZM117.047 22.5815V15.7514H128.67V22.5815H117.047ZM119.506 20.6271H126.205V17.7196H119.506V20.6271Z" fill="white"/>
<path d="M1 31.8701L186.5 31.8701L170.63 16.0004" stroke="white" stroke-linecap="round" stroke-linejoin="round"/>
</svg>
