<svg width="204" height="33" viewBox="0 0 204 33" fill="none" xmlns="http://www.w3.org/2000/svg">
<path d="M21.0539 13.4517V15.4406H4.83841V13.4517H8.48482V11.3108C7.19338 10.7376 6.45443 9.84668 6.46134 8.70718C6.45443 6.5663 8.98206 5.28177 12.9323 5.27486C16.8688 5.28177 19.3895 6.5663 19.3964 8.70718C19.3895 9.8674 18.6368 10.7583 17.3108 11.3315V13.4517H21.0539ZM6.68924 19.5635C6.68924 17.5055 9.02349 16.3591 12.9116 16.366C16.7583 16.3591 19.0926 17.5055 19.1064 19.5635C19.0926 21.6492 16.7583 22.7818 12.9116 22.7749C9.02349 22.7818 6.68924 21.6492 6.68924 19.5635ZM9.05112 8.70718C9.0373 9.69475 10.4254 10.1851 12.9323 10.1851C15.4185 10.1851 16.8274 9.69475 16.8274 8.70718C16.8274 7.71271 15.4185 7.19475 12.9323 7.19475C10.4254 7.19475 9.0373 7.71271 9.05112 8.70718ZM9.23067 19.5635C9.21686 20.4613 10.453 20.924 12.9116 20.9171C15.3287 20.924 16.5995 20.4613 16.6064 19.5635C16.5995 18.6727 15.3287 18.2583 12.9116 18.2445C10.453 18.2583 9.21686 18.6727 9.23067 19.5635ZM11.0055 13.4517H14.8315V11.953C14.2445 12.029 13.6091 12.0635 12.9323 12.0635C12.2417 12.0635 11.5995 12.029 11.0055 11.953V13.4517ZM37.939 13.3481V15.3163H31.0468V16.8425H35.9915V22.6022H23.602V16.8425H28.5675V15.3163H21.7236V13.3481H37.939ZM23.1462 7.51243V5.50967H36.4819V7.51243H34.1683V10.2127H36.3644V12.2086H23.2636V10.2127H25.4528V7.51243H23.1462ZM26.0537 20.6064H33.5606V18.7693H26.0537V20.6064ZM27.939 10.2127H31.6614V7.51243H27.939V10.2127ZM52.3968 6.09668V13.576H43.7159V6.09668H52.3968ZM44.662 20.8757C48.2117 20.5856 50.0764 19.1768 50.3457 17.9268H45.3803V16.0829H50.4286V14.6119H52.9286V16.0829H57.9838V17.9268H53.0046C53.2808 19.1423 55.1385 20.5373 58.6744 20.8757L57.8388 22.761C54.8761 22.4848 52.7767 21.4144 51.6855 20.0124C50.6012 21.4282 48.488 22.471 45.5115 22.761L44.662 20.8757ZM46.1675 11.6285H49.9314V8.03729H46.1675V11.6285ZM55.1938 15.1022V5.01243H57.6662V15.1022H55.1938ZM78.7883 5.01243V22.8439H76.2676V5.01243H78.7883ZM64.7966 18.6796V6.44199H67.2897V10.7583H71.1226V6.44199H73.5742V18.6796H64.7966ZM67.2897 16.6561H71.1226V12.6989H67.2897V16.6561ZM97.0133 13.4517V15.4406H80.7978V13.4517H84.4442V11.3108C83.1528 10.7376 82.4138 9.84668 82.4207 8.70718C82.4138 6.5663 84.9414 5.28177 88.8917 5.27486C92.8282 5.28177 95.3489 6.5663 95.3558 8.70718C95.3489 9.8674 94.5961 10.7583 93.2702 11.3315V13.4517H97.0133ZM82.6486 19.5635C82.6486 17.5055 84.9829 16.3591 88.871 16.366C92.7177 16.3591 95.0519 17.5055 95.0657 19.5635C95.0519 21.6492 92.7177 22.7818 88.871 22.7749C84.9829 22.7818 82.6486 21.6492 82.6486 19.5635ZM85.0105 8.70718C84.9967 9.69475 86.3848 10.1851 88.8917 10.1851C91.3779 10.1851 92.7867 9.69475 92.7867 8.70718C92.7867 7.71271 91.3779 7.19475 88.8917 7.19475C86.3848 7.19475 84.9967 7.71271 85.0105 8.70718ZM85.19 19.5635C85.1762 20.4613 86.4124 20.924 88.871 20.9171C91.2881 20.924 92.5588 20.4613 92.5657 19.5635C92.5588 18.6727 91.2881 18.2583 88.871 18.2445C86.4124 18.2583 85.1762 18.6727 85.19 19.5635ZM86.9649 13.4517H90.7909V11.953C90.2039 12.029 89.5685 12.0635 88.8917 12.0635C88.2011 12.0635 87.5588 12.029 86.9649 11.953V13.4517ZM116.098 5.04005V10.1229H118.377V12.1671H116.098V17.1188H113.605V5.04005H116.098ZM101.692 14.8398C102.997 14.8398 104.475 14.8329 106.015 14.7914V13.7901C104.082 13.5207 102.873 12.5746 102.88 11.2072C102.873 9.56354 104.606 8.54834 107.238 8.55525C109.855 8.54834 111.582 9.56354 111.588 11.2072C111.582 12.5608 110.394 13.5 108.501 13.7831V14.7017C109.959 14.6326 111.416 14.5152 112.776 14.3494L112.956 16.0622C109.206 16.7182 105.083 16.7597 101.948 16.7666L101.692 14.8398ZM102.162 8.14779V6.3384H106.015V4.88812H108.501V6.3384H112.327V8.14779H102.162ZM103.95 19.75V17.8232H116.098V22.8025H113.605V19.75H103.95ZM105.262 11.2072C105.256 11.8564 105.974 12.2362 107.238 12.2293C108.488 12.2362 109.199 11.8564 109.206 11.2072C109.199 10.5235 108.488 10.2127 107.238 10.2127C105.974 10.2127 105.256 10.5235 105.262 11.2072ZM133.653 5.04005V17.8163H131.153V5.04005H133.653ZM119.047 10.6478C119.04 8.0442 121.181 6.16575 123.909 6.16575C126.637 6.16575 128.764 8.0442 128.764 10.6478C128.764 13.2928 126.637 15.1575 123.909 15.1575C121.181 15.1575 119.04 13.2928 119.047 10.6478ZM121.485 10.6478C121.471 12.1326 122.521 12.9889 123.909 12.9889C125.255 12.9889 126.305 12.1326 126.305 10.6478C126.305 9.20442 125.255 8.33425 123.909 8.33425C122.521 8.33425 121.471 9.20442 121.485 10.6478ZM121.74 22.4917V16.5249H124.261V20.482H134.123V22.4917H121.74ZM149.682 5.01243V11.9807H152.306V14.0318H149.682V22.8025H147.216V5.01243H149.682ZM135.566 9.66713V7.67127H139.592V5.29558H142.078V7.67127H146.015V9.66713H135.566ZM136.284 14.9019C136.277 12.4227 138.211 10.6616 140.835 10.6616C143.425 10.6616 145.366 12.4227 145.373 14.9019C145.366 17.3881 143.425 19.1354 140.835 19.1423C138.211 19.1354 136.277 17.3881 136.284 14.9019ZM138.674 14.9019C138.667 16.2831 139.578 17.105 140.835 17.0981C142.078 17.105 142.976 16.2831 142.99 14.9019C142.976 13.5414 142.078 12.6989 140.835 12.6851C139.578 12.6989 138.667 13.5414 138.674 14.9019ZM167.479 5.01243V22.8025H164.958V5.01243H167.479ZM152.603 17.768C157.189 15.5925 159.212 12.7887 159.613 8.8384H153.556V6.88398H162.154C162.147 12.2707 160.255 16.7528 153.901 19.75L152.603 17.768Z" fill="#965A23"/>
<path d="M1 31.8701L203.5 31.8701L187.63 16.0004" stroke="#965A23" stroke-linecap="round" stroke-linejoin="round"/>
</svg>
