<svg width="153" height="33" viewBox="0 0 153 33" fill="none" xmlns="http://www.w3.org/2000/svg">
<path d="M10.6257 5.75829C13.3467 5.75138 15.3218 7.29834 15.3218 9.54282C15.3218 11.7528 13.3467 13.3204 10.6257 13.3066C7.92543 13.3204 5.95029 11.7528 5.9641 9.54282C5.95029 7.29834 7.92543 5.75138 10.6257 5.75829ZM4.87294 14.3978C8.02902 14.3909 12.4903 14.3287 16.268 13.7486L16.4406 15.5856C14.9834 15.8757 13.471 16.0622 11.9931 16.1865V22.2707H9.4931V16.3384C7.93233 16.4006 6.45443 16.4144 5.17681 16.4282L4.87294 14.3978ZM8.36741 9.54282C8.36051 10.6478 9.30664 11.2901 10.6257 11.2831C12 11.2901 12.953 10.6478 12.96 9.54282C12.953 8.40331 12 7.74724 10.6257 7.75414C9.30664 7.74724 8.36051 8.40331 8.36741 9.54282ZM17.3453 22.7887V5.04005H19.8177V22.7887H17.3453ZM36.5716 5.01243V22.8025H34.0785V5.01243H36.5716ZM21.8133 17.5677C24.7415 16.2831 26.1849 13.2997 26.1918 10.5925V9.90193H22.4073V7.91989H26.178V5.41989H28.6573V7.91989H32.3589V9.90193H28.6711V10.5925C28.6711 13.1685 30.1283 16.0691 33.0841 17.2983L31.7443 19.2044C29.7208 18.3688 28.2705 16.6699 27.4625 14.6326C26.6683 16.7942 25.2111 18.6105 23.1462 19.4807L21.8133 17.5677ZM57.0239 5.04005V10.1229H59.3029V12.1671H57.0239V17.1188H54.5308V5.04005H57.0239ZM42.6178 14.8398C43.9231 14.8398 45.401 14.8329 46.941 14.7914V13.7901C45.0073 13.5207 43.7988 12.5746 43.8057 11.2072C43.7988 9.56354 45.5322 8.54834 48.1634 8.55525C50.7808 8.54834 52.5073 9.56354 52.5142 11.2072C52.5073 12.5608 51.3195 13.5 49.4272 13.7831V14.7017C50.8844 14.6326 52.3416 14.5152 53.7021 14.3494L53.8816 16.0622C50.1316 16.7182 46.0087 16.7597 42.8733 16.7666L42.6178 14.8398ZM43.0874 8.14779V6.3384H46.941V4.88812H49.4272V6.3384H53.2532V8.14779H43.0874ZM44.8761 19.75V17.8232H57.0239V22.8025H54.5308V19.75H44.8761ZM46.1883 11.2072C46.1814 11.8564 46.8996 12.2362 48.1634 12.2293C49.4134 12.2362 50.1247 11.8564 50.1316 11.2072C50.1247 10.5235 49.4134 10.2127 48.1634 10.2127C46.8996 10.2127 46.1814 10.5235 46.1883 11.2072ZM74.5789 5.04005V17.8163H72.0789V5.04005H74.5789ZM59.9726 10.6478C59.9657 8.0442 62.1066 6.16575 64.8345 6.16575C67.5624 6.16575 69.6894 8.0442 69.6894 10.6478C69.6894 13.2928 67.5624 15.1575 64.8345 15.1575C62.1066 15.1575 59.9657 13.2928 59.9726 10.6478ZM62.4104 10.6478C62.3966 12.1326 63.4463 12.9889 64.8345 12.9889C66.1812 12.9889 67.2309 12.1326 67.2309 10.6478C67.2309 9.20442 66.1812 8.33425 64.8345 8.33425C63.4463 8.33425 62.3966 9.20442 62.4104 10.6478ZM62.666 22.4917V16.5249H65.1867V20.482H75.0486V22.4917H62.666ZM90.6077 5.01243V11.9807H93.2321V14.0318H90.6077V22.8025H88.1423V5.01243H90.6077ZM76.4917 9.66713V7.67127H80.518V5.29558H83.0042V7.67127H86.9406V9.66713H76.4917ZM77.21 14.9019C77.203 12.4227 79.1368 10.6616 81.7611 10.6616C84.3508 10.6616 86.2914 12.4227 86.2984 14.9019C86.2914 17.3881 84.3508 19.1354 81.7611 19.1423C79.1368 19.1354 77.203 17.3881 77.21 14.9019ZM79.5995 14.9019C79.5926 16.2831 80.5042 17.105 81.7611 17.0981C83.0042 17.105 83.9019 16.2831 83.9158 14.9019C83.9019 13.5414 83.0042 12.6989 81.7611 12.6851C80.5042 12.6989 79.5926 13.5414 79.5995 14.9019ZM108.405 5.01243V22.8025H105.884V5.01243H108.405ZM93.5288 17.768C98.1144 15.5925 100.138 12.7887 100.538 8.8384H94.4819V6.88398H103.08C103.073 12.2707 101.181 16.7528 94.8272 19.75L93.5288 17.768Z" fill="#965A23"/>
<path d="M1 31.8701L152 31.8701L136.13 16.0004" stroke="#965A23" stroke-linecap="round" stroke-linejoin="round"/>
</svg>
