<svg width="187" height="33" viewBox="0 0 187 33" fill="none" xmlns="http://www.w3.org/2000/svg">
<path d="M14.942 6.21409V8.20304H11.3923C11.4061 10.2749 12.663 12.2776 15.4945 13.1202L14.3135 15.0677C12.3384 14.4738 10.9779 13.279 10.1906 11.7597C9.40333 13.5414 7.95996 14.9641 5.83288 15.6616L4.56907 13.6934C7.51106 12.761 8.85084 10.4613 8.87846 8.20304H5.24587V6.21409H14.942ZM7.02073 19.3425C7.01382 17.174 9.34808 15.9102 13.105 15.9171C16.8135 15.9102 19.1064 17.174 19.1064 19.3425C19.1064 21.511 16.8135 22.8025 13.105 22.7956C9.34808 22.8025 7.01382 21.511 7.02073 19.3425ZM9.51382 19.3425C9.50692 20.3577 10.7776 20.8619 13.105 20.855C15.4185 20.8619 16.6478 20.3577 16.6478 19.3425C16.6478 18.3412 15.4185 17.8508 13.105 17.8577C10.7776 17.8508 9.50692 18.3412 9.51382 19.3425ZM16.4406 15.5718V5.01243H18.9406V9.14917H21.3301V11.1796H18.9406V15.5718H16.4406ZM28.2843 6.75276V13.5622H24.6172V16.7113C26.0537 16.6768 27.4625 16.5663 29.0854 16.3108L29.2719 18.3204C27.1517 18.6934 25.4045 18.7693 23.381 18.7762H22.2208V11.6077H25.8603V8.74171H22.2001V6.75276H28.2843ZM29.1131 15.8135V13.8039H31.0468V11.3936H29.1131V9.4047H31.0468V5.3163H33.4017V21.9323H31.0468V15.8135H29.1131ZM34.7277 22.8025V5.01243H37.0827V22.8025H34.7277ZM52.97 5.70304V7.69199H49.4341C49.4894 9.47376 50.7808 11.3384 53.488 12.1188L52.3416 14.0801C50.3526 13.5069 48.9714 12.326 48.191 10.855C47.383 12.4917 45.9396 13.8384 43.8747 14.453L42.6523 12.5193C45.4493 11.6215 46.8443 9.57735 46.9203 7.69199H43.3291V5.70304H52.97ZM45.9604 16.7251V14.7569H57.7905V19.5635H48.4811V20.6892H58.3153V22.6229H45.9811V17.7403H55.3112V16.7251H45.9604ZM52.5142 10.6409V8.67265H55.3112V5.01243H57.7905V14.0732H55.3112V10.6409H52.5142ZM66.1259 10.5925C66.119 13.1202 67.4312 15.9724 70.2626 17.3052L68.8745 19.1906C66.9754 18.3273 65.6563 16.6561 64.9104 14.6809C64.1439 16.8149 62.7419 18.6174 60.7254 19.4945L59.3579 17.5677C62.2654 16.2901 63.6466 13.2583 63.6535 10.5925V9.90193H59.9795V7.91989H63.6397V5.41989H66.1466V7.91989H69.7585V9.90193H66.1259V10.5925ZM71.2295 22.8025V5.01243H73.7226V11.9254H76.3469V14.011H73.7226V22.8025H71.2295ZM94.9 5.01243V8.45856H97.2895V10.5097H94.9V13.9006H92.4V5.01243H94.9ZM80.9221 9.58425C80.9083 7.20856 82.9663 5.56492 85.7011 5.55801C88.4221 5.56492 90.4594 7.20856 90.4594 9.58425C90.4594 11.9185 88.4221 13.5967 85.7011 13.5898C82.9663 13.5967 80.9083 11.9185 80.9221 9.58425ZM83.1044 16.5318V14.6119H94.9V19.4599H85.5906V20.6409H95.411V22.6022H83.132V17.6575H92.4138V16.5318H83.1044ZM83.3461 9.58425C83.3323 10.8343 84.3268 11.6215 85.7011 11.6215C87.0547 11.6215 88.0423 10.8343 88.0492 9.58425C88.0423 8.33425 87.0547 7.58149 85.7011 7.57459C84.3268 7.58149 83.3323 8.33425 83.3461 9.58425ZM102.462 6.26934C105.176 6.26934 107.137 8.7279 107.151 12.5953C107.137 16.5041 105.176 18.9489 102.462 18.9489C99.7409 18.9489 97.7589 16.5041 97.7727 12.5953C97.7589 8.7279 99.7409 6.26934 102.462 6.26934ZM100.183 12.5953C100.176 15.2541 101.101 16.6906 102.462 16.6906C103.857 16.6906 104.755 15.2541 104.762 12.5953C104.755 9.96409 103.857 8.52072 102.462 8.52072C101.101 8.52072 100.176 9.96409 100.183 12.5953ZM109.209 22.8025V5.01243H111.702V11.7251H114.327V13.8039H111.702V22.8025H109.209ZM130.825 18.7072V20.7307H114.568V18.7072H121.426V15.413H116.288V6.15193H118.788V8.92127H126.536V6.15193H129.023V15.413H123.891V18.7072H130.825ZM118.788 13.424H126.536V10.8964H118.788V13.424ZM146.384 5.01243V22.8025H143.863V5.01243H146.384ZM131.509 17.768C136.094 15.5925 138.118 12.7887 138.518 8.8384H132.462V6.88398H141.06C141.053 12.2707 139.16 16.7528 132.807 19.75L131.509 17.768Z" fill="#965A23"/>
<path d="M1 31.8696L186.5 31.8696L170.63 15.9999" stroke="#965A23" stroke-linecap="round" stroke-linejoin="round"/>
</svg>
