<svg width="187" height="33" viewBox="0 0 187 33" fill="none" xmlns="http://www.w3.org/2000/svg">
<path d="M14.942 6.21409V8.20304H11.3923C11.4061 10.2749 12.663 12.2776 15.4945 13.1202L14.3135 15.0677C12.3384 14.4738 10.9779 13.279 10.1906 11.7597C9.40333 13.5414 7.95996 14.9641 5.83288 15.6616L4.56907 13.6934C7.51106 12.761 8.85084 10.4613 8.87846 8.20304H5.24587V6.21409H14.942ZM7.02073 19.3425C7.01382 17.174 9.34808 15.9102 13.105 15.9171C16.8135 15.9102 19.1064 17.174 19.1064 19.3425C19.1064 21.511 16.8135 22.8025 13.105 22.7956C9.34808 22.8025 7.01382 21.511 7.02073 19.3425ZM9.51382 19.3425C9.50692 20.3577 10.7776 20.8619 13.105 20.855C15.4185 20.8619 16.6478 20.3577 16.6478 19.3425C16.6478 18.3412 15.4185 17.8508 13.105 17.8577C10.7776 17.8508 9.50692 18.3412 9.51382 19.3425ZM16.4406 15.5718V5.01243H18.9406V9.14917H21.3301V11.1796H18.9406V15.5718H16.4406ZM28.2843 6.75276V13.5622H24.6172V16.7113C26.0537 16.6768 27.4625 16.5663 29.0854 16.3108L29.2719 18.3204C27.1517 18.6934 25.4045 18.7693 23.381 18.7762H22.2208V11.6077H25.8603V8.74171H22.2001V6.75276H28.2843ZM29.1131 15.8135V13.8039H31.0468V11.3936H29.1131V9.4047H31.0468V5.3163H33.4017V21.9323H31.0468V15.8135H29.1131ZM34.7277 22.8025V5.01243H37.0827V22.8025H34.7277ZM57.6938 5.01243V22.8439H55.1731V5.01243H57.6938ZM43.7021 18.6796V6.44199H46.1952V10.7583H50.028V6.44199H52.4797V18.6796H43.7021ZM46.1952 16.6561H50.028V12.6989H46.1952V16.6561ZM75.9187 13.4517V15.4406H59.7033V13.4517H63.3497V11.3108C62.0582 10.7376 61.3193 9.84668 61.3262 8.70718C61.3193 6.5663 63.8469 5.28177 67.7972 5.27486C71.7336 5.28177 74.2544 6.5663 74.2613 8.70718C74.2544 9.8674 73.5016 10.7583 72.1756 11.3315V13.4517H75.9187ZM61.5541 19.5635C61.5541 17.5055 63.8883 16.3591 67.7765 16.366C71.6231 16.3591 73.9574 17.5055 73.9712 19.5635C73.9574 21.6492 71.6231 22.7818 67.7765 22.7749C63.8883 22.7818 61.5541 21.6492 61.5541 19.5635ZM63.916 8.70718C63.9021 9.69475 65.2903 10.1851 67.7972 10.1851C70.2834 10.1851 71.6922 9.69475 71.6922 8.70718C71.6922 7.71271 70.2834 7.19475 67.7972 7.19475C65.2903 7.19475 63.9021 7.71271 63.916 8.70718ZM64.0955 19.5635C64.0817 20.4613 65.3179 20.924 67.7765 20.9171C70.1936 20.924 71.4643 20.4613 71.4712 19.5635C71.4643 18.6727 70.1936 18.2583 67.7765 18.2445C65.3179 18.2583 64.0817 18.6727 64.0955 19.5635ZM65.8704 13.4517H69.6963V11.953C69.1093 12.029 68.474 12.0635 67.7972 12.0635C67.1066 12.0635 66.4643 12.029 65.8704 11.953V13.4517ZM94.9 5.01243V8.45856H97.2895V10.5097H94.9V13.9006H92.4V5.01243H94.9ZM80.9221 9.58425C80.9083 7.20856 82.9663 5.56492 85.7011 5.55801C88.4221 5.56492 90.4594 7.20856 90.4594 9.58425C90.4594 11.9185 88.4221 13.5967 85.7011 13.5898C82.9663 13.5967 80.9083 11.9185 80.9221 9.58425ZM83.1044 16.5318V14.6119H94.9V19.4599H85.5906V20.6409H95.411V22.6022H83.132V17.6575H92.4138V16.5318H83.1044ZM83.3461 9.58425C83.3323 10.8343 84.3268 11.6215 85.7011 11.6215C87.0547 11.6215 88.0423 10.8343 88.0492 9.58425C88.0423 8.33425 87.0547 7.58149 85.7011 7.57459C84.3268 7.58149 83.3323 8.33425 83.3461 9.58425ZM102.462 6.26934C105.176 6.26934 107.137 8.7279 107.151 12.5953C107.137 16.5041 105.176 18.9489 102.462 18.9489C99.7409 18.9489 97.7589 16.5041 97.7727 12.5953C97.7589 8.7279 99.7409 6.26934 102.462 6.26934ZM100.183 12.5953C100.176 15.2541 101.101 16.6906 102.462 16.6906C103.857 16.6906 104.755 15.2541 104.762 12.5953C104.755 9.96409 103.857 8.52072 102.462 8.52072C101.101 8.52072 100.176 9.96409 100.183 12.5953ZM109.209 22.8025V5.01243H111.702V11.7251H114.327V13.8039H111.702V22.8025H109.209ZM130.825 18.7072V20.7307H114.568V18.7072H121.426V15.413H116.288V6.15193H118.788V8.92127H126.536V6.15193H129.023V15.413H123.891V18.7072H130.825ZM118.788 13.424H126.536V10.8964H118.788V13.424ZM146.384 5.01243V22.8025H143.863V5.01243H146.384ZM131.509 17.768C136.094 15.5925 138.118 12.7887 138.518 8.8384H132.462V6.88398H141.06C141.053 12.2707 139.16 16.7528 132.807 19.75L131.509 17.768Z" fill="#965A23"/>
<path d="M1 31.8696L186.5 31.8696L170.63 15.9999" stroke="#965A23" stroke-linecap="round" stroke-linejoin="round"/>
</svg>
