<svg width="187" height="33" viewBox="0 0 187 33" fill="none" xmlns="http://www.w3.org/2000/svg">
<path d="M11.7169 9.8605C11.7169 12.7403 13.2017 15.8135 16.1782 17.0497L14.8384 19.0041C12.739 18.1202 11.2956 16.3522 10.4945 14.1975C9.69338 16.5387 8.22239 18.4862 6.12294 19.4461L4.70719 17.4917C7.64918 16.1727 9.17543 12.8785 9.18233 9.8605V8.76934H5.40471V6.73204H15.4392V8.76934H11.7169V9.8605ZM17.1934 22.8025V5.01243H19.7141V22.8025H17.1934ZM36.7028 5.01243V15.3094H34.2167V11.1519H31.399V9.12155H34.2167V5.01243H36.7028ZM21.62 13.3619C24.5067 12.4365 25.8396 10.1575 25.8948 7.9268H22.3313V5.93094H31.9722V7.9268H28.4294C28.4708 9.96409 29.7346 12.0981 32.5178 13.0373L31.2885 14.9986C29.3133 14.3494 27.9598 13.058 27.1863 11.4558C26.4059 13.2307 24.9901 14.6533 22.8976 15.3232L21.62 13.3619ZM24.7553 22.6022V16.0276H36.7028V22.6022H24.7553ZM27.2484 20.6064H34.265V17.9959H27.2484V20.6064ZM56.9203 5.02624V10.1298H59.3098V12.1809H56.9203V17.9751H54.4203V5.02624H56.9203ZM42.9424 10.6823C42.9286 8.0442 45.0833 6.16575 47.8112 6.16575C50.5322 6.16575 52.6523 8.0442 52.6662 10.6823C52.6523 13.2928 50.5322 15.1989 47.8112 15.1989C45.0833 15.1989 42.9286 13.2928 42.9424 10.6823ZM45.3803 10.6823C45.3664 12.1326 46.4576 13.0235 47.8112 13.0235C49.1786 13.0235 50.2283 12.1326 50.2352 10.6823C50.2283 9.20442 49.1786 8.33425 47.8112 8.33425C46.4576 8.33425 45.3664 9.20442 45.3803 10.6823ZM45.3872 22.4917V16.6077H47.8733V20.482H57.5557V22.4917H45.3872ZM75.0278 5.01243V22.8025H72.6314V13.9075H70.9671V21.9323H68.6328V5.3232H70.9671V11.8909H72.6314V5.01243H75.0278ZM60.4146 18.4586V6.98757H62.9146V16.2831C64.3441 16.2417 65.9118 16.1174 67.6245 15.7859L67.8731 17.9337C65.5044 18.3481 63.4671 18.4655 61.6231 18.4586H60.4146ZM94.9 5.01243V8.45856H97.2895V10.5097H94.9V13.9006H92.4V5.01243H94.9ZM80.9221 9.58425C80.9083 7.20856 82.9663 5.56492 85.7011 5.55801C88.4221 5.56492 90.4594 7.20856 90.4594 9.58425C90.4594 11.9185 88.4221 13.5967 85.7011 13.5898C82.9663 13.5967 80.9083 11.9185 80.9221 9.58425ZM83.1044 16.5318V14.6119H94.9V19.4599H85.5906V20.6409H95.411V22.6022H83.132V17.6575H92.4138V16.5318H83.1044ZM83.3461 9.58425C83.3323 10.8343 84.3268 11.6215 85.7011 11.6215C87.0547 11.6215 88.0423 10.8343 88.0492 9.58425C88.0423 8.33425 87.0547 7.58149 85.7011 7.57459C84.3268 7.58149 83.3323 8.33425 83.3461 9.58425ZM102.462 6.26934C105.176 6.26934 107.137 8.7279 107.151 12.5953C107.137 16.5041 105.176 18.9489 102.462 18.9489C99.7409 18.9489 97.7589 16.5041 97.7727 12.5953C97.7589 8.7279 99.7409 6.26934 102.462 6.26934ZM100.183 12.5953C100.176 15.2541 101.101 16.6906 102.462 16.6906C103.857 16.6906 104.755 15.2541 104.762 12.5953C104.755 9.96409 103.857 8.52072 102.462 8.52072C101.101 8.52072 100.176 9.96409 100.183 12.5953ZM109.209 22.8025V5.01243H111.702V11.7251H114.327V13.8039H111.702V22.8025H109.209ZM130.825 18.7072V20.7307H114.568V18.7072H121.426V15.413H116.288V6.15193H118.788V8.92127H126.536V6.15193H129.023V15.413H123.891V18.7072H130.825ZM118.788 13.424H126.536V10.8964H118.788V13.424ZM146.384 5.01243V22.8025H143.863V5.01243H146.384ZM131.509 17.768C136.094 15.5925 138.118 12.7887 138.518 8.8384H132.462V6.88398H141.06C141.053 12.2707 139.16 16.7528 132.807 19.75L131.509 17.768Z" fill="#965A23"/>
<path d="M1 31.8701L186.5 31.8701L170.63 16.0004" stroke="#965A23" stroke-linecap="round" stroke-linejoin="round"/>
</svg>
